<svg width="372" height="97" viewBox="0 0 372 97" fill="none" xmlns="http://www.w3.org/2000/svg">
<g clip-path="url(#clip0_2005_43848)">
<path d="M48 96.5996C74.5097 96.5996 96 75.1093 96 48.5996C96 22.0899 74.5097 0.599609 48 0.599609C21.4903 0.599609 0 22.0899 0 48.5996C0 75.1093 21.4903 96.5996 48 96.5996Z" fill="url(#paint0_linear_2005_43848)"/>
<path d="M48 96.5996C74.5097 96.5996 96 75.1093 96 48.5996C96 22.0899 74.5097 0.599609 48 0.599609C21.4903 0.599609 0 22.0899 0 48.5996C0 75.1093 21.4903 96.5996 48 96.5996Z" fill="url(#paint1_radial_2005_43848)"/>
<path d="M48 3.59961C72.81 3.59961 93 23.7896 93 48.5996C93 73.4096 72.81 93.5996 48 93.5996C23.19 93.5996 3 73.4096 3 48.5996C3 23.7896 23.19 3.59961 48 3.59961ZM48 0.599609C21.48 0.599609 0 22.0796 0 48.5996C0 75.1196 21.48 96.5996 48 96.5996C74.52 96.5996 96 75.1196 96 48.5996C96 22.0796 74.52 0.599609 48 0.599609Z" fill="url(#paint2_linear_2005_43848)"/>
<path d="M60 78.5996V72.5996H36V78.5996H60Z" fill="#272B38" fill-opacity="0.45"/>
<path d="M66 66.5996H60V72.5996H66V66.5996Z" fill="#272B38" fill-opacity="0.45"/>
<path d="M36 66.5996H30V72.5996H36V66.5996Z" fill="#272B38" fill-opacity="0.45"/>
<path d="M72 60.5996H66V66.5996H72V60.5996Z" fill="#272B38" fill-opacity="0.45"/>
<path d="M72 36.5996H66V42.5996H72V36.5996Z" fill="#272B38" fill-opacity="0.45"/>
<path d="M24 42.5996H18V48.5996H24V54.5996H18V60.5996H24V66.5996H30V60.5996H54V54.5996H30V48.5996H60V42.5996H30V36.5996H24V42.5996Z" fill="#272B38" fill-opacity="0.45"/>
<path d="M66 30.5996H60V36.5996H66V30.5996Z" fill="#272B38" fill-opacity="0.45"/>
<path d="M36 30.5996H30V36.5996H36V30.5996Z" fill="#272B38" fill-opacity="0.45"/>
<path d="M36 24.5996V30.5996H60V24.5996H36Z" fill="#272B38" fill-opacity="0.45"/>
<path d="M60 75.5996V69.5996H36V75.5996H60Z" fill="url(#paint3_linear_2005_43848)"/>
<path d="M66 63.5996H60V69.5996H66V63.5996Z" fill="url(#paint4_linear_2005_43848)"/>
<path d="M36 63.5996H30V69.5996H36V63.5996Z" fill="url(#paint5_linear_2005_43848)"/>
<path d="M72 57.5996H66V63.5996H72V57.5996Z" fill="url(#paint6_linear_2005_43848)"/>
<path d="M72 33.5996H66V39.5996H72V33.5996Z" fill="url(#paint7_linear_2005_43848)"/>
<path d="M24 39.5996H18V45.5996H24V51.5996H18V57.5996H24V63.5996H30V57.5996H54V51.5996H30V45.5996H60V39.5996H30V33.5996H24V39.5996Z" fill="url(#paint8_linear_2005_43848)"/>
<path d="M66 27.5996H60V33.5996H66V27.5996Z" fill="url(#paint9_linear_2005_43848)"/>
<path d="M36 27.5996H30V33.5996H36V27.5996Z" fill="url(#paint10_linear_2005_43848)"/>
<path d="M36 21.5996V27.5996H60V21.5996H36Z" fill="url(#paint11_linear_2005_43848)"/>
</g>
<path d="M156.064 75.1492H145.714V70.3492H145.564C145.114 71.0092 144.514 71.6692 143.794 72.3292C143.074 72.9892 142.234 73.6192 141.244 74.1592C140.254 74.6992 139.204 75.1492 138.004 75.5092C136.834 75.8692 135.604 76.0492 134.374 76.0492C131.674 76.0492 129.214 75.5992 127.024 74.6692C124.834 73.7392 122.944 72.4492 121.354 70.7692C119.764 69.0892 118.564 67.1092 117.724 64.7992C116.884 62.4892 116.464 59.9692 116.464 57.2092C116.464 54.6592 116.854 52.2292 117.634 49.8892C118.414 47.5792 119.494 45.5092 120.934 43.7092C122.374 41.9092 124.084 40.4692 126.154 39.3892C128.194 38.3092 130.534 37.7692 133.114 37.7692C135.454 37.7692 137.644 38.1292 139.684 38.8492C141.724 39.5692 143.374 40.7992 144.664 42.5692H144.814V22.0192H156.064V75.1492ZM145.714 56.9392C145.714 54.1792 144.934 51.9592 143.344 50.2492C141.784 48.5392 139.564 47.6992 136.714 47.6992C133.864 47.6992 131.644 48.5392 130.084 50.2492C128.524 51.9592 127.714 54.1792 127.714 56.9392C127.714 59.6992 128.494 61.9192 130.084 63.5992C131.644 65.3092 133.864 66.1492 136.714 66.1492C139.564 66.1492 141.784 65.3092 143.344 63.5992C144.904 61.8892 145.714 59.6692 145.714 56.9392Z" fill="#272B38"/>
<path d="M167.294 22.0492H203.354V32.8492H178.994V42.7492H202.004V53.5492H178.994V64.3492H204.704V75.1492H167.294V22.0492Z" fill="#272B38"/>
<path d="M258.044 54.6892C258.044 57.8392 257.564 60.7492 256.604 63.3892C255.644 66.0292 254.234 68.3392 252.374 70.2892C250.514 72.2392 248.174 73.7692 245.354 74.8492C242.564 75.9592 239.324 76.4992 235.664 76.4992C232.004 76.4992 228.704 75.9592 225.914 74.8492C223.124 73.7392 220.784 72.2092 218.894 70.2892C217.004 68.3692 215.594 66.0292 214.664 63.3892C213.704 60.7492 213.224 57.8392 213.224 54.6892V22.0492H224.924V54.2092C224.924 55.8592 225.194 57.3892 225.704 58.7992C226.244 60.2092 226.964 61.4092 227.924 62.4292C228.884 63.4492 230.024 64.2592 231.344 64.8292C232.664 65.3992 234.104 65.6992 235.664 65.6992C237.224 65.6992 238.634 65.3992 239.954 64.8292C241.244 64.2592 242.384 63.4492 243.314 62.4292C244.274 61.4092 244.994 60.1792 245.534 58.7992C246.044 57.3892 246.314 55.8592 246.314 54.2092V22.0492H258.014V54.6892H258.044Z" fill="#272B38"/>
<path d="M268.244 22.0492H288.794C291.494 22.0492 294.044 22.3192 296.474 22.8292C298.904 23.3692 301.034 24.2392 302.834 25.4692C304.664 26.6992 306.104 28.3492 307.184 30.4192C308.264 32.4892 308.804 35.0692 308.804 38.1892C308.804 41.9392 307.814 45.1192 305.864 47.7592C303.914 50.3992 301.064 52.0492 297.314 52.7392L310.814 75.1792H296.804L285.704 53.9692H279.944V75.1792H268.244V22.0492ZM279.944 44.0392H286.844C287.894 44.0392 289.004 44.0092 290.174 43.9192C291.344 43.8592 292.424 43.6192 293.354 43.2592C294.284 42.8992 295.094 42.2992 295.724 41.4892C296.354 40.6792 296.654 39.5692 296.654 38.1292C296.654 36.7792 296.384 35.6992 295.844 34.9192C295.304 34.1092 294.584 33.5092 293.744 33.0892C292.904 32.6692 291.914 32.3692 290.834 32.2192C289.724 32.0692 288.644 32.0092 287.594 32.0092H279.944V44.0692V44.0392Z" fill="#272B38"/>
<path d="M314.414 48.5992C314.414 44.3392 315.134 40.4992 316.544 37.0492C317.984 33.5992 319.964 30.6592 322.514 28.2292C325.064 25.7992 328.094 23.9392 331.604 22.6492C335.114 21.3592 338.924 20.6992 343.064 20.6992C347.204 20.6992 351.044 21.3592 354.554 22.6492C358.064 23.9392 361.064 25.7992 363.614 28.2292C366.164 30.6592 368.144 33.5992 369.584 37.0492C371.024 40.4992 371.714 44.3392 371.714 48.5992C371.714 52.8592 370.994 56.6992 369.584 60.1492C368.174 63.5992 366.164 66.5392 363.614 68.9692C361.064 71.3992 358.034 73.2592 354.554 74.5492C351.044 75.8392 347.234 76.4992 343.064 76.4992C338.894 76.4992 335.084 75.8392 331.604 74.5492C328.094 73.2592 325.064 71.3992 322.514 68.9692C319.964 66.5392 317.984 63.5992 316.544 60.1492C315.104 56.6992 314.414 52.8592 314.414 48.5992ZM326.564 48.5992C326.564 51.0892 326.954 53.3992 327.734 55.4692C328.514 57.5392 329.624 59.3392 331.064 60.8692C332.504 62.3992 334.244 63.5692 336.284 64.4392C338.294 65.2792 340.574 65.7292 343.064 65.7292C345.554 65.7292 347.834 65.3092 349.844 64.4392C351.854 63.5992 353.594 62.3992 355.064 60.8692C356.504 59.3392 357.614 57.5392 358.394 55.4692C359.174 53.3992 359.564 51.1192 359.564 48.5992C359.564 46.0792 359.174 43.8892 358.394 41.7892C357.614 39.6892 356.504 37.8892 355.064 36.3592C353.624 34.8292 351.884 33.6592 349.844 32.7892C347.804 31.9492 345.554 31.4992 343.064 31.4992C340.574 31.4992 338.294 31.9192 336.284 32.7892C334.244 33.6292 332.534 34.8292 331.064 36.3592C329.624 37.8892 328.514 39.6892 327.734 41.7892C326.954 43.8892 326.564 46.1692 326.564 48.5992Z" fill="#272B38"/>
<defs>
<linearGradient id="paint0_linear_2005_43848" x1="48" y1="96.5996" x2="48" y2="0.599609" gradientUnits="userSpaceOnUse">
<stop stop-color="#424756"/>
<stop offset="0.31" stop-color="#505565"/>
<stop offset="0.42" stop-color="#5F6475"/>
<stop offset="0.61" stop-color="#747A8B"/>
<stop offset="0.73" stop-color="#7C8394"/>
<stop offset="0.88" stop-color="#757C8C"/>
<stop offset="1" stop-color="#6E7484"/>
</linearGradient>
<radialGradient id="paint1_radial_2005_43848" cx="0" cy="0" r="1" gradientUnits="userSpaceOnUse" gradientTransform="translate(48 48.5996) rotate(90) scale(48)">
<stop offset="0.80207" stop-color="#272B38" stop-opacity="0"/>
<stop offset="0.848055" stop-color="#272B38" stop-opacity="0.0421641"/>
<stop offset="0.882811" stop-color="#272B38" stop-opacity="0.0948692"/>
<stop offset="0.913817" stop-color="#272B38" stop-opacity="0.15"/>
<stop offset="0.957038" stop-color="#272B38" stop-opacity="0.34"/>
</radialGradient>
<linearGradient id="paint2_linear_2005_43848" x1="48" y1="96.5996" x2="48" y2="0.599609" gradientUnits="userSpaceOnUse">
<stop stop-color="#6D6E7C"/>
<stop offset="0.17" stop-color="#7A7C8A"/>
<stop offset="0.51" stop-color="#9EA2B1"/>
<stop offset="0.67" stop-color="#B3B8C7"/>
</linearGradient>
<linearGradient id="paint3_linear_2005_43848" x1="45" y1="24.5996" x2="45" y2="72.0996" gradientUnits="userSpaceOnUse">
<stop offset="0.4" stop-color="white"/>
<stop offset="0.54" stop-color="#EAEAEC"/>
<stop offset="0.84" stop-color="#C4C6CB"/>
<stop offset="0.99" stop-color="#B6B8BF"/>
</linearGradient>
<linearGradient id="paint4_linear_2005_43848" x1="45" y1="24.5996" x2="45" y2="72.0996" gradientUnits="userSpaceOnUse">
<stop offset="0.4" stop-color="white"/>
<stop offset="0.54" stop-color="#EAEAEC"/>
<stop offset="0.84" stop-color="#C4C6CB"/>
<stop offset="0.99" stop-color="#B6B8BF"/>
</linearGradient>
<linearGradient id="paint5_linear_2005_43848" x1="45" y1="24.5996" x2="45" y2="72.0996" gradientUnits="userSpaceOnUse">
<stop offset="0.4" stop-color="white"/>
<stop offset="0.54" stop-color="#EAEAEC"/>
<stop offset="0.84" stop-color="#C4C6CB"/>
<stop offset="0.99" stop-color="#B6B8BF"/>
</linearGradient>
<linearGradient id="paint6_linear_2005_43848" x1="45" y1="24.5996" x2="45" y2="72.0996" gradientUnits="userSpaceOnUse">
<stop offset="0.4" stop-color="white"/>
<stop offset="0.54" stop-color="#EAEAEC"/>
<stop offset="0.84" stop-color="#C4C6CB"/>
<stop offset="0.99" stop-color="#B6B8BF"/>
</linearGradient>
<linearGradient id="paint7_linear_2005_43848" x1="45" y1="24.5996" x2="45" y2="72.0996" gradientUnits="userSpaceOnUse">
<stop offset="0.4" stop-color="white"/>
<stop offset="0.54" stop-color="#EAEAEC"/>
<stop offset="0.84" stop-color="#C4C6CB"/>
<stop offset="0.99" stop-color="#B6B8BF"/>
</linearGradient>
<linearGradient id="paint8_linear_2005_43848" x1="45" y1="24.5996" x2="45" y2="72.0996" gradientUnits="userSpaceOnUse">
<stop offset="0.4" stop-color="white"/>
<stop offset="0.54" stop-color="#EAEAEC"/>
<stop offset="0.84" stop-color="#C4C6CB"/>
<stop offset="0.99" stop-color="#B6B8BF"/>
</linearGradient>
<linearGradient id="paint9_linear_2005_43848" x1="45" y1="24.5996" x2="45" y2="72.0996" gradientUnits="userSpaceOnUse">
<stop offset="0.4" stop-color="white"/>
<stop offset="0.54" stop-color="#EAEAEC"/>
<stop offset="0.84" stop-color="#C4C6CB"/>
<stop offset="0.99" stop-color="#B6B8BF"/>
</linearGradient>
<linearGradient id="paint10_linear_2005_43848" x1="45" y1="24.5996" x2="45" y2="72.0996" gradientUnits="userSpaceOnUse">
<stop offset="0.4" stop-color="white"/>
<stop offset="0.54" stop-color="#EAEAEC"/>
<stop offset="0.84" stop-color="#C4C6CB"/>
<stop offset="0.99" stop-color="#B6B8BF"/>
</linearGradient>
<linearGradient id="paint11_linear_2005_43848" x1="45" y1="24.5996" x2="45" y2="72.0996" gradientUnits="userSpaceOnUse">
<stop offset="0.4" stop-color="white"/>
<stop offset="0.54" stop-color="#EAEAEC"/>
<stop offset="0.84" stop-color="#C4C6CB"/>
<stop offset="0.99" stop-color="#B6B8BF"/>
</linearGradient>
<clipPath id="clip0_2005_43848">
<rect width="96" height="96" fill="white" transform="translate(0 0.599609)"/>
</clipPath>
</defs>
</svg>
