<svg width="16" height="16" viewBox="0 0 16 16" fill="none" xmlns="http://www.w3.org/2000/svg">
<path d="M11.9272 7.65789C11.9344 7.10595 12.081 6.56477 12.3534 6.08471C12.6259 5.60465 13.0154 5.20131 13.4856 4.91222C13.1869 4.48559 12.7928 4.13449 12.3346 3.88681C11.8765 3.63912 11.3669 3.50168 10.8463 3.48539C9.73587 3.36884 8.65934 4.14987 8.09348 4.14987C7.51666 4.14987 6.64543 3.49696 5.70725 3.51627C5.10041 3.53587 4.509 3.71234 3.99064 4.02847C3.47228 4.3446 3.04464 4.78961 2.7494 5.32015C1.47049 7.53439 2.42444 10.7886 3.64954 12.5784C4.26248 13.4548 4.97883 14.4338 5.91616 14.3991C6.83339 14.3611 7.17596 13.8142 8.28314 13.8142C9.38004 13.8142 9.70144 14.3991 10.6578 14.377C11.642 14.3611 12.2621 13.4967 12.8536 12.612C13.294 11.9875 13.6329 11.2973 13.8577 10.567C13.2859 10.3251 12.7979 9.9203 12.4546 9.40298C12.1113 8.88567 11.9279 8.27875 11.9272 7.65789Z" fill="#272B38"/>
<path d="M10.121 2.30827C10.6576 1.66405 10.922 0.83601 10.858 0C10.0381 0.0861121 9.2808 0.477959 8.7369 1.09747C8.47097 1.40011 8.2673 1.7522 8.13753 2.1336C8.00776 2.51501 7.95443 2.91825 7.98059 3.32028C8.39068 3.3245 8.79637 3.23562 9.16713 3.06032C9.53788 2.88503 9.86403 2.62789 10.121 2.30827Z" fill="#272B38"/>
</svg>
