<svg width="16" height="16" viewBox="0 0 16 16" fill="none" xmlns="http://www.w3.org/2000/svg">
<path d="M8.00006 1.59998C7.13873 1.59998 6.28584 1.76963 5.49008 2.09924C4.69431 2.42886 3.97127 2.91198 3.36222 3.52103C2.13219 4.75106 1.44116 6.41934 1.44116 8.15887C1.44116 11.0579 3.32356 13.5175 5.92745 14.3898C6.25539 14.4423 6.36033 14.239 6.36033 14.0619V12.9534C4.54352 13.347 4.15654 12.0745 4.15654 12.0745C3.85483 11.3137 3.42851 11.1104 3.42851 11.1104C2.83165 10.7037 3.47442 10.7168 3.47442 10.7168C4.13031 10.7627 4.47793 11.3924 4.47793 11.3924C5.04855 12.3894 6.01271 12.0942 6.38657 11.9368C6.4456 11.5105 6.61613 11.2219 6.79978 11.0579C5.3437 10.8939 3.81548 10.3299 3.81548 7.83092C3.81548 7.10289 4.06472 6.51914 4.49105 6.05346C4.42546 5.88949 4.1959 5.20737 4.55664 4.32192C4.55664 4.32192 5.10758 4.14483 6.36033 4.99092C6.87848 4.84663 7.44255 4.77448 8.00006 4.77448C8.55756 4.77448 9.12163 4.84663 9.63978 4.99092C10.8925 4.14483 11.4435 4.32192 11.4435 4.32192C11.8042 5.20737 11.5747 5.88949 11.5091 6.05346C11.9354 6.51914 12.1846 7.10289 12.1846 7.83092C12.1846 10.3364 10.6498 10.8874 9.18722 11.0513C9.42334 11.2547 9.63978 11.6548 9.63978 12.2647V14.0619C9.63978 14.239 9.74472 14.4488 10.0792 14.3898C12.6831 13.5109 14.5589 11.0579 14.5589 8.15887C14.5589 7.29754 14.3893 6.44465 14.0597 5.64889C13.7301 4.85313 13.2469 4.13008 12.6379 3.52103C12.0288 2.91198 11.3058 2.42886 10.51 2.09924C9.71427 1.76963 8.86138 1.59998 8.00006 1.59998Z" fill="#272B38"/>
</svg>
