<svg width="16" height="16" viewBox="0 0 16 16" fill="none" xmlns="http://www.w3.org/2000/svg">
<path d="M12.4978 11.4247C12.4345 11.2981 12.3712 11.1714 12.3712 11.0448C12.3712 10.7916 12.2445 10.6016 12.0546 10.4117C11.9913 10.3484 11.8647 10.2851 11.8014 10.2851C12.1812 9.14553 11.6114 8.00595 10.9784 7.18293C10.4719 6.42321 9.71216 5.85343 9.77547 4.84047C9.77547 3.63759 9.90209 1.42176 7.68625 1.61169C5.40711 1.7383 6.0402 4.08076 5.97689 4.90378C5.97689 5.60019 5.66035 6.29659 5.15387 6.86638C5.02725 6.993 4.90063 7.18293 4.83732 7.30955C4.20423 8.06926 3.88768 9.08222 3.88768 10.0319C3.76106 10.1585 3.63444 10.2851 3.57113 10.4117C3.50782 10.475 3.44451 10.5383 3.44451 10.6016C3.3812 10.665 3.25458 10.7283 3.12796 10.7916C2.87472 10.8549 2.6848 10.9815 2.55818 11.2347C2.49487 11.4247 2.43156 11.6779 2.49487 11.9311C2.55818 12.0578 2.55818 12.1844 2.49487 12.3743C2.36825 12.6276 2.36825 12.9441 2.49487 13.2606C2.6848 13.5139 3.00134 13.5772 3.44451 13.6405C3.76106 13.6405 4.14092 13.7671 4.45746 13.8937C4.77401 14.0837 5.15387 14.2103 5.53373 14.2103C5.72366 14.2103 5.97689 14.147 6.16682 14.0837C6.35675 13.9571 6.48337 13.8304 6.54668 13.6405C6.79992 13.6405 7.17978 13.5139 7.62294 13.5139C8.0028 13.5139 8.38266 13.6405 8.88913 13.5772C8.88913 13.6405 8.88914 13.7038 8.95244 13.7671C9.07906 14.0837 9.39561 14.3369 9.77547 14.4002H9.90209C10.4086 14.3369 10.915 14.0837 11.2316 13.7038C11.4848 13.4506 11.8014 13.2606 12.1179 13.134C12.4978 12.9441 12.751 12.8175 12.8143 12.5009C12.8776 12.0578 12.751 11.8045 12.4978 11.4247ZM8.12942 3.32104C8.50928 3.38435 8.82583 3.7009 8.76252 4.08076C8.76252 4.27069 8.69921 4.46062 8.57259 4.65055H8.50928C8.38266 4.58724 8.31935 4.58724 8.25604 4.52393C8.31935 4.46062 8.31935 4.334 8.38266 4.20738C8.38266 3.95414 8.25604 3.76421 8.12942 3.76421C7.93949 3.76421 7.81287 3.95414 7.81287 4.20738V4.27069C7.74956 4.20738 7.62294 4.20738 7.55963 4.14407V4.08076C7.49632 3.76421 7.74956 3.38435 8.12942 3.32104ZM7.93949 4.58724C8.0028 4.65055 8.12942 4.71385 8.19273 4.71385C8.25604 4.71385 8.38266 4.77716 8.44597 4.84047C8.57259 4.90378 8.69921 4.96709 8.69921 5.15702C8.69921 5.34695 8.50928 5.53688 8.12942 5.6635C8.0028 5.72681 7.93949 5.72681 7.87618 5.79012C7.68625 5.91674 7.49632 5.98005 7.24309 5.98005C7.05316 5.98005 6.86323 5.85343 6.73661 5.72681C6.6733 5.6635 6.60999 5.60019 6.48337 5.53688C6.42006 5.47357 6.29344 5.34695 6.23013 5.15702C6.23013 5.09371 6.29344 5.0304 6.35675 4.96709C6.54668 4.84047 6.60999 4.77716 6.6733 4.71385L6.73661 4.65055C6.86323 4.46062 7.11647 4.334 7.36971 4.334C7.55963 4.39731 7.74956 4.46062 7.93949 4.58724ZM6.60999 3.44766C6.86323 3.44766 7.05316 3.7009 7.11647 4.14407V4.27069C7.05316 4.27069 6.92654 4.334 6.86323 4.39731V4.27069C6.86323 4.08076 6.73661 3.89083 6.60999 3.95414C6.48337 3.95414 6.42006 4.14407 6.42006 4.334C6.42006 4.46062 6.48337 4.52393 6.54668 4.58724C6.54668 4.58724 6.48337 4.65055 6.42006 4.65055C6.29344 4.52393 6.16682 4.334 6.16682 4.14407C6.16682 3.76421 6.35675 3.44766 6.60999 3.44766ZM5.97689 13.6405C5.53373 13.8304 4.96394 13.7671 4.58408 13.5139C4.20423 13.324 3.88768 13.2606 3.44451 13.2606C3.12796 13.1973 2.81141 13.1973 2.74811 13.0707C2.6848 12.9441 2.6848 12.7542 2.81141 12.4376C2.87472 12.2477 2.87472 12.0578 2.81141 11.8678C2.74811 11.6779 2.74811 11.5513 2.81141 11.3614C2.87472 11.1714 3.00134 11.1081 3.19127 11.0448C3.3812 10.9815 3.50782 10.9182 3.63444 10.7916C3.69775 10.7283 3.76106 10.665 3.82437 10.5383C4.0143 10.2851 4.14092 10.1585 4.33084 10.1585C4.7107 10.2218 5.02725 10.7916 5.28049 11.3614C5.40711 11.5513 5.53373 11.8045 5.72366 11.9945C5.97689 12.311 6.29344 12.7542 6.29344 13.0074C6.29344 13.324 6.16682 13.5139 5.97689 13.6405ZM9.07906 12.2477C9.07906 12.311 9.07906 12.311 9.01575 12.3743C8.25604 12.9441 7.24309 13.0074 6.42006 12.5642L6.0402 11.9945C6.60999 11.9311 6.48337 11.1714 5.28049 10.4117C4.0143 9.58869 4.90063 8.06926 5.3438 7.37286C5.40711 7.30955 5.40711 7.37286 5.15387 7.87933C4.96394 8.25919 4.58408 9.20883 5.09056 9.90524C5.09056 9.39876 5.21718 8.89229 5.40711 8.38581C5.85027 7.56279 6.16682 6.61314 6.35675 5.6635C6.42006 5.72681 6.42006 5.72681 6.48337 5.72681C6.54668 5.79012 6.60999 5.85343 6.6733 5.85343C6.79992 6.04336 7.05316 6.10667 7.24309 6.10667H7.3064C7.55963 6.10667 7.81287 6.04336 8.0028 5.85343C8.06611 5.79012 8.12942 5.72681 8.25604 5.72681C8.44597 5.6635 8.6359 5.53688 8.82583 5.34695C9.07906 6.16998 9.3323 6.92969 9.71216 7.6261C9.9654 8.13257 10.1553 8.63905 10.2819 9.20883C10.4719 9.20883 10.7251 9.27214 10.915 9.39876C11.4215 9.652 11.6114 9.84193 11.5481 10.1585H11.4215C11.4215 9.96855 11.2949 9.77862 10.8517 9.58869C10.4086 9.39876 10.0287 9.39876 9.90209 9.84193C9.83878 9.84193 9.77547 9.90524 9.71216 9.90524C9.20568 10.1585 9.20568 10.8549 9.14237 11.5513C9.20568 11.8045 9.14237 11.9945 9.07906 12.2477ZM11.9913 12.6276C11.6114 12.7542 11.2949 13.0074 11.0417 13.324C10.7884 13.7038 10.3453 13.9571 9.83878 13.8937C9.58554 13.8937 9.3323 13.7038 9.26899 13.4506C9.20568 13.0707 9.20568 12.6909 9.39561 12.311C9.45892 12.0578 9.52223 11.8678 9.58554 11.6146C9.64885 10.8549 9.64885 10.4117 9.9654 10.2218C9.9654 10.5383 10.1553 10.7283 10.4086 10.8549C10.7251 10.8549 11.0417 10.7916 11.2949 10.5383H11.4215C11.6114 10.5383 11.7381 10.5383 11.8647 10.665C11.9913 10.7916 12.0546 10.9815 12.0546 11.1081C12.0546 11.2981 12.1812 11.488 12.2445 11.6779C12.5611 11.9945 12.5611 12.1844 12.5611 12.2477C12.4978 12.3743 12.2445 12.5009 11.9913 12.6276ZM6.29344 5.0304C6.23013 5.0304 6.23013 5.0304 6.23013 5.09371C6.23013 5.09371 6.23013 5.15702 6.29344 5.15702C6.35675 5.15702 6.35675 5.22033 6.35675 5.22033C6.54668 5.47357 6.86323 5.60019 7.24309 5.6635C7.55963 5.60019 7.87618 5.53688 8.19273 5.28364L8.57259 5.09371C8.6359 5.09371 8.6359 5.0304 8.6359 5.0304C8.6359 4.96709 8.6359 4.96709 8.57259 4.96709C8.44597 5.0304 8.25604 5.09371 8.12942 5.15702C7.87618 5.34695 7.55963 5.47357 7.24309 5.47357C6.92654 5.47357 6.6733 5.28364 6.48337 5.09371C6.42006 5.09371 6.35675 5.0304 6.29344 5.0304Z" fill="#272B38"/>
</svg>
