<svg width="30" height="30" viewBox="0 0 30 30" fill="none" xmlns="http://www.w3.org/2000/svg">
<g clip-path="url(#clip0_7705_16244)">
<circle cx="15" cy="15" r="14.5" stroke="white"/>
<path fill-rule="evenodd" clip-rule="evenodd" d="M9.18169 7.56959C9.42649 7.3304 9.76889 7.1744 10.4169 7.0896C11.0841 7.0016 11.9673 7 13.2345 7H16.7656C18.0328 7 18.916 7.0016 19.5832 7.0896C20.2312 7.1744 20.5736 7.3304 20.8184 7.56959C21.0624 7.80959 21.2216 8.14559 21.3088 8.77998C21.3984 9.43358 21.4 10.2992 21.4 11.5408V17.8111H11.2769C10.5545 17.8103 10.0617 17.8103 9.63929 17.9215C9.2682 18.0187 8.91666 18.1792 8.6001 18.3959V11.54C8.6001 10.2992 8.6017 9.43358 8.6913 8.77998C8.7785 8.14559 8.93769 7.80959 9.18169 7.56959ZM11.4689 10.0272C11.1033 10.0272 10.8073 10.3176 10.8073 10.676C10.8094 10.8495 10.8802 11.0152 11.0042 11.1366C11.1282 11.2581 11.2953 11.3255 11.4689 11.324H18.5312C18.7049 11.3255 18.8721 11.258 18.9961 11.1364C19.1202 11.0147 19.1909 10.8489 19.1928 10.6752C19.1907 10.5016 19.1199 10.3359 18.9959 10.2145C18.8719 10.093 18.7048 10.0257 18.5312 10.0272H11.4689ZM11.0042 13.2417C11.1282 13.1202 11.2953 13.0528 11.4689 13.0543H15.8824C16.0563 13.0526 16.2237 13.12 16.3479 13.2417C16.4721 13.3633 16.5429 13.5293 16.5448 13.7031C16.5427 13.8768 16.4718 14.0426 16.3476 14.1641C16.2234 14.2856 16.0561 14.3528 15.8824 14.3511H11.4689C11.1033 14.3511 10.8073 14.0607 10.8073 13.7023C10.8094 13.5288 10.8802 13.3631 11.0042 13.2417ZM21.4 19.1079H11.3785C10.5153 19.1079 10.2137 19.1135 9.98168 19.1743C9.67278 19.2541 9.38787 19.4076 9.1514 19.6218C8.91493 19.836 8.73399 20.1044 8.6241 20.4039C8.6369 20.7103 8.6585 20.9799 8.6913 21.2199C8.7785 21.8543 8.93769 22.1903 9.18169 22.4302C9.42649 22.6694 9.76889 22.8254 10.4169 22.911C11.0841 22.9982 11.9673 22.9998 13.2345 22.9998H16.7664C18.0336 22.9998 18.9168 22.9982 19.584 22.9102C20.232 22.8254 20.5744 22.6694 20.8192 22.4302C21.0632 22.1903 21.2224 21.8543 21.3096 21.2199C21.3832 20.6871 21.3976 20.0119 21.4 19.1079Z" fill="white"/>
</g>
<defs>
<clipPath id="clip0_7705_16244">
<rect width="30" height="30" fill="white"/>
</clipPath>
</defs>
</svg>
