<svg width="31" height="31" viewBox="0 0 31 31" fill="none" xmlns="http://www.w3.org/2000/svg">
<g clip-path="url(#clip0_7988_52575)">
<circle cx="15.9558" cy="15.5" r="14.5" stroke="#092F62"/>
<path fill-rule="evenodd" clip-rule="evenodd" d="M10.1375 8.06959C10.3823 7.8304 10.7247 7.6744 11.3727 7.5896C12.0399 7.5016 12.9231 7.5 14.1903 7.5H17.7214C18.9886 7.5 19.8718 7.5016 20.539 7.5896C21.187 7.6744 21.5294 7.8304 21.7742 8.06959C22.0182 8.30959 22.1774 8.64559 22.2646 9.27998C22.3542 9.93358 22.3558 10.7992 22.3558 12.0408V18.3111H12.2327C11.5103 18.3103 11.0175 18.3103 10.5951 18.4215C10.224 18.5187 9.87247 18.6792 9.55591 18.8959V12.04C9.55591 10.7992 9.55751 9.93358 9.64711 9.27998C9.73431 8.64559 9.89351 8.30959 10.1375 8.06959ZM12.4247 10.5272C12.0591 10.5272 11.7631 10.8176 11.7631 11.176C11.7652 11.3495 11.836 11.5152 11.96 11.6366C12.084 11.7581 12.2511 11.8255 12.4247 11.824H19.487C19.6607 11.8255 19.8279 11.758 19.952 11.6364C20.076 11.5147 20.1467 11.3489 20.1486 11.1752C20.1465 11.0016 20.0757 10.8359 19.9517 10.7145C19.8277 10.593 19.6606 10.5257 19.487 10.5272H12.4247ZM11.96 13.7417C12.084 13.6202 12.2511 13.5528 12.4247 13.5543H16.8382C17.0121 13.5526 17.1795 13.62 17.3037 13.7417C17.4279 13.8633 17.4987 14.0293 17.5006 14.2031C17.4985 14.3768 17.4276 14.5426 17.3034 14.6641C17.1792 14.7856 17.0119 14.8528 16.8382 14.8511H12.4247C12.0591 14.8511 11.7631 14.5607 11.7631 14.2023C11.7652 14.0288 11.836 13.8631 11.96 13.7417ZM22.3558 19.6079H12.3343C11.4711 19.6079 11.1695 19.6135 10.9375 19.6743C10.6286 19.7541 10.3437 19.9076 10.1072 20.1218C9.87075 20.336 9.6898 20.6044 9.57991 20.9039C9.59271 21.2103 9.61431 21.4799 9.64711 21.7199C9.73431 22.3543 9.89351 22.6903 10.1375 22.9302C10.3823 23.1694 10.7247 23.3254 11.3727 23.411C12.0399 23.4982 12.9231 23.4998 14.1903 23.4998H17.7222C18.9894 23.4998 19.8726 23.4982 20.5398 23.4102C21.1878 23.3254 21.5302 23.1694 21.775 22.9302C22.019 22.6903 22.1782 22.3543 22.2654 21.7199C22.339 21.1871 22.3534 20.5119 22.3558 19.6079Z" fill="#092F62"/>
</g>
<defs>
<clipPath id="clip0_7988_52575">
<rect width="30" height="30" fill="white" transform="translate(0.955811 0.5)"/>
</clipPath>
</defs>
</svg>
