<svg width="31" height="31" viewBox="0 0 31 31" fill="none" xmlns="http://www.w3.org/2000/svg">
<path d="M15.9604 0.5C13.9912 0.5 12.0412 0.887872 10.2219 1.64147C8.40252 2.39507 6.74942 3.49964 5.35695 4.89211C2.54473 7.70432 0.964844 11.5185 0.964844 15.4956C0.964844 22.1236 5.26858 27.747 11.2218 29.7414C11.9716 29.8614 12.2115 29.3965 12.2115 28.9916V26.4574C8.05776 27.3571 7.17302 24.448 7.17302 24.448C6.48322 22.7085 5.50851 22.2436 5.50851 22.2436C4.14391 21.3139 5.61348 21.3439 5.61348 21.3439C7.11304 21.4488 7.9078 22.8884 7.9078 22.8884C9.21242 25.1677 11.4168 24.4929 12.2715 24.133C12.4065 23.1583 12.7964 22.4985 13.2162 22.1236C9.88722 21.7487 6.39325 20.4591 6.39325 14.7458C6.39325 13.0813 6.96308 11.7467 7.93779 10.682C7.78784 10.3071 7.26299 8.74757 8.08775 6.72317C8.08775 6.72317 9.34738 6.31829 12.2115 8.25272C13.3962 7.92282 14.6858 7.75786 15.9604 7.75786C17.2351 7.75786 18.5247 7.92282 19.7093 8.25272C22.5735 6.31829 23.8331 6.72317 23.8331 6.72317C24.6579 8.74757 24.133 10.3071 23.9831 10.682C24.9578 11.7467 25.5276 13.0813 25.5276 14.7458C25.5276 20.4741 22.0187 21.7338 18.6746 22.1086C19.2145 22.5735 19.7093 23.4882 19.7093 24.8828V28.9916C19.7093 29.3965 19.9493 29.8764 20.714 29.7414C26.6673 27.732 30.956 22.1236 30.956 15.4956C30.956 13.5263 30.5682 11.5764 29.8146 9.75702C29.061 7.93768 27.9564 6.28457 26.5639 4.89211C25.1714 3.49964 23.5183 2.39507 21.699 1.64147C19.8796 0.887872 17.9297 0.5 15.9604 0.5Z" fill="#092F62"/>
</svg>
