<svg xmlns="http://www.w3.org/2000/svg" width="350" height="230" fill="none"><g clip-path="url(#a)"><path fill="#F9F9FB" d="M-215.682.178H350v228.864h-565.682z"/><path stroke="#ABB0BF" stroke-miterlimit="10" stroke-width=".252" d="M118.688 15.176h4.081m-2.043 2.037v-4.08m-2.038 17.344h4.081m-2.043 2.044v-4.08m-2.038 17.344h4.081m-2.043 2.036v-4.08m-2.038 17.352h4.081m-2.043 2.037v-4.081m-2.038 17.345h4.081m-2.043 2.044v-4.081m-2.038 17.345h4.081m-2.043 2.036v-4.08m-2.038 17.344h4.081m-2.043 2.045v-4.081m-2.038 17.345h4.081m-2.043 2.044v-4.081m-2.038 17.345h4.081m-2.043 2.036v-4.081m-2.038 17.345h4.081m-2.043 2.044v-4.081m-2.038 17.345h4.081m-2.043 2.044v-4.081m-2.038 17.345h4.081m-2.043 2.037v-4.081m-2.038 17.344h4.081m-2.043 2.045v-4.081m-2.038 17.345h4.081m-2.043 2.044v-4.081M88.073 15.176h4.088m-2.044 2.037v-4.08m-2.044 17.344h4.088m-2.044 2.044v-4.08m13.264-13.265h4.081m-2.037 2.037v-4.08m-2.044 17.344h4.081m-2.037 2.044v-4.08M88.073 45.785h4.088m-2.044 2.036v-4.08m-2.044 17.352h4.088m-2.044 2.037v-4.081m13.264-13.264h4.081m-2.037 2.037v-4.08m-2.044 17.351h4.081m-2.037 2.037v-4.081M88.073 76.394h4.088m-2.044 2.044v-4.081m-2.044 17.345h4.088m-2.044 2.036v-4.08m13.264-13.264h4.081m-2.037 2.044v-4.081m-2.044 17.345h4.081m-2.037 2.036v-4.08m-17.352 17.344h4.088m-2.044 2.045v-4.081m-2.044 17.345h4.088m-2.044 2.044v-4.081m13.264-13.272h4.081m-2.037 2.045v-4.081m-2.044 17.345h4.081m-2.037 2.043v-4.081m-17.352 17.346h4.088m-2.044 2.036v-4.081m-2.044 17.345h4.088m-2.044 2.044v-4.081m13.264-13.264h4.081m-2.037 2.037v-4.081m-2.044 17.345h4.081m-2.037 2.044v-4.081m-17.352 17.345h4.088m-2.044 2.044v-4.081m-2.044 17.345h4.088m-2.044 2.037v-4.081m13.264-13.264h4.081m-2.037 2.044v-4.081m-2.044 17.345h4.081m-2.037 2.037v-4.081m-17.352 17.344h4.088m-2.044 2.045v-4.081m-2.044 17.345h4.088m-2.044 2.044v-4.081m13.264-13.271h4.081m-2.037 2.044v-4.081m-2.044 17.345h4.081m-2.037 2.044v-4.081M57.465 15.176h4.08m-2.036 2.037v-4.08m-2.044 17.344h4.08m-2.036 2.044v-4.08m13.263-13.265h4.081m-2.043 2.037v-4.08m-2.038 17.344h4.081m-2.043 2.044v-4.08M57.465 45.785h4.08m-2.036 2.037v-4.08m-2.044 17.351h4.08m-2.036 2.037v-4.081m13.263-13.264h4.081m-2.043 2.037v-4.08m-2.038 17.351h4.081M74.81 63.13v-4.081M57.465 76.394h4.08m-2.036 2.044v-4.081m-2.044 17.345h4.08m-2.036 2.036v-4.08m13.263-13.264h4.081m-2.043 2.044v-4.081m-2.038 17.345h4.081m-2.043 2.036v-4.08m-17.345 17.344h4.08m-2.036 2.045v-4.081m-2.044 17.345h4.08m-2.036 2.043v-4.081m13.263-13.271h4.081m-2.043 2.045v-4.081m-2.038 17.345h4.081m-2.043 2.043v-4.081m-17.345 17.346h4.08m-2.036 2.036v-4.081m-2.044 17.345h4.08m-2.036 2.044v-4.081m13.263-13.264h4.081m-2.043 2.037v-4.081m-2.038 17.345h4.081m-2.043 2.044v-4.081m-17.345 17.345h4.08m-2.036 2.044v-4.081m-2.044 17.345h4.08m-2.036 2.037v-4.081m13.263-13.264h4.081m-2.043 2.044v-4.081m-2.038 17.345h4.081m-2.043 2.037v-4.081m-17.345 17.344h4.08m-2.036 2.045v-4.081m-2.044 17.345h4.08m-2.036 2.044v-4.081m13.263-13.271h4.081m-2.043 2.044v-4.081m-2.038 17.345h4.081m-2.043 2.044v-4.081M26.855 15.176h4.081m-2.043 2.037v-4.08m-2.038 17.344h4.081m-2.043 2.044v-4.08m13.263-13.265h4.088M44.2 17.213v-4.08m-2.044 17.344h4.088M44.2 32.521v-4.08M26.855 45.785h4.081m-2.043 2.037v-4.08m-2.038 17.351h4.081m-2.043 2.037v-4.081m13.263-13.264h4.088M44.2 47.821v-4.08m-2.044 17.352h4.088M44.2 63.13v-4.081M26.855 76.394h4.081m-2.043 2.044v-4.081m-2.038 17.345h4.081m-2.043 2.036v-4.08m13.263-13.264h4.088M44.2 78.438v-4.081m-2.044 17.345h4.088M44.2 93.738v-4.08m-17.345 17.344h4.081m-2.043 2.045v-4.081m-2.038 17.345h4.081m-2.043 2.043v-4.081m13.263-13.271h4.088m-2.044 2.045v-4.081m-2.044 17.345h4.088m-2.044 2.044v-4.081m-17.345 17.344h4.081m-2.043 2.037v-4.081m-2.038 17.345h4.081m-2.043 2.044v-4.081m13.263-13.263h4.088m-2.044 2.036v-4.081m-2.044 17.345h4.088m-2.044 2.044v-4.081m-17.345 17.345h4.081m-2.043 2.044v-4.081m-2.038 17.345h4.081m-2.043 2.037v-4.081m13.263-13.264h4.088m-2.044 2.044v-4.081m-2.044 17.345h4.088m-2.044 2.037v-4.081m-17.345 17.345h4.081m-2.043 2.044v-4.081m-2.038 17.345h4.081m-2.043 2.044v-4.081m13.263-13.272h4.088M44.2 200.88v-4.081m-2.044 17.345h4.088m-2.044 2.044v-4.081M-3.753 15.176h4.08m-4.08 15.301h4.08m11.221-15.301h4.08m-2.036 2.037v-4.08m-2.044 17.344h4.08m-2.036 2.044v-4.08M-3.753 45.785h4.08m-4.08 15.308h4.08m11.221-15.308h4.08m-2.036 2.036v-4.08m-2.044 17.352h4.08m-2.036 2.037v-4.081M-3.753 76.394h4.08m-4.08 15.308h4.08m11.221-15.308h4.08m-2.036 2.044v-4.081m-2.044 17.345h4.08m-2.036 2.036v-4.08m-17.345 17.344h4.08m-4.08 15.309h4.08m11.221-15.309h4.08m-2.036 2.045v-4.081m-2.044 17.345h4.08m-2.036 2.044v-4.081m-17.345 17.345h4.08m-4.08 15.3h4.08m11.221-15.3h4.08m-2.036 2.036v-4.081m-2.044 17.345h4.08m-2.036 2.044v-4.081m-17.345 17.345h4.08m-4.08 15.308h4.08m11.221-15.308h4.08m-2.036 2.044v-4.081m-2.044 17.345h4.08m-2.036 2.037v-4.081m-17.345 17.344h4.08m-4.08 15.309h4.08m11.221-15.309h4.08m-2.036 2.045v-4.081m-2.044 17.345h4.08m-2.036 2.044v-4.081M332.964 15.176h4.081m-2.044 2.037v-4.08m-2.037 17.344h4.081m-2.044 2.044v-4.08m-2.037 17.344h4.081m-2.044 2.037v-4.08m-2.037 17.351h4.081m-2.044 2.037v-4.081m-2.037 17.345h4.081m-2.044 2.044v-4.081m-2.037 17.345h4.081m-2.044 2.036v-4.08m-2.037 17.344h4.081m-2.044 2.045v-4.081m-2.037 17.345h4.081m-2.044 2.043v-4.081m-2.037 17.345h4.081m-2.044 2.037v-4.081m-2.037 17.345h4.081m-2.044 2.044v-4.081m-2.037 17.345h4.081m-2.044 2.044v-4.081m-2.037 17.345h4.081m-2.044 2.037v-4.081m-2.037 17.345h4.081m-2.044 2.044v-4.081m-2.037 17.345h4.081m-2.044 2.044v-4.081M302.356 15.176h4.081m-2.044 2.037v-4.08m-2.037 17.344h4.081m-2.044 2.044v-4.08m13.263-13.265h4.081m-2.036 2.037v-4.08m-2.045 17.344h4.081m-2.036 2.044v-4.08m-17.345 17.344h4.081m-2.044 2.037v-4.08m-2.037 17.351h4.081m-2.044 2.037v-4.081m13.263-13.264h4.081m-2.036 2.036v-4.08m-2.045 17.352h4.081m-2.036 2.037v-4.081m-17.345 17.345h4.081m-2.044 2.044v-4.081m-2.037 17.345h4.081m-2.044 2.036v-4.08m13.263-13.264h4.081m-2.036 2.044v-4.081m-2.045 17.345h4.081m-2.036 2.036v-4.08m-17.345 17.344h4.081m-2.044 2.045v-4.081m-2.037 17.345h4.081m-2.044 2.043v-4.081m13.263-13.271h4.081m-2.036 2.045v-4.081m-2.045 17.345h4.081m-2.036 2.044v-4.081m-17.345 17.344h4.081m-2.044 2.037v-4.081m-2.037 17.345h4.081m-2.044 2.044v-4.081m13.263-13.263h4.081m-2.036 2.036v-4.081m-2.045 17.345h4.081m-2.036 2.044v-4.081m-17.345 17.345h4.081m-2.044 2.044v-4.081m-2.037 17.345h4.081m-2.044 2.037v-4.081m13.263-13.264h4.081m-2.036 2.044v-4.081m-2.045 17.345h4.081m-2.036 2.037v-4.081m-17.345 17.345h4.081m-2.044 2.044v-4.081m-2.037 17.345h4.081m-2.044 2.044v-4.081m13.263-13.272h4.081m-2.036 2.045v-4.081m-2.045 17.345h4.081m-2.036 2.044v-4.081M271.74 15.176h4.08m-2.036 2.037v-4.08m-2.044 17.344h4.08m-2.036 2.044v-4.08m13.264-13.265h4.081m-2.044 2.037v-4.08m-2.037 17.344h4.081m-2.044 2.044v-4.08M271.74 45.785h4.08m-2.036 2.036v-4.08m-2.044 17.352h4.08m-2.036 2.037v-4.081m13.264-13.264h4.081m-2.044 2.036v-4.08m-2.037 17.352h4.081m-2.044 2.037v-4.081M271.74 76.394h4.08m-2.036 2.044v-4.081m-2.044 17.345h4.08m-2.036 2.036v-4.08m13.264-13.264h4.081m-2.044 2.044v-4.081m-2.037 17.345h4.081m-2.044 2.036v-4.08m-17.345 17.344h4.08m-2.036 2.045v-4.081m-2.044 17.345h4.08m-2.036 2.044v-4.081m13.264-13.272h4.081m-2.044 2.045v-4.081m-2.037 17.345h4.081m-2.044 2.044v-4.081m-17.345 17.345h4.08m-2.036 2.036v-4.081m-2.044 17.345h4.08m-2.036 2.044v-4.081m13.264-13.263h4.081m-2.044 2.036v-4.081m-2.037 17.345h4.081m-2.044 2.044v-4.081m-17.345 17.345h4.08m-2.036 2.044v-4.081m-2.044 17.345h4.08m-2.036 2.037v-4.081m13.264-13.264h4.081m-2.044 2.044v-4.081m-2.037 17.345h4.081m-2.044 2.037v-4.081m-17.345 17.344h4.08m-2.036 2.045v-4.081m-2.044 17.345h4.08m-2.036 2.044v-4.081m13.264-13.272h4.081m-2.044 2.045v-4.081m-2.037 17.345h4.081m-2.044 2.044v-4.081M241.131 15.176h4.081m-2.037 2.037v-4.08m-2.044 17.344h4.081m-2.037 2.044v-4.08m13.264-13.265h4.081m-2.044 2.037v-4.08m-2.037 17.344h4.081m-2.044 2.044v-4.08m-17.345 17.344h4.081m-2.037 2.036v-4.08m-2.044 17.352h4.081m-2.037 2.037v-4.081m13.264-13.264h4.081m-2.044 2.037v-4.08m-2.037 17.351h4.081m-2.044 2.037v-4.081m-17.345 17.345h4.081m-2.037 2.044v-4.081m-2.044 17.345h4.081m-2.037 2.036v-4.08m13.264-13.264h4.081m-2.044 2.044v-4.081m-2.037 17.345h4.081m-2.044 2.036v-4.08m-17.345 17.344h4.081m-2.037 2.045v-4.081m-2.044 17.345h4.081m-2.037 2.044v-4.081m13.264-13.272h4.081m-2.044 2.045v-4.081m-2.037 17.345h4.081m-2.044 2.043v-4.081m-17.345 17.346h4.081m-2.037 2.036v-4.081m-2.044 17.345h4.081m-2.037 2.044v-4.081m13.264-13.264h4.081m-2.044 2.037v-4.081m-2.037 17.345h4.081m-2.044 2.044v-4.081m-17.345 17.345h4.081m-2.037 2.044v-4.081m-2.044 17.345h4.081m-2.037 2.037v-4.081m13.264-13.264h4.081m-2.044 2.044v-4.081m-2.037 17.345h4.081m-2.044 2.037v-4.081m-17.345 17.344h4.081m-2.037 2.045v-4.081m-2.044 17.345h4.081m-2.037 2.044v-4.081m13.264-13.271h4.081m-2.044 2.044v-4.081m-2.037 17.345h4.081m-2.044 2.044v-4.081M210.522 15.176h4.081m-2.043 2.037v-4.08m-2.038 17.344h4.081m-2.043 2.044v-4.08m13.263-13.265h4.081m-2.037 2.037v-4.08m-2.044 17.344h4.081m-2.037 2.044v-4.08m-17.345 17.344h4.081m-2.043 2.036v-4.08m-2.038 17.352h4.081m-2.043 2.037v-4.081m13.263-13.264h4.081m-2.037 2.037v-4.08m-2.044 17.351h4.081m-2.037 2.037v-4.081m-17.345 17.345h4.081m-2.043 2.044v-4.081m-2.038 17.345h4.081m-2.043 2.036v-4.08m13.263-13.264h4.081m-2.037 2.044v-4.081m-2.044 17.345h4.081m-2.037 2.036v-4.08m-17.345 17.344h4.081m-2.043 2.045v-4.081m-2.038 17.345h4.081m-2.043 2.044v-4.081m13.263-13.272h4.081m-2.037 2.045v-4.081m-2.044 17.345h4.081m-2.037 2.043v-4.081m-17.345 17.345h4.081m-2.043 2.037v-4.081m-2.038 17.345h4.081m-2.043 2.044v-4.081m13.263-13.264h4.081m-2.037 2.037v-4.081m-2.044 17.345h4.081m-2.037 2.044v-4.081m-17.345 17.345h4.081m-2.043 2.044v-4.081m-2.038 17.345h4.081m-2.043 2.037v-4.081m13.263-13.264h4.081m-2.037 2.044v-4.081m-2.044 17.345h4.081m-2.037 2.037v-4.081m-17.345 17.345h4.081m-2.043 2.044v-4.081m-2.038 17.345h4.081m-2.043 2.044v-4.081m13.263-13.271h4.081m-2.037 2.044v-4.081m-2.044 17.345h4.081m-2.037 2.044v-4.081M179.906 15.176h4.081m-2.037 2.037v-4.08m-2.044 17.344h4.081m-2.037 2.044v-4.08m13.264-13.265h4.081m-2.037 2.037v-4.08m-2.044 17.344h4.081m-2.037 2.044v-4.08m-17.352 17.344h4.081m-2.037 2.037v-4.08m-2.044 17.351h4.081m-2.037 2.037v-4.081m13.264-13.264h4.081m-2.037 2.036v-4.08m-2.044 17.352h4.081m-2.037 2.037v-4.081m-17.352 17.345h4.081m-2.037 2.044v-4.081m-2.044 17.345h4.081m-2.037 2.036v-4.08m13.264-13.264h4.081m-2.037 2.044v-4.081m-2.044 17.345h4.081m-2.037 2.036v-4.08m-17.352 17.344h4.081m-2.037 2.045v-4.081m-2.044 17.345h4.081m-2.037 2.043v-4.081m13.264-13.271h4.081m-2.037 2.045v-4.081m-2.044 17.345h4.081m-2.037 2.044v-4.081m-17.352 17.344h4.081m-2.037 2.037v-4.081m-2.044 17.345h4.081m-2.037 2.044v-4.081m13.264-13.263h4.081m-2.037 2.036v-4.081m-2.044 17.345h4.081m-2.037 2.044v-4.081m-17.352 17.345h4.081m-2.037 2.044v-4.081m-2.044 17.345h4.081m-2.037 2.037v-4.081m13.264-13.264h4.081m-2.037 2.044v-4.081m-2.044 17.345h4.081m-2.037 2.037v-4.081m-17.352 17.345h4.081m-2.037 2.044v-4.081m-2.044 17.345h4.081m-2.037 2.044v-4.081m13.264-13.272h4.081m-2.037 2.045v-4.081m-2.044 17.345h4.081m-2.037 2.044v-4.081m-47.96-196.931h4.081m-2.037 2.037v-4.08m-2.044 17.344h4.081m-2.037 2.044v-4.08m13.264-13.265h4.081m-2.044 2.037v-4.08m-2.037 17.344h4.081m-2.044 2.044v-4.08m-17.345 17.344h4.081m-2.037 2.036v-4.08m-2.044 17.352h4.081m-2.037 2.037v-4.081m13.264-13.264h4.081m-2.044 2.036v-4.08m-2.037 17.352h4.081m-2.044 2.037v-4.081m-17.345 17.345h4.081m-2.037 2.044v-4.081m-2.044 17.345h4.081m-2.037 2.036v-4.08m13.264-13.264h4.081m-2.044 2.044v-4.081m-2.037 17.345h4.081m-2.044 2.036v-4.08m-17.345 17.344h4.081m-2.037 2.045v-4.081m-2.044 17.345h4.081m-2.037 2.044v-4.081m13.264-13.272h4.081m-2.044 2.045v-4.081m-2.037 17.345h4.081m-2.044 2.044v-4.081m-17.345 17.344h4.081m-2.037 2.037v-4.081m-2.044 17.345h4.081m-2.037 2.044v-4.081m13.264-13.263h4.081m-2.044 2.036v-4.081m-2.037 17.345h4.081m-2.044 2.044v-4.081m-17.345 17.345h4.081m-2.037 2.044v-4.081m-2.044 17.345h4.081m-2.037 2.037v-4.081m13.264-13.264h4.081m-2.044 2.044v-4.081m-2.037 17.345h4.081m-2.044 2.037v-4.081m-17.345 17.345h4.081m-2.037 2.044v-4.081m-2.044 17.345h4.081m-2.037 2.044v-4.081m13.264-13.272h4.081m-2.044 2.045v-4.081m-2.037 17.345h4.081m-2.044 2.044v-4.081M133.99 15.176h4.081m-2.037 2.037v-4.08m-2.044 17.344h4.081m-2.037 2.044v-4.08m-2.044 17.344h4.081m-2.037 2.037v-4.08m-2.044 17.351h4.081m-2.037 2.037v-4.081m-2.044 17.345h4.081m-2.037 2.044v-4.081m-2.044 17.345h4.081m-2.037 2.036v-4.08m-2.044 17.344h4.081m-2.037 2.045v-4.081m-2.044 17.345h4.081m-2.037 2.043v-4.081m-2.044 17.346h4.081m-2.037 2.036v-4.081m-2.044 17.345h4.081m-2.037 2.044v-4.081m-2.044 17.345h4.081m-2.037 2.044v-4.081m-2.044 17.345h4.081m-2.037 2.037v-4.081m-2.044 17.344h4.081m-2.037 2.045v-4.081m-2.044 17.345h4.081m-2.037 2.044v-4.081"/><path fill="#fff" stroke="#ABB0BF" stroke-miterlimit="10" stroke-width="1.353" d="M-1.716 152.919h-45.917v45.917H44.2v-45.917H-1.715Z"/><path fill="#A1A5B2" d="M-1.378 172.286h-2.72v-1.36h6.8v1.36h-2.72v8.161h-1.36v-8.161Zm6.808 6.801h5.441v1.36h-6.8v-9.521h6.8v1.36h-5.44v2.72h4.08v1.361h-4.08v2.72Zm8.162-5.441v6.801h-1.36v-9.521h1.36v1.36h1.36v1.36h-1.36Zm2.72 1.36h-1.36v-1.36h1.36v1.36Zm1.36 1.361h-1.36v-1.361h1.36v1.361Zm1.36-1.361h-1.36v-1.36h1.36v1.36Zm1.36-1.36h-1.36v-1.36h1.36v-1.36h1.361v9.521h-1.36v-6.801Z"/><path fill="#fff" stroke="#ABB0BF" stroke-miterlimit="10" stroke-width="1.353" d="M136.034 152.919H90.117v45.917h91.834v-45.917h-45.917Z"/><path fill="#A1A5B2" d="M108.822 173.646v6.801h-1.36v-9.521h1.36v1.36h1.36v1.36h-1.36Zm2.721 1.36h-1.361v-1.36h1.361v1.36Zm1.36 1.361h-1.36v-1.361h1.36v1.361Zm1.36-1.361h-1.36v-1.36h1.36v1.36Zm1.36-1.36h-1.36v-1.36h1.36v-1.36h1.361v9.521h-1.361v-6.801Zm6.808-2.72v1.36h-1.36v6.801h1.36v1.36h-4.08v-1.36h1.36v-6.801h-1.36v-1.36h4.08Zm2.721 1.36v8.161h-1.36v-9.521h2.72v1.36h-1.36Zm2.721 2.72h-1.361v-2.72h1.361v2.72Zm1.36 2.721h-1.36v-2.721h1.36v2.721Zm1.36 0v-6.801h1.36v9.521h-1.36v-1.36h-1.36v-1.36h1.36Zm5.441-5.441h-2.721v-1.36h6.802v1.36h-2.721v8.161h-1.36v-8.161Zm6.801 6.801h5.441v1.36h-6.801v-9.521h6.801v1.36h-5.441v2.72h4.081v1.361h-4.081v2.72Zm12.242-8.161v1.36h-4.081v2.72h4.081v1.361h-1.361v1.36h-1.36v-1.36h-1.36v4.08h-1.36v-9.521h5.441Zm0 8.161h-1.361v-1.36h1.361v1.36Zm1.36-4.081h-1.36v-2.72h1.36v2.72Zm0 5.441h-1.36v-1.36h1.36v1.36Zm2.721-5.441h-1.36v-2.72h1.36v2.72Zm0 4.081h-1.36v-1.36h1.36v1.36Zm4.088-6.801h-4.081v-1.36h4.081v1.36Zm0 4.081h-4.081v-1.361h4.081v1.361Zm0 4.08h-4.081v-1.36h4.081v1.36Zm1.36-6.801h-1.36v-1.36h1.36v1.36Zm0 5.441h-1.36v-2.72h1.36v2.72Z"/><path fill="#272B38" d="M136.034 61.093H90.117v45.91h91.834v-45.91h-45.917Z"/><path fill="#fff" stroke="#ABB0BF" stroke-miterlimit="10" stroke-width="1.353" d="M-1.716 61.093h-45.917v45.909H44.2v-45.91H-1.715Z"/><path fill="#fff" d="M111.543 81.835v6.8h-1.36v-9.52h1.36v1.36h1.36v1.36h-1.36Zm2.72 1.36h-1.36v-1.36h1.36v1.36Zm1.361 1.36h-1.361v-1.36h1.361v1.36Zm1.36-1.36h-1.36v-1.36h1.36v1.36Zm1.36-1.36h-1.36v-1.36h1.36v-1.36h1.36v9.52h-1.36v-6.8Zm4.088 4.08v2.72h-1.361v-5.44h1.361v1.36h4.08v-1.36h1.36v5.44h-1.36v-2.72h-4.08Zm1.36-2.72h-1.36v-2.72h1.36v2.72Zm1.36-2.72h-1.36v-1.36h1.36v1.36Zm1.36 2.72h-1.36v-2.72h1.36v2.72Zm8.161-4.081v1.36h-4.08v2.72h4.08v1.361h-1.36v1.36h-1.36v-1.36h-1.36v4.08h-1.361v-9.52h5.441Zm0 8.162h-1.36v-1.36h1.36v1.36Zm1.361-4.081h-1.361v-2.72h1.361v2.72Zm0 5.44h-1.361v-1.36h1.361v1.36Zm2.721-4.08v4.08h-1.36v-9.52h1.36v4.08h1.36v1.36h-1.36Zm2.72-1.36h-1.36v-1.36h1.36v1.36Zm0 2.72h-1.36v-1.36h1.36v1.36Zm1.36-4.08h-1.36v-1.36h1.36v1.36Zm0 5.44h-1.36v-1.36h1.36v1.36Zm1.361-6.8h-1.361v-1.36h1.361v1.36Zm0 8.16h-1.361v-1.36h1.361v1.36Zm2.719-1.359h5.441v1.36h-6.801v-9.522h6.801v1.36h-5.441v2.72h4.081v1.361h-4.081v2.72Zm9.522-6.801h-2.72v-1.36h6.801v1.36h-2.721v8.16h-1.36v-8.16Z"/><path fill="#272B38" d="M273.784 61.093h-45.917v45.909h91.834v-45.91h-45.917Z"/><path fill="#A1A5B2" d="M-.356 87.276h5.441v1.36h-6.8v-9.522h6.8v1.36h-5.44v2.72h4.08v1.361h-4.08v2.72Zm12.242-8.162v1.36h-4.08v2.72h4.08v1.361h-1.36v1.36h-1.36v-1.36h-1.36v4.08h-1.36v-9.52h5.44Zm0 8.162h-1.36v-1.36h1.36v1.36Zm1.36-4.081h-1.36v-2.72h1.36v2.72Zm0 5.448h-1.36v-1.36h1.36v1.36Zm2.721-5.448h-1.36v-2.72h1.36v2.72Zm0 4.08h-1.36v-1.36h1.36v1.36Zm4.088-6.8h-4.081v-1.36h4.08v1.36Zm0 4.08h-4.081v-1.36h4.08v1.36Zm0 4.088h-4.081v-1.36h4.08v1.36Zm1.36-6.808h-1.36v-1.36h1.36v1.36Zm0 5.44h-1.36v-2.72h1.36v2.72Z"/><path fill="#fff" d="M297.685 186.119a.58.58 0 0 0-.165.064c-.115.065-.209.202-.295.331-.087.13-.173.245-.281.31-.014 0-.029.014-.043.014-.079.015-.159.008-.353-.072-.043-.014-.079-.036-.122-.05a1.608 1.608 0 0 0-.266-.101c-.18-.036-.353.094-.432.238-.051.079-.094.158-.13.223-.122.216-.23.403-.46.41-.094.014-.216-.014-.396-.05-.108-.022-.216-.051-.31-.058a.89.89 0 0 0-.77.295c-.129.144-.18.281-.23.41-.079.202-.158.418-.49.547-.244.101-.446.044-.611 0-.087-.021-.166-.043-.231-.036h-.007c-.05 0-.115.029-.18.058 0 .432-.021 2.289-.036 3.548 0 .331-.007.648-.007.936 1.555-.677 4.995-2.642 5.822-3.203v-.007c.008-.187.008-1.137.008-2.663v-1.144h-.015Zm-15.437 7.089h9.312c0-.31 0-.648.015-1.008v-.727c.007-.813.021-1.72.029-2.677-.044.029-.087.057-.123.093a1.394 1.394 0 0 1-.316.195c-.13.057-.375.05-.605-.094-.094-.05-.18-.108-.266-.165a1.895 1.895 0 0 0-.418-.238c-.345-.122-.741 0-1.086.108-.159.065-.295.144-.425.216-.216.122-.417.245-.684.281-.345.057-.82-.144-1.281-.339a8.012 8.012 0 0 0-.568-.223c-.367-.1-.799-.043-1.209.151a2.645 2.645 0 0 0-.432.274c-.252.187-.497.36-.756.309a.241.241 0 0 1-.101-.028h-.028a1.034 1.034 0 0 0-.094-.044l-.058-.035c-.064-.044-.072-.044-.151-.116-.072-.064-.136-.129-.201-.194-.108-.108-.209-.216-.331-.288a.72.72 0 0 0-.18-.093v.928c0 .345-.007.669-.015.972v.417c-.007.943-.021 1.684-.021 2.044v.273l-.007.008Z"/><path fill="#fff" stroke="#272B38" stroke-miterlimit="10" stroke-width="1.353" d="M258.476 198.843h45.917v-45.917h-45.917v45.917Z"/><path fill="#ABB0BF" d="M-140.143 29.8v30.61h1.361v-1.367h-.008v-27.89h274.147v29.933h1.353V29.8h-276.853ZM69.764 81.158h-5.44v-1.36h6.8v4.08h-1.36v-2.72Zm-4.087 8.161h-1.36v-1.36h1.36v1.36Zm1.367-1.36h-1.36V86.6h1.36v1.36Zm1.36-1.36h-1.36v-1.36h1.36v1.36Zm1.36-1.36h-1.36v-1.36h1.36v1.36Zm20.354-8.169v-1.353H44.87v1.36h1.36v-.007h43.888ZM47.59 74.357h-1.36v1.36h1.36v-1.36Zm1.36-1.36h-1.36v1.36h1.36v-1.36Zm1.36-1.36h-1.36v1.36h1.36v-1.36Zm-2.72 5.441h-1.36v1.36h1.36v-1.36Zm1.36 1.36h-1.36v1.36h1.36v-1.36Zm1.36 1.36h-1.36v1.36h1.36v-1.36Z"/><path fill="#A1A5B2" d="M146.319 133.408h-4.081v1.36h4.081v-1.36Zm1.36-2.72h-1.361v2.72h1.361v-2.72Zm-5.442 1.36h-1.36v1.36h1.36v-1.36Zm0-5.448h-1.36v1.36h1.36v-1.36Zm4.081 2.72h-2.72v1.361h2.72v-1.361Zm1.361-2.72h-1.361v2.721h1.361V126.6Zm-1.36-1.36h-4.081v1.36h4.081v-1.36Zm-8.241-16.208h-1.36v1.36h1.36v-1.36Zm1.36 1.36h-1.36v1.36h1.36v-1.36Zm1.36 1.368h-1.36v1.36h1.36v-1.36Z"/><path fill="#A1A5B2" d="M135.357 107.672v45.247h1.353v-43.887h.008v-1.36h-1.361Zm-.007 1.36h-1.36v1.36h1.36v-1.36Zm-1.36 1.36h-1.36v1.36h1.36v-1.36Zm-1.36 1.368h-1.36v1.36h1.36v-1.36Z"/><path fill="#272B38" d="M279.85 129.32h4.081v1.361h-5.441v-5.441h6.801v1.36h-5.441v2.72Zm0 4.088h-1.36v-1.36h1.36v1.36Zm4.081 1.353h-4.081v-1.36h4.081v1.36Zm1.36-1.353h-1.36v-2.72h1.36v2.72Zm-10.817-26.406h-1.353v43.895h-.007v1.36h.007v.662h1.353v-45.917Z"/><path fill="#272B38" d="M273.115 149.536h-1.361v1.36h1.361v-1.36Zm-1.361-1.36h-1.36v1.36h1.36v-1.36Zm-1.36-1.36h-1.36v1.36h1.36v-1.36Zm5.441 2.72h-1.36v1.36h1.36v-1.36Zm1.36-1.36h-1.36v1.36h1.36v-1.36Zm1.361-1.36h-1.361v1.36h1.361v-1.36Zm-71.775-76.569v2.72h-1.36v-2.72h-4.081v-2.72h1.36v1.36h2.721v-2.72h-1.361v-1.36h1.361v-1.36h1.36v5.44h1.36v1.36h-1.36Zm-2.721-2.72h-1.36v-1.36h1.36v1.36Zm-.829 33.358v2.721h-1.36v-6.801h1.36v2.72h4.081v1.36h-4.081Zm4.081-4.08h-4.081v-1.36h4.081v1.36Zm0 8.161h-4.081v-1.36h4.081v1.36Zm1.36-6.801h-1.36v-1.36h1.36v1.36Zm0 5.441h-1.36v-2.721h1.36v2.721Zm19.195-11.228v-1.353h-43.858v-.007h-1.367v1.36h45.225Zm-2.022-15.3h-1.361v1.36h1.361v-1.36Zm-1.36 1.36h-1.36v1.36h1.36v-1.36Zm-1.361 1.36h-1.36v1.36h1.36v-1.36Zm2.721-2.72h1.36v-1.36H181.95v1.352h43.895v.008Zm0-2.721h-1.361v1.36h1.361v-1.36Zm-1.36-1.36h-1.36v1.36h1.36v-1.36Zm-1.361-1.36h-1.36v1.36h1.36v-1.36Zm-37.755 18.021h-1.36v1.36h1.36v-1.36Zm1.36-1.361h-1.36v1.36h1.36v-1.36Zm1.36-1.36h-1.36v1.36h1.36v-1.36Zm-2.72 5.441h-1.36v1.36h1.36v-1.36Zm1.36 1.36h-1.36v1.36h1.36v-1.36Zm1.36 1.361h-1.36v1.36h1.36v-1.36Z"/><path fill="#ABB0BF" d="M68.432 195.439h2.72v1.36h-6.8v-1.36h2.72v-6.801h-2.72v-1.361h4.08v8.162Zm-3.18-37.561h-1.36v-1.361h1.36v1.361Zm1.367 5.441H70.7v1.36h-6.801v-1.36h1.36v-1.361h1.36v1.361Zm2.72-6.802h-4.08v-1.36h4.08v1.36Zm-1.36 5.441h-1.36v-1.36h1.36v1.36Zm1.36-1.36h-1.36v-1.36h1.36v1.36Zm1.361-1.36h-1.36v-2.721h1.36v2.721Zm-24.391 8.313h-1.36v1.353h45.167v-1.353H46.31Zm1.361-1.368h-1.36v1.36h1.36v-1.36Zm1.36-1.36h-1.36v1.36h1.36v-1.36Zm1.36-1.361h-1.36v1.361h1.36v-1.361Z"/><path fill="#ABB0BF" d="M47.67 168.903h-1.36v1.361h1.36v-1.361Zm1.36 1.368h-1.36v1.36h1.36v-1.36Zm1.36 1.36h-1.36v1.361h1.36v-1.361Zm37.619 12.58h-1.36v1.361h1.36v-1.361Zm-1.361 1.361h-1.36v1.36h1.36v-1.36Zm-1.36 1.36h-1.36v1.36h1.36v-1.36Zm2.72-4.081H44.2v1.36h45.168v-1.36h-1.36Zm.001-1.36h-1.36v1.36h1.36v-1.36Zm-1.361-1.36h-1.36v1.36h1.36v-1.36Zm-1.36-1.36h-1.36v1.36h1.36v-1.36ZM20.861 129.32h-1.36v-2.72h1.36v2.72Zm0 4.088h-1.36v-2.72h1.36v2.72Zm4.08-6.808h-4.08v-1.36h4.08v1.36Zm0 4.088h-4.08v-1.36h4.08v1.36Zm0 4.081h-4.08v-1.361h4.08v1.361Zm1.361-5.449h-1.36v-2.72h1.36v2.72Zm0 4.088h-1.36v-2.72h1.36v2.72Zm-12.027-25.736h-1.367v42.296h-1.36v1.361h1.36v1.36h1.36v-1.36h1.361v-1.361h-1.354v-42.296Zm-2.727 40.936h-1.36v1.36h1.36v-1.36Zm-1.361-1.36h-1.36v1.36h1.36v-1.36Z"/><path fill="#ABB0BF" d="M16.99 148.608h-1.361v1.361h1.36v-1.361Zm1.359-1.36h-1.36v1.36h1.36v-1.36Z"/><path fill="#fff" d="M255.417 87.276h-1.36v-8.162h1.36v8.162Zm4.081 1.36h-4.081v-1.36h4.081v1.36Zm1.36-1.36h-1.36v-8.162h1.36v8.162Zm2.72-4.081h-1.36v-2.72h1.36v2.72Zm0 4.08h-1.36v-1.36h1.36v1.36Zm4.081-6.8h-4.081v-1.36h4.081v1.36Zm0 4.08h-4.081v-1.36h4.081v1.36Zm0 4.08h-4.081v-1.36h4.081v1.36Zm1.36-6.8h-1.36v-1.36h1.36v1.36Zm0 5.44h-1.36v-2.72h1.36v2.72Zm2.721.001h5.441v1.36h-6.801v-9.522h6.801v1.36h-5.441v2.72h4.081v1.361h-4.081v2.72Zm12.242-8.162v1.36h-4.081v2.72h4.081v1.361h-1.36v1.36h-1.361v-1.36h-1.36v4.08h-1.36v-9.52h5.441Zm0 8.162h-1.36v-1.36h1.36v1.36Zm1.36-4.081h-1.36v-2.72h1.36v2.72Zm0 5.44h-1.36v-1.36h1.36v1.36Zm2.728-5.44h-1.361v-2.72h1.361v2.72Zm0 4.08h-1.361v-1.36h1.361v1.36Zm4.08-6.8h-4.08v-1.36h4.08v1.36Zm0 4.08h-4.08v-1.36h4.08v1.36Zm0 4.08h-4.08v-1.36h4.08v1.36Zm1.361-6.8h-1.361v-1.36h1.361v1.36Zm0 5.44h-1.361v-2.72h1.361v2.72Z"/><path fill="#FCE729" d="M281.945 164.096c-.223-.756-.504-1.526-.575-2.317-.116-1.31.237-1.965-.022-2.49-.058-.108-.238-.425-.353-.475-.151-.058-.712.05-.863.079-.511.1-.9.252-1.051.719-.245.331-.187.612-.223.986-.583 2.332-1.339 2.577-1.375 2.591-1.634 1.195-2.109 1.677-4.628 2.483-1.943.619-3.922.742-5.937.576-2.836-.238-3.188-.072-3.195-.072-.454.158-.699.396-.763.849-.015.094-.123.331.388.706.015.014.036.028.058.043.331.338.856.979 1.569 1.158-.418.116-1.008.188-1.224.339-.014.057-.158.136-.172.201-.367.67-.173.857.043 1.195.36.396 2.216 2.065 4.584 2.116-.36.129-1.979.424-2.08 1.101-.036.259-.129.245.029.662.015.029.022.058.036.086.115.288.619.497 1.123.706.777.324 1.705.583 2.332.626 10.298.734 15.092-7.579 12.299-11.875"/><path fill="#231F20" d="M266.774 169.875c1.058.079 2.109.115 3.166-.007.691-.079 1.375-.23 2.037-.439 2.649-.655 5.081-2.102 6.312-4.541-.979 1.525-2.361 2.742-4.347 3.577-2.066.878-4.239 1.194-6.47 1.173-.525 0-1.051-.022-1.569-.008-.518.015-1.123 0-1.483.44.432-.173.742-.281 1.202-.267.389.015.77.051 1.159.079"/><path fill="#231F20" d="M276.245 165.226c-5.513 3.49-10.781 1.209-12.062 1.583.403-.036.871.094 1.533.259 3.649.85 7.629.497 10.529-1.849m-3.836 7.564c4.196-1.303 6.959-4.145 7.924-7.442a.712.712 0 0 0-.058.108c0-.014.014-.036.014-.05-.215.561-1.417 2.404-1.461 2.461l-.187.267c-.23.259-.525 1.029-2.202 2.267a13.433 13.433 0 0 1-2.274 1.367c-2.382 1.317-5.866 1.497-6.916 2.188.719-.094.827-.223 2.583-.54a21.334 21.334 0 0 0 2.577-.633"/><path fill="#231F20" d="M267.256 174.978c-.05-.072-.1-.144-.144-.216a2.637 2.637 0 0 1-.331-.943 1.05 1.05 0 0 0-.05.54c.021.173.086.338.165.489-.108-.043-.215-.079-.323-.122-.015-.187-.116-.252-.116-.77.447-1.454 5.017-.396 10.378-5.448 1.238-.979 2.16-2.21 2.563-3.527.158-.259.352-.611.554-.554.187.058.208.374.23.497.209-.482-.05-.792-.36-.763.317-.677.547-2.116.295-3.419a.844.844 0 0 0 .108-.072c.238 1.058.324 1.44.36 3.325 0 .044.072-.288.072-.331.194-3.123-.259-2.583-.072-3.238a.857.857 0 0 1 .554-.324c-.014 0-.014 0 0 0-.079 1.266.036 2.684.605 3.829-.504-.375-1.058-.065-1.058.316.151-.46.899-.54 1.259.331 2.663 6.046-6.218 13.315-14.703 10.407l.014-.007Zm-2.116-3.527c-.28-.158-.453-.18-.763-.611-.338-.468-.302-.958-.266-1.519-.295.475-.324 1.152.094 1.591-.288-.187-.526-.389-.518-.54.014-.72.23-.936.266-1.044 1.051-.468 2.591 0 5.506-.388 1.137-.123 4.764-.842 8.067-4.038.9-.871.929-.957 1.137-.943.224.015.396.238.468.432.007-.302-.187-.583-.468-.655.288-.957.699-1.893.778-2.943a.938.938 0 0 0 .468.007c.086.619.028 1.353 0 1.756a5.255 5.255 0 0 1-.339 1.281c-.237.583-.432 1.188-.698 1.756-.309.655-.892 1.382-1.432 1.922-.928.928-1.749 1.655-2.821 2.425-2.699 1.958-6.362 3.231-9.479 1.497v.014Zm-1.079-3.382c-.259-.533-.324-1.087-.41-1.476-.123.31-.13.749.036 1.138-.137-.123-.303-.267-.36-.403-.051-.13-.051-.576.079-.835a.914.914 0 0 1 .18-.108c1.885-.778 6.24 2.144 13.026-2.289.238-.158.425-.381.67-.525.115-.065.244-.123.381-.101.281.05.302.288.302.389 0-.022.015-.051.022-.072 0-.029.007-.058.007-.08.015-.273-.158-.374-.194-.395.338-.411.763-1.123 1.022-1.836.151-.338.244-.662.266-.712 0 .835.036 1.454-.907 3.138l-.029.05c-.791.547-3.778 4.052-8.78 4.7-1.742.223-3.886.468-5.326-.583h.015Zm15.221-8.478c.108.05.259-.015.562.223.115.187.187.396.223.612-.669.129-.691-.072-.878-.187 0-.008 0 0-.029-.065.022-.202.043-.403.13-.583h-.008Zm1.526-.67s0 .015.007.022c-.05 0-.791.684-.799.698a.741.741 0 0 0-.554-.295c.31-.295.907-.403 1.346-.417v-.008Zm.065.137c.302.497.259.389.324.641-.396-.007-.655.446-.936.698-.108-.338-.036-.518.015-.777.23-.224.539-.475.597-.562Zm1.072 5.038c-.223-.756-.504-1.526-.575-2.317-.116-1.31.237-1.965-.022-2.49-.058-.108-.238-.425-.353-.475-.151-.058-.712.05-.863.079-.511.1-.9.252-1.051.719-.245.331-.187.612-.223.986-.583 2.332-1.339 2.577-1.375 2.591-1.634 1.195-2.109 1.677-4.628 2.483-1.943.619-3.922.742-5.937.576-2.836-.238-3.188-.072-3.195-.072-.454.158-.699.396-.763.849-.015.094-.123.331.388.706.015.014.036.028.058.043.331.338.856.979 1.569 1.158-.418.116-1.008.188-1.224.339-.014.057-.158.136-.172.201-.367.67-.173.857.043 1.195.36.396 2.216 2.065 4.584 2.116-.36.129-1.979.424-2.08 1.101-.036.259-.129.245.029.662.015.029.022.058.036.086.115.288.619.497 1.123.706.777.324 1.705.583 2.332.626 10.298.734 15.092-7.579 12.299-11.875"/><path fill="#AFD4FA" d="M298.009 177.741a854.008 854.008 0 0 0-.036 8.205v4.131s0 .014-.007.014c0 0 0 .008-.007.015v.021s0 .008-.015.015l-.014.014s-.014.015-.022.015a1.153 1.153 0 0 1-.129.086s-.007 0-.015.007c-.561.36-1.748 1.058-2.965 1.727-.021.008-.036.022-.057.029-.288.158-.583.317-.864.468-.043.022-.086.043-.129.072-.144.072-.281.144-.418.216h-.014c-.123.065-.245.122-.36.18-.065.036-.13.065-.194.101-.072.035-.137.071-.209.1-.043.022-.079.036-.123.058a1.878 1.878 0 0 1-.172.079 2.233 2.233 0 0 0-.137.065c-.065.029-.122.05-.173.079-.021.007-.05.022-.072.029h-9.55a.29.29 0 0 1-.288-.288v-.051c0-.194 0-1.036.014-2.396v-.36c.044-3.152.101-8.809.051-13.048 0-.396-.015-.763-.015-1.116v-.18c0-.014.015-.036.029-.05.634-.885 1.31-1.785 1.987-2.677.403-.533.813-1.065 1.216-1.591l.021-.028v-.353c.029-.655.044-.921.123-1.72 0-.015 0-.036.007-.051a.28.28 0 0 1 .194-.194c.015 0 .029 0 .051-.007 2.763-.31 5.671-.346 8.672-.108.238.022.468.036.705.058a.285.285 0 0 1 .259.302l-.122 1.885s.036.044.05.058a.171.171 0 0 1 .036.043.746.746 0 0 0 .072.079.19.19 0 0 1 .036.043l.072.08s.022.028.036.036c.029.028.051.057.08.086l.036.036c.028.029.057.065.093.094l.029.028.115.115c.079.08.166.159.245.245h.007c.583.583 1.238 1.224 1.893 2.13.014.022.029.044.036.072a.44.44 0 0 1 .014.101c-.014.526-.021 1.065-.029 1.62l-.021 1.374-.022.007Z"/><path fill="#000" d="M298.009 177.741a854.008 854.008 0 0 0-.036 8.205v4.131s0 .014-.007.014c0 0 0 .008-.007.015v.021s0 .008-.015.015l-.014.014s-.014.015-.022.015a1.153 1.153 0 0 1-.129.086s-.007 0-.015.007c-.561.36-1.748 1.058-2.965 1.727-.021.008-.036.022-.057.029-.288.158-.583.317-.864.468-.043.022-.086.043-.129.072-.144.072-.281.144-.418.216h-.014c-.123.065-.245.122-.36.18-.065.036-.13.065-.194.101-.072.035-.137.071-.209.1-.043.022-.079.036-.123.058a1.878 1.878 0 0 1-.172.079 2.233 2.233 0 0 0-.137.065c-.065.029-.122.05-.173.079-.021.007-.05.022-.072.029h-9.55a.29.29 0 0 1-.288-.288v-.051c0-.194 0-1.036.014-2.396v-.36c.044-3.152.101-8.809.051-13.048 0-.396-.015-.763-.015-1.116v-.18c0-.014.015-.036.029-.05.634-.885 1.31-1.785 1.987-2.677.403-.533.813-1.065 1.216-1.591l.021-.028v-.353c.029-.655.044-.921.123-1.72 0-.015 0-.036.007-.051a.28.28 0 0 1 .194-.194c.015 0 .029 0 .051-.007 2.763-.31 5.671-.346 8.672-.108.238.022.468.036.705.058a.285.285 0 0 1 .259.302l-.122 1.885s.036.044.05.058a.171.171 0 0 1 .036.043.746.746 0 0 0 .072.079.19.19 0 0 1 .036.043l.072.08s.022.028.036.036c.029.028.051.057.08.086l.036.036c.028.029.057.065.093.094l.029.028.115.115c.079.08.166.159.245.245h.007c.583.583 1.238 1.224 1.893 2.13.014.022.029.044.036.072a.44.44 0 0 1 .014.101c-.014.526-.021 1.065-.029 1.62l-.021 1.374-.022.007Zm-15.452-1.964c-.05.072-.101.136-.151.201 1.173.072 2.663.086 3.743.086 2.324 0 4.548-.072 5.52-.136.021-.029.043-.065.064-.094.008-.014.022-.029.029-.043.029-.036.058-.079.087-.122a.323.323 0 0 1 .05-.065l.057-.079c.065-.094.13-.187.202-.281.05-.079.108-.151.166-.23.014-.022.036-.051.05-.072.036-.051.072-.108.115-.159a.935.935 0 0 0 .065-.093 2.25 2.25 0 0 1 .108-.144c.021-.036.05-.065.072-.101.036-.043.065-.093.101-.137.021-.036.05-.064.071-.1.036-.051.065-.094.101-.137.022-.036.051-.065.072-.101.036-.043.065-.093.101-.137.029-.036.05-.072.079-.108.029-.043.065-.086.094-.129.028-.036.05-.072.079-.108a.824.824 0 0 0 .093-.137c.022-.036.051-.065.072-.101.036-.043.065-.093.101-.136.022-.036.051-.065.072-.101.036-.043.065-.094.101-.137.021-.029.05-.065.072-.101.036-.05.072-.093.108-.144l.065-.086c.036-.05.072-.101.115-.151.021-.022.036-.05.057-.072.051-.065.101-.13.144-.194 0-.007.015-.015.022-.022.057-.072.108-.144.158-.216.015-.021.036-.043.051-.065.036-.043.064-.086.1-.129H294c-.1 0-.194 0-.295.007h-.172c-.144 0-.288 0-.425.014h-.094c-1.554.044-3.166.087-4.807.087-.18 0-.41 0-.662.007-.151 0-.31 0-.468.014h-.554c-.245 0-.475.008-.691.008h-.324c-.13.18-.259.352-.396.525-.036.043-.065.086-.101.13l-.302.388-.137.18-.259.346c-.05.064-.1.136-.158.201a8.62 8.62 0 0 1-.245.324 4.226 4.226 0 0 0-.158.216 9.856 9.856 0 0 0-.23.309 4.015 4.015 0 0 0-.166.223c-.072.101-.151.202-.223.303-.058.079-.115.151-.173.23-.072.101-.144.194-.216.295l-.172.238-.015.036Zm-.266 12.486c.115.022.23.072.338.151.144.094.259.209.374.324.065.065.123.123.188.18a.708.708 0 0 0 .115.087l.057.036s.036.014.051.028h.007c.014 0 .036.015.05.015.144.029.339-.115.54-.259.144-.101.302-.223.475-.303.475-.23.979-.295 1.418-.172.187.057.396.144.597.23.403.166.857.36 1.123.317.209-.029.381-.13.583-.245.144-.079.288-.166.468-.238.395-.136.849-.266 1.281-.108.18.065.338.173.482.274.086.058.165.115.252.158.165.101.309.094.352.072.087-.036.166-.093.252-.158.087-.065.173-.13.274-.18.007 0 .014-.007.029-.014.05-5.254.05-9.234 0-12.149v-.086c-1.159.079-3.448.137-5.456.137-1.115 0-2.663-.015-3.857-.094 0 .18 0 .367.007.554v.317c.014.799.022 1.684.022 2.641.007 3.03-.022 6.269-.044 8.493l.022-.008Zm9.802-12.422s-.021.029-.029.044c.044 0 .08-.015.123-.022 1.346-.223 3.85-.828 5.311-1.209-.554-.295-1.259-.684-1.95-1.058-.475-.259-.929-.504-1.317-.72-.015.015-.022.036-.036.051-.029.036-.058.072-.087.115-.028.043-.057.079-.086.122-.029.036-.058.079-.086.115a1.637 1.637 0 0 0-.087.123c-.029.036-.057.079-.086.115-.029.043-.065.086-.094.129-.028.036-.057.072-.079.115-.029.044-.065.087-.093.13-.029.036-.058.079-.087.115-.029.043-.065.086-.093.13a.985.985 0 0 0-.079.115c-.029.043-.065.086-.094.129a.994.994 0 0 0-.079.116c-.036.05-.072.093-.101.143-.022.029-.043.065-.065.094-.036.043-.064.094-.1.137-.029.036-.051.072-.08.108l-.064.093c-.029.043-.065.087-.094.137-.058.079-.115.158-.165.23-.072.101-.144.202-.216.295a1.372 1.372 0 0 1-.094.13l.007-.022Zm2.958-4.059c-.201.267-.417.547-.64.857.381.208.82.446 1.288.698.597.324 1.209.662 1.72.935-.014-.014-.029-.036-.043-.05-.022-.029-.043-.05-.065-.079-.022-.022-.036-.043-.058-.065-.021-.021-.043-.05-.064-.072-.022-.021-.036-.043-.058-.065-.022-.021-.043-.05-.065-.072-.021-.021-.036-.043-.05-.057-.022-.022-.043-.051-.065-.072-.014-.022-.036-.043-.05-.058a.585.585 0 0 1-.065-.072c-.014-.021-.036-.036-.05-.057l-.065-.065c-.015-.022-.036-.036-.05-.05l-.065-.065-.051-.051-.064-.064-.051-.051-.065-.065-.043-.043-.065-.064-.043-.044-.064-.064c-.015-.015-.029-.022-.036-.036l-.08-.08-.028-.028c-.036-.036-.072-.072-.108-.101l-.015-.015-.194-.194c-.014-.007-.022-.021-.036-.029l-.187-.187-.036-.036a3.478 3.478 0 0 1-.18-.187l-.029-.029c-.057-.064-.122-.129-.18-.194v-.029Zm2.706 3.102c-1.439.382-4.527 1.137-5.865 1.317.021 1.087.028 2.339.036 3.735.007 2.303 0 5.06-.029 8.414a.54.54 0 0 1 .158-.029.955.955 0 0 1 .324.043c.144.036.281.072.432.007.216-.086.259-.201.324-.381.05-.144.122-.317.28-.497.245-.28.627-.424 1.022-.388.108.014.231.036.339.064.1.022.252.058.295.051h.029c.064 0 .108-.072.223-.267.043-.071.086-.143.136-.23.159-.273.461-.424.742-.374.122.022.223.072.331.115.036.014.079.036.115.05.108.044.151.051.165.058.051-.036.108-.122.166-.201.101-.152.216-.317.396-.418.093-.05.194-.086.309-.108 0-2.267 0-5.182.036-7.981v-.101c0-.461.015-.914.022-1.367v-.116c0-.403.014-.799.021-1.194v-.195l-.007-.007Zm-.072 11.235a.568.568 0 0 0-.165.064c-.115.065-.209.202-.295.331-.087.13-.173.245-.281.31-.014 0-.029.014-.043.014-.079.015-.159.008-.353-.072-.043-.014-.079-.036-.122-.05a1.608 1.608 0 0 0-.266-.101c-.18-.036-.353.094-.432.238-.051.079-.094.158-.13.223-.122.216-.23.403-.46.41-.094.014-.216-.014-.396-.05-.108-.022-.216-.051-.31-.058a.89.89 0 0 0-.77.295c-.129.144-.18.281-.23.41-.079.202-.158.418-.49.547-.244.101-.446.044-.611 0-.087-.021-.166-.043-.231-.036h-.007c-.05 0-.115.029-.18.058 0 .432-.021 2.289-.036 3.548 0 .331-.007.648-.007.936 1.555-.677 4.995-2.642 5.822-3.203v-.007c.008-.187.008-1.137.008-2.663v-1.144h-.015Zm-15.437 7.089h9.313c0-.31 0-.648.014-1.008v-.727c.007-.813.022-1.72.029-2.677-.043.029-.087.057-.123.093a1.394 1.394 0 0 1-.316.195c-.13.057-.374.05-.605-.094-.093-.05-.18-.108-.266-.165a1.89 1.89 0 0 0-.417-.238c-.346-.122-.742 0-1.087.108-.159.065-.295.144-.425.216-.216.122-.417.245-.684.281-.345.057-.82-.144-1.281-.339a7.828 7.828 0 0 0-.568-.223c-.367-.1-.799-.043-1.209.151a2.733 2.733 0 0 0-.432.274c-.252.187-.497.36-.756.309a.233.233 0 0 1-.1-.028h-.029a.92.92 0 0 0-.094-.044l-.057-.035c-.065-.044-.072-.044-.152-.116-.072-.064-.136-.129-.201-.194-.108-.108-.209-.216-.331-.288a.703.703 0 0 0-.18-.093v.928c0 .345-.007.669-.014.972v.417c-.008.943-.022 1.684-.022 2.044v.273l-.007.008Zm3.339-21.865c0 .072 0 .151-.007.238h.338c.173 0 .36 0 .554-.007h.591c.431-.015.842-.029 1.137-.029 1.633 0 3.245-.043 4.8-.087h.094c.151 0 .309-.007.467-.014h.108c.123 0 .238 0 .36-.007h.885l.123-1.807c-3.224-.309-6.362-.288-9.32.044-.079.784-.087 1.05-.123 1.698l-.007-.029Z"/><path fill="#83B2E5" d="M297.757 174.884c-1.44.382-4.527 1.137-5.866 1.317a257.7 257.7 0 0 1 .036 3.736c.007 2.303 0 5.059-.029 8.413a.547.547 0 0 1 .159-.029.955.955 0 0 1 .324.043c.143.036.28.072.431.007.216-.086.259-.201.324-.381.051-.144.123-.317.281-.497.245-.28.626-.424 1.022-.388.108.014.23.036.338.065.101.021.252.057.295.05h.029c.065 0 .108-.072.223-.266l.137-.231c.158-.273.46-.424.741-.374.122.022.223.072.331.115l.115.051c.108.043.151.05.166.057.05-.036.108-.122.165-.201.101-.151.216-.317.396-.418.094-.05.195-.086.31-.108 0-2.267 0-5.182.036-7.981v-.101c0-.461.014-.914.021-1.367v-.116c0-.403.015-.798.022-1.194v-.195l-.007-.007Z"/><path fill="#fff" d="M297.685 186.119a.58.58 0 0 0-.165.064c-.115.065-.209.202-.295.331-.087.13-.173.245-.281.31-.014 0-.029.014-.043.014-.079.015-.159.008-.353-.072-.043-.014-.079-.036-.122-.05a1.608 1.608 0 0 0-.266-.101c-.18-.036-.353.094-.432.238-.051.079-.094.158-.13.223-.122.216-.23.403-.46.41-.094.014-.216-.014-.396-.05-.108-.022-.216-.051-.31-.058a.89.89 0 0 0-.77.295c-.129.144-.18.281-.23.41-.079.202-.158.418-.49.547-.244.101-.446.044-.611 0-.087-.021-.166-.043-.231-.036h-.007c-.05 0-.115.029-.18.058 0 .432-.021 2.289-.036 3.548 0 .331-.007.648-.007.936 1.555-.677 4.995-2.642 5.822-3.203v-.007c.008-.187.008-1.137.008-2.663v-1.144h-.015Zm-15.437 7.089h9.312c0-.31 0-.648.015-1.008v-.727c.007-.813.021-1.72.029-2.677-.044.029-.087.057-.123.093a1.394 1.394 0 0 1-.316.195c-.13.057-.375.05-.605-.094-.094-.05-.18-.108-.266-.165a1.895 1.895 0 0 0-.418-.238c-.345-.122-.741 0-1.086.108-.159.065-.295.144-.425.216-.216.122-.417.245-.684.281-.345.057-.82-.144-1.281-.339a8.012 8.012 0 0 0-.568-.223c-.367-.1-.799-.043-1.209.151a2.645 2.645 0 0 0-.432.274c-.252.187-.497.36-.756.309a.241.241 0 0 1-.101-.028h-.028a1.034 1.034 0 0 0-.094-.044l-.058-.035c-.064-.044-.072-.044-.151-.116-.072-.064-.136-.129-.201-.194-.108-.108-.209-.216-.331-.288a.72.72 0 0 0-.18-.093v.928c0 .345-.007.669-.015.972v.417c-.007.943-.021 1.684-.021 2.044v.273l-.007.008Z"/><path fill="#000" d="M297.117 178.691v-.244c0-.18 0-.374-.029-.562a.48.48 0 0 0-.231-.338c-.374-.223-1.079.007-1.54.166-.064.021-.122.043-.172.057l-.065.015c-.497.108-1.008.216-1.504.388-.029.007-.058.022-.087.029-.244.086-.518.187-.669.446-.281.425-.266.95-.259 1.375 0 .209.014.425.021.633.015.303.029.612.022.921 0 .339 0 .914.518 1.015.108.022.216.029.324.029.13 0 .259-.014.374-.029a4.56 4.56 0 0 0 1.015-.201c.072-.022.202-.058.353-.094.734-.187 1.41-.381 1.655-.698.288-.367.281-.712.281-1.015v-.252c0-.619 0-1.151-.015-1.641h.008Zm-.274 1.9c0 .296 0 .555-.216.835-.201.259-1.051.475-1.504.59-.158.044-.288.072-.367.101a4.382 4.382 0 0 1-.957.195c-.187.021-.403.043-.605 0-.273-.058-.295-.353-.295-.735 0-.316-.007-.626-.029-.935-.007-.202-.021-.418-.021-.626-.007-.403-.022-.864.209-1.209v-.008c.1-.172.302-.244.518-.323.028-.015.057-.022.086-.036.475-.166.979-.274 1.468-.382l.072-.014h.015l.187-.058c.273-.093.734-.245 1.05-.245.101 0 .188.015.252.051.051.029.08.072.094.144.029.158.029.331.029.504v.251c.007.483.014 1.015.014 1.627v.273Z"/><path fill="#AFD4FA" d="M292.093 175.842s-.022.028-.029.043c.043 0 .079-.015.122-.022 1.346-.223 3.851-.827 5.312-1.209-.554-.295-1.26-.684-1.951-1.058-.475-.259-.928-.504-1.317-.72-.014.015-.021.036-.036.051a1.639 1.639 0 0 0-.086.115c-.029.043-.058.079-.086.122-.029.036-.058.08-.087.115-.029.036-.057.08-.086.123-.029.036-.058.079-.087.115-.028.043-.064.086-.093.13-.029.036-.058.072-.079.115-.029.043-.065.086-.094.129-.029.036-.057.079-.086.115-.029.044-.065.087-.094.13a1.125 1.125 0 0 0-.079.115c-.029.043-.065.086-.093.13a1.139 1.139 0 0 0-.08.115c-.036.05-.072.093-.1.144-.022.029-.044.064-.065.093-.036.043-.065.094-.101.137-.029.036-.05.072-.079.108-.022.029-.043.065-.065.094-.029.043-.065.086-.093.136-.058.079-.116.159-.166.231-.072.1-.144.201-.216.295-.029.043-.057.086-.093.129l.007-.021Z"/><path fill="#6386B3" d="M295.051 171.782c-.202.267-.418.547-.641.857l1.288.698c.598.324 1.209.662 1.72.935-.014-.014-.028-.036-.043-.05-.021-.029-.043-.05-.064-.079-.022-.022-.036-.043-.058-.065-.022-.022-.043-.05-.065-.072-.021-.022-.036-.043-.057-.065-.022-.021-.044-.05-.065-.072-.022-.021-.036-.043-.051-.057-.021-.022-.043-.051-.064-.072a.43.43 0 0 0-.051-.058c-.021-.021-.043-.043-.064-.072-.015-.021-.036-.036-.051-.057a1.992 1.992 0 0 0-.065-.065c-.014-.022-.036-.036-.05-.05l-.065-.065-.05-.051-.065-.064-.05-.051-.065-.065-.043-.043-.065-.065-.043-.043-.065-.064c-.014-.015-.029-.022-.036-.036l-.079-.08-.029-.028c-.036-.036-.072-.072-.108-.101l-.014-.015-.195-.194c-.014-.007-.021-.021-.036-.029l-.187-.187-.036-.036c-.064-.065-.122-.122-.18-.187l-.028-.029c-.058-.064-.123-.129-.18-.194v-.029Z"/><path fill="#000" d="M289.149 182.635a.754.754 0 0 1-.173-.115c-.079-.058-.136-.166-.194-.31a1.995 1.995 0 0 1-.079-.618c.007-.231.014-.403.014-.533s-.021-.194-.086-.194c-.065 0-.173.057-.345.172a5.463 5.463 0 0 0-.583.468c-.216.194-.439.418-.67.655a7.24 7.24 0 0 1-.223.23.538.538 0 0 1-.209.137c-.064.022-.143 0-.237-.072l-.122-.101a.226.226 0 0 1-.065-.122.36.36 0 0 1 .014-.144l.259-.748c.123-.274.202-.468.252-.598a.99.99 0 0 0 .065-.237c0-.036-.014-.051-.036-.036a.911.911 0 0 0-.273.108.622.622 0 0 0-.238.187c-.029 0-.079.036-.137.101a1.305 1.305 0 0 1-.23.194c-.05.094-.158.209-.309.353-.159.144-.31.287-.461.439a2.007 2.007 0 0 0-.288.309c-.094.122-.173.23-.237.317-.065.093-.108.137-.13.137a.435.435 0 0 1-.439-.339c-.058-.129-.058-.309 0-.54.058-.23.13-.532.201-.899.029-.115.051-.194.058-.252.007-.05.022-.108.036-.166.022-.057.05-.143.101-.266.05-.122.129-.302.23-.547.05-.144.086-.252.094-.324a.734.734 0 0 0 .014-.151c0-.072.022-.137.065-.194a.37.37 0 0 1 .151-.115.287.287 0 0 1 .173-.015.41.41 0 0 1 .223.123.426.426 0 0 1 .108.28.657.657 0 0 1-.022.245 4.846 4.846 0 0 1-.065.202l-.122.309c-.036.086-.086.202-.144.36-.057.158-.115.302-.158.439a1.38 1.38 0 0 0-.065.23c.007.022.036.015.079-.014a8.53 8.53 0 0 0 .173-.151c.072-.065.144-.13.223-.187a4.65 4.65 0 0 1 .54-.439c.201-.137.388-.26.576-.36a2.35 2.35 0 0 1 .417-.195c.129 0 .216.022.266.065.051.043.137.13.252.252.051.05.087.122.094.202a.826.826 0 0 1-.015.237 7.282 7.282 0 0 1-.064.223c-.036.115-.094.281-.159.497.173-.151.317-.274.418-.36.108-.086.187-.151.237-.202.295-.23.554-.367.77-.431.216-.058.396.021.533.237a.402.402 0 0 1 .144.274v.511c.007.1.014.215.021.352.007.137.015.259.029.367.014.108.022.173.036.202a.224.224 0 0 0 .13.072c.064.021.151.036.252.05.115.014.179.065.201.144.022.086-.029.166-.144.238a.681.681 0 0 1-.374.093 1.279 1.279 0 0 1-.36-.065l.007.029Z"/></g><defs><clipPath id="a"><path fill="#fff" d="M0 12C0 5.373 5.373 0 12 0h326c6.627 0 12 5.373 12 12v206c0 6.627-5.373 12-12 12H12c-6.627 0-12-5.373-12-12V12Z"/></clipPath></defs></svg>