<svg xmlns="http://www.w3.org/2000/svg" width="350" height="204" fill="none"><g clip-path="url(#a)"><path fill="#F9F9FB" d="M-16.16 0h504v203.908h-504z"/><g clip-path="url(#b)"><path stroke="#ABB0BF" stroke-miterlimit="10" stroke-width=".224" d="M281.753 13.363h3.636m-1.822 1.814v-3.636m-1.815 15.454h3.636m-1.821 1.821v-3.635m-1.815 15.453h3.636m-1.821 1.815v-3.636m-1.815 15.46h3.636m-1.821 1.814v-3.635m-1.815 15.454h3.636m-1.821 1.821V66.09m-1.814 15.454h3.636m-1.822 1.814v-3.635m-1.815 15.453h3.636m-1.821 1.821v-3.636m-1.815 15.454h3.636m-1.821 1.821V107m-1.815 15.454h3.636m-1.821 1.815v-3.636m-1.815 15.453h3.636m-1.821 1.821v-3.636m-1.814 15.454h3.636m-1.822 1.821v-3.636m-1.815 15.453h3.636m-1.821 1.815v-3.636m-1.815 15.454h3.636m-1.821 1.821v-3.635m-1.815 15.453h3.636m-1.821 1.821v-3.636M254.475 13.363h3.642m-1.821 1.814v-3.636m-1.821 15.454h3.642m-1.821 1.821v-3.635m11.818-11.818h3.636m-1.815 1.814v-3.636m-1.821 15.454h3.636m-1.814 1.821v-3.635m-15.461 15.453h3.642m-1.821 1.815v-3.636m-1.821 15.46h3.642m-1.821 1.814v-3.635m11.818-11.818h3.636m-1.815 1.815v-3.636m-1.821 15.46h3.636m-1.815 1.815v-3.636m-15.459 15.454h3.642m-1.822 1.821V66.09m-1.82 15.454h3.642m-1.822 1.814v-3.635m11.818-11.817h3.636m-1.815 1.821V66.09m-1.821 15.453h3.636m-1.815 1.815v-3.635m-15.46 15.453h3.642m-1.821 1.821V93.36m-1.821 15.455h3.642m-1.821 1.821V107m11.818-11.824h3.636m-1.814 1.821v-3.636m-1.822 15.454h3.636m-1.815 1.821V107m-15.46 15.454h3.642m-1.821 1.815v-3.636m-1.821 15.453h3.642m-1.821 1.821v-3.636m11.818-11.817h3.636m-1.815 1.815v-3.636m-1.821 15.453h3.636m-1.815 1.821v-3.636m-15.46 15.454h3.642m-1.821 1.821v-3.636m-1.821 15.453h3.642m-1.821 1.815v-3.636m11.818-11.817h3.636m-1.815 1.821v-3.635m-1.821 15.452h3.636m-1.814 1.815v-3.636m-15.46 15.455h3.642m-1.822 1.82v-3.635m-1.82 15.453h3.642m-1.822 1.821v-3.636m11.818-11.824h3.636m-1.815 1.821v-3.635m-1.821 15.453h3.636m-1.815 1.821v-3.636M227.204 13.363h3.635m-1.814 1.815v-3.636m-1.821 15.453h3.635m-1.814 1.821V25.18m11.818-11.817h3.636m-1.822 1.814v-3.636m-1.815 15.454h3.636m-1.82 1.821V25.18m-15.454 15.454h3.635m-1.814 1.815v-3.636m-1.821 15.46h3.635m-1.814 1.815v-3.636m11.817-11.818h3.636m-1.82 1.815v-3.636m-1.816 15.46h3.636m-1.821 1.815v-3.636m-15.453 15.454h3.635m-1.814 1.821V66.09m-1.821 15.454h3.635m-1.814 1.815v-3.636m11.817-11.817h3.636m-1.82 1.821V66.09m-1.815 15.454h3.636m-1.821 1.815v-3.636m-15.454 15.453h3.635m-1.815 1.821v-3.636m-1.82 15.454h3.635m-1.814 1.821V107m11.817-11.824h3.636m-1.82 1.821V93.36m-1.815 15.455h3.636m-1.822 1.821V107m-15.453 15.454h3.635m-1.814 1.815v-3.636m-1.821 15.453h3.635m-1.814 1.822v-3.636m11.817-11.818h3.636m-1.821 1.815v-3.636m-1.815 15.453h3.636m-1.821 1.822v-3.636m-15.453 15.453h3.635m-1.814 1.821v-3.635m-1.821 15.452h3.635m-1.814 1.815v-3.636m11.817-11.817h3.636m-1.821 1.821v-3.635m-1.815 15.452h3.636m-1.82 1.815v-3.636m-15.454 15.454h3.635m-1.814 1.821v-3.635m-1.821 15.453h3.635m-1.814 1.821v-3.636m11.817-11.824h3.636m-1.82 1.821v-3.635m-1.816 15.453h3.636m-1.82 1.821v-3.636M199.933 13.363h3.635m-1.821 1.814v-3.636m-1.814 15.454h3.635m-1.82 1.821V25.18m11.817-11.817h3.642m-1.821 1.814v-3.636m-1.821 15.454h3.642m-1.821 1.821V25.18m-15.453 15.454h3.635m-1.82 1.815v-3.636m-1.815 15.46h3.635m-1.821 1.815v-3.636m11.818-11.818h3.642m-1.821 1.815v-3.636m-1.821 15.46h3.642m-1.821 1.814v-3.635m-15.453 15.454h3.635m-1.82 1.821V66.09m-1.815 15.454h3.635m-1.821 1.815v-3.636m11.818-11.817h3.642m-1.821 1.821V66.09m-1.821 15.454h3.642m-1.821 1.814v-3.635m-15.453 15.453h3.635m-1.82 1.821V93.36m-1.815 15.455h3.635m-1.821 1.821V107m11.818-11.824h3.642m-1.821 1.821V93.36m-1.821 15.455h3.642m-1.821 1.821V107m-15.453 15.454h3.635m-1.821 1.815v-3.636m-1.814 15.453h3.635m-1.82 1.822v-3.636m11.817-11.818h3.642m-1.821 1.815v-3.636m-1.821 15.453h3.642m-1.821 1.822v-3.636m-15.453 15.453h3.635m-1.821 1.821v-3.635m-1.815 15.452h3.636m-1.82 1.815v-3.636m11.817-11.817h3.642m-1.821 1.821v-3.636m-1.821 15.453h3.642m-1.821 1.815v-3.636m-15.453 15.454h3.635m-1.821 1.821v-3.635m-1.814 15.453h3.635m-1.82 1.821v-3.636m11.817-11.823h3.642m-1.821 1.82v-3.635m-1.821 15.453h3.642m-1.821 1.821v-3.636M172.661 13.363h3.636m-1.82 1.815v-3.636m-1.816 15.453h3.636m-1.82 1.821v-3.635m11.817-11.818h3.636m-1.815 1.815v-3.636m-1.821 15.453h3.636m-1.815 1.821v-3.635m-15.454 15.453h3.636m-1.821 1.815v-3.636m-1.815 15.46h3.636m-1.821 1.815v-3.636m11.818-11.818h3.636m-1.815 1.815v-3.636m-1.821 15.46h3.636m-1.815 1.814v-3.635m-15.453 15.454h3.635m-1.82 1.821V66.09m-1.815 15.454h3.635m-1.82 1.815v-3.636m11.817-11.817h3.636m-1.815 1.821V66.09m-1.821 15.454h3.636m-1.815 1.814v-3.635m-15.454 15.453h3.636m-1.821 1.821v-3.636m-1.815 15.454h3.636m-1.82 1.821V107m11.817-11.824h3.636m-1.815 1.821v-3.636m-1.821 15.454h3.636m-1.815 1.821V107m-15.454 15.454h3.636m-1.82 1.815v-3.636m-1.816 15.454h3.636m-1.821 1.821v-3.636m11.818-11.818h3.636m-1.815 1.815v-3.636m-1.821 15.453h3.636m-1.815 1.821v-3.636m-15.454 15.454h3.636m-1.82 1.821v-3.635m-1.816 15.452h3.636m-1.821 1.815v-3.636m11.818-11.817h3.636m-1.815 1.821v-3.636m-1.821 15.453h3.636m-1.815 1.815v-3.636m-15.453 15.455h3.635m-1.82 1.82v-3.635m-1.815 15.453h3.635m-1.82 1.821v-3.636m11.817-11.824h3.636m-1.815 1.821v-3.635m-1.821 15.453h3.636m-1.815 1.821v-3.636M145.384 13.363h3.636m-1.815 1.814v-3.636m-1.821 15.454h3.636m-1.815 1.821V25.18m11.818-11.817h3.636m-1.822 1.814v-3.636m-1.814 15.454h3.636m-1.822 1.821V25.18m-15.453 15.454h3.636m-1.815 1.815v-3.636m-1.821 15.46h3.636m-1.815 1.814v-3.635m11.818-11.818h3.636m-1.822 1.815v-3.636m-1.814 15.46h3.636m-1.822 1.814v-3.635m-15.453 15.454h3.636m-1.815 1.821V66.09m-1.821 15.454h3.636m-1.815 1.814v-3.635m11.818-11.817h3.636m-1.822 1.821V66.09m-1.814 15.454h3.636m-1.822 1.814v-3.635m-15.453 15.453h3.636m-1.815 1.821V93.36m-1.821 15.455h3.636m-1.815 1.821V107m11.818-11.824h3.636m-1.822 1.821v-3.636m-1.814 15.454h3.636m-1.822 1.821V107m-15.453 15.454h3.636m-1.815 1.815v-3.636m-1.821 15.453h3.636m-1.815 1.822v-3.636m11.818-11.818h3.636m-1.822 1.815v-3.636m-1.814 15.453h3.636m-1.822 1.822v-3.636m-15.453 15.453h3.636m-1.815 1.821v-3.636m-1.821 15.453h3.636m-1.815 1.815v-3.636m11.818-11.817h3.636m-1.821 1.821v-3.635m-1.815 15.452h3.636m-1.822 1.815v-3.636m-15.453 15.455h3.636m-1.815 1.82v-3.635m-1.821 15.453h3.636m-1.815 1.821v-3.636m11.818-11.823h3.636m-1.822 1.82v-3.635m-1.814 15.453h3.636m-1.822 1.821v-3.636M118.113 13.363h3.636m-1.821 1.815v-3.636m-1.815 15.453h3.636m-1.821 1.821V25.18m11.823-11.817h3.636m-1.821 1.814v-3.636m-1.814 15.454h3.636m-1.822 1.821V25.18m-15.453 15.454h3.636m-1.821 1.815v-3.636m-1.815 15.46h3.636m-1.821 1.814v-3.635m11.823-11.818h3.636m-1.821 1.815v-3.636m-1.814 15.46h3.636m-1.822 1.815v-3.636m-15.453 15.454h3.636m-1.821 1.821V66.09m-1.815 15.454h3.636m-1.821 1.814v-3.635m11.824-11.817h3.636m-1.822 1.821V66.09m-1.815 15.454h3.636m-1.821 1.815v-3.636m-15.453 15.453h3.636m-1.821 1.821v-3.636m-1.815 15.454h3.636m-1.821 1.821V107m11.824-11.824h3.636m-1.822 1.821v-3.636m-1.815 15.454h3.636m-1.821 1.821V107m-15.453 15.454h3.636m-1.821 1.815v-3.636m-1.815 15.453h3.636m-1.821 1.822v-3.636m11.824-11.818h3.636m-1.822 1.815v-3.636m-1.814 15.453h3.636m-1.822 1.822v-3.636m-15.453 15.453h3.636m-1.821 1.821v-3.636m-1.815 15.453h3.636m-1.821 1.815v-3.636m11.823-11.817h3.636m-1.821 1.821v-3.636m-1.814 15.453h3.636m-1.822 1.815v-3.636m-15.453 15.455h3.636m-1.821 1.82v-3.635m-1.815 15.453h3.636m-1.821 1.821v-3.636m11.824-11.823h3.636m-1.822 1.82v-3.635m-1.815 15.453h3.636m-1.821 1.821v-3.636M90.842 13.363h3.636m-1.822 1.814v-3.636m-1.814 15.454h3.636m-1.821 1.821V25.18m11.817-11.817h3.636m-1.815 1.814v-3.636m-1.821 15.454h3.636m-1.815 1.821V25.18M90.842 40.634h3.636m-1.821 1.815v-3.636m-1.815 15.46h3.636m-1.822 1.815v-3.636m11.818-11.818h3.636m-1.815 1.815v-3.636m-1.821 15.46h3.636m-1.815 1.814v-3.635M90.842 67.906h3.636m-1.821 1.821V66.09m-1.815 15.454h3.636m-1.822 1.815v-3.636m11.818-11.817h3.636m-1.815 1.821V66.09m-1.821 15.454h3.636m-1.815 1.814v-3.635M90.842 95.176h3.636m-1.821 1.821V93.36m-1.815 15.455h3.636m-1.822 1.821V107m11.818-11.824h3.636m-1.815 1.821V93.36m-1.821 15.455h3.636m-1.815 1.821V107m-15.453 15.454h3.636m-1.822 1.815v-3.636m-1.814 15.453h3.636m-1.821 1.822v-3.636m11.817-11.818h3.636m-1.815 1.815v-3.636m-1.821 15.453h3.636m-1.815 1.822v-3.636m-15.453 15.453h3.636m-1.822 1.821v-3.635m-1.814 15.452h3.636m-1.821 1.815v-3.636m11.817-11.817h3.636m-1.815 1.821v-3.635m-1.821 15.452h3.636m-1.815 1.815v-3.636m-15.453 15.455h3.636m-1.822 1.82v-3.635m-1.814 15.453h3.636m-1.821 1.821v-3.636m11.817-11.823h3.636m-1.815 1.82v-3.635m-1.821 15.453h3.636m-1.815 1.821v-3.636M63.564 13.363H67.2m-1.815 1.814v-3.636m-1.821 15.454H67.2m-1.815 1.821V25.18m11.818-11.817h3.635m-1.821 1.814v-3.636m-1.814 15.454h3.635m-1.821 1.821V25.18M63.564 40.634H67.2m-1.815 1.815v-3.636m-1.821 15.46H67.2m-1.815 1.815v-3.636m11.818-11.818h3.635m-1.82 1.815v-3.636m-1.815 15.46h3.635m-1.821 1.814v-3.635M63.564 67.906H67.2m-1.815 1.821V66.09m-1.821 15.454H67.2m-1.815 1.815v-3.636m11.818-11.817h3.635m-1.821 1.821V66.09m-1.814 15.454h3.635m-1.821 1.814v-3.635M63.564 95.176H67.2m-1.815 1.821v-3.636m-1.821 15.454H67.2m-1.815 1.821V107m11.818-11.824h3.635m-1.821 1.821v-3.636m-1.814 15.454h3.635m-1.82 1.821V107m-15.454 15.454H67.2m-1.815 1.815v-3.636m-1.821 15.453H67.2m-1.815 1.822v-3.636m11.818-11.818h3.635m-1.821 1.815v-3.636m-1.814 15.453h3.635m-1.82 1.822v-3.636m-15.454 15.453H67.2m-1.815 1.821v-3.635m-1.821 15.452H67.2m-1.815 1.815v-3.636m11.818-11.817h3.635m-1.82 1.821v-3.635m-1.815 15.452h3.635m-1.821 1.815v-3.636m-15.453 15.455H67.2m-1.815 1.82v-3.635m-1.821 15.453H67.2m-1.815 1.821v-3.636m11.818-11.823h3.635m-1.821 1.82v-3.635m-1.814 15.453h3.635m-1.821 1.821v-3.636M36.293 13.363h3.636m-1.815 1.814v-3.636m-1.821 15.454h3.636m-1.814 1.821v-3.635m11.817-11.818h3.635m-1.82 1.814v-3.636m-1.815 15.454h3.635m-1.82 1.821V25.18M36.293 40.634h3.636m-1.815 1.815v-3.636m-1.821 15.46h3.636m-1.815 1.814v-3.635m11.818-11.818h3.635m-1.82 1.815v-3.636m-1.815 15.46h3.635m-1.82 1.814v-3.635M36.293 67.906h3.636m-1.815 1.821V66.09m-1.821 15.454h3.636m-1.815 1.814v-3.635m11.818-11.817h3.636m-1.821 1.821V66.09m-1.815 15.454h3.636m-1.821 1.814v-3.635M36.293 95.176h3.636m-1.815 1.821v-3.636m-1.821 15.454h3.636m-1.815 1.821V107m11.818-11.824h3.635m-1.82 1.821v-3.636m-1.815 15.454h3.636m-1.821 1.821V107m-15.454 15.454h3.636m-1.815 1.815v-3.636m-1.821 15.453h3.636m-1.815 1.822v-3.636m11.818-11.818h3.635m-1.82 1.815v-3.636m-1.815 15.453h3.635m-1.82 1.822v-3.636m-15.454 15.453h3.636m-1.815 1.821v-3.635m-1.821 15.452h3.636m-1.815 1.815v-3.636m11.818-11.817h3.636m-1.821 1.821v-3.636m-1.815 15.453h3.635m-1.82 1.815v-3.636m-15.454 15.455h3.636m-1.815 1.82v-3.635m-1.821 15.453h3.636m-1.815 1.821v-3.636m11.818-11.823h3.636m-1.821 1.82v-3.635m-1.815 15.453h3.636m-1.821 1.821v-3.636M9.022 13.363h3.636m-1.822 1.814v-3.636M9.022 26.995h3.636m-1.822 1.821V25.18m11.819-11.817h3.636m-1.815 1.814v-3.636m-1.822 15.454h3.636m-1.814 1.821V25.18M9.022 40.634h3.636m-1.822 1.815v-3.636m-1.814 15.46h3.636m-1.822 1.814v-3.635m11.818-11.818h3.636m-1.815 1.815v-3.636m-1.821 15.46h3.636m-1.814 1.815v-3.636M9.022 67.906h3.636m-1.822 1.821V66.09M9.022 81.544h3.636m-1.822 1.814v-3.635m11.818-11.817h3.636m-1.814 1.821V66.09m-1.822 15.454h3.636m-1.814 1.815v-3.636M9.022 95.176h3.636m-1.822 1.821v-3.636m-1.814 15.454h3.636m-1.822 1.821V107m11.818-11.824h3.636m-1.814 1.821v-3.636m-1.822 15.454h3.636m-1.814 1.821V107M9.022 122.454h3.636m-1.822 1.815v-3.636m-1.814 15.453h3.636m-1.822 1.822v-3.636m11.818-11.818h3.636m-1.814 1.815v-3.636m-1.822 15.453h3.636m-1.814 1.822v-3.636M9.022 149.725h3.636m-1.822 1.821v-3.636m-1.814 15.453h3.636m-1.822 1.815v-3.636m11.819-11.817h3.636m-1.815 1.821v-3.636m-1.822 15.453h3.636m-1.814 1.815v-3.636M9.022 176.997h3.636m-1.822 1.82v-3.635m-1.814 15.453h3.636m-1.822 1.821v-3.636m11.818-11.823h3.636m-1.814 1.82v-3.635m-1.822 15.453h3.636m-1.814 1.821v-3.636M336.295 13.363h3.636m-1.815 1.814v-3.636m-1.821 15.454h3.636m-1.815 1.821V25.18m11.818-11.817h3.635m-3.635 13.632h3.635m-17.274 13.639h3.636m-1.815 1.815v-3.636m-1.821 15.46h3.636m-1.814 1.815v-3.636m11.817-11.818h3.636m-3.636 13.639h3.635m-17.274 13.632h3.636m-1.815 1.822V66.09m-1.821 15.454h3.636m-1.815 1.815v-3.636m11.818-11.818h3.635m-3.635 13.639h3.635m-17.274 13.632h3.636m-1.815 1.821v-3.636m-1.821 15.454h3.636m-1.814 1.821V107m11.817-11.824h3.636m-3.636 13.639h3.635m-17.274 13.639h3.636m-1.815 1.815v-3.636m-1.821 15.453h3.636m-1.815 1.821v-3.636m11.818-11.817h3.635m-3.635 13.632h3.635m-17.274 13.639h3.636m-1.815 1.821v-3.636m-1.821 15.453h3.636m-1.815 1.815v-3.636m11.818-11.817h3.636m-3.636 13.638h3.635m-17.274 13.634h3.636m-1.815 1.82v-3.635m-1.821 15.453h3.636m-1.815 1.821v-3.636m11.818-11.823h3.635m-3.635 13.638h3.635M309.024 13.363h3.636m-1.815 1.814v-3.636m-1.821 15.454h3.636m-1.815 1.821V25.18m11.818-11.817h3.636m-1.821 1.814v-3.636m-1.815 15.454h3.636m-1.821 1.821V25.18m-15.454 15.454h3.636m-1.815 1.815v-3.636m-1.821 15.46h3.636m-1.815 1.814v-3.635m11.818-11.818h3.636m-1.821 1.814v-3.636m-1.815 15.461h3.636m-1.821 1.814V52.45m-15.454 15.456h3.636m-1.815 1.821V66.09m-1.821 15.454h3.636m-1.815 1.814v-3.635m11.818-11.817h3.636m-1.821 1.821V66.09m-1.815 15.454h3.636m-1.821 1.814v-3.635m-15.454 15.453h3.636m-1.815 1.821V93.36m-1.821 15.455h3.636m-1.815 1.821V107m11.818-11.824h3.636m-1.821 1.821V93.36m-1.815 15.455h3.636m-1.821 1.821V107m-15.454 15.454h3.636m-1.815 1.815v-3.636m-1.821 15.453h3.636m-1.815 1.822v-3.636m11.818-11.818h3.636m-1.822 1.815v-3.636m-1.814 15.453h3.636m-1.821 1.822v-3.636m-15.454 15.453h3.636m-1.815 1.821v-3.635m-1.821 15.452h3.636m-1.815 1.815v-3.636m11.818-11.817h3.636m-1.821 1.821v-3.636m-1.815 15.453h3.636m-1.821 1.815v-3.636m-15.454 15.455h3.636m-1.815 1.82v-3.635m-1.821 15.453h3.636m-1.815 1.821v-3.636m11.818-11.823h3.636m-1.821 1.82v-3.635m-1.815 15.453h3.636m-1.821 1.821v-3.636M295.386 13.363h3.635m-1.815 1.814v-3.636m-1.82 15.454h3.635m-1.815 1.821V25.18m-1.82 15.454h3.635m-1.815 1.815v-3.636m-1.82 15.46h3.635m-1.815 1.815v-3.636m-1.82 15.453h3.635m-1.815 1.822V66.09m-1.82 15.454h3.635m-1.815 1.815v-3.636m-1.82 15.453h3.635m-1.815 1.821v-3.636m-1.82 15.454h3.635m-1.815 1.821V107m-1.82 15.454h3.635m-1.815 1.815v-3.636m-1.82 15.453h3.635m-1.815 1.822v-3.636m-1.82 15.453h3.635m-1.815 1.821v-3.635m-1.82 15.452h3.635m-1.815 1.815v-3.636m-1.82 15.455h3.635m-1.815 1.82v-3.635m-1.82 15.453h3.635m-1.815 1.821v-3.636"/><path fill="#272B38" d="M174.476 136.086h-40.91v40.91h81.82v-40.91h-40.91Z"/><path fill="#fff" d="M151.751 155.765h-1.212v-2.424h1.212v2.424Zm0 3.636h-1.212v-1.212h1.212v1.212Zm3.636-6.06h-3.636v-1.212h3.636v1.212Zm0 3.636h-3.636v-1.212h3.636v1.212Zm0 3.636h-3.636v-1.212h3.636v1.212Zm1.212-6.06h-1.212v-1.212h1.212v1.212Zm0 4.848h-1.212v-2.424h1.212v2.424Zm2.423-3.636h-1.211v-3.636h1.211v3.636Zm2.424 1.212v3.636h-1.212v-3.636h-1.212v-1.212h3.636v1.212h-1.212Zm2.424-1.212h-1.212v-3.636h1.212v3.636Zm2.424 0h-1.211v-2.424h1.211v2.424Zm0 3.636h-1.211v-1.212h1.211v1.212Zm3.636-6.06h-3.636v-1.212h3.636v1.212Zm0 3.636h-3.636v-1.212h3.636v1.212Zm0 3.636h-3.636v-1.212h3.636v1.212Zm1.212-6.06h-1.212v-1.212h1.212v1.212Zm0 4.848h-1.212v-2.424h1.212v2.424Zm3.636-6.06h-2.424v-1.212h6.06v1.212h-2.424v7.272h-1.212v-7.272Zm6.065 6.06h4.848v1.212h-6.06v-8.484h6.06v1.212h-4.848v2.424h3.636v1.212h-3.636v2.424Zm7.272-4.848v6.06h-1.212v-8.484h1.212v1.212h1.212v1.212h-1.212Zm2.424 1.212h-1.212v-1.212h1.212v1.212Zm1.211 1.212h-1.211v-1.212h1.211v1.212Zm1.212-1.212h-1.212v-1.212h1.212v1.212Zm1.212-1.212h-1.212v-1.212h1.212v-1.212h1.212v8.484h-1.212v-6.06Z"/><path fill="#fff" stroke="#ABB0BF" stroke-miterlimit="10" stroke-width="1.206" d="M297.206 136.086h-40.91v40.91h81.82v-40.91h-40.91Z"/><path fill="#A1A5B2" d="M272.962 154.553v6.059h-1.212v-8.483h1.212v1.212h1.212v1.212h-1.212Zm2.424 1.212h-1.212v-1.212h1.212v1.212Zm1.212 1.212h-1.212v-1.212h1.212v1.212Zm1.212-1.212h-1.212v-1.212h1.212v1.212Zm1.211-1.212h-1.211v-1.212h1.211v-1.212h1.212v8.483h-1.212v-6.059Zm6.066-2.424v1.212h-1.212v6.06h1.212v1.212h-3.636v-1.212h1.212v-6.06h-1.212v-1.212h3.636Zm2.424 1.212v7.272h-1.212v-8.484h2.424v1.212h-1.212Zm2.424 2.424h-1.212v-2.424h1.212v2.424Zm1.211 2.424h-1.211v-2.424h1.211v2.424Zm1.212 0v-6.06h1.212v8.484h-1.212v-1.212h-1.212v-1.212h1.212Zm4.849-4.848h-2.424v-1.212h6.059v1.212h-2.424v7.272h-1.211v-7.272Zm6.058 6.06h4.848v1.212h-6.06v-8.484h6.06v1.212h-4.848v2.424h3.636v1.212h-3.636v2.424Zm10.908-7.272v1.212h-3.636v2.424h3.636v1.212h-1.212v1.212h-1.212v-1.212h-1.212v3.636h-1.212v-8.484h4.848Zm0 7.272h-1.212v-1.212h1.212v1.212Zm1.212-3.636h-1.212v-2.424h1.212v2.424Zm0 4.848h-1.212v-1.212h1.212v1.212Zm2.424-4.848h-1.212v-2.424h1.212v2.424Zm0 3.636h-1.212v-1.212h1.212v1.212Zm3.642-6.06h-3.636v-1.212h3.636v1.212Zm0 3.636h-3.636v-1.212h3.636v1.212Zm0 3.636h-3.636v-1.212h3.636v1.212Zm1.212-6.06h-1.212v-1.212h1.212v1.212Zm0 4.848h-1.212v-2.424h1.212v2.424Z"/><path fill="#272B38" d="M164.659 22.795h2.424v1.212h-6.06v-1.212h2.424v-6.06h-2.424v-1.211h3.636v7.271Zm4.848 0h-1.212v-6.06h1.212v6.06Zm3.636-6.066h-3.636v-1.211h3.636v1.212Zm0 7.278h-3.636v-1.212h3.636v1.212Zm-1.212-3.635h-1.212V19.16h1.212v1.212Zm2.43 2.423h-1.212v-6.06h1.212v6.06Zm122.845 31.478h-40.91v40.903h81.82V54.272h-40.91Z"/><path fill="#fff" stroke="#ABB0BF" stroke-miterlimit="10" stroke-width="1.206" d="M174.476 54.273h-40.91v40.903h81.82V54.272h-40.91Z"/><path fill="#fff" d="M275.386 72.752v6.06h-1.212v-8.483h1.212v1.212h1.212v1.211h-1.212Zm2.424 1.212h-1.212v-1.212h1.212v1.212Zm1.211 1.212h-1.211v-1.212h1.211v1.212Zm1.212-1.212h-1.212v-1.212h1.212v1.212Zm1.212-1.212h-1.212V71.54h1.212v-1.21h1.212v8.483h-1.212v-6.06Zm3.642 3.636v2.424h-1.212v-4.848h1.212v1.212h3.636v-1.212h1.212v4.848h-1.212v-2.424h-3.636Zm1.212-2.424h-1.212V71.54h1.212v2.424Zm1.212-2.424h-1.212v-1.21h1.212v1.212Zm1.212 2.424h-1.212V71.54h1.212v2.424Zm7.272-3.635v1.212h-3.636v2.423h3.636v1.212h-1.212v1.212h-1.212v-1.212h-1.212v3.636h-1.212v-8.483h4.848Zm0 7.271h-1.212v-1.212h1.212V77.6Zm1.212-3.636h-1.212V71.54h1.212v2.424Zm0 4.848h-1.212V77.6h1.212v1.212Zm2.423-3.635v3.635h-1.212V70.33h1.212v3.636h1.212v1.212h-1.212Zm2.424-1.212h-1.212v-1.212h1.212v1.212Zm0 2.424h-1.212v-1.212h1.212v1.212Zm1.212-3.636h-1.212V71.54h1.212v1.212Zm0 4.847h-1.212v-1.21h1.212v1.21Zm1.212-6.059h-1.212v-1.212h1.212v1.212Zm0 7.272h-1.212V77.6h1.212v1.213Zm2.424-1.213h4.847v1.212h-6.059v-8.483h6.059v1.212h-4.847v2.423h3.636v1.212h-3.636V77.6Zm8.482-6.06h-2.424v-1.21h6.06v1.212h-2.424v7.271h-1.212V71.54Z"/><path fill="#A1A5B2" d="M153.867 73.964h-1.212V71.54h1.212v2.424Zm0 3.636h-1.212v-1.212h1.212V77.6Zm3.636-6.06h-3.636v-1.21h3.636v1.212Zm0 3.636h-3.636v-1.212h3.636v1.212Zm0 3.642h-3.636v-1.212h3.636v1.212Zm1.218-6.066h-1.212V71.54h1.212v1.212Zm0 4.848h-1.212v-2.424h1.212V77.6Zm2.424-1.212v2.424h-1.212v-4.848h1.212v1.212h3.636v-1.212h1.212v4.848h-1.212v-2.424h-3.636Zm1.212-2.424h-1.212V71.54h1.212v2.424Zm1.212-2.424h-1.212v-1.21h1.212v1.212Zm1.212 2.424h-1.212V71.54h1.212v2.424Zm3.636.001h-1.212v-3.636h1.212v3.636Zm1.211 2.424h-1.211v-2.424h1.211v2.424Zm1.212 2.43h-1.212v-2.424h1.212v2.424Zm1.212-2.43h-1.212v-2.424h1.212v2.424Zm1.212-2.424h-1.212v-3.636h1.212v3.636Zm2.424 3.635h4.848v1.212h-6.06v-8.483h6.06v1.212h-4.848v2.423h3.636v1.212h-3.636V77.6Zm10.907-7.271v1.212h-3.636v2.423h3.636v1.212h-1.212v1.212h-1.212v-1.212h-1.212v3.636h-1.211v-8.483h4.847Zm0 7.271h-1.212v-1.212h1.212V77.6Zm1.212-3.636h-1.212V71.54h1.212v2.424Zm0 4.854h-1.212v-1.212h1.212v1.212Zm2.424-4.854h-1.211V71.54h1.211v2.424Zm0 3.636h-1.211v-1.212h1.211V77.6Zm3.643-6.06h-3.636v-1.21h3.636v1.212Zm0 3.636h-3.636v-1.212h3.636v1.212Zm0 3.642h-3.636v-1.212h3.636v1.212Zm1.211-6.066h-1.211V71.54h1.211v1.212Zm0 4.848h-1.211v-2.424h1.211V77.6Z"/><path fill="#272B38" d="M51.746 54.273h-40.91v40.903h81.82V54.272h-40.91Z"/><path fill="#fff" d="M19.025 77.556h4.848v1.212h-6.06v-8.484h6.06v1.212h-4.848v2.424h3.636v1.212h-3.636v2.424Zm10.908-7.227v1.212h-3.636v2.423h3.636v1.212h-3.636v3.636h-1.212v-8.483h4.848Zm1.212 3.635h-1.212V71.54h1.212v2.424Zm2.423 0h-1.212V71.54h1.212v2.424Zm0 3.636h-1.212v-1.212h1.212V77.6Zm3.636-6.06h-3.636v-1.21h3.636v1.212Zm0 3.636h-3.636v-1.212h3.636v1.212Zm0 3.636h-3.636V77.6h3.636v1.212Zm1.212-6.06h-1.212V71.54h1.212v1.212Zm0 4.848h-1.212v-2.424h1.212V77.6Zm6.059-2.424v3.636h-1.212v-8.483h1.212v3.635h3.636V70.33h1.212v8.483H48.11v-3.636h-3.636Zm7.271 2.424h-1.212v-6.06h1.212v6.06Zm3.636-6.06h-3.636v-1.21h3.636v1.212Zm0 7.272h-3.636V77.6h3.636v1.212Zm1.212-1.212h-1.212v-6.06h1.212v6.06Zm1.212 1.212v-8.483h1.212V77.6h4.848v1.212h-6.06Zm10.914-8.483v1.212h-2.424v6.06h2.424v1.211h-3.636v-8.483h3.636Zm1.212 2.423H68.72V71.54h1.212v1.212Zm0 4.848H68.72v-1.212h1.212V77.6Zm1.212-1.212h-1.212v-3.636h1.212v3.636Zm2.423 1.212h4.848v1.213h-6.06v-8.484h6.06v1.212h-4.848v2.424h3.636v1.212h-3.636V77.6Zm10.907-7.271v1.212h-3.636v2.423h3.636v1.212h-1.212v1.212H82.05v-1.212h-1.212v3.636h-1.212v-8.483h4.848Zm0 7.271h-1.212v-1.212h1.212V77.6Zm1.212-3.636h-1.212V71.54h1.212v2.424Zm0 4.848h-1.212V77.6h1.212v1.212Z"/><path fill="#272B38" d="M51.144 26.393v27.271h1.212v-1.219h-.007V27.598h244.254v26.669h1.206V26.393H51.144Zm0 24.841h-1.212v1.212h1.212v-1.212Zm-1.212-1.213H48.72v1.212h1.212V50.02ZM48.72 48.81h-1.212v1.212h1.212V48.81Z"/><path fill="#272B38" d="M53.567 51.234h-1.212v1.212h1.212v-1.212Zm1.213-1.212h-1.212v1.211h1.212v-1.211Zm1.211-1.212H54.78v1.212h1.212V48.81Z"/><path fill="#A1A5B2" d="M238.162 72.15h-4.847v-1.212h6.059v3.636h-1.212V72.15Zm-3.642 7.271h-1.212V78.21h1.212v1.212Zm1.218-1.212h-1.212v-1.212h1.212v1.212Zm1.212-1.212h-1.212v-1.211h1.212v1.212Zm1.212-1.211h-1.212v-1.212h1.212v1.212Zm18.134-7.278v-1.205h-40.313v1.212h1.212v-.007h39.101Zm-37.89-2.418h-1.212v1.213h1.212V66.09Zm1.212-1.211h-1.212v1.212h1.212v-1.212Zm1.212-1.212h-1.212v1.212h1.212v-1.212Z"/><path fill="#A1A5B2" d="M218.406 68.514h-1.212v1.212h1.212v-1.212Zm1.212 1.213h-1.212v1.212h1.212v-1.212Zm1.212 1.211h-1.212v1.212h1.212v-1.212Zm85.54 47.765h-3.636v1.212h3.636v-1.212Zm1.211-2.424h-1.212v2.424h1.212v-2.424Zm-4.848 1.212h-1.212v1.212h1.212v-1.212Zm0-4.854h-1.212v1.212h1.212v-1.212Zm3.637 2.424h-2.424v1.212h2.424v-1.212Zm1.211-2.424h-1.212v2.424h1.212v-2.424Zm-1.211-1.212h-3.636v1.212h3.636v-1.212Zm-7.342-14.441h-1.212v1.212h1.212v-1.212Zm1.212 1.212h-1.212v1.212h1.212v-1.212Zm1.211 1.219h-1.212v1.212h1.212v-1.212Zm-4.848-3.642v40.314h1.206V96.985h.006v-1.212h-1.212Zm-.005 1.212h-1.212v1.212h1.212v-1.212Zm-1.213 1.211h-1.212v1.212h1.212v-1.212Zm-1.212 1.219h-1.212v1.212h1.212v-1.212Z"/><path fill="#ABB0BF" d="M379.026 82.147V80.94H339.95v-.006h-1.219v1.212h40.295Zm-1.802-13.632h1.212v-1.212h-40.32v1.205h39.108v.007Z"/><path fill="#ABB0BF" d="M341.162 79.723h-1.212v1.212h1.212v-1.212Zm1.212-1.212h-1.212v1.212h1.212v-1.212Zm1.211-1.212h-1.211v1.212h1.211v-1.212Zm-2.423 4.848h-1.212v1.212h1.212v-1.212Zm1.212 1.212h-1.212v1.212h1.212v-1.212Zm1.211 1.211h-1.211v1.213h1.211V84.57Zm-106.609 89.399h2.424v1.212h-6.06v-1.212h2.424v-6.059h-2.424v-1.212h3.636v7.271Zm-2.834-33.465h-1.212v-1.212h1.212v1.212Zm1.218 4.848h3.636v1.211h-6.06v-1.211h1.212v-1.212h1.212v1.212Zm2.424-6.06h-3.636v-1.212h3.636v1.212Zm-1.212 4.848h-1.212v-1.212h1.212v1.212Zm1.212-1.212h-1.212v-1.212h1.212v1.212Zm1.212-1.212h-1.212v-2.424h1.212v2.424Zm-21.731 7.406h-1.212v1.206h40.243v-1.206h-39.031Zm1.212-1.218h-1.212v1.212h1.212v-1.212Zm1.211-1.212h-1.211v1.212h1.211v-1.212Zm1.212-1.212h-1.212v1.212h1.212v-1.212Zm-2.423 4.848h-1.212v1.212h1.212v-1.212Zm1.212 1.218h-1.212v1.212h1.212v-1.212Zm1.211 1.212h-1.212v1.212h1.212v-1.212Zm33.517 11.208h-1.211v1.212h1.211v-1.212Zm-1.211 1.212h-1.212v1.212h1.212v-1.212Zm-1.212 1.213h-1.212v1.212h1.212v-1.212Z"/><path fill="#ABB0BF" d="M254.417 162.755h-39.031v1.212h40.243v-1.212h-1.212Zm.001-1.213h-1.212v1.212h1.212v-1.212Zm-1.212-1.211h-1.212v1.212h1.212v-1.212Zm-1.213-1.212h-1.212v1.212h1.212v-1.212Z"/><path fill="#A1A5B2" d="M194.591 115.061h-1.212v-2.424h1.212v2.424Zm0 3.642h-1.212v-2.424h1.212v2.424Zm3.636-6.066h-3.636v-1.212h3.636v1.212Zm0 3.642h-3.636v-1.212h3.636v1.212Zm0 3.636h-3.636v-1.212h3.636v1.212Zm1.212-4.854h-1.212v-2.424h1.212v2.424Zm0 3.642h-1.212v-2.424h1.212v2.424Zm-32.587-3.643h-1.212v-2.424h1.212v2.424Zm0 3.642h-1.212v-1.212h1.212v1.212Zm3.636-6.066h-3.636v-1.212h3.636v1.212Zm0 3.642h-3.636v-1.212h3.636v-2.423h1.212v6.059h-1.212v-2.424Zm0 3.636h-3.636v-1.212h3.636v1.212Zm-7.829-22.929h-1.212v1.212h1.212v-1.212Zm1.212 1.211h-1.212v1.212h1.212v-1.212Zm1.212 1.213h-1.212v1.212h1.212v-1.212Zm-4.848-3.636v40.314h1.212V95.773h-1.212Zm0 1.212h-1.212v1.212h1.212v-1.212Zm-1.213 1.211h-1.211v1.212h1.211v-1.212Zm-1.211 1.213h-1.212v1.212h1.212v-1.212Zm30.914-3.636h-1.219v37.685h-1.212v1.211h1.212v1.212h1.212v-1.212h1.212v-1.211h-1.205V95.773Zm-2.431 36.473h-1.211v1.212h1.211v-1.212Zm-1.212-1.213h-1.212v1.212h1.212v-1.212Zm6.06 1.213h-1.212v1.212h1.212v-1.212Zm1.211-1.213h-1.211v1.212h1.211v-1.212Z"/><path fill="#272B38" d="M82.826 145.609h2.424v1.212h-6.06v-1.212h2.424v-6.06H79.19v-1.212h3.636v7.272Zm7.272 0h2.424v1.212h-6.06v-1.212h2.424v-6.06h-2.424v-1.212h3.636v7.272Zm-7.272 28.618h2.424v1.211h-6.06v-1.211h2.424v-6.06H79.19v-1.212h3.636v7.272Zm4.848-4.854h-1.212v-1.212h1.212v1.212Zm1.212 4.854h3.636v1.212h-6.06v-1.212h1.212v-1.212h1.212v1.212Zm2.424-6.066h-3.636v-1.212h3.636v1.212Zm-1.212 4.854h-1.212v-1.212h1.212v1.212Zm1.212-1.219h-1.212v-1.212h1.212v1.212Zm1.212-1.212H91.31v-2.423h1.212v2.423Z"/><path fill="#272B38" d="M38.717 96.978v-1.211h-1.212v68.2h95.132v-1.206h-93.92V96.979Zm92.971 53.356h-1.212v1.212h1.212v-1.212Zm-1.212 1.212h-1.212v1.212h1.212v-1.212Zm-1.212 1.212h-1.212v1.212h1.212v-1.212Z"/><path fill="#272B38" d="M131.687 149.122H52.349V95.157h-1.205v55.171h80.543v.006h1.212v-1.212h-1.212Z"/><path fill="#272B38" d="M131.687 147.91h-1.212v1.212h1.212v-1.212Z"/><path fill="#272B38" d="M130.476 146.699h-1.212v1.212h1.212v-1.212Zm-1.212-1.219h-1.212v1.212h1.212v-1.212ZM39.93 96.978h-1.213v1.212h1.212v-1.212Zm1.21 1.212h-1.21v1.212h1.212V98.19Z"/><path fill="#272B38" d="M42.353 99.401h-1.212v1.212h1.212v-1.212Zm-4.848-2.423h-1.212v1.212h1.212v-1.212Zm-1.212 1.212h-1.212v1.212h1.212V98.19Z"/><path fill="#272B38" d="M35.08 99.401h-1.21v1.212h1.212v-1.212Z"/></g></g><defs><clipPath id="a"><path fill="#fff" d="M0 12C0 5.373 5.373 0 12 0h326c6.627 0 12 5.373 12 12v180c0 6.627-5.373 12-12 12H12c-6.627 0-12-5.373-12-12V12Z"/></clipPath><clipPath id="b"><path fill="#fff" d="M-4.617 11.541h480.916v180.914H-4.617z"/></clipPath></defs></svg>