<svg xmlns="http://www.w3.org/2000/svg" width="350" height="230" fill="none"><g clip-path="url(#a)"><path fill="#F9F9FB" d="M-110-.305h570v230.61h-570z"/><path stroke="#ABB0BF" stroke-miterlimit="10" stroke-width=".254" d="M226.923 14.757h4.112m-2.06 2.053v-4.113m-2.052 17.478h4.112m-2.06 2.059v-4.112M226.923 45.6h4.112m-2.06 2.051V43.54m-2.052 17.484h4.112m-2.06 2.052v-4.112m-2.052 17.477h4.112m-2.06 2.06v-4.112m-2.052 17.477h4.112m-2.06 2.053v-4.112m-2.052 17.477h4.112m-2.06 2.06v-4.112m-2.052 17.477h4.112m-2.06 2.06v-4.112m-2.052 17.477h4.112m-2.06 2.052v-4.112m-2.052 17.477h4.112m-2.06 2.06v-4.112m-2.052 17.477h4.112m-2.06 2.06v-4.112m-2.052 17.477h4.112m-2.06 2.052v-4.112m-2.052 17.477h4.112m-2.06 2.06v-4.112m-2.052 17.477h4.112m-2.06 2.06v-4.112M196.073 14.757h4.119m-2.059 2.053v-4.113m-2.06 17.478h4.119m-2.059 2.059v-4.112m13.365-13.365h4.112m-2.052 2.053v-4.113m-2.06 17.478h4.112m-2.052 2.059v-4.112M196.073 45.6h4.119m-2.059 2.051V43.54m-2.06 17.484h4.119m-2.059 2.052v-4.112M211.498 45.6h4.112m-2.052 2.051V43.54m-2.06 17.484h4.112m-2.052 2.052v-4.112m-17.485 17.477h4.119m-2.059 2.06v-4.112m-2.06 17.477h4.119m-2.059 2.053v-4.112m13.365-13.366h4.112m-2.052 2.06v-4.112m-2.06 17.477h4.112m-2.052 2.053v-4.112m-17.485 17.477h4.119m-2.059 2.06v-4.112m-2.06 17.477h4.119m-2.059 2.06v-4.112m13.365-13.373h4.112m-2.052 2.06v-4.112m-2.06 17.477h4.112m-2.052 2.06v-4.112m-17.485 17.477h4.119m-2.059 2.052v-4.112m-2.06 17.477h4.119m-2.059 2.06v-4.112m13.365-13.365h4.112m-2.052 2.052v-4.112m-2.06 17.477h4.112m-2.052 2.06v-4.112m-17.485 17.477h4.119m-2.059 2.06v-4.112m-2.06 17.477h4.119m-2.059 2.052v-4.112m13.365-13.365h4.112m-2.052 2.06v-4.112m-2.06 17.477h4.112m-2.052 2.052v-4.112m-17.485 17.477h4.119m-2.059 2.06v-4.112m-2.06 17.477h4.119m-2.059 2.06v-4.112m13.365-13.373h4.112m-2.052 2.06v-4.112m-2.06 17.477h4.112m-2.052 2.06v-4.112M165.231 14.757h4.112m-2.052 2.053v-4.113m-2.06 17.478h4.112m-2.052 2.059v-4.112m13.365-13.365h4.112m-2.06 2.053v-4.113m-2.053 17.478h4.112m-2.059 2.059v-4.112M165.231 45.6h4.112m-2.052 2.051V43.54m-2.06 17.484h4.112m-2.052 2.052v-4.112M180.655 45.6h4.112m-2.059 2.051V43.54m-2.053 17.484h4.112m-2.059 2.052v-4.112m-17.477 17.477h4.112m-2.052 2.06v-4.112m-2.06 17.477h4.112m-2.052 2.053v-4.112m13.365-13.366h4.112m-2.06 2.06v-4.112m-2.052 17.477h4.112m-2.06 2.053v-4.112m-17.477 17.477h4.112m-2.052 2.06v-4.112m-2.06 17.477h4.112m-2.052 2.06v-4.112m13.364-13.373h4.112m-2.059 2.06v-4.112m-2.053 17.477h4.112m-2.059 2.06v-4.112m-17.477 17.477h4.112m-2.052 2.052v-4.112m-2.06 17.477h4.112m-2.052 2.06v-4.112m13.364-13.365h4.112m-2.059 2.052v-4.112m-2.052 17.477h4.112m-2.06 2.06v-4.112m-17.477 17.477h4.112m-2.052 2.06v-4.112m-2.06 17.477h4.112m-2.052 2.052v-4.112m13.365-13.365h4.112m-2.06 2.06v-4.112m-2.052 17.477h4.112m-2.06 2.052v-4.112m-17.477 17.477h4.112m-2.052 2.06v-4.112m-2.06 17.477h4.112m-2.052 2.06v-4.112m13.365-13.373h4.112m-2.06 2.06v-4.112m-2.052 17.477h4.112m-2.06 2.06v-4.112M134.389 14.757h4.112m-2.061 2.053v-4.113m-2.051 17.478h4.112m-2.061 2.059v-4.112m13.366-13.365h4.119m-2.06 2.053v-4.113m-2.059 17.478h4.119m-2.06 2.059v-4.112M134.389 45.6h4.112m-2.061 2.051V43.54m-2.051 17.484h4.112m-2.061 2.052v-4.112M149.806 45.6h4.119m-2.06 2.051V43.54m-2.059 17.484h4.119m-2.06 2.052v-4.112m-17.476 17.477h4.112m-2.061 2.06v-4.112m-2.051 17.477h4.112m-2.06 2.053v-4.112m13.365-13.366h4.119m-2.06 2.06v-4.112m-2.059 17.477h4.119m-2.06 2.053v-4.112m-17.476 17.477h4.112m-2.06 2.06v-4.112m-2.052 17.477h4.112m-2.06 2.06v-4.112m13.365-13.373h4.119m-2.06 2.06v-4.112m-2.059 17.477h4.119m-2.06 2.06v-4.112m-17.476 17.477h4.112m-2.061 2.052v-4.112m-2.051 17.477h4.112m-2.061 2.06v-4.112m13.366-13.365h4.119m-2.06 2.052v-4.112m-2.059 17.477h4.119m-2.06 2.06v-4.112m-17.476 17.477h4.112m-2.061 2.06v-4.112m-2.051 17.477h4.112m-2.06 2.052v-4.112m13.365-13.365h4.119m-2.06 2.06v-4.112m-2.059 17.477h4.119m-2.06 2.052v-4.112m-17.476 17.477h4.112m-2.06 2.06v-4.112m-2.052 17.477h4.112m-2.06 2.06v-4.112m13.365-13.373h4.119m-2.06 2.06v-4.112m-2.059 17.477h4.119m-2.06 2.06v-4.112M103.546 14.757h4.112m-2.059 2.053v-4.113m-2.053 17.478h4.112m-2.059 2.059v-4.112m13.365-13.365h4.112m-2.053 2.053v-4.113m-2.059 17.478h4.112m-2.053 2.059v-4.112M103.546 45.6h4.112m-2.059 2.051V43.54m-2.053 17.484h4.112m-2.059 2.052v-4.112M118.964 45.6h4.112m-2.053 2.051V43.54m-2.059 17.484h4.112m-2.053 2.052v-4.112m-17.477 17.477h4.112m-2.059 2.06v-4.112m-2.053 17.477h4.112m-2.059 2.053v-4.112m13.365-13.366h4.112m-2.053 2.06v-4.112m-2.059 17.477h4.112m-2.053 2.053v-4.112m-17.477 17.477h4.112m-2.059 2.06v-4.112m-2.053 17.477h4.112m-2.059 2.06v-4.112m13.365-13.373h4.112m-2.053 2.06v-4.112m-2.059 17.477h4.112m-2.053 2.06v-4.112m-17.477 17.477h4.112m-2.059 2.052v-4.112m-2.053 17.477h4.112m-2.059 2.06v-4.112m13.365-13.365h4.112m-2.053 2.052v-4.112m-2.059 17.477h4.112m-2.053 2.06v-4.112m-17.477 17.477h4.112m-2.059 2.06v-4.112m-2.053 17.477h4.112m-2.059 2.052v-4.112m13.365-13.365h4.112m-2.053 2.06v-4.112m-2.059 17.477h4.112m-2.053 2.052v-4.112m-17.477 17.477h4.112m-2.059 2.06v-4.112m-2.053 17.477h4.112m-2.059 2.06v-4.112m13.365-13.373h4.112m-2.053 2.06v-4.112m-2.059 17.477h4.112m-2.053 2.06v-4.112M72.696 14.757h4.112m-2.052 2.053v-4.113m-2.06 17.478h4.112m-2.052 2.059v-4.112m13.365-13.365h4.112m-2.059 2.053v-4.113m-2.053 17.478h4.112m-2.059 2.059v-4.112M72.696 45.6h4.112m-2.052 2.051V43.54m-2.06 17.484h4.112m-2.052 2.052v-4.112M88.121 45.6h4.112m-2.059 2.051V43.54m-2.053 17.484h4.112m-2.059 2.052v-4.112M72.696 76.441h4.112m-2.052 2.06v-4.112m-2.06 17.477h4.112m-2.052 2.053v-4.112m13.365-13.366h4.112m-2.059 2.06v-4.112m-2.053 17.477h4.112m-2.059 2.053v-4.112m-17.478 17.477h4.112m-2.052 2.06v-4.112m-2.06 17.477h4.112m-2.052 2.06v-4.112m13.365-13.373h4.112m-2.059 2.06v-4.112m-2.053 17.477h4.112m-2.059 2.06v-4.112m-17.478 17.477h4.112m-2.052 2.052v-4.112m-2.06 17.477h4.112m-2.052 2.06v-4.112m13.365-13.365h4.112m-2.059 2.052v-4.112m-2.053 17.477h4.112m-2.059 2.06v-4.112m-17.478 17.477h4.112m-2.052 2.06v-4.112m-2.06 17.477h4.112m-2.052 2.052v-4.112m13.365-13.365h4.112m-2.059 2.06v-4.112m-2.053 17.477h4.112m-2.059 2.052v-4.112m-17.478 17.477h4.112m-2.052 2.06v-4.112m-2.06 17.477h4.112m-2.052 2.06v-4.112m13.365-13.373h4.112m-2.059 2.06v-4.112m-2.053 17.477h4.112m-2.059 2.06v-4.112M41.855 14.757h4.111m-2.059 2.053v-4.113m-2.052 17.478h4.111m-2.059 2.059v-4.112M57.28 14.757h4.111m-2.06 2.053v-4.113M57.28 30.175h4.111m-2.06 2.059v-4.112M41.855 45.6h4.111m-2.059 2.051V43.54m-2.052 17.484h4.111m-2.059 2.052v-4.112M57.28 45.6h4.111m-2.06 2.051V43.54M57.28 61.024h4.111m-2.06 2.052v-4.112M41.855 76.441h4.111m-2.059 2.06v-4.112m-2.052 17.477h4.111m-2.059 2.053v-4.112M57.28 76.441h4.111m-2.06 2.06v-4.112M57.28 91.866h4.111m-2.06 2.053v-4.112m-17.476 17.477h4.111m-2.059 2.06v-4.112m-2.052 17.477h4.111m-2.059 2.06v-4.112m13.373-13.373h4.111m-2.06 2.06v-4.112m-2.051 17.477h4.111m-2.06 2.06v-4.112m-17.476 17.477h4.111m-2.059 2.052v-4.112m-2.052 17.477h4.111m-2.059 2.06v-4.112m13.373-13.365h4.111m-2.06 2.052v-4.112m-2.051 17.477h4.111m-2.06 2.06v-4.112m-17.476 17.477h4.111m-2.059 2.06v-4.112m-2.052 17.477h4.111m-2.059 2.052v-4.112m13.373-13.365h4.111m-2.06 2.06v-4.112m-2.051 17.477h4.111m-2.06 2.052v-4.112m-17.476 17.477h4.111m-2.059 2.06v-4.112m-2.052 17.477h4.111m-2.059 2.06v-4.112m13.373-13.373h4.111m-2.06 2.06v-4.112m-2.051 17.477h4.111m-2.06 2.06v-4.112M11.012 14.757h4.111m-2.058 2.053v-4.113m-2.053 17.478h4.111m-2.058 2.059v-4.112M26.43 14.757h4.111M28.49 16.81v-4.113m-2.06 17.478h4.111m-2.051 2.059v-4.112M11.012 45.6h4.111m-2.058 2.051V43.54m-2.053 17.484h4.111m-2.058 2.052v-4.112M26.43 45.6h4.111m-2.051 2.051V43.54m-2.06 17.484h4.111m-2.051 2.052v-4.112M11.012 76.441h4.111m-2.058 2.06v-4.112m-2.053 17.477h4.111m-2.058 2.053v-4.112M26.43 76.441h4.111m-2.051 2.06v-4.112m-2.06 17.477h4.111m-2.051 2.053v-4.112m-17.478 17.477h4.111m-2.058 2.06v-4.112m-2.053 17.477h4.111m-2.058 2.06v-4.112m13.365-13.373h4.111m-2.051 2.06v-4.112m-2.06 17.477h4.111m-2.051 2.06v-4.112m-17.478 17.477h4.111m-2.058 2.052v-4.112m-2.053 17.477h4.111m-2.058 2.06v-4.112m13.365-13.365h4.111m-2.051 2.052v-4.112m-2.06 17.477h4.111m-2.051 2.06v-4.112m-17.478 17.477h4.111m-2.058 2.06v-4.112m-2.053 17.477h4.111m-2.058 2.052v-4.112m13.365-13.365h4.111m-2.051 2.06v-4.112m-2.06 17.477h4.111m-2.051 2.052v-4.112m-17.478 17.477h4.111m-2.058 2.06v-4.112m-2.053 17.477h4.111m-2.058 2.06v-4.112m13.365-13.373h4.111m-2.051 2.06v-4.112m-2.06 17.477h4.111m-2.051 2.06v-4.112M319.457 14.757h4.112m-2.059 2.053v-4.113m-2.053 17.478h4.112m-2.059 2.059v-4.112m13.365-13.365h4.112m-2.052 2.053v-4.113m-2.06 17.478h4.112m-2.052 2.059v-4.112M319.457 45.6h4.112m-2.059 2.051V43.54m-2.053 17.484h4.112m-2.059 2.052v-4.112M334.875 45.6h4.112m-2.052 2.051V43.54m-2.06 17.484h4.112m-2.052 2.052v-4.112m-17.478 17.477h4.112m-2.059 2.06v-4.112m-2.053 17.477h4.112m-2.059 2.053v-4.112m13.365-13.366h4.112m-2.052 2.06v-4.112m-2.06 17.477h4.112m-2.052 2.053v-4.112m-17.478 17.477h4.112m-2.059 2.06v-4.112m-2.053 17.477h4.112m-2.059 2.06v-4.112m13.365-13.373h4.112m-2.052 2.06v-4.112m-2.06 17.477h4.112m-2.052 2.06v-4.112m-17.478 17.477h4.112m-2.059 2.052v-4.112m-2.053 17.477h4.112m-2.059 2.06v-4.112m13.365-13.365h4.112m-2.052 2.052v-4.112m-2.06 17.477h4.112m-2.052 2.06v-4.112m-17.478 17.477h4.112m-2.059 2.06v-4.112m-2.053 17.477h4.112m-2.059 2.052v-4.112m13.365-13.365h4.112m-2.052 2.06v-4.112m-2.06 17.477h4.112m-2.052 2.052v-4.112m-17.478 17.477h4.112m-2.059 2.06v-4.112m-2.053 17.477h4.112m-2.059 2.06v-4.112m13.365-13.373h4.112m-2.052 2.06v-4.112m-2.06 17.477h4.112m-2.052 2.06v-4.112M288.607 14.757h4.112m-2.052 2.053v-4.113m-2.06 17.478h4.112m-2.052 2.059v-4.112m13.365-13.365h4.112m-2.052 2.053v-4.113m-2.06 17.478h4.112m-2.052 2.059v-4.112M288.607 45.6h4.112m-2.052 2.051V43.54m-2.06 17.484h4.112m-2.052 2.052v-4.112M304.032 45.6h4.112m-2.052 2.051V43.54m-2.06 17.484h4.112m-2.052 2.052v-4.112m-17.485 17.477h4.112m-2.052 2.06v-4.112m-2.06 17.477h4.112m-2.052 2.053v-4.112m13.365-13.366h4.112m-2.052 2.06v-4.112m-2.06 17.477h4.112m-2.052 2.053v-4.112m-17.485 17.477h4.112m-2.052 2.06v-4.112m-2.06 17.477h4.112m-2.052 2.06v-4.112m13.365-13.373h4.112m-2.052 2.06v-4.112m-2.06 17.477h4.112m-2.052 2.06v-4.112m-17.485 17.477h4.112m-2.052 2.052v-4.112m-2.06 17.477h4.112m-2.052 2.06v-4.112m13.365-13.365h4.112m-2.052 2.052v-4.112m-2.06 17.477h4.112m-2.052 2.06v-4.112m-17.485 17.477h4.112m-2.052 2.06v-4.112m-2.06 17.477h4.112m-2.052 2.052v-4.112m13.365-13.365h4.112m-2.052 2.06v-4.112m-2.06 17.477h4.112m-2.052 2.052v-4.112m-17.485 17.477h4.112m-2.052 2.06v-4.112m-2.06 17.477h4.112m-2.052 2.06v-4.112m13.365-13.373h4.112m-2.052 2.06v-4.112m-2.06 17.477h4.112m-2.052 2.06v-4.112M257.766 14.757h4.111m-2.053 2.053v-4.113m-2.058 17.478h4.111m-2.053 2.059v-4.112m13.366-13.365h4.112m-2.059 2.053v-4.113m-2.053 17.478h4.112m-2.059 2.059v-4.112M257.766 45.6h4.111m-2.053 2.051V43.54m-2.058 17.484h4.111m-2.053 2.052v-4.112M273.19 45.6h4.112m-2.059 2.051V43.54m-2.053 17.484h4.112m-2.059 2.052v-4.112m-17.477 17.477h4.111m-2.053 2.06v-4.112m-2.058 17.477h4.111m-2.053 2.053v-4.112m13.366-13.366h4.112m-2.059 2.06v-4.112m-2.053 17.477h4.112m-2.059 2.053v-4.112m-17.477 17.477h4.111m-2.053 2.06v-4.112m-2.058 17.477h4.111m-2.053 2.06v-4.112m13.366-13.373h4.112m-2.059 2.06v-4.112m-2.053 17.477h4.112m-2.059 2.06v-4.112m-17.477 17.477h4.111m-2.053 2.052v-4.112m-2.058 17.477h4.111m-2.053 2.06v-4.112m13.366-13.365h4.112m-2.059 2.052v-4.112m-2.053 17.477h4.112m-2.059 2.06v-4.112m-17.477 17.477h4.111m-2.053 2.06v-4.112m-2.058 17.477h4.111m-2.053 2.052v-4.112m13.366-13.365h4.112m-2.059 2.06v-4.112m-2.053 17.477h4.112m-2.059 2.052v-4.112m-17.477 17.477h4.111m-2.053 2.06v-4.112m-2.058 17.477h4.111m-2.053 2.06v-4.112m13.366-13.373h4.112m-2.059 2.06v-4.112m-2.053 17.477h4.112m-2.059 2.06v-4.112M242.341 14.757h4.112M244.4 16.81v-4.113m-2.059 17.478h4.112m-2.053 2.059v-4.112M242.341 45.6h4.112m-2.053 2.051V43.54m-2.059 17.484h4.112m-2.053 2.052v-4.112m-2.059 17.477h4.112m-2.053 2.06v-4.112m-2.059 17.477h4.112m-2.053 2.053v-4.112m-2.059 17.477h4.112m-2.053 2.06v-4.112m-2.059 17.477h4.112m-2.053 2.06v-4.112m-2.059 17.477h4.112m-2.053 2.052v-4.112m-2.059 17.477h4.112m-2.053 2.06v-4.112m-2.059 17.477h4.112m-2.053 2.06v-4.112m-2.059 17.477h4.112m-2.053 2.052v-4.112m-2.059 17.477h4.112m-2.053 2.06v-4.112m-2.059 17.477h4.112m-2.053 2.06v-4.112"/><path fill="#272B38" d="M105.598 153.551H59.331v46.267h92.534v-46.267h-46.267Z"/><path fill="#fff" d="M79.898 175.807h-1.37v-2.741h1.37v2.741Zm0 4.112h-1.37v-1.371h1.37v1.371Zm4.112-6.853h-4.112v-1.371h4.112v1.371Zm0 4.112h-4.112v-1.371h4.112v1.371Zm0 4.112h-4.112v-1.371h4.112v1.371Zm1.37-6.853h-1.37v-1.371h1.37v1.371Zm0 5.482h-1.37v-2.741h1.37v2.741Zm2.742-4.112H86.75v-4.112h1.37v4.112Zm2.74 1.371v4.112h-1.37v-4.112h-1.37v-1.371h4.111v1.371h-1.37Zm2.742-1.371h-1.37v-4.112h1.37v4.112Zm2.741 0h-1.37v-2.741h1.37v2.741Zm0 4.112h-1.37v-1.371h1.37v1.371Zm4.112-6.853h-4.112v-1.371h4.112v1.371Zm0 4.112h-4.112v-1.371h4.112v1.371Zm0 4.112h-4.112v-1.371h4.112v1.371Zm1.371-6.853h-1.371v-1.371h1.371v1.371Zm0 5.482h-1.371v-2.741h1.371v2.741Zm4.111-6.853h-2.741v-1.371h6.853v1.371h-2.741v8.224h-1.371v-8.224Zm6.86 6.853h5.483v1.371h-6.853v-9.595h6.853v1.371h-5.483v2.741h4.112v1.371h-4.112v2.741Zm8.224-5.482v6.853h-1.371v-9.595h1.371v1.371h1.371v1.371h-1.371Zm2.741 1.37h-1.37v-1.37h1.37v1.37Zm1.371 1.371h-1.371v-1.371h1.371v1.371Zm1.37-1.371h-1.37v-1.37h1.37v1.37Zm1.371-1.37h-1.371v-1.371h1.371v-1.371h1.371v9.595h-1.371v-6.853Z"/><path fill="#272B38" d="M244.4 153.551h-46.267v46.267h92.534v-46.267H244.4Z"/><path fill="#fff" d="M216.981 174.437v6.853h-1.371v-9.595h1.371v1.371h1.371v1.371h-1.371Zm2.741 1.37h-1.37v-1.37h1.37v1.37Zm1.371 1.371h-1.371v-1.371h1.371v1.371Zm1.37-1.371h-1.37v-1.37h1.37v1.37Zm1.371-1.37h-1.371v-1.371h1.371v-1.371h1.371v9.595h-1.371v-6.853Zm6.86-2.742v1.371h-1.371v6.853h1.371v1.371h-4.112v-1.371h1.371v-6.853h-1.371v-1.371h4.112Zm2.741 1.371v8.224h-1.371v-9.595h2.742v1.371h-1.371Zm2.741 2.741h-1.37v-2.741h1.37v2.741Zm1.371 2.741h-1.371v-2.741h1.371v2.741Zm1.371 0v-6.853h1.37v9.595h-1.37v-1.371h-1.371v-1.371h1.371Zm5.482-5.482h-2.741v-1.371h6.853v1.371h-2.741v8.224H244.4v-8.224Zm6.853 6.853h5.483v1.371h-6.853v-9.595h6.853v1.371h-5.483v2.741h4.112v1.371h-4.112v2.741Zm12.335-8.224v1.371h-4.112v2.741h4.112v1.371h-1.371v1.37h-1.37v-1.37h-1.371v4.112h-1.371v-9.595h5.483Zm0 8.224h-1.371v-1.371h1.371v1.371Zm1.371-4.112h-1.371v-2.741h1.371v2.741Zm0 5.483h-1.371v-1.371h1.371v1.371Zm2.742-5.483h-1.371v-2.741h1.371v2.741Zm0 4.112h-1.371v-1.371h1.371v1.371Zm4.119-6.853h-4.112v-1.371h4.112v1.371Zm0 4.112h-4.112v-1.371h4.112v1.371Zm0 4.112h-4.112v-1.371h4.112v1.371Zm1.37-6.853h-1.37v-1.371h1.37v1.371Zm0 5.482h-1.37v-2.741h1.37v2.741Z"/><path fill="#272B38" d="M176.283 196.396h2.741v1.37h-6.853v-1.37h2.741v-6.854h-2.741v-1.37h4.112v8.224Zm-3.205-37.848h-1.371v-1.371h1.371v1.371Zm1.378 5.482h4.111v1.371h-6.853v-1.371h1.371v-1.37h1.371v1.37Zm2.741-6.853h-4.112v-1.37h4.112v1.37Zm-1.371 5.483h-1.37v-1.371h1.37v1.371Zm1.371-1.371h-1.371v-1.371h1.371v1.371Zm1.37-1.371h-1.37v-2.741h1.37v2.741Z"/><path fill="#ABB0BF" d="M94.496 25.424h2.74v1.371h-6.852v-1.37h2.741V18.57h-2.741V17.2h4.112v8.223Zm5.482.001h-1.37v-6.853h1.37v6.853Zm4.112-6.86h-4.112v-1.371h4.112v1.37Zm0 8.23h-4.112v-1.37h4.112v1.37Zm-1.371-4.112h-1.37v-1.37h1.37v1.37Zm2.749 2.742h-1.371v-6.853h1.371v6.853Z"/><path fill="#fff" stroke="#ABB0BF" stroke-miterlimit="10" stroke-width="1.363" d="M244.4 61.024h-46.267v46.26h92.534v-46.26H244.4Zm-138.802 0H59.331v46.26h92.534v-46.26h-46.267Z"/><path fill="#A1A5B2" d="M219.722 81.924v6.853h-1.37v-9.594h1.37v1.37h1.371v1.371h-1.371Zm2.741 1.37h-1.37v-1.37h1.37v1.37Zm1.371 1.371h-1.371v-1.37h1.371v1.37Zm1.371-1.37h-1.371v-1.37h1.371v1.37Zm1.37-1.37h-1.37v-1.371h1.37v-1.37h1.371v9.593h-1.371v-6.853Zm4.119 4.111v2.741h-1.371v-5.482h1.371v1.37h4.112v-1.37h1.37v5.482h-1.37v-2.74h-4.112Zm1.37-2.741h-1.37v-2.741h1.37v2.74Zm1.371-2.741h-1.371v-1.37h1.371v1.37Zm1.371 2.74h-1.371v-2.74h1.371v2.74Zm8.223-4.111v1.37h-4.112v2.742h4.112v1.37h-1.37v1.371h-1.371v-1.37h-1.371v4.111h-1.37v-9.594h5.482Zm0 8.224h-1.37v-1.37h1.37v1.37Zm1.371-4.112h-1.371v-2.741h1.371v2.74Zm0 5.482h-1.371v-1.37h1.371v1.37Zm2.741-4.112v4.112h-1.37v-9.594h1.37v4.112h1.371v1.37h-1.371Zm2.741-1.37h-1.37v-1.37h1.37v1.37Zm0 2.741h-1.37v-1.37h1.37v1.37Zm1.371-4.112h-1.371v-1.37h1.371v1.37Zm0 5.483h-1.371v-1.37h1.371v1.37Zm1.371-6.853h-1.371v-1.37h1.371v1.37Zm0 8.223h-1.371v-1.37h1.371v1.37Zm2.741-1.37h5.482v1.37h-6.853v-9.594h6.853v1.37h-5.482v2.742h4.112v1.37h-4.112v2.742Zm9.594-6.853h-2.741v-1.37h6.853v1.37h-2.741v8.223h-1.371v-8.223Z"/><path fill="#fff" stroke="#ABB0BF" stroke-miterlimit="10" stroke-width="1.363" d="M383.202 61.024h-46.267v46.26h92.534v-46.26h-46.267Z"/><path fill="#A1A5B2" d="M82.29 83.295h-1.37v-2.741h1.37v2.74Zm0 4.112h-1.37v-1.37h1.37v1.37Zm4.112-6.853H82.29v-1.37h4.112v1.37Zm0 4.111H82.29v-1.37h4.112v1.37Zm0 4.12H82.29v-1.371h4.112v1.37Zm1.378-6.86h-1.37v-1.371h1.37v1.37Zm0 5.482h-1.37v-2.742h1.37v2.742Zm2.742-1.371v2.741h-1.37v-5.482h1.37v1.37h4.112v-1.37h1.37v5.482h-1.37v-2.74h-4.112Zm1.37-2.741h-1.37v-2.741h1.37v2.74Zm1.371-2.741h-1.37v-1.37h1.37v1.37Zm1.37 2.74h-1.37v-2.74h1.37v2.74Zm4.113.001h-1.371v-4.112h1.37v4.112Zm1.37 2.741h-1.37v-2.741h1.37v2.741Zm1.371 2.749h-1.371v-2.742h1.371v2.742Zm1.37-2.749h-1.37v-2.741h1.37v2.741Zm1.371-2.741h-1.371v-4.112h1.371v4.112Zm2.741 4.112h5.483v1.37h-6.853v-9.594h6.853v1.37h-5.483v2.742h4.112v1.37h-4.112v2.742Zm12.336-8.224v1.37h-4.112v2.742h4.112v1.37h-1.371v1.371h-1.371v-1.37h-1.37v4.111h-1.371v-9.594h5.483Zm0 8.224h-1.371v-1.37h1.371v1.37Zm1.37-4.112h-1.37v-2.741h1.37v2.74Zm0 5.49h-1.37v-1.371h1.37v1.37Zm2.741-5.49h-1.37v-2.741h1.37v2.74Zm0 4.112h-1.37v-1.37h1.37v1.37Zm4.12-6.853h-4.112v-1.37h4.112v1.37Zm0 4.111h-4.112v-1.37h4.112v1.37Zm0 4.12h-4.112v-1.371h4.112v1.37Zm1.37-6.86h-1.37v-1.371h1.37v1.37Zm0 5.482h-1.37v-2.742h1.37v2.742Z"/><path fill="#fff" stroke="#ABB0BF" stroke-miterlimit="10" stroke-width="1.363" d="M-33.203 61.024h-46.268v46.26h92.535v-46.26h-46.267Z"/><path fill="#A1A5B2" d="M3.81 79.183v1.37H-.3v2.742h4.11v1.37H2.44v1.371H1.07v-1.37H-.302v4.111h-1.37v-9.594H3.81Zm0 8.224H2.44v-1.37h1.37v1.37Zm1.371-4.112h-1.37v-2.741h1.37v2.74Zm0 5.482h-1.37v-1.37h1.37v1.37Z"/><path fill="#ABB0BF" d="M-33.885 29.493v30.843h1.37v-1.378h-.006V30.857h276.239v30.16h1.364V29.493H-33.885Zm211.509 51.749h-5.482v-1.37h6.853v4.111h-1.371v-2.74Zm-4.119 8.224h-1.37v-1.37h1.37v1.37Zm1.378-1.37h-1.37v-1.371h1.37v1.37Zm1.371-1.371h-1.371v-1.371h1.371v1.37Zm1.37-1.371h-1.37v-1.37h1.37v1.37Zm20.509-8.231V75.76H152.54v1.37h1.371v-.007h44.222Zm-42.851-2.733h-1.371v1.37h1.371v-1.37Zm1.37-1.371h-1.371v1.37h1.371v-1.37Zm1.371-1.371h-1.371v1.37h1.371v-1.37Z"/><path fill="#ABB0BF" d="M155.282 77.13h-1.371v1.371h1.371v-1.37Zm1.37 1.371h-1.371v1.371h1.371v-1.37Zm1.371 1.371h-1.371v1.37h1.371v-1.37Zm96.74 54.02h-4.112v1.37h4.112v-1.37Zm1.371-2.742h-1.37v2.741h1.37v-2.741Zm-5.483 1.371h-1.371v1.37h1.371v-1.37Zm0-5.49h-1.371v1.371h1.371v-1.371Zm4.112 2.741h-2.742v1.371h2.742v-1.371Zm1.371-2.741h-1.37v2.741h1.37v-2.741Zm-1.371-1.371h-4.112v1.371h4.112v-1.371Zm-8.304-16.331h-1.37v1.371h1.37v-1.371Zm1.372 1.371h-1.371v1.37h1.371v-1.37Zm1.37 1.378h-1.371v1.37h1.371v-1.37Zm-5.483-4.12v45.593h1.363v-44.222h.007v-1.371h-1.37Zm-.007 1.371h-1.37v1.371h1.37v-1.371Zm-1.371 1.371h-1.37v1.37h1.37v-1.37Zm-1.37 1.378h-1.37v1.37h1.37v-1.37Zm74.717-41.829v2.74h-1.371v-2.74h-4.112v-2.742h1.371v1.37h2.741v-2.74h-1.371v-1.37h1.371v-1.371h1.371v5.482h1.37v1.37h-1.37Zm-2.742-2.742h-1.37v-1.37h1.37v1.37Zm-.834 33.613v2.741h-1.371v-6.853h1.371v2.742h4.112v1.37h-4.112Zm4.112-4.112h-4.112v-1.37h4.112v1.37Zm0 8.224h-4.112v-1.371h4.112v1.371Zm1.37-6.853h-1.37v-1.37h1.37v1.37Zm0 5.482h-1.37v-2.741h1.37v2.741Zm19.341-11.313v-1.363h-44.193v-.007h-1.378v1.37h45.571Zm-2.038-15.418h-1.371v1.371h1.371v-1.37Zm-1.37 1.371h-1.371v1.371h1.371v-1.37Zm-1.37 1.371h-1.371v1.37h1.371v-1.37Zm2.74-2.742h1.371v-1.37h-45.6v1.363h44.229v.007Z"/><path fill="#ABB0BF" d="M334.896 74.39h-1.371v1.37h1.371v-1.37Zm-1.37-1.371h-1.371v1.37h1.371v-1.37Zm-1.37-1.371h-1.371v1.37h1.371v-1.37Zm-38.044 18.159h-1.371v1.37h1.371v-1.37Zm1.371-1.371h-1.371v1.37h1.371v-1.37Zm1.37-1.371h-1.371v1.371h1.371v-1.37Zm-2.741 5.483h-1.371v1.37h1.371v-1.37Zm1.371 1.37h-1.371v1.371h1.371v-1.37Zm1.37 1.372h-1.371v1.37h1.371v-1.37Z"/><path fill="#272B38" d="M153.991 168.294h-1.371v1.364h45.513v-1.364h-44.142Zm1.37-1.377h-1.371v1.37h1.371v-1.37Zm1.371-1.371h-1.371v1.371h1.371v-1.371Z"/><path fill="#272B38" d="M158.102 164.175h-1.371v1.371h1.371v-1.371Zm-2.741 5.483h-1.371v1.37h1.371v-1.37Zm1.371 1.378h-1.371v1.37h1.371v-1.37Zm1.37 1.37h-1.371v1.371h1.371v-1.371Zm37.906 12.677h-1.37v1.37h1.37v-1.37Zm-1.37 1.37h-1.37v1.371h1.37v-1.371Zm-1.371 1.371h-1.371v1.37h1.371v-1.37Zm2.741-4.112h-44.143v1.371h45.513v-1.371h-1.37Zm0-1.371h-1.37v1.371h1.37v-1.371Zm-1.37-1.37h-1.37v1.37h1.37v-1.37Zm-1.371-1.371h-1.371v1.371h1.371V179.6Z"/><path fill="#ABB0BF" d="M128.348 129.772h-1.37v-2.741h1.37v2.741Zm0 4.119h-1.37v-2.741h1.37v2.741Zm4.112-6.86h-4.112v-1.371h4.112v1.371Zm0 4.119h-4.112v-1.371h4.112v1.371Zm0 4.112h-4.112v-1.371h4.112v1.371Zm1.371-5.49h-1.371v-2.741h1.371v2.741Zm0 4.119h-1.371v-2.741h1.371v2.741Zm-36.855-4.119h-1.37v-2.741h1.37v2.741Zm0 4.119h-1.37v-1.371h1.37v1.371Zm4.112-6.86h-4.112v-1.371h4.112v1.371Zm0 4.119h-4.112v-1.371h4.112v-2.741h1.371v6.853h-1.371v-2.741Zm0 4.112h-4.112v-1.371h4.112v1.371Zm-8.854-25.933h-1.37v1.371h1.37v-1.371Zm1.37 1.371h-1.37v1.37h1.37v-1.37Zm1.37 1.37h-1.37v1.371h1.37v-1.371Zm-5.482-4.112v45.593h1.37v-45.593h-1.37Zm0 1.371h-1.37v1.371h1.37v-1.371Zm-1.37 1.371H86.75v1.37h1.37v-1.37Zm-1.372 1.37h-1.37v1.371h1.37v-1.371Zm34.962-4.112h-1.378v42.62h-1.37v1.371h1.37v1.37h1.371v-1.37h1.371v-1.371h-1.364v-42.62Zm-2.749 41.25h-1.37v1.37h1.37v-1.37Zm-1.37-1.371h-1.37v1.371h1.37v-1.371Zm6.854 1.371h-1.371v1.37h1.371v-1.37Zm1.37-1.371h-1.371v1.371h1.371v-1.371ZM1.947 164.32h2.741v1.371h-6.853v-1.371H.576v-6.853h-2.741v-1.37h4.112v8.223Zm8.223 0h2.742v1.371H6.059v-1.371h2.74v-6.853H6.06v-1.37h4.111v8.223Zm-8.223 32.366h2.741v1.37h-6.853v-1.37H.576v-6.853h-2.741v-1.371h4.112v8.224Zm5.483-5.49H6.058v-1.371h1.37v1.371Zm1.37 5.49h4.112v1.37H6.059v-1.37h1.37v-1.371H8.8v1.371Zm2.741-6.861H7.429v-1.37h4.112v1.37Zm-1.37 5.49H8.8v-1.371h1.37v1.371Zm1.37-1.378h-1.37v-1.371h1.37v1.371Zm1.37-1.371h-1.37v-2.741h1.37v2.741Z"/><path fill="#ABB0BF" d="M-47.939 109.322v-1.371h-1.37v77.131H58.28v-1.363H-47.94v-74.397Zm105.146 60.343h-1.371v1.371h1.37v-1.371Zm-1.371 1.371h-1.371v1.37h1.37v-1.37Z"/><path fill="#ABB0BF" d="M54.465 172.406h-1.37v1.371h1.37v-1.371Zm2.741-4.112H-32.52v-61.032h-1.364v62.396h91.091v.007h1.371v-1.371h-1.37Z"/><path fill="#ABB0BF" d="M57.207 166.924h-1.371v1.37h1.37v-1.37Zm-1.371-1.371h-1.371v1.371h1.37v-1.371Zm-1.371-1.378h-1.37v1.371h1.37v-1.371Z"/></g><defs><clipPath id="a"><path fill="#fff" d="M0 12C0 5.373 5.373 0 12 0h326c6.627 0 12 5.373 12 12v206c0 6.627-5.373 12-12 12H12c-6.627 0-12-5.373-12-12V12Z"/></clipPath></defs></svg>