<svg xmlns="http://www.w3.org/2000/svg" width="350" height="230" fill="none"><g clip-path="url(#a)"><path fill="#F9F9FB" d="M-215.682.549H350v228.864h-565.682z"/><path stroke="#ABB0BF" stroke-miterlimit="10" stroke-width=".252" d="M118.688 15.548h4.081m-2.043 2.037v-4.081m-2.038 17.345h4.081m-2.043 2.044v-4.081m-2.038 17.345h4.081m-2.043 2.036v-4.08m-2.038 17.352h4.081m-2.043 2.036v-4.08m-2.038 17.344h4.081m-2.043 2.045v-4.082m-2.038 17.345h4.081m-2.043 2.037v-4.08m-2.038 17.344h4.081m-2.043 2.044v-4.081m-2.038 17.345h4.081m-2.043 2.044v-4.08m-2.038 17.344h4.081m-2.043 2.036v-4.08m-2.038 17.345h4.081m-2.043 2.044v-4.081m-2.038 17.345h4.081m-2.043 2.044v-4.081m-2.038 17.345h4.081m-2.043 2.036v-4.08m-2.038 17.344h4.081m-2.043 2.045v-4.081m-2.038 17.344h4.081m-2.043 2.044v-4.08M88.073 15.548h4.088m-2.044 2.037v-4.081m-2.044 17.345h4.088m-2.044 2.044v-4.081m13.264-13.264h4.081m-2.037 2.037v-4.081m-2.044 17.345h4.081m-2.037 2.044v-4.081M88.073 46.157h4.088m-2.044 2.036v-4.08m-2.044 17.352h4.088m-2.044 2.036v-4.08m13.264-13.264h4.081m-2.037 2.037v-4.081m-2.044 17.351h4.081m-2.037 2.037v-4.08M88.073 76.765h4.088m-2.044 2.045v-4.082m-2.044 17.345h4.088m-2.044 2.037v-4.08m13.264-13.265h4.081m-2.037 2.045v-4.082m-2.044 17.345h4.081m-2.037 2.037v-4.08m-17.352 17.344h4.088m-2.044 2.044v-4.081m-2.044 17.345h4.088m-2.044 2.044v-4.08m13.264-13.272h4.081m-2.037 2.044v-4.081m-2.044 17.345h4.081m-2.037 2.044v-4.081M88.073 137.99h4.088m-2.044 2.036v-4.08m-2.044 17.345h4.088m-2.044 2.044v-4.081m13.264-13.264h4.081m-2.037 2.036v-4.08m-2.044 17.345h4.081m-2.037 2.044v-4.081m-17.352 17.345h4.088m-2.044 2.044v-4.081m-2.044 17.345h4.088m-2.044 2.036v-4.08m13.264-13.264h4.081m-2.037 2.044v-4.081m-2.044 17.345h4.081m-2.037 2.036v-4.08m-17.352 17.344h4.088m-2.044 2.045v-4.081m-2.044 17.344h4.088m-2.044 2.044v-4.08m13.264-13.271h4.081m-2.037 2.043v-4.081m-2.044 17.345h4.081m-2.037 2.044v-4.08M57.465 15.548h4.08m-2.036 2.037v-4.081m-2.044 17.345h4.08m-2.036 2.044v-4.081m13.263-13.264h4.081m-2.043 2.037v-4.081m-2.038 17.345h4.081m-2.043 2.044v-4.081M57.465 46.157h4.08m-2.036 2.037v-4.081m-2.044 17.352h4.08m-2.036 2.036v-4.08m13.263-13.264h4.081m-2.043 2.037v-4.081m-2.038 17.351h4.081m-2.043 2.037v-4.08M57.465 76.765h4.08m-2.036 2.045v-4.082m-2.044 17.345h4.08m-2.036 2.037v-4.08m13.263-13.265h4.081M74.81 78.81v-4.082m-2.038 17.345h4.081M74.81 94.11v-4.08m-17.345 17.344h4.08m-2.036 2.044v-4.081m-2.044 17.345h4.08m-2.036 2.044v-4.081m13.263-13.271h4.081m-2.043 2.044v-4.081m-2.038 17.345h4.081m-2.043 2.044v-4.081M57.465 137.99h4.08m-2.036 2.036v-4.08m-2.044 17.345h4.08m-2.036 2.044v-4.081m13.263-13.264h4.081m-2.043 2.036v-4.08m-2.038 17.345h4.081m-2.043 2.044v-4.081m-17.345 17.345h4.08m-2.036 2.044v-4.081m-2.044 17.345h4.08m-2.036 2.036v-4.08m13.263-13.264h4.081m-2.043 2.044v-4.081m-2.038 17.345h4.081m-2.043 2.036v-4.08m-17.345 17.344h4.08m-2.036 2.044v-4.081m-2.044 17.345h4.08m-2.036 2.044v-4.08m13.263-13.271h4.081m-2.043 2.043v-4.081m-2.038 17.345h4.081m-2.043 2.044v-4.08M26.855 15.548h4.081m-2.043 2.037v-4.081m-2.038 17.345h4.081m-2.043 2.044v-4.081m13.263-13.264h4.088M44.2 17.585v-4.081m-2.044 17.345h4.088M44.2 32.893v-4.081M26.855 46.157h4.081m-2.043 2.037v-4.081m-2.038 17.351h4.081m-2.043 2.037v-4.08m13.263-13.264h4.088M44.2 48.193v-4.08m-2.044 17.352h4.088M44.2 63.501v-4.08M26.855 76.765h4.081m-2.043 2.045v-4.082m-2.038 17.345h4.081m-2.043 2.037v-4.08m13.263-13.265h4.088M44.2 78.81v-4.082m-2.044 17.345h4.088M44.2 94.11v-4.08m-17.345 17.344h4.081m-2.043 2.044v-4.081m-2.038 17.345h4.081m-2.043 2.044v-4.081m13.263-13.271h4.088m-2.044 2.044v-4.081m-2.044 17.345h4.088m-2.044 2.044v-4.08M26.855 137.99h4.081m-2.043 2.036v-4.08m-2.038 17.345h4.081m-2.043 2.044v-4.081m13.263-13.264h4.088m-2.044 2.036v-4.08m-2.044 17.345h4.088m-2.044 2.044v-4.081m-17.345 17.345h4.081m-2.043 2.044v-4.081m-2.038 17.345h4.081m-2.043 2.036v-4.08m13.263-13.264h4.088m-2.044 2.044v-4.081m-2.044 17.345h4.088m-2.044 2.036v-4.08m-17.345 17.345h4.081m-2.043 2.043v-4.081m-2.038 17.345h4.081m-2.043 2.044v-4.08m13.263-13.272h4.088m-2.044 2.045v-4.081m-2.044 17.344h4.088m-2.044 2.044v-4.08M-3.753 15.548h4.08m-4.08 15.301h4.08m11.221-15.301h4.08m-2.036 2.037v-4.081m-2.044 17.345h4.08m-2.036 2.044v-4.081M-3.753 46.157h4.08m-4.08 15.308h4.08m11.221-15.308h4.08m-2.036 2.036v-4.08m-2.044 17.352h4.08m-2.036 2.036v-4.08M-3.753 76.765h4.08m-4.08 15.308h4.08m11.221-15.308h4.08m-2.036 2.045v-4.082m-2.044 17.345h4.08m-2.036 2.037v-4.08m-17.345 17.344h4.08m-4.08 15.308h4.08m11.221-15.308h4.08m-2.036 2.044v-4.081m-2.044 17.345h4.08m-2.036 2.044v-4.08M-3.753 137.99h4.08m-4.08 15.301h4.08m11.221-15.301h4.08m-2.036 2.036v-4.08m-2.044 17.345h4.08m-2.036 2.044v-4.081m-17.345 17.345h4.08m-4.08 15.308h4.08m11.221-15.308h4.08m-2.036 2.044v-4.081m-2.044 17.345h4.08m-2.036 2.036v-4.08m-17.345 17.344h4.08m-4.08 15.308h4.08m11.221-15.308h4.08m-2.036 2.045v-4.081m-2.044 17.344h4.08m-2.036 2.044v-4.08M332.965 15.548h4.081m-2.045 2.037v-4.081m-2.036 17.345h4.081m-2.045 2.044v-4.081m-2.036 17.345h4.081m-2.045 2.037v-4.081m-2.036 17.351h4.081m-2.045 2.037v-4.08m-2.036 17.344h4.081m-2.045 2.045v-4.082m-2.036 17.345h4.081m-2.045 2.037v-4.08m-2.036 17.344h4.081m-2.045 2.044v-4.081m-2.036 17.345h4.081m-2.045 2.044v-4.081m-2.036 17.345h4.081m-2.045 2.036v-4.08m-2.036 17.345h4.081m-2.045 2.044v-4.081m-2.036 17.345h4.081m-2.045 2.044v-4.081m-2.036 17.345h4.081m-2.045 2.036v-4.08m-2.036 17.345h4.081m-2.045 2.043v-4.081m-2.036 17.345h4.081m-2.045 2.044v-4.08M302.355 15.548h4.081m-2.043 2.037v-4.081m-2.038 17.345h4.081m-2.043 2.044v-4.081m13.263-13.264h4.081m-2.036 2.037v-4.081m-2.045 17.345h4.081m-2.036 2.044v-4.081m-17.346 17.345h4.081m-2.043 2.037v-4.081m-2.038 17.351h4.081m-2.043 2.037v-4.08m13.263-13.264h4.081m-2.036 2.036v-4.08m-2.045 17.352h4.081m-2.036 2.036v-4.08m-17.346 17.344h4.081m-2.043 2.045v-4.082m-2.038 17.345h4.081m-2.043 2.037v-4.08m13.263-13.265h4.081m-2.036 2.045v-4.082m-2.045 17.345h4.081m-2.036 2.037v-4.08m-17.346 17.344h4.081m-2.043 2.044v-4.081m-2.038 17.345h4.081m-2.043 2.044v-4.081m13.263-13.271h4.081m-2.036 2.044v-4.081m-2.045 17.345h4.081m-2.036 2.044v-4.08m-17.346 17.344h4.081m-2.043 2.036v-4.08m-2.038 17.345h4.081m-2.043 2.044v-4.081m13.263-13.264h4.081m-2.036 2.036v-4.08m-2.045 17.345h4.081m-2.036 2.044v-4.081m-17.346 17.345h4.081m-2.043 2.044v-4.081m-2.038 17.345h4.081m-2.043 2.036v-4.08m13.263-13.264h4.081m-2.036 2.044v-4.081m-2.045 17.345h4.081m-2.036 2.036v-4.08m-17.346 17.345h4.081m-2.043 2.043v-4.081m-2.038 17.345h4.081m-2.043 2.044v-4.08m13.263-13.272h4.081m-2.036 2.045v-4.081m-2.045 17.344h4.081m-2.036 2.044v-4.08M271.739 15.548h4.081m-2.037 2.037v-4.081m-2.044 17.345h4.081m-2.037 2.044v-4.081m13.265-13.264h4.081m-2.044 2.037v-4.081m-2.037 17.345h4.081m-2.044 2.044v-4.081m-17.346 17.345h4.081m-2.037 2.036v-4.08m-2.044 17.352h4.081m-2.037 2.036v-4.08m13.265-13.264h4.081m-2.044 2.036v-4.08m-2.037 17.352h4.081m-2.044 2.036v-4.08m-17.346 17.344h4.081m-2.037 2.045v-4.082m-2.044 17.345h4.081m-2.037 2.037v-4.08m13.265-13.265h4.081m-2.044 2.045v-4.082m-2.037 17.345h4.081m-2.044 2.037v-4.08m-17.346 17.344h4.081m-2.037 2.044v-4.081m-2.044 17.345h4.081m-2.037 2.044v-4.08m13.265-13.272h4.081m-2.044 2.044v-4.081m-2.037 17.345h4.081m-2.044 2.044v-4.08m-17.346 17.344h4.081m-2.037 2.036v-4.08m-2.044 17.345h4.081m-2.037 2.044v-4.081m13.265-13.264h4.081m-2.044 2.036v-4.08m-2.037 17.345h4.081m-2.044 2.044v-4.081m-17.346 17.345h4.081m-2.037 2.044v-4.081m-2.044 17.345h4.081m-2.037 2.036v-4.08m13.265-13.264h4.081m-2.044 2.044v-4.081m-2.037 17.345h4.081m-2.044 2.036v-4.08m-17.346 17.344h4.081m-2.037 2.045v-4.081m-2.044 17.344h4.081m-2.037 2.044v-4.08m13.265-13.272h4.081m-2.044 2.045v-4.081m-2.037 17.344h4.081m-2.044 2.044v-4.08M241.132 15.548h4.081m-2.037 2.037v-4.081m-2.044 17.345h4.081m-2.037 2.044v-4.081m13.263-13.264h4.081m-2.044 2.037v-4.081m-2.037 17.345h4.081m-2.044 2.044v-4.081m-17.344 17.345h4.081m-2.037 2.036v-4.08m-2.044 17.352h4.081m-2.037 2.036v-4.08m13.263-13.264h4.081m-2.044 2.037v-4.081m-2.037 17.351h4.081m-2.044 2.037v-4.08m-17.344 17.344h4.081m-2.037 2.045v-4.082m-2.044 17.345h4.081m-2.037 2.037v-4.08m13.263-13.265h4.081m-2.044 2.045v-4.082m-2.037 17.345h4.081m-2.044 2.037v-4.08m-17.344 17.344h4.081m-2.037 2.044v-4.081m-2.044 17.345h4.081m-2.037 2.044v-4.08m13.263-13.272h4.081m-2.044 2.044v-4.081m-2.037 17.345h4.081m-2.044 2.044v-4.081m-17.344 17.345h4.081m-2.037 2.036v-4.08m-2.044 17.345h4.081m-2.037 2.044v-4.081m13.263-13.264h4.081m-2.044 2.036v-4.08m-2.037 17.345h4.081m-2.044 2.044v-4.081m-17.344 17.345h4.081m-2.037 2.044v-4.081m-2.044 17.345h4.081m-2.037 2.036v-4.08m13.263-13.264h4.081m-2.044 2.044v-4.081m-2.037 17.345h4.081m-2.044 2.036v-4.08m-17.344 17.344h4.081m-2.037 2.045v-4.081m-2.044 17.344h4.081m-2.037 2.044v-4.08m13.263-13.271h4.081m-2.044 2.043v-4.081m-2.037 17.345h4.081m-2.044 2.044v-4.08M210.522 15.548h4.081m-2.043 2.037v-4.081m-2.038 17.345h4.081m-2.043 2.044v-4.081m13.263-13.264h4.081m-2.037 2.037v-4.081m-2.044 17.345h4.081m-2.037 2.044v-4.081m-17.345 17.345h4.081m-2.043 2.036v-4.08m-2.038 17.351h4.081m-2.043 2.037v-4.08m13.263-13.264h4.081m-2.037 2.037v-4.081m-2.044 17.351h4.081m-2.037 2.037v-4.08m-17.345 17.344h4.081m-2.043 2.045v-4.082m-2.038 17.345h4.081m-2.043 2.037v-4.08m13.263-13.265h4.081m-2.037 2.045v-4.082m-2.044 17.345h4.081m-2.037 2.037v-4.08m-17.345 17.344h4.081m-2.043 2.044v-4.081m-2.038 17.345h4.081m-2.043 2.044v-4.08m13.263-13.272h4.081m-2.037 2.044v-4.081m-2.044 17.345h4.081m-2.037 2.044v-4.081m-17.345 17.345h4.081m-2.043 2.036v-4.08m-2.038 17.345h4.081m-2.043 2.044v-4.081m13.263-13.264h4.081m-2.037 2.036v-4.08m-2.044 17.345h4.081m-2.037 2.044v-4.081m-17.345 17.345h4.081m-2.043 2.044v-4.081m-2.038 17.345h4.081m-2.043 2.036v-4.08m13.263-13.264h4.081m-2.037 2.044v-4.081m-2.044 17.345h4.081m-2.037 2.036v-4.08m-17.345 17.345h4.081m-2.043 2.044v-4.081m-2.038 17.344h4.081m-2.043 2.044v-4.08m13.263-13.271h4.081m-2.037 2.043v-4.081m-2.044 17.345h4.081m-2.037 2.044v-4.08M179.906 15.548h4.081m-2.037 2.037v-4.081m-2.044 17.345h4.081m-2.037 2.044v-4.081m13.264-13.264h4.081m-2.037 2.037v-4.081m-2.044 17.345h4.081m-2.037 2.044v-4.081m-17.352 17.345h4.081m-2.037 2.037v-4.081m-2.044 17.351h4.081m-2.037 2.037v-4.08m13.264-13.264h4.081m-2.037 2.036v-4.08m-2.044 17.352h4.081m-2.037 2.036v-4.08m-17.352 17.344h4.081m-2.037 2.045v-4.082m-2.044 17.345h4.081m-2.037 2.037v-4.08m13.264-13.265h4.081m-2.037 2.045v-4.082m-2.044 17.345h4.081m-2.037 2.037v-4.08m-17.352 17.344h4.081m-2.037 2.044v-4.081m-2.044 17.345h4.081m-2.037 2.044v-4.081m13.264-13.271h4.081m-2.037 2.044v-4.081m-2.044 17.345h4.081m-2.037 2.044v-4.08m-17.352 17.344h4.081m-2.037 2.036v-4.08m-2.044 17.345h4.081m-2.037 2.044v-4.081m13.264-13.264h4.081m-2.037 2.036v-4.08m-2.044 17.345h4.081m-2.037 2.044v-4.081m-17.352 17.345h4.081m-2.037 2.044v-4.081m-2.044 17.345h4.081m-2.037 2.036v-4.08m13.264-13.264h4.081m-2.037 2.044v-4.081m-2.044 17.345h4.081m-2.037 2.036v-4.08m-17.352 17.345h4.081m-2.037 2.043v-4.081m-2.044 17.345h4.081m-2.037 2.044v-4.08m13.264-13.272h4.081m-2.037 2.045v-4.081m-2.044 17.344h4.081m-2.037 2.044v-4.08m-47.96-196.931h4.081m-2.037 2.037v-4.081m-2.044 17.345h4.081m-2.037 2.044v-4.081m13.264-13.264h4.081m-2.044 2.037v-4.081m-2.037 17.345h4.081m-2.044 2.044v-4.081m-17.345 17.345h4.081m-2.037 2.036v-4.08m-2.044 17.351h4.081m-2.037 2.037v-4.08m13.264-13.264h4.081m-2.044 2.036v-4.08m-2.037 17.352h4.081m-2.044 2.036v-4.08m-17.345 17.344h4.081m-2.037 2.045v-4.082m-2.044 17.345h4.081m-2.037 2.037v-4.08m13.264-13.265h4.081m-2.044 2.045v-4.082m-2.037 17.345h4.081m-2.044 2.037v-4.08m-17.345 17.344h4.081m-2.037 2.044v-4.081m-2.044 17.345h4.081m-2.037 2.044v-4.08m13.264-13.272h4.081m-2.044 2.044v-4.081m-2.037 17.345h4.081m-2.044 2.044v-4.08m-17.345 17.344h4.081m-2.037 2.036v-4.08m-2.044 17.345h4.081m-2.037 2.044v-4.081m13.264-13.264h4.081m-2.044 2.036v-4.08m-2.037 17.345h4.081m-2.044 2.044v-4.081m-17.345 17.345h4.081m-2.037 2.044v-4.081m-2.044 17.345h4.081m-2.037 2.036v-4.08m13.264-13.264h4.081m-2.044 2.044v-4.081m-2.037 17.345h4.081m-2.044 2.036v-4.08m-17.345 17.345h4.081m-2.037 2.044v-4.081m-2.044 17.344h4.081m-2.037 2.044v-4.08m13.264-13.272h4.081m-2.044 2.045v-4.081m-2.037 17.344h4.081m-2.044 2.044v-4.08M133.99 15.548h4.081m-2.037 2.037v-4.081m-2.044 17.345h4.081m-2.037 2.044v-4.081m-2.044 17.345h4.081m-2.037 2.037v-4.081m-2.044 17.352h4.081m-2.037 2.036v-4.08m-2.044 17.344h4.081m-2.037 2.045v-4.082m-2.044 17.345h4.081m-2.037 2.037v-4.08m-2.044 17.344h4.081m-2.037 2.044v-4.081m-2.044 17.345h4.081m-2.037 2.044v-4.081m-2.044 17.345h4.081m-2.037 2.036v-4.08m-2.044 17.345h4.081m-2.037 2.044v-4.081m-2.044 17.345h4.081m-2.037 2.044v-4.081m-2.044 17.345h4.081m-2.037 2.036v-4.08m-2.044 17.344h4.081m-2.037 2.044v-4.081m-2.044 17.345h4.081m-2.037 2.044v-4.08"/><path fill="#fff" stroke="#ABB0BF" stroke-miterlimit="10" stroke-width="1.353" d="M-1.716 153.291h-45.917v45.916H44.2v-45.916H-1.715Z"/><path fill="#A1A5B2" d="M-1.378 172.658h-2.72v-1.361h6.8v1.361h-2.72v8.161h-1.36v-8.161Zm6.808 6.801h5.441v1.36h-6.8v-9.522h6.8v1.361h-5.44v2.72h4.08v1.36h-4.08v2.721Zm8.162-5.441v6.801h-1.36v-9.522h1.36v1.361h1.36v1.36h-1.36Zm2.72 1.36h-1.36v-1.36h1.36v1.36Zm1.36 1.36h-1.36v-1.36h1.36v1.36Zm1.36-1.36h-1.36v-1.36h1.36v1.36Zm1.36-1.36h-1.36v-1.36h1.36v-1.361h1.361v9.522h-1.36v-6.801Z"/><path fill="#272B38" d="M136.034 153.291H90.117v45.916h91.834v-45.916h-45.917Z"/><path fill="#fff" d="M108.822 174.018v6.801h-1.36v-9.522h1.36v1.361h1.36v1.36h-1.36Zm2.721 1.36h-1.361v-1.36h1.361v1.36Zm1.36 1.36h-1.36v-1.36h1.36v1.36Zm1.36-1.36h-1.36v-1.36h1.36v1.36Zm1.36-1.36h-1.36v-1.36h1.36v-1.361h1.361v9.522h-1.361v-6.801Zm6.808-2.721v1.361h-1.36v6.801h1.36v1.36h-4.08v-1.36h1.36v-6.801h-1.36v-1.361h4.08Zm2.721 1.361v8.161h-1.36v-9.522h2.72v1.361h-1.36Zm2.721 2.72h-1.361v-2.72h1.361v2.72Zm1.36 2.72h-1.36v-2.72h1.36v2.72Zm1.36 0v-6.801h1.36v9.522h-1.36v-1.36h-1.36v-1.361h1.36Zm5.441-5.44h-2.721v-1.361h6.802v1.361h-2.721v8.161h-1.36v-8.161Zm6.801 6.801h5.441v1.36h-6.801v-9.522h6.801v1.361h-5.441v2.72h4.081v1.36h-4.081v2.721Zm12.242-8.162v1.361h-4.081v2.72h4.081v1.36h-1.361v1.36h-1.36v-1.36h-1.36v4.081h-1.36v-9.522h5.441Zm0 8.162h-1.361v-1.361h1.361v1.361Zm1.36-4.081h-1.36v-2.72h1.36v2.72Zm0 5.441h-1.36v-1.36h1.36v1.36Zm2.721-5.441h-1.36v-2.72h1.36v2.72Zm0 4.081h-1.36v-1.361h1.36v1.361Zm4.088-6.801h-4.081v-1.361h4.081v1.361Zm0 4.08h-4.081v-1.36h4.081v1.36Zm0 4.081h-4.081v-1.36h4.081v1.36Zm1.36-6.801h-1.36v-1.36h1.36v1.36Zm0 5.441h-1.36v-2.721h1.36v2.721Z"/><path fill="#272B38" d="M136.034 61.465H90.117v45.909h91.834v-45.91h-45.917Z"/><path fill="#fff" stroke="#ABB0BF" stroke-miterlimit="10" stroke-width="1.353" d="M-1.716 61.464h-45.917v45.91H44.2v-45.91H-1.715Z"/><path fill="#fff" d="M111.543 82.206v6.801h-1.36v-9.521h1.36v1.36h1.36v1.36h-1.36Zm2.72 1.36h-1.36v-1.36h1.36v1.36Zm1.361 1.36h-1.361v-1.36h1.361v1.36Zm1.36-1.36h-1.36v-1.36h1.36v1.36Zm1.36-1.36h-1.36v-1.36h1.36v-1.36h1.36v9.521h-1.36v-6.8Zm4.088 4.081v2.72h-1.361v-5.44h1.361v1.36h4.08v-1.36h1.36v5.44h-1.36v-2.72h-4.08Zm1.36-2.72h-1.36v-2.72h1.36v2.72Zm1.36-2.72h-1.36v-1.361h1.36v1.36Zm1.36 2.72h-1.36v-2.72h1.36v2.72Zm8.161-4.081v1.36h-4.08v2.72h4.08v1.36h-1.36v1.361h-1.36v-1.36h-1.36v4.08h-1.361v-9.521h5.441Zm0 8.161h-1.36v-1.36h1.36v1.36Zm1.361-4.08h-1.361v-2.72h1.361v2.72Zm0 5.44h-1.361v-1.36h1.361v1.36Zm2.721-4.08v4.08h-1.36v-9.521h1.36v4.08h1.36v1.36h-1.36Zm2.72-1.36h-1.36v-1.36h1.36v1.36Zm0 2.72h-1.36v-1.36h1.36v1.36Zm1.36-4.08h-1.36v-1.36h1.36v1.36Zm0 5.44h-1.36v-1.36h1.36v1.36Zm1.361-6.8h-1.361v-1.361h1.361v1.36Zm0 8.16h-1.361v-1.36h1.361v1.36Zm2.719-1.36h5.441v1.36h-6.801v-9.521h6.801v1.36h-5.441v2.72h4.081v1.36h-4.081v2.721Zm9.522-6.801h-2.72v-1.36h6.801v1.36h-2.721v8.161h-1.36v-8.16Z"/><path fill="#fff" stroke="#ABB0BF" stroke-miterlimit="10" stroke-width="1.353" d="M273.784 61.464h-45.917v45.91h91.834v-45.91h-45.917Z"/><path fill="#A1A5B2" d="M-.356 87.647h5.441v1.36h-6.8v-9.521h6.8v1.36h-5.44v2.72h4.08v1.36h-4.08v2.721Zm12.242-8.161v1.36h-4.08v2.72h4.08v1.36h-1.36v1.361h-1.36v-1.36h-1.36v4.08h-1.36v-9.521h5.44Zm0 8.161h-1.36v-1.36h1.36v1.36Zm1.36-4.08h-1.36v-2.72h1.36v2.72Zm0 5.448h-1.36v-1.36h1.36v1.36Zm2.721-5.448h-1.36v-2.72h1.36v2.72Zm0 4.08h-1.36v-1.36h1.36v1.36Zm4.088-6.8h-4.081v-1.361h4.08v1.36Zm0 4.08h-4.081v-1.36h4.08v1.36Zm0 4.088h-4.081v-1.36h4.08v1.36Zm1.36-6.809h-1.36v-1.36h1.36v1.36Zm0 5.441h-1.36v-2.72h1.36v2.72Z"/><path fill="#fff" d="M297.685 186.49a.58.58 0 0 0-.165.065c-.115.065-.209.202-.295.331-.087.13-.173.245-.281.31-.014 0-.029.014-.043.014-.079.014-.159.007-.353-.072-.043-.014-.079-.036-.122-.05a1.447 1.447 0 0 0-.266-.101c-.18-.036-.353.093-.432.237-.051.079-.094.159-.13.223-.122.216-.23.403-.46.411-.094.014-.216-.015-.396-.051-.108-.021-.216-.05-.31-.057a.89.89 0 0 0-.77.295c-.129.144-.18.28-.23.41-.079.202-.158.417-.49.547-.244.101-.446.043-.611 0-.087-.022-.166-.043-.231-.036h-.007c-.05 0-.115.029-.18.058 0 .431-.021 2.288-.036 3.548 0 .331-.007.647-.007.935 1.555-.676 4.995-2.641 5.822-3.202v-.008c.008-.187.008-1.137.008-2.662v-1.145h-.015Zm-15.437 7.089h9.313c0-.309 0-.648.014-1.007v-.727c.008-.814.022-1.72.029-2.678-.043.029-.086.058-.122.094a1.385 1.385 0 0 1-.317.194c-.129.058-.374.051-.604-.093a3.42 3.42 0 0 1-.267-.166c-.136-.093-.273-.187-.417-.237-.346-.123-.741 0-1.087.108-.158.064-.295.144-.425.216-.215.122-.417.244-.683.28-.346.058-.821-.144-1.281-.338a8.025 8.025 0 0 0-.569-.223c-.367-.101-.799-.043-1.209.151a2.733 2.733 0 0 0-.432.274c-.252.187-.496.359-.755.309a.228.228 0 0 1-.101-.029h-.029c-.043-.021-.072-.036-.094-.043l-.057-.036c-.065-.043-.072-.043-.151-.115-.072-.065-.137-.13-.202-.194-.108-.108-.209-.216-.331-.288a.723.723 0 0 0-.18-.094v.929c0 .345-.007.669-.014.971v.418c-.007.942-.022 1.684-.022 2.044v.273l-.007.007Z"/><path fill="#fff" stroke="#ABB0BF" stroke-miterlimit="10" stroke-width="1.353" d="M258.476 199.214h45.917v-45.916h-45.917v45.916Z"/><path fill="#A1A5B2" d="M266.774 170.247c1.058.079 2.109.115 3.167-.007.691-.08 1.375-.231 2.037-.439 2.648-.655 5.081-2.102 6.311-4.542-.978 1.526-2.36 2.742-4.347 3.577-2.065.878-4.239 1.195-6.47 1.173-.525 0-1.05-.021-1.569-.007-.518.014-1.122 0-1.482.439.432-.173.741-.281 1.202-.266.388.014.77.05 1.158.079"/><path fill="#A1A5B2" d="M276.245 165.598c-5.513 3.49-10.781 1.209-12.062 1.583.403-.036.87.093 1.533.259 3.648.849 7.628.497 10.529-1.85m-3.836 7.565c4.196-1.303 6.96-4.146 7.924-7.442-.021.036-.043.072-.057.108 0-.015.014-.036.014-.051-.216.562-1.418 2.404-1.461 2.462l-.187.266c-.231.259-.526 1.029-2.202 2.267a13.422 13.422 0 0 1-2.275 1.368c-2.382 1.317-5.865 1.497-6.916 2.187.72-.093.828-.223 2.584-.539a21.322 21.322 0 0 0 2.576-.634"/><path fill="#A1A5B2" d="M267.256 175.35c-.05-.072-.1-.144-.144-.216a2.608 2.608 0 0 1-.331-.943 1.05 1.05 0 0 0-.05.54c.021.172.086.338.165.489-.108-.043-.215-.079-.323-.122-.015-.188-.116-.252-.116-.77.447-1.454 5.017-.396 10.378-5.449 1.238-.978 2.16-2.209 2.563-3.526.158-.259.352-.612.554-.554.187.057.208.374.23.496.209-.482-.05-.791-.36-.763.317-.676.547-2.115.295-3.418.036-.022.072-.043.108-.072.238 1.058.324 1.439.36 3.325 0 .043.072-.288.072-.331.194-3.124-.259-2.584-.072-3.239a.865.865 0 0 1 .554-.324c-.014 0-.014 0 0 0-.079 1.267.036 2.685.605 3.829-.504-.374-1.058-.065-1.058.317.151-.461.899-.54 1.259.331 2.663 6.045-6.218 13.314-14.703 10.407l.014-.007Zm-2.116-3.527c-.28-.158-.453-.18-.763-.612-.338-.468-.302-.957-.266-1.518-.295.475-.324 1.151.094 1.59-.288-.187-.526-.388-.518-.54.014-.719.23-.935.266-1.043 1.051-.468 2.591 0 5.506-.389 1.137-.122 4.764-.842 8.067-4.037.9-.871.929-.957 1.137-.943.224.014.396.237.468.432.007-.303-.187-.583-.468-.655.288-.957.699-1.893.778-2.944a.938.938 0 0 0 .468.007c.086.619.028 1.353 0 1.757-.065.439-.166.87-.339 1.281-.237.583-.432 1.187-.698 1.756-.309.655-.892 1.381-1.432 1.921-.928.929-1.749 1.656-2.821 2.426-2.699 1.957-6.362 3.231-9.479 1.497v.014Zm-1.079-3.383c-.259-.532-.324-1.086-.41-1.475-.123.309-.13.749.036 1.137-.137-.122-.303-.266-.36-.403-.051-.129-.051-.576.079-.835a.914.914 0 0 1 .18-.108c1.885-.777 6.24 2.145 13.026-2.288.238-.159.425-.382.67-.526.115-.064.244-.122.381-.1.281.05.302.287.302.388 0-.021.015-.05.022-.072 0-.029.007-.057.007-.079.015-.273-.158-.374-.194-.396.338-.41.763-1.123 1.022-1.835.151-.338.244-.662.266-.713 0 .835.036 1.454-.907 3.138l-.029.051c-.791.547-3.778 4.052-8.78 4.699-1.742.223-3.886.468-5.326-.583h.015Zm15.221-8.478c.108.051.259-.014.562.223.115.188.187.396.223.612-.669.13-.691-.072-.878-.187 0-.007 0 0-.029-.065.022-.201.043-.403.13-.583h-.008Zm1.526-.669s0 .014.007.022c-.05 0-.791.683-.799.698a.741.741 0 0 0-.554-.295c.31-.295.907-.403 1.346-.418v-.007Zm.065.137c.302.496.259.388.324.64-.396-.007-.655.447-.936.698-.108-.338-.036-.518.015-.777.23-.223.539-.475.597-.561Zm1.072 5.038c-.223-.756-.504-1.526-.575-2.318-.116-1.31.237-1.965-.022-2.49-.058-.108-.238-.425-.353-.475-.151-.057-.712.05-.863.079-.511.101-.9.252-1.051.72-.245.331-.187.612-.223.986-.583 2.332-1.339 2.576-1.375 2.591-1.634 1.195-2.109 1.677-4.628 2.483-1.943.619-3.922.741-5.937.576-2.836-.238-3.188-.072-3.195-.072-.454.158-.699.395-.763.849-.015.093-.123.331.388.705a.35.35 0 0 0 .058.043c.331.339.856.979 1.569 1.159-.418.115-1.008.187-1.224.338-.014.058-.158.137-.172.202-.367.669-.173.856.043 1.195.36.395 2.216 2.065 4.584 2.115-.36.13-1.979.425-2.08 1.102-.036.259-.129.244.029.662.015.028.022.057.036.086.115.288.619.497 1.123.705.777.324 1.705.583 2.332.626 10.298.735 15.092-7.578 12.299-11.875m10.637 16.568c.015.302.029.612.022.921 0 .338 0 .914.518 1.015.108.021.216.029.324.029.13 0 .259-.015.374-.029a4.503 4.503 0 0 0 1.015-.202c.072-.021.202-.057.353-.093.734-.187 1.41-.382 1.655-.698.288-.367.281-.713.281-1.015v-.252c0-.619 0-1.152-.015-1.641v-.245c0-.18 0-.374-.029-.561a.476.476 0 0 0-.23-.338c-.374-.223-1.079.007-1.54.165-.065.022-.122.043-.173.058l-.064.014c-.497.108-1.008.216-1.505.389-.028.007-.057.021-.086.029-.245.086-.518.187-.669.446-.281.424-.267.95-.259 1.374 0 .209.014.425.021.634h.007Zm.475-1.85v-.007c.101-.173.303-.245.519-.324.028-.014.057-.021.086-.036.475-.165.979-.273 1.468-.381l.072-.015h.014c.051-.014.116-.036.188-.057.273-.094.734-.245 1.05-.245.101 0 .187.014.252.05.051.029.079.072.094.144.029.159.029.331.029.504v.252c.007.482.014 1.015.014 1.627v.266c0 .295 0 .554-.216.835-.201.259-1.051.475-1.504.59-.158.043-.288.072-.367.101a4.444 4.444 0 0 1-.957.194c-.187.022-.403.043-.605 0-.273-.058-.295-.353-.295-.734 0-.317-.007-.626-.029-.936-.007-.201-.021-.417-.021-.626-.007-.403-.022-.864.208-1.209v.007Z"/><path fill="#A1A5B2" d="M298.037 175.026a.285.285 0 0 0-.036-.072c-.648-.907-1.31-1.555-1.893-2.123h-.007c-.086-.094-.165-.173-.244-.252l-.116-.115-.028-.029-.094-.094-.036-.036c-.029-.029-.058-.057-.079-.086-.015-.015-.022-.029-.036-.036-.022-.029-.051-.05-.072-.079a.19.19 0 0 1-.036-.043.742.742 0 0 0-.072-.08c-.014-.014-.029-.028-.036-.043-.014-.021-.036-.043-.05-.057l.122-1.886a.282.282 0 0 0-.259-.302 24.194 24.194 0 0 0-.705-.058c-2.994-.237-5.909-.201-8.673.108-.014 0-.036 0-.05.007a.293.293 0 0 0-.195.195c0 .014 0 .028-.007.05a24.581 24.581 0 0 0-.122 1.72v.353l-.022.029c-.403.525-.813 1.057-1.216 1.59-.676.892-1.346 1.792-1.986 2.677-.015.015-.022.036-.029.051v.187c0 .352.014.72.014 1.115.058 4.247-.007 9.896-.043 13.048v.36a88.414 88.414 0 0 0-.021 2.397v.05c0 .159.129.288.287.288h9.551c.021-.007.05-.021.072-.029.057-.021.115-.05.172-.079.044-.021.094-.043.137-.065.058-.028.115-.05.173-.079.036-.021.079-.036.122-.057a5.51 5.51 0 0 0 .209-.101c.065-.029.13-.065.194-.101.115-.057.238-.122.36-.18h.015c.136-.072.273-.144.417-.216a1.13 1.13 0 0 0 .13-.072c.28-.151.575-.309.863-.467.022-.008.036-.022.058-.029 1.216-.67 2.411-1.368 2.965-1.728 0 0 .007.001.014-.007a.888.888 0 0 0 .13-.086c.007 0 .014-.014.021-.014l.015-.015.014-.014v-.007l.007-.008s.008-.014.008-.021l.007-.015v-.007s0-.007.007-.014c0 0 0-.015.007-.022 0-.007 0-.014.007-.029v-4.051c0-2.26 0-5.305.036-8.205l.022-1.375c.007-.554.014-1.094.029-1.619 0-.029 0-.065-.015-.101l-.007-.021Zm-2.987-2.879c.058.065.123.129.18.194l.029.029c.058.065.122.122.18.187l.036.036.187.187a.162.162 0 0 0 .036.029l.194.194.015.015s.072.072.108.1a2.942 2.942 0 0 0 .108.108c.014.015.029.022.036.036a1.992 1.992 0 0 0 .108.108l.064.065.044.043.064.065c.015.015.029.036.051.05l.065.065.05.051.065.064s.036.036.05.058l.065.065c.014.021.036.036.05.057a.78.78 0 0 1 .065.072c.014.022.036.036.05.058.022.021.044.05.065.072a.418.418 0 0 0 .051.057c.021.022.043.051.064.072a.43.43 0 0 0 .058.065c.022.022.043.051.065.072.014.022.036.043.057.065.022.029.043.05.065.079.014.014.029.036.043.05-.511-.273-1.123-.604-1.72-.935-.46-.252-.899-.49-1.288-.698.223-.303.439-.59.64-.857v.022Zm2.455 2.871c-1.461.382-3.966.986-5.312 1.21-.043 0-.086.014-.122.021.007-.014.021-.029.029-.043l.086-.13c.072-.1.144-.194.216-.295.057-.079.108-.158.165-.23.029-.043.065-.086.094-.137.022-.028.043-.064.065-.093.029-.036.05-.072.079-.108.036-.043.065-.094.101-.137.021-.029.043-.065.065-.093.035-.051.064-.094.1-.144a.994.994 0 0 0 .079-.116c.029-.043.065-.086.094-.129a.985.985 0 0 0 .079-.115c.029-.043.058-.087.094-.13.029-.036.057-.079.086-.115.029-.043.065-.086.094-.13.028-.036.057-.079.079-.115.029-.043.065-.086.093-.129.029-.036.058-.079.087-.115.029-.044.057-.08.086-.123.029-.043.058-.079.086-.115.029-.043.058-.079.087-.122.029-.036.057-.072.086-.115.015-.015.022-.036.036-.051.389.209.842.461 1.317.72.691.374 1.404.763 1.951 1.058v.021Zm-11.926-3.065c0-.087 0-.166.007-.238.029-.648.044-.914.123-1.698 2.958-.331 6.088-.353 9.32-.051l-.123 1.814h-.885c-.122 0-.237 0-.36.007h-.108c-.158 0-.309.007-.467.014h-.094a169.11 169.11 0 0 1-4.8.087c-.295 0-.706.007-1.137.021h-.591c-.187 0-.374.008-.554.008h-.338l.007.036Zm5.995 19.892v.727c0 .36-.007.698-.014 1.007h-9.313s0-.014.007-.028v-.245c0-.36.007-1.101.022-2.044v-.41c0-.302.007-.626.014-.972v-.928c.058.021.123.05.18.093.122.08.223.18.331.288.065.065.13.13.202.195.079.064.086.072.151.115l.057.036s.051.029.094.043h.029c.029.007.065.021.101.029.259.05.503-.13.755-.31.137-.101.281-.201.432-.273.417-.202.842-.252 1.209-.151.173.057.367.136.569.223.46.194.935.388 1.281.338.266-.036.468-.151.683-.281.13-.079.267-.158.425-.216.346-.115.741-.23 1.087-.108.144.051.28.144.417.238.087.057.173.122.266.165.231.144.476.152.605.094.122-.05.223-.122.317-.194.043-.029.086-.065.122-.094-.007.965-.022 1.871-.029 2.677v-.014Zm.036-3.016s-.021.008-.029.015a1.28 1.28 0 0 0-.273.18c-.086.065-.158.122-.252.158-.043.022-.187.029-.353-.072-.086-.043-.165-.101-.251-.158-.152-.101-.303-.202-.483-.274-.431-.151-.885-.021-1.281.108-.18.072-.324.159-.468.238-.201.115-.374.216-.582.244-.267.044-.727-.151-1.123-.316a5.956 5.956 0 0 0-.598-.23c-.431-.123-.935-.058-1.417.172-.173.087-.331.202-.475.303-.202.143-.396.287-.54.259a.137.137 0 0 1-.05-.015h-.008a.14.14 0 0 1-.05-.029l-.058-.036a.74.74 0 0 1-.115-.086c-.065-.057-.122-.115-.187-.18-.115-.115-.23-.23-.374-.324a.95.95 0 0 0-.338-.151c.021-2.217.05-5.462.043-8.492 0-.957-.015-1.843-.022-2.642v-.316c0-.187 0-.367-.007-.547 1.188.072 2.742.093 3.858.093 2 0 4.296-.057 5.455-.136v.086c.05 2.915.05 6.887 0 12.148h-.022Zm.159-12.659s-.022.029-.029.043c-.022.029-.043.065-.065.094-.972.072-3.195.136-5.52.136-1.08 0-2.569-.014-3.742-.086.05-.065.1-.137.151-.201l.172-.238c.072-.101.144-.194.216-.295.058-.079.115-.151.173-.23.072-.101.151-.202.223-.303.058-.072.115-.151.166-.223.079-.1.158-.208.23-.309.058-.072.108-.144.158-.216.079-.108.159-.216.245-.324.05-.065.101-.137.158-.201l.259-.346.137-.18.302-.388c.036-.044.065-.087.101-.13.13-.173.267-.345.396-.518 0 0 .022-.007.029-.007h.288c.216 0 .446 0 .691-.008h.554c.165 0 .324-.007.468-.014.251 0 .475-.007.662-.007 1.641 0 3.246-.043 4.807-.086h.094c.144 0 .281-.008.424-.015h.173c.101 0 .195 0 .295-.007h.763c-.029.043-.065.086-.093.129-.015.022-.036.044-.051.065-.05.072-.108.144-.158.216 0 .007-.015.015-.015.022-.05.065-.1.129-.143.194-.022.022-.036.05-.058.072-.036.05-.072.101-.115.151l-.065.087c-.036.05-.072.093-.108.143-.022.029-.05.065-.072.101-.036.043-.065.094-.101.137-.021.036-.05.065-.072.101-.036.043-.064.093-.1.136-.022.036-.051.072-.072.101-.029.043-.065.087-.094.137-.029.036-.05.072-.079.108-.029.043-.065.086-.094.129-.028.036-.05.072-.079.108a1.551 1.551 0 0 1-.101.137c-.021.036-.05.065-.072.101-.035.043-.064.093-.1.137-.022.036-.051.072-.072.1a1.551 1.551 0 0 1-.101.137.9.9 0 0 1-.072.101c-.036.05-.072.101-.108.144a1.07 1.07 0 0 0-.065.093l-.115.159c-.014.021-.036.05-.05.072l-.166.23c-.065.094-.137.187-.201.281-.022.028-.036.05-.058.079a.454.454 0 0 1-.05.065c-.029.043-.058.079-.087.122l.008-.036Zm5.908 14.128v.007c-.827.554-4.267 2.526-5.822 3.203 0-.288 0-.598.007-.936.015-1.26.029-3.116.036-3.548a.646.646 0 0 1 .18-.058h.007c.065 0 .144.015.231.036.165.043.374.101.611 0 .331-.137.411-.345.49-.547.05-.129.1-.266.23-.41a.917.917 0 0 1 .77-.295c.094.007.202.036.31.058.179.043.302.064.395.05.231 0 .339-.194.461-.41.036-.065.079-.144.13-.223.079-.137.251-.274.431-.238.087.022.18.058.267.101.043.021.086.036.122.05.187.079.273.087.353.072.014 0 .028-.007.043-.014.115-.058.194-.18.281-.31.086-.129.179-.266.295-.331a.675.675 0 0 1 .165-.065v1.145c0 1.526 0 2.476-.007 2.663h.014Zm.079-14.855-.021 1.195v.115l-.022 1.367v.101a826.56 826.56 0 0 0-.036 7.982 1.01 1.01 0 0 0-.309.108c-.18.1-.295.266-.396.417-.058.079-.115.165-.165.201a.443.443 0 0 1-.166-.057c-.036-.014-.079-.036-.115-.05-.101-.044-.209-.094-.331-.116-.274-.057-.576.094-.742.375-.057.086-.1.165-.136.23-.115.194-.159.266-.223.266h-.029c-.043.007-.194-.029-.295-.05a2.962 2.962 0 0 0-.339-.065 1.218 1.218 0 0 0-1.021.389c-.159.187-.231.36-.281.496-.072.187-.115.295-.324.382-.151.064-.288.029-.432-.007-.108-.029-.209-.058-.324-.044-.057 0-.108.015-.158.029.029-3.354.036-6.103.029-8.413 0-1.396-.015-2.649-.036-3.728 1.338-.18 4.426-.943 5.865-1.317v.194h.007Z"/><path fill="#A1A5B2" d="M289.832 182.597a1.274 1.274 0 0 1-.251-.05c-.065-.022-.108-.044-.13-.072a.659.659 0 0 1-.043-.202 4.39 4.39 0 0 1-.029-.367 12.806 12.806 0 0 0-.022-.353v-.511c0-.1-.05-.187-.144-.273-.136-.216-.316-.302-.532-.238-.216.058-.475.202-.77.432-.051.043-.13.115-.238.202-.108.086-.244.209-.417.36.065-.209.122-.375.158-.497.036-.115.058-.194.065-.223a.848.848 0 0 0 .014-.238.281.281 0 0 0-.093-.201c-.122-.122-.209-.202-.252-.252-.05-.043-.137-.065-.266-.065a2.172 2.172 0 0 0-.418.195c-.18.1-.374.215-.576.359a4.242 4.242 0 0 0-.539.439c-.079.058-.151.123-.223.188a8.53 8.53 0 0 1-.173.151c-.043.036-.072.036-.079.014a1.3 1.3 0 0 1 .064-.23c.044-.13.101-.281.159-.439.057-.159.108-.281.144-.36l.122-.31c.022-.057.043-.129.065-.201.021-.072.029-.151.021-.245a.404.404 0 0 0-.331-.403.245.245 0 0 0-.172.015.289.289 0 0 0-.151.115.283.283 0 0 0-.065.194c0 .029 0 .079-.015.151-.014.072-.043.18-.093.324-.108.245-.18.425-.23.547a2.256 2.256 0 0 0-.101.266c-.022.058-.029.108-.043.166a3.64 3.64 0 0 1-.058.252c-.079.374-.144.669-.202.899-.057.231-.057.411 0 .54a.438.438 0 0 0 .173.259.478.478 0 0 0 .266.079c.022 0 .065-.043.13-.136.065-.094.144-.195.238-.317a2.42 2.42 0 0 1 .287-.309c.152-.152.303-.303.461-.439.158-.144.259-.26.309-.353.094-.058.166-.122.231-.194.057-.065.108-.101.137-.101a.616.616 0 0 1 .237-.187.85.85 0 0 1 .274-.108c.021-.007.036 0 .036.036a.823.823 0 0 1-.072.237c-.044.123-.13.324-.252.598l-.259.748a.333.333 0 0 0-.015.144.252.252 0 0 0 .065.122l.122.101c.094.065.173.094.238.072a.494.494 0 0 0 .208-.137c.072-.072.144-.151.224-.23.223-.245.453-.461.669-.655.216-.194.417-.353.583-.468.173-.115.288-.172.345-.172.058 0 .087.064.087.194 0 .129-.008.309-.015.532 0 .267.029.468.079.619.051.144.116.252.195.31a.692.692 0 0 0 .173.115c.107.036.223.058.359.065a.625.625 0 0 0 .375-.094c.122-.072.172-.151.144-.237-.022-.087-.094-.13-.202-.144l.014-.029Z"/><path fill="#ABB0BF" d="M-140.143 30.172V60.78h1.361v-1.368h-.008V31.525h274.147v29.932h1.353V30.172h-276.853ZM69.764 81.53h-5.44v-1.36h6.8v4.08h-1.36v-2.72Zm-4.087 8.161h-1.36v-1.36h1.36v1.36Zm1.367-1.36h-1.36v-1.36h1.36v1.36Zm1.36-1.36h-1.36v-1.36h1.36v1.36Zm1.36-1.36h-1.36v-1.36h1.36v1.36Zm20.354-8.169v-1.353H44.87v1.36h1.36v-.007h43.888ZM47.59 74.728h-1.36v1.36h1.36v-1.36Zm1.36-1.359h-1.36v1.36h1.36v-1.36Zm1.36-1.361h-1.36v1.36h1.36v-1.36Zm-2.72 5.441h-1.36v1.36h1.36v-1.36Zm1.36 1.361h-1.36v1.36h1.36v-1.36Zm1.36 1.36h-1.36v1.36h1.36v-1.36Z"/><path fill="#272B38" d="M146.319 133.78h-4.081v1.36h4.081v-1.36Zm1.36-2.721h-1.361v2.721h1.361v-2.721Zm-5.442 1.36h-1.36v1.361h1.36v-1.361Zm0-5.447h-1.36v1.36h1.36v-1.36Zm4.081 2.72h-2.72v1.36h2.72v-1.36Zm1.361-2.72h-1.361v2.72h1.361v-2.72Zm-1.36-1.361h-4.081v1.361h4.081v-1.361Zm-8.241-16.208h-1.36v1.361h1.36v-1.361Z"/><path fill="#272B38" d="M139.438 110.764h-1.36v1.36h1.36v-1.36Zm1.36 1.367h-1.36v1.361h1.36v-1.361Zm-5.441-4.088v45.247h1.353v-43.887h.008v-1.36h-1.361Zm-.007 1.36h-1.36v1.361h1.36v-1.361Z"/><path fill="#272B38" d="M133.99 110.764h-1.36v1.36h1.36v-1.36Zm-1.36 1.367h-1.36v1.361h1.36v-1.361Z"/><path fill="#ABB0BF" d="M279.85 129.692h4.081v1.36h-5.441v-5.441h6.801v1.361h-5.441v2.72Zm0 4.088h-1.36v-1.36h1.36v1.36Zm4.081 1.353h-4.081v-1.36h4.081v1.36Zm1.36-1.353h-1.36v-2.721h1.36v2.721Zm-10.817-26.406h-1.353v43.894h-.007v1.361h.007v.662h1.353v-45.917Z"/><path fill="#ABB0BF" d="M273.115 149.908h-1.36v1.36h1.36v-1.36Zm-1.361-1.36h-1.36v1.36h1.36v-1.36Zm-1.36-1.36h-1.36v1.36h1.36v-1.36Zm5.441 2.72h-1.36v1.36h1.36v-1.36Zm1.36-1.36h-1.36v1.36h1.36v-1.36Zm1.361-1.36h-1.361v1.36h1.361v-1.36Zm-71.775-76.569v2.72h-1.36v-2.72h-4.081v-2.72h1.36v1.36h2.721v-2.72h-1.361v-1.36h1.361v-1.361h1.36v5.44h1.36v1.361h-1.36Zm-2.721-2.72h-1.36v-1.36h1.36v1.36Zm-.829 33.358v2.72h-1.36v-6.8h1.36v2.72h4.081v1.36h-4.081Zm4.081-4.08h-4.081v-1.361h4.081v1.36Zm0 8.161h-4.081v-1.361h4.081v1.361Zm1.36-6.802h-1.36v-1.36h1.36v1.36Zm0 5.441h-1.36v-2.72h1.36v2.72Zm19.195-11.227v-1.353h-43.858v-.007h-1.367v1.36h45.225Zm-2.022-15.3h-1.361v1.36h1.361v-1.36Zm-1.361 1.36h-1.36v1.36h1.36v-1.36Zm-1.359 1.36h-1.36v1.36h1.36v-1.36Zm2.72-2.72h1.36v-1.361H181.95v1.353h43.895v.007Zm0-2.722h-1.361v1.36h1.361v-1.36Zm-1.361-1.36h-1.36v1.36h1.36v-1.36Zm-1.359-1.36h-1.36v1.36h1.36v-1.36ZM185.369 90.03h-1.36v1.36h1.36v-1.36Zm1.36-1.361h-1.36v1.36h1.36v-1.36Zm1.36-1.36h-1.36v1.36h1.36v-1.36Zm-2.72 5.441h-1.36v1.36h1.36v-1.36Zm1.36 1.36h-1.36v1.36h1.36v-1.36Zm1.36 1.36h-1.36v1.36h1.36v-1.36ZM68.432 195.81h2.72v1.361h-6.8v-1.361h2.72v-6.801h-2.72v-1.36h4.08v8.161Zm-3.18-37.561h-1.36v-1.36h1.36v1.36Zm1.367 5.441H70.7v1.36h-6.801v-1.36h1.36v-1.36h1.36v1.36Zm2.72-6.801h-4.08v-1.36h4.08v1.36Zm-1.36 5.441h-1.36v-1.36h1.36v1.36Zm1.36-1.36h-1.36v-1.361h1.36v1.361Zm1.361-1.361h-1.36v-2.72h1.36v2.72Zm-24.391 8.313h-1.36v1.353h45.167v-1.353H46.31Zm1.361-1.367h-1.36v1.36h1.36v-1.36Zm1.36-1.361h-1.36v1.361h1.36v-1.361Zm1.36-1.36h-1.36v1.36h1.36v-1.36Zm-2.72 5.441h-1.36v1.36h1.36v-1.36Zm1.36 1.368h-1.36v1.36h1.36v-1.36Zm1.36 1.36h-1.36v1.36h1.36v-1.36Zm37.619 12.58h-1.36v1.36h1.36v-1.36Zm-1.361 1.36h-1.36v1.361h1.36v-1.361Zm-1.36 1.361h-1.36v1.36h1.36v-1.36Zm2.72-4.081H44.2v1.36h45.168v-1.36h-1.36Zm.001-1.36h-1.36v1.36h1.36v-1.36Zm-1.361-1.361h-1.36v1.361h1.36v-1.361Zm-1.36-1.36h-1.36v1.36h1.36v-1.36Zm-64.427-49.45h-1.36v-2.72h1.36v2.72Zm0 4.088h-1.36v-2.721h1.36v2.721Zm4.08-6.808h-4.08v-1.361h4.08v1.361Zm0 4.087h-4.08v-1.36h4.08v1.36Zm0 4.081h-4.08v-1.36h4.08v1.36Zm1.361-5.448h-1.36v-2.72h1.36v2.72Zm0 4.088h-1.36v-2.721h1.36v2.721Zm-12.027-25.737h-1.367v42.297h-1.36v1.36h1.36v1.36h1.36v-1.36h1.361v-1.36h-1.354v-42.297Zm-2.727 40.936h-1.36v1.361h1.36v-1.361Zm-1.361-1.359h-1.36v1.36h1.36v-1.36Zm6.803 1.36h-1.361v1.36h1.36v-1.36Z"/><path fill="#ABB0BF" d="M18.349 147.62h-1.36v1.36h1.36v-1.36Zm237.069-59.973h-1.36v-8.161h1.36v8.161Zm4.081 1.36h-4.081v-1.36h4.081v1.36Zm1.36-1.36h-1.36v-8.161h1.36v8.161Zm2.72-4.08h-1.36v-2.72h1.36v2.72Zm0 4.08h-1.36v-1.36h1.36v1.36Zm4.081-6.8h-4.081v-1.361h4.081v1.36Zm0 4.08h-4.081v-1.36h4.081v1.36Zm0 4.08h-4.081v-1.36h4.081v1.36Zm1.36-6.8h-1.36v-1.36h1.36v1.36Zm0 5.44h-1.36v-2.72h1.36v2.72Zm2.72 0h5.441v1.36h-6.801v-9.521h6.801v1.36h-5.441v2.72h4.081v1.36h-4.081v2.721Zm12.242-8.161v1.36h-4.081v2.72h4.081v1.36h-1.36v1.361h-1.361v-1.36h-1.36v4.08h-1.36v-9.521h5.441Zm0 8.161h-1.36v-1.36h1.36v1.36Zm1.36-4.08h-1.36v-2.72h1.36v2.72Zm0 5.44h-1.36v-1.36h1.36v1.36Zm2.727-5.44h-1.36v-2.72h1.36v2.72Zm0 4.08h-1.36v-1.36h1.36v1.36Zm4.081-6.8h-4.081v-1.361h4.081v1.36Zm0 4.08h-4.081v-1.36h4.081v1.36Zm0 4.08h-4.081v-1.36h4.081v1.36Zm1.36-6.8h-1.36v-1.36h1.36v1.36Zm0 5.44h-1.36v-2.72h1.36v2.72Z"/></g><defs><clipPath id="a"><path fill="#fff" d="M0 12C0 5.373 5.373 0 12 0h326c6.627 0 12 5.373 12 12v206c0 6.627-5.373 12-12 12H12c-6.627 0-12-5.373-12-12V12Z"/></clipPath></defs></svg>