<svg xmlns="http://www.w3.org/2000/svg" width="786" height="318" fill="none"><path fill="#F9F9FB" d="M0 12C0 5.373 5.373 0 12 0h762c6.627 0 12 5.373 12 12v294c0 6.627-5.373 12-12 12H12c-6.627 0-12-5.373-12-12V12Z"/><path stroke="#ABB0BF" stroke-miterlimit="10" stroke-width=".35" d="M464.6 20.84h5.67m-2.84 2.83V18m-2.83 24.1h5.67m-2.84 2.84v-5.67m-2.83 24.1h5.67m-2.84 2.83v-5.67m-2.83 24.11h5.67m-2.84 2.83V81.8m-2.83 24.1h5.67m-2.84 2.84v-5.67m-2.83 24.1h5.67m-2.84 2.83v-5.67m-2.83 24.1h5.67m-2.84 2.84v-5.67m-2.83 24.1h5.67m-2.84 2.84v-5.67m-2.83 24.1h5.67m-2.84 2.83v-5.67m-2.83 24.1h5.67m-2.84 2.84v-5.67m-2.83 24.1h5.67m-2.84 2.84v-5.67m-2.83 24.1h5.67m-2.84 2.83v-5.67m-2.83 24.1h5.67m-2.84 2.84v-5.67m-2.83 24.1h5.67m-2.84 2.84v-5.67M422.06 20.84h5.68m-2.84 2.83V18m-2.84 24.1h5.68m-2.84 2.84v-5.67m18.43-18.43H449m-2.83 2.83V18m-2.84 24.1H449m-2.83 2.84v-5.67m-24.11 24.1h5.68m-2.84 2.83v-5.67m-2.84 24.11h5.68m-2.84 2.83V81.8m18.43-18.43H449m-2.83 2.83v-5.67m-2.84 24.11H449m-2.83 2.83V81.8m-24.11 24.1h5.68m-2.84 2.84v-5.67m-2.84 24.1h5.68M424.9 130v-5.67m18.43-18.43H449m-2.83 2.84v-5.67m-2.84 24.1H449m-2.83 2.83v-5.67m-24.11 24.1h5.68m-2.84 2.84v-5.67m-2.84 24.1h5.68m-2.84 2.84v-5.67m18.43-18.44H449m-2.83 2.84v-5.67m-2.84 24.1H449m-2.83 2.84v-5.67m-24.11 24.1h5.68m-2.84 2.83v-5.67m-2.84 24.1h5.68m-2.84 2.84v-5.67m18.43-18.43H449m-2.83 2.83v-5.67m-2.84 24.1H449m-2.83 2.84v-5.67m-24.11 24.1h5.68m-2.84 2.84v-5.67m-2.84 24.1h5.68m-2.84 2.83v-5.67m18.43-18.43H449m-2.83 2.84v-5.67m-2.84 24.1H449m-2.83 2.83v-5.67m-24.11 24.1h5.68m-2.84 2.84v-5.67m-2.84 24.1h5.68m-2.84 2.84v-5.67m18.43-18.44H449m-2.83 2.84v-5.67m-2.84 24.1H449m-2.83 2.84v-5.67M379.53 20.84h5.67m-2.83 2.83V18m-2.84 24.1h5.67m-2.83 2.84v-5.67m18.43-18.43h5.67m-2.84 2.83V18m-2.83 24.1h5.67m-2.84 2.84v-5.67m-24.1 24.1h5.67m-2.83 2.83v-5.67m-2.84 24.11h5.67m-2.83 2.83V81.8m18.43-18.43h5.67m-2.84 2.83v-5.67m-2.83 24.11h5.67m-2.84 2.83V81.8m-24.1 24.1h5.67m-2.83 2.84v-5.67m-2.84 24.1h5.67m-2.83 2.83v-5.67m18.43-18.43h5.67m-2.84 2.84v-5.67m-2.83 24.1h5.67m-2.84 2.83v-5.67m-24.1 24.1h5.67m-2.83 2.84v-5.67m-2.84 24.1h5.67m-2.83 2.84v-5.67m18.43-18.44h5.67m-2.84 2.84v-5.67m-2.83 24.1h5.67m-2.84 2.84v-5.67m-24.1 24.1h5.67m-2.83 2.83v-5.67m-2.84 24.1h5.67m-2.83 2.84v-5.67m18.43-18.43h5.67m-2.84 2.83v-5.67m-2.83 24.1h5.67m-2.84 2.84v-5.67m-24.1 24.1h5.67m-2.83 2.84v-5.67m-2.84 24.1h5.67m-2.83 2.83v-5.67m18.43-18.43h5.67m-2.84 2.84v-5.67m-2.83 24.1h5.67m-2.84 2.83v-5.67m-24.1 24.1h5.67m-2.83 2.84v-5.67m-2.84 24.1h5.67m-2.83 2.84v-5.67m18.43-18.44h5.67m-2.84 2.84v-5.67m-2.83 24.1h5.67m-2.84 2.84v-5.67M337 20.84h5.67m-2.84 2.83V18M337 42.1h5.67m-2.84 2.84v-5.67m18.43-18.43h5.68m-2.84 2.83V18m-2.84 24.1h5.68m-2.84 2.84v-5.67M337 63.37h5.67m-2.84 2.83v-5.67M337 84.64h5.67m-2.84 2.83V81.8m18.43-18.43h5.68m-2.84 2.83v-5.67m-2.84 24.11h5.68m-2.84 2.83V81.8M337 105.9h5.67m-2.84 2.84v-5.67m-2.83 24.1h5.67m-2.84 2.83v-5.67m18.43-18.43h5.68m-2.84 2.84v-5.67m-2.84 24.1h5.68M361.1 130v-5.67m-24.1 24.1h5.67m-2.84 2.84v-5.67M337 169.7h5.67m-2.84 2.84v-5.67m18.43-18.44h5.68m-2.84 2.84v-5.67m-2.84 24.1h5.68m-2.84 2.84v-5.67m-24.1 24.1h5.67m-2.84 2.83v-5.67m-2.83 24.1h5.67m-2.84 2.84v-5.67m18.43-18.43h5.68m-2.84 2.83v-5.67m-2.84 24.1h5.68m-2.84 2.84v-5.67M337 233.5h5.67m-2.84 2.84v-5.67m-2.83 24.1h5.67m-2.84 2.83v-5.67m18.43-18.43h5.68m-2.84 2.84v-5.67m-2.84 24.1h5.68m-2.84 2.83v-5.67m-24.1 24.1h5.67m-2.84 2.84v-5.67M337 297.3h5.67m-2.84 2.84v-5.67m18.43-18.44h5.68m-2.84 2.84v-5.67m-2.84 24.1h5.68m-2.84 2.84v-5.67M294.47 20.84h5.67m-2.84 2.83V18m-2.83 24.1h5.67m-2.84 2.84v-5.67m18.43-18.43h5.67m-2.83 2.83V18m-2.84 24.1h5.67m-2.83 2.84v-5.67m-24.1 24.1h5.67m-2.84 2.83v-5.67m-2.83 24.11h5.67m-2.84 2.83V81.8m18.43-18.43h5.67m-2.83 2.83v-5.67m-2.84 24.11h5.67m-2.83 2.83V81.8m-24.1 24.1h5.67m-2.84 2.84v-5.67m-2.83 24.1h5.67M297.3 130v-5.67m18.43-18.43h5.67m-2.83 2.84v-5.67m-2.84 24.1h5.67m-2.83 2.83v-5.67m-24.1 24.1h5.67m-2.84 2.84v-5.67m-2.83 24.1h5.67m-2.84 2.84v-5.67m18.43-18.44h5.67m-2.83 2.84v-5.67m-2.84 24.1h5.67m-2.83 2.84v-5.67m-24.1 24.1h5.67m-2.84 2.83v-5.67m-2.83 24.1h5.67m-2.84 2.84v-5.67m18.43-18.43h5.67m-2.83 2.83v-5.67m-2.84 24.1h5.67m-2.83 2.84v-5.67m-24.1 24.1h5.67m-2.84 2.84v-5.67m-2.83 24.1h5.67m-2.84 2.83v-5.67m18.43-18.43h5.67m-2.83 2.84v-5.67m-2.84 24.1h5.67m-2.83 2.83v-5.67m-24.1 24.1h5.67m-2.84 2.84v-5.67m-2.83 24.1h5.67m-2.84 2.84v-5.67m18.43-18.44h5.67m-2.83 2.84v-5.67m-2.84 24.1h5.67m-2.83 2.84v-5.67M251.93 20.84h5.67m-2.83 2.83V18m-2.84 24.1h5.67m-2.83 2.84v-5.67m18.43-18.43h5.67m-2.84 2.83V18m-2.83 24.1h5.67m-2.84 2.84v-5.67m-24.1 24.1h5.67m-2.83 2.83v-5.67m-2.84 24.11h5.67m-2.83 2.83V81.8m18.43-18.43h5.67m-2.84 2.83v-5.67m-2.83 24.11h5.67m-2.84 2.83V81.8m-24.1 24.1h5.67m-2.83 2.84v-5.67m-2.84 24.1h5.67m-2.83 2.83v-5.67m18.43-18.43h5.67m-2.84 2.84v-5.67m-2.83 24.1h5.67m-2.84 2.83v-5.67m-24.1 24.1h5.67m-2.83 2.84v-5.67m-2.84 24.1h5.67m-2.83 2.84v-5.67m18.43-18.44h5.67m-2.84 2.84v-5.67m-2.83 24.1h5.67m-2.84 2.84v-5.67m-24.1 24.1h5.67m-2.83 2.83v-5.67m-2.84 24.1h5.67m-2.83 2.84v-5.67m18.43-18.43h5.67m-2.84 2.83v-5.67m-2.83 24.1h5.67m-2.84 2.84v-5.67m-24.1 24.1h5.67m-2.83 2.84v-5.67m-2.84 24.1h5.67m-2.83 2.83v-5.67m18.43-18.43h5.67m-2.84 2.84v-5.67m-2.83 24.1h5.67m-2.84 2.83v-5.67m-24.1 24.1h5.67m-2.83 2.84v-5.67m-2.84 24.1h5.67m-2.83 2.84v-5.67m18.43-18.44h5.67m-2.84 2.84v-5.67m-2.83 24.1h5.67m-2.84 2.84v-5.67M209.4 20.84h5.67m-2.84 2.83V18m-2.83 24.1h5.67m-2.84 2.84v-5.67m18.44-18.43h5.67m-2.84 2.83V18m-2.83 24.1h5.67m-2.84 2.84v-5.67m-24.1 24.1h5.67m-2.84 2.83v-5.67m-2.83 24.11h5.67m-2.84 2.83V81.8m18.44-18.43h5.67m-2.84 2.83v-5.67m-2.83 24.11h5.67m-2.84 2.83V81.8m-24.1 24.1h5.67m-2.84 2.84v-5.67m-2.83 24.1h5.67m-2.84 2.83v-5.67m18.44-18.43h5.67m-2.84 2.84v-5.67m-2.83 24.1h5.67M233.5 130v-5.67m-24.1 24.1h5.67m-2.84 2.84v-5.67m-2.83 24.1h5.67m-2.84 2.84v-5.67m18.44-18.44h5.67m-2.84 2.84v-5.67m-2.83 24.1h5.67m-2.84 2.84v-5.67m-24.1 24.1h5.67m-2.84 2.83v-5.67m-2.83 24.1h5.67m-2.84 2.84v-5.67m18.44-18.43h5.67m-2.84 2.83v-5.67m-2.83 24.1h5.67m-2.84 2.84v-5.67m-24.1 24.1h5.67m-2.84 2.84v-5.67m-2.83 24.1h5.67m-2.84 2.83v-5.67m18.44-18.43h5.67m-2.84 2.84v-5.67m-2.83 24.1h5.67m-2.84 2.83v-5.67m-24.1 24.1h5.67m-2.84 2.84v-5.67m-2.83 24.1h5.67m-2.84 2.84v-5.67m18.44-18.44h5.67m-2.84 2.84v-5.67m-2.83 24.1h5.67m-2.84 2.84v-5.67M166.87 20.84h5.67m-2.84 2.83V18m-2.83 24.1h5.67m-2.84 2.84v-5.67m18.43-18.43h5.67m-2.83 2.83V18m-2.84 24.1h5.67m-2.83 2.84v-5.67m-24.1 24.1h5.67m-2.84 2.83v-5.67m-2.83 24.11h5.67m-2.84 2.83V81.8m18.43-18.43h5.67m-2.83 2.83v-5.67m-2.84 24.11h5.67m-2.83 2.83V81.8m-24.1 24.1h5.67m-2.84 2.84v-5.67m-2.83 24.1h5.67M169.7 130v-5.67m18.43-18.43h5.67m-2.83 2.84v-5.67m-2.84 24.1h5.67m-2.83 2.83v-5.67m-24.1 24.1h5.67m-2.84 2.84v-5.67m-2.83 24.1h5.67m-2.84 2.84v-5.67m18.43-18.44h5.67m-2.83 2.84v-5.67m-2.84 24.1h5.67m-2.83 2.84v-5.67m-24.1 24.1h5.67m-2.84 2.83v-5.67m-2.83 24.1h5.67m-2.84 2.84v-5.67m18.43-18.43h5.67m-2.83 2.83v-5.67m-2.84 24.1h5.67m-2.83 2.84v-5.67m-24.1 24.1h5.67m-2.84 2.84v-5.67m-2.83 24.1h5.67m-2.84 2.83v-5.67m18.43-18.43h5.67m-2.83 2.84v-5.67m-2.84 24.1h5.67m-2.83 2.83v-5.67m-24.1 24.1h5.67m-2.84 2.84v-5.67m-2.83 24.1h5.67m-2.84 2.84v-5.67m18.43-18.44h5.67m-2.83 2.84v-5.67m-2.84 24.1h5.67m-2.83 2.84v-5.67M124.33 20.84H130m-2.83 2.83V18m-2.84 24.1H130m-2.83 2.84v-5.67m18.43-18.43h5.67m-2.84 2.83V18m-2.83 24.1h5.67m-2.84 2.84v-5.67m-24.1 24.1H130m-2.83 2.83v-5.67m-2.84 24.11H130m-2.83 2.83V81.8m18.43-18.43h5.67m-2.84 2.83v-5.67m-2.83 24.11h5.67m-2.84 2.83V81.8m-24.1 24.1H130m-2.83 2.84v-5.67m-2.84 24.1H130m-2.83 2.83v-5.67m18.43-18.43h5.67m-2.84 2.84v-5.67m-2.83 24.1h5.67m-2.84 2.83v-5.67m-24.1 24.1H130m-2.83 2.84v-5.67m-2.84 24.1H130m-2.83 2.84v-5.67m18.43-18.44h5.67m-2.84 2.84v-5.67m-2.83 24.1h5.67m-2.84 2.84v-5.67m-24.1 24.1H130m-2.83 2.83v-5.67m-2.84 24.1H130m-2.83 2.84v-5.67m18.43-18.43h5.67m-2.84 2.83v-5.67m-2.83 24.1h5.67m-2.84 2.84v-5.67m-24.1 24.1H130m-2.83 2.84v-5.67m-2.84 24.1H130m-2.83 2.83v-5.67m18.43-18.43h5.67m-2.84 2.84v-5.67m-2.83 24.1h5.67m-2.84 2.83v-5.67m-24.1 24.1H130m-2.83 2.84v-5.67m-2.84 24.1H130m-2.83 2.84v-5.67m18.43-18.44h5.67m-2.84 2.84v-5.67m-2.83 24.1h5.67m-2.84 2.84v-5.67M81.8 20.84h5.67m-2.83 2.83V18M81.8 42.1h5.67m-2.83 2.84v-5.67m18.43-18.43h5.67m-2.84 2.83V18m-2.83 24.1h5.67m-2.84 2.84v-5.67m-24.1 24.1h5.67m-2.83 2.83v-5.67M81.8 84.64h5.67m-2.83 2.83V81.8m18.43-18.43h5.67m-2.84 2.83v-5.67m-2.83 24.11h5.67m-2.84 2.83V81.8m-24.1 24.1h5.67m-2.83 2.84v-5.67m-2.84 24.1h5.67M84.64 130v-5.67m18.43-18.43h5.67m-2.84 2.84v-5.67m-2.83 24.1h5.67M105.9 130v-5.67m-24.1 24.1h5.67m-2.83 2.84v-5.67m-2.84 24.1h5.67m-2.83 2.84v-5.67m18.43-18.44h5.67m-2.84 2.84v-5.67m-2.83 24.1h5.67m-2.84 2.84v-5.67m-24.1 24.1h5.67m-2.83 2.83v-5.67m-2.84 24.1h5.67m-2.83 2.84v-5.67m18.43-18.43h5.67m-2.84 2.83v-5.67m-2.83 24.1h5.67m-2.84 2.84v-5.67m-24.1 24.1h5.67m-2.83 2.84v-5.67m-2.84 24.1h5.67m-2.83 2.83v-5.67m18.43-18.43h5.67m-2.84 2.84v-5.67m-2.83 24.1h5.67m-2.84 2.83v-5.67m-24.1 24.1h5.67m-2.83 2.84v-5.67m-2.84 24.1h5.67m-2.83 2.84v-5.67m18.43-18.44h5.67m-2.84 2.84v-5.67m-2.83 24.1h5.67m-2.84 2.84v-5.67M39.27 20.84h5.67m-2.84 2.83V18m-2.83 24.1h5.67m-2.84 2.84v-5.67m18.43-18.43h5.67m-2.83 2.83V18m-2.84 24.1h5.67m-2.83 2.84v-5.67m-24.1 24.1h5.67M42.1 66.2v-5.67m-2.83 24.11h5.67m-2.84 2.83V81.8m18.43-18.43h5.67m-2.83 2.83v-5.67m-2.84 24.11h5.67m-2.83 2.83V81.8m-24.1 24.1h5.67m-2.84 2.84v-5.67m-2.83 24.1h5.67M42.1 130v-5.67m18.43-18.43h5.67m-2.83 2.84v-5.67m-2.84 24.1h5.67M63.37 130v-5.67m-24.1 24.1h5.67m-2.84 2.84v-5.67m-2.83 24.1h5.67m-2.84 2.84v-5.67m18.43-18.44h5.67m-2.83 2.84v-5.67m-2.84 24.1h5.67m-2.83 2.84v-5.67m-24.1 24.1h5.67m-2.84 2.83v-5.67m-2.83 24.1h5.67m-2.84 2.84v-5.67m18.43-18.43h5.67m-2.83 2.83v-5.67m-2.84 24.1h5.67m-2.83 2.84v-5.67m-24.1 24.1h5.67m-2.84 2.84v-5.67m-2.83 24.1h5.67m-2.84 2.83v-5.67m18.43-18.43h5.67m-2.83 2.84v-5.67m-2.84 24.1h5.67m-2.83 2.83v-5.67m-24.1 24.1h5.67m-2.84 2.84v-5.67m-2.83 24.1h5.67m-2.84 2.84v-5.67m18.43-18.44h5.67m-2.83 2.84v-5.67m-2.84 24.1h5.67m-2.83 2.84v-5.67M18 20.84h5.67m-2.83 2.83V18M18 42.1h5.67m-2.83 2.84v-5.67M18 63.37h5.67m-2.83 2.83v-5.67M18 84.64h5.67m-2.83 2.83V81.8M18 105.9h5.67m-2.83 2.84v-5.67M18 127.17h5.67M20.84 130v-5.67M18 148.43h5.67m-2.83 2.84v-5.67M18 169.7h5.67m-2.83 2.84v-5.67M18 190.97h5.67m-2.83 2.83v-5.67M18 212.23h5.67m-2.83 2.84v-5.67M18 233.5h5.67m-2.83 2.84v-5.67M18 254.77h5.67m-2.83 2.83v-5.67M18 276.03h5.67m-2.83 2.84v-5.67M18 297.3h5.67m-2.83 2.84v-5.67M762.33 20.84H768m-2.84 2.83V18m-2.83 24.1H768m-2.84 2.84v-5.67m-2.83 24.1H768m-2.84 2.83v-5.67m-2.83 24.11H768m-2.84 2.83V81.8m-2.83 24.1H768m-2.84 2.84v-5.67m-2.83 24.1H768m-2.84 2.83v-5.67m-2.83 24.1H768m-2.84 2.84v-5.67m-2.83 24.1H768m-2.84 2.84v-5.67m-2.83 24.1H768m-2.84 2.83v-5.67m-2.83 24.1H768m-2.84 2.84v-5.67m-2.83 24.1H768m-2.84 2.84v-5.67m-2.83 24.1H768m-2.84 2.83v-5.67m-2.83 24.1H768m-2.84 2.84v-5.67m-2.83 24.1H768m-2.84 2.84v-5.67M719.8 20.84h5.67m-2.84 2.83V18m-2.83 24.1h5.67m-2.84 2.84v-5.67m18.43-18.43h5.67m-2.83 2.83V18m-2.84 24.1h5.67m-2.83 2.84v-5.67m-24.1 24.1h5.67m-2.84 2.83v-5.67m-2.83 24.11h5.67m-2.84 2.83V81.8m18.43-18.43h5.67m-2.83 2.83v-5.67m-2.84 24.11h5.67m-2.83 2.83V81.8m-24.1 24.1h5.67m-2.84 2.84v-5.67m-2.83 24.1h5.67m-2.84 2.83v-5.67m18.43-18.43h5.67m-2.83 2.84v-5.67m-2.84 24.1h5.67M743.9 130v-5.67m-24.1 24.1h5.67m-2.84 2.84v-5.67m-2.83 24.1h5.67m-2.84 2.84v-5.67m18.43-18.44h5.67m-2.83 2.84v-5.67m-2.84 24.1h5.67m-2.83 2.84v-5.67m-24.1 24.1h5.67m-2.84 2.83v-5.67m-2.83 24.1h5.67m-2.84 2.84v-5.67m18.43-18.43h5.67m-2.83 2.83v-5.67m-2.84 24.1h5.67m-2.83 2.84v-5.67m-24.1 24.1h5.67m-2.84 2.84v-5.67m-2.83 24.1h5.67m-2.84 2.83v-5.67m18.43-18.43h5.67m-2.83 2.84v-5.67m-2.84 24.1h5.67m-2.83 2.83v-5.67m-24.1 24.1h5.67m-2.84 2.84v-5.67m-2.83 24.1h5.67m-2.84 2.84v-5.67m18.43-18.44h5.67m-2.83 2.84v-5.67m-2.84 24.1h5.67m-2.83 2.84v-5.67M677.26 20.84h5.67m-2.83 2.83V18m-2.84 24.1h5.67m-2.83 2.84v-5.67m18.43-18.43h5.67m-2.84 2.83V18m-2.83 24.1h5.67m-2.84 2.84v-5.67m-24.1 24.1h5.67m-2.83 2.83v-5.67m-2.84 24.11h5.67m-2.83 2.83V81.8m18.43-18.43h5.67m-2.84 2.83v-5.67m-2.83 24.11h5.67m-2.84 2.83V81.8m-24.1 24.1h5.67m-2.83 2.84v-5.67m-2.84 24.1h5.67M680.1 130v-5.67m18.43-18.43h5.67m-2.84 2.84v-5.67m-2.83 24.1h5.67m-2.84 2.83v-5.67m-24.1 24.1h5.67m-2.83 2.84v-5.67m-2.84 24.1h5.67m-2.83 2.84v-5.67m18.43-18.44h5.67m-2.84 2.84v-5.67m-2.83 24.1h5.67m-2.84 2.84v-5.67m-24.1 24.1h5.67m-2.83 2.83v-5.67m-2.84 24.1h5.67m-2.83 2.84v-5.67m18.43-18.43h5.67m-2.84 2.83v-5.67m-2.83 24.1h5.67m-2.84 2.84v-5.67m-24.1 24.1h5.67m-2.83 2.84v-5.67m-2.84 24.1h5.67m-2.83 2.83v-5.67m18.43-18.43h5.67m-2.84 2.84v-5.67m-2.83 24.1h5.67m-2.84 2.83v-5.67m-24.1 24.1h5.67m-2.83 2.84v-5.67m-2.84 24.1h5.67m-2.83 2.84v-5.67m18.43-18.44h5.67m-2.84 2.84v-5.67m-2.83 24.1h5.67m-2.84 2.84v-5.67M634.73 20.84h5.671m-2.831 2.83V18m-2.84 24.1h5.671m-2.831 2.84v-5.67M656 20.84h5.67m-2.84 2.83V18M656 42.1h5.67m-2.84 2.84v-5.67m-24.1 24.1h5.671m-2.831 2.83v-5.67m-2.84 24.11h5.671m-2.831 2.83V81.8M656 63.37h5.67m-2.84 2.83v-5.67M656 84.64h5.67m-2.84 2.83V81.8m-24.1 24.1h5.671m-2.831 2.84v-5.67m-2.84 24.1h5.671M637.57 130v-5.67M656 105.9h5.67m-2.84 2.84v-5.67m-2.83 24.1h5.67m-2.84 2.83v-5.67m-24.1 24.1h5.671m-2.831 2.84v-5.67m-2.84 24.1h5.671m-2.831 2.84v-5.67M656 148.43h5.67m-2.84 2.84v-5.67M656 169.7h5.67m-2.84 2.84v-5.67m-24.1 24.1h5.671m-2.831 2.83v-5.67m-2.84 24.1h5.671m-2.831 2.84v-5.67M656 190.97h5.67m-2.84 2.83v-5.67m-2.83 24.1h5.67m-2.84 2.84v-5.67m-24.1 24.1h5.671m-2.831 2.84v-5.67m-2.84 24.1h5.671m-2.831 2.83v-5.67M656 233.5h5.67m-2.84 2.84v-5.67m-2.83 24.1h5.67m-2.84 2.83v-5.67m-24.1 24.1h5.671m-2.831 2.84v-5.67m-2.84 24.1h5.671m-2.831 2.84v-5.67M656 276.03h5.67m-2.84 2.84v-5.67M656 297.3h5.67m-2.84 2.84v-5.67M592.2 20.84h5.67m-2.84 2.83V18m-2.83 24.1h5.67m-2.84 2.84v-5.67m18.43-18.43h5.67m-2.83 2.83V18m-2.84 24.1h5.67m-2.83 2.84v-5.67m-24.1 24.1h5.67m-2.84 2.83v-5.67m-2.83 24.11h5.67m-2.84 2.83V81.8m18.43-18.43h5.67m-2.83 2.83v-5.67m-2.84 24.11h5.67m-2.83 2.83V81.8m-24.1 24.1h5.67m-2.84 2.84v-5.67m-2.83 24.1h5.67m-2.84 2.83v-5.67m18.43-18.43h5.67m-2.83 2.84v-5.67m-2.84 24.1h5.67M616.3 130v-5.67m-24.1 24.1h5.67m-2.84 2.84v-5.67m-2.83 24.1h5.67m-2.84 2.84v-5.67m18.43-18.44h5.67m-2.83 2.84v-5.67m-2.84 24.1h5.67m-2.83 2.84v-5.67m-24.1 24.1h5.67m-2.84 2.83v-5.67m-2.83 24.1h5.67m-2.84 2.84v-5.67m18.43-18.43h5.67m-2.83 2.83v-5.67m-2.84 24.1h5.67m-2.83 2.84v-5.67m-24.1 24.1h5.67m-2.84 2.84v-5.67m-2.83 24.1h5.67m-2.84 2.83v-5.67m18.43-18.43h5.67m-2.83 2.84v-5.67m-2.84 24.1h5.67m-2.83 2.83v-5.67m-24.1 24.1h5.67m-2.84 2.84v-5.67m-2.83 24.1h5.67m-2.84 2.84v-5.67m18.43-18.44h5.67m-2.83 2.84v-5.67m-2.84 24.1h5.67m-2.83 2.84v-5.67M549.66 20.84h5.67m-2.83 2.83V18m-2.84 24.1h5.67m-2.83 2.84v-5.67m18.43-18.43h5.67m-2.83 2.83V18m-2.84 24.1h5.67m-2.83 2.84v-5.67m-24.11 24.1h5.67m-2.83 2.83v-5.67m-2.84 24.11h5.67m-2.83 2.83V81.8m18.43-18.43h5.67m-2.83 2.83v-5.67m-2.84 24.11h5.67m-2.83 2.83V81.8m-24.11 24.1h5.67m-2.83 2.84v-5.67m-2.84 24.1h5.67M552.5 130v-5.67m18.43-18.43h5.67m-2.83 2.84v-5.67m-2.84 24.1h5.67m-2.83 2.83v-5.67m-24.11 24.1h5.67m-2.83 2.84v-5.67m-2.84 24.1h5.67m-2.83 2.84v-5.67m18.43-18.44h5.67m-2.83 2.84v-5.67m-2.84 24.1h5.67m-2.83 2.84v-5.67m-24.11 24.1h5.67m-2.83 2.83v-5.67m-2.84 24.1h5.67m-2.83 2.84v-5.67m18.43-18.43h5.67m-2.83 2.83v-5.67m-2.84 24.1h5.67m-2.83 2.84v-5.67m-24.11 24.1h5.67m-2.83 2.84v-5.67m-2.84 24.1h5.67m-2.83 2.83v-5.67m18.43-18.43h5.67m-2.83 2.84v-5.67m-2.84 24.1h5.67m-2.83 2.83v-5.67m-24.11 24.1h5.67m-2.83 2.84v-5.67m-2.84 24.1h5.67m-2.83 2.84v-5.67m18.43-18.44h5.67m-2.83 2.84v-5.67m-2.84 24.1h5.67m-2.83 2.84v-5.67M507.13 20.84h5.67m-2.83 2.83V18m-2.84 24.1h5.67m-2.83 2.84v-5.67m18.43-18.43h5.67m-2.84 2.83V18m-2.83 24.1h5.67m-2.84 2.84v-5.67m-24.1 24.1h5.67m-2.83 2.83v-5.67m-2.84 24.11h5.67m-2.83 2.83V81.8m18.43-18.43h5.67m-2.84 2.83v-5.67m-2.83 24.11h5.67m-2.84 2.83V81.8m-24.1 24.1h5.67m-2.83 2.84v-5.67m-2.84 24.1h5.67m-2.83 2.83v-5.67m18.43-18.43h5.67m-2.84 2.84v-5.67m-2.83 24.1h5.67m-2.84 2.83v-5.67m-24.1 24.1h5.67m-2.83 2.84v-5.67m-2.84 24.1h5.67m-2.83 2.84v-5.67m18.43-18.44h5.67m-2.84 2.84v-5.67m-2.83 24.1h5.67m-2.84 2.84v-5.67m-24.1 24.1h5.67m-2.83 2.83v-5.67m-2.84 24.1h5.67m-2.83 2.84v-5.67m18.43-18.43h5.67m-2.84 2.83v-5.67m-2.83 24.1h5.67m-2.84 2.84v-5.67m-24.1 24.1h5.67m-2.83 2.84v-5.67m-2.84 24.1h5.67m-2.83 2.83v-5.67m18.43-18.43h5.67m-2.84 2.84v-5.67m-2.83 24.1h5.67m-2.84 2.83v-5.67m-24.1 24.1h5.67m-2.83 2.84v-5.67m-2.84 24.1h5.67m-2.83 2.84v-5.67m18.43-18.44h5.67m-2.84 2.84v-5.67m-2.83 24.1h5.67m-2.84 2.84v-5.67M485.86 20.84h5.67m-2.83 2.83V18m-2.84 24.1h5.67m-2.83 2.84v-5.67m-2.84 24.1h5.67m-2.83 2.83v-5.67m-2.84 24.11h5.67m-2.83 2.83V81.8m-2.84 24.1h5.67m-2.83 2.84v-5.67m-2.84 24.1h5.67M488.7 130v-5.67m-2.84 24.1h5.67m-2.83 2.84v-5.67m-2.84 24.1h5.67m-2.83 2.84v-5.67m-2.84 24.1h5.67m-2.83 2.83v-5.67m-2.84 24.1h5.67m-2.83 2.84v-5.67m-2.84 24.1h5.67m-2.83 2.84v-5.67m-2.84 24.1h5.67m-2.83 2.83v-5.67m-2.84 24.1h5.67m-2.83 2.84v-5.67m-2.84 24.1h5.67m-2.83 2.84v-5.67"/><path fill="#fff" stroke="#ABB0BF" stroke-miterlimit="10" stroke-width="1.88" d="M297.3 212.23h-63.8v63.8h127.6v-63.8h-63.8Z"/><path fill="#A1A5B2" d="M261.86 242.92h-1.89v-3.78h1.89v3.78Zm0 5.67h-1.89v-1.89h1.89v1.89Zm5.67-9.45h-5.67v-1.89h5.67v1.89Zm0 5.67h-5.67v-1.89h5.67v1.89Zm0 5.67h-5.67v-1.89h5.67v1.89Zm1.89-9.45h-1.89v-1.89h1.89v1.89Zm0 7.56h-1.89v-3.78h1.89v3.78Zm3.78-5.67h-1.89v-5.67h1.89v5.67Zm3.78 1.89v5.67h-1.89v-5.67h-1.89v-1.89h5.67v1.89h-1.89Zm3.78-1.89h-1.89v-5.67h1.89v5.67Zm3.78 0h-1.89v-3.78h1.89v3.78Zm0 5.67h-1.89v-1.89h1.89v1.89Zm5.67-9.45h-5.67v-1.89h5.67v1.89Zm0 5.67h-5.67v-1.89h5.67v1.89Zm0 5.67h-5.67v-1.89h5.67v1.89Zm1.89-9.45h-1.89v-1.89h1.89v1.89Zm0 7.56h-1.89v-3.78h1.89v3.78Zm5.67-9.45h-3.78v-1.89h9.45v1.89h-3.78v11.34h-1.89v-11.34Zm9.46 9.45h7.56v1.89h-9.45v-13.23h9.45v1.89h-7.56v3.78h5.67v1.89h-5.67v3.78Zm11.34-7.56v9.45h-1.89v-13.23h1.89v1.89h1.89v1.89h-1.89Zm3.78 1.89h-1.89v-1.89h1.89v1.89Zm1.89 1.89h-1.89v-1.89h1.89v1.89Zm1.89-1.89h-1.89v-1.89h1.89v1.89Zm1.89-1.89h-1.89v-1.89h1.89v-1.89h1.89v13.23h-1.89v-9.45Z"/><path fill="#fff" stroke="#ABB0BF" stroke-miterlimit="10" stroke-width="1.88" d="M488.7 212.23h-63.8v63.8h127.6v-63.8h-63.8Z"/><path fill="#A1A5B2" d="M450.89 241.03v9.45H449v-13.23h1.89v1.89h1.89v1.89h-1.89Zm3.78 1.89h-1.89v-1.89h1.89v1.89Zm1.89 1.89h-1.89v-1.89h1.89v1.89Zm1.89-1.89h-1.89v-1.89h1.89v1.89Zm1.89-1.89h-1.89v-1.89h1.89v-1.89h1.89v13.23h-1.89v-9.45Zm9.46-3.78v1.89h-1.89v9.45h1.89v1.89h-5.67v-1.89h1.89v-9.45h-1.89v-1.89h5.67Zm3.78 1.89v11.34h-1.89v-13.23h3.78v1.89h-1.89Zm3.78 3.78h-1.89v-3.78h1.89v3.78Zm1.89 3.78h-1.89v-3.78h1.89v3.78Zm1.89 0v-9.45h1.89v13.23h-1.89v-1.89h-1.89v-1.89h1.89Zm7.56-7.56h-3.78v-1.89h9.45v1.89h-3.78v11.34h-1.89v-11.34Zm9.45 9.45h7.56v1.89h-9.45v-13.23h9.45v1.89h-7.56v3.78h5.67v1.89h-5.67v3.78Zm17.01-11.34v1.89h-5.67v3.78h5.67v1.89h-1.89v1.89h-1.89v-1.89h-1.89v5.67h-1.89v-13.23h7.56Zm0 11.34h-1.89v-1.89h1.89v1.89Zm1.89-5.67h-1.89v-3.78h1.89v3.78Zm0 7.56h-1.89v-1.89h1.89v1.89Zm3.78-7.56h-1.89v-3.78h1.89v3.78Zm0 5.67h-1.89v-1.89h1.89v1.89Zm5.68-9.45h-5.67v-1.89h5.67v1.89Zm0 5.67h-5.67v-1.89h5.67v1.89Zm0 5.67h-5.67v-1.89h5.67v1.89Zm1.89-9.45h-1.89v-1.89h1.89v1.89Zm0 7.56h-1.89v-3.78h1.89v3.78Z"/><path fill="#ABB0BF" d="M281.99 35.55h3.78v1.89h-9.45v-1.89h3.78V26.1h-3.78v-1.89h5.67v11.34Zm7.56 0h-1.89V26.1h1.89v9.45Zm5.67-9.46h-5.67V24.2h5.67v1.89Zm0 11.35h-5.67v-1.89h5.67v1.89Zm-1.89-5.67h-1.89v-1.89h1.89v1.89Zm3.79 3.78h-1.89V26.1h1.89v9.45Z"/><path fill="#272B38" d="M488.7 84.64h-63.8v63.79h127.6V84.64h-63.8Z"/><path fill="#fff" stroke="#ABB0BF" stroke-miterlimit="10" stroke-width="1.88" d="M297.3 84.64h-63.8v63.79h127.6V84.64h-63.8Z"/><path fill="#fff" d="M454.67 113.46v9.45h-1.89v-13.23h1.89v1.89h1.89v1.89h-1.89Zm3.78 1.89h-1.89v-1.89h1.89v1.89Zm1.89 1.89h-1.89v-1.89h1.89v1.89Zm1.89-1.89h-1.89v-1.89h1.89v1.89Zm1.89-1.89h-1.89v-1.89h1.89v-1.89h1.89v13.23h-1.89v-9.45Zm5.68 5.67v3.78h-1.89v-7.56h1.89v1.89h5.67v-1.89h1.89v7.56h-1.89v-3.78h-5.67Zm1.89-3.78h-1.89v-3.78h1.89v3.78Zm1.89-3.78h-1.89v-1.89h1.89v1.89Zm1.89 3.78h-1.89v-3.78h1.89v3.78Zm11.34-5.67v1.89h-5.67v3.78h5.67v1.89h-1.89v1.89h-1.89v-1.89h-1.89v5.67h-1.89v-13.23h7.56Zm0 11.34h-1.89v-1.89h1.89v1.89Zm1.89-5.67h-1.89v-3.78h1.89v3.78Zm0 7.56h-1.89v-1.89h1.89v1.89Zm3.78-5.67v5.67h-1.89v-13.23h1.89v5.67h1.89v1.89h-1.89Zm3.78-1.89h-1.89v-1.89h1.89v1.89Zm0 3.78h-1.89v-1.89h1.89v1.89Zm1.89-5.67h-1.89v-1.89h1.89v1.89Zm0 7.56h-1.89v-1.89h1.89v1.89Zm1.89-9.45h-1.89v-1.89h1.89v1.89Zm0 11.34h-1.89v-1.89h1.89v1.89Zm3.78-1.89h7.56v1.89h-9.45v-13.23h9.45v1.89h-7.56v3.78h5.67v1.89h-5.67v3.78Zm13.23-9.45h-3.78v-1.89h9.45v1.89h-3.78v11.34h-1.89v-11.34Z"/><path fill="#272B38" d="M680.1 84.64h-63.8v63.79h127.6V84.64h-63.8Z"/><path fill="#A1A5B2" d="M265.16 115.35h-1.89v-3.78h1.89v3.78Zm0 5.67h-1.89v-1.89h1.89v1.89Zm5.67-9.45h-5.67v-1.89h5.67v1.89Zm0 5.67h-5.67v-1.89h5.67v1.89Zm0 5.68h-5.67v-1.89h5.67v1.89Zm1.9-9.46h-1.89v-1.89h1.89v1.89Zm0 7.56h-1.89v-3.78h1.89v3.78Zm3.78-1.89v3.78h-1.89v-7.56h1.89v1.89h5.67v-1.89h1.89v7.56h-1.89v-3.78h-5.67Zm1.89-3.78h-1.89v-3.78h1.89v3.78Zm1.89-3.78h-1.89v-1.89h1.89v1.89Zm1.89 3.78h-1.89v-3.78h1.89v3.78Zm5.67 0h-1.89v-5.67h1.89v5.67Zm1.89 3.78h-1.89v-3.78h1.89v3.78Zm1.89 3.79h-1.89v-3.78h1.89v3.78Zm1.89-3.79h-1.89v-3.78h1.89v3.78Zm1.89-3.78h-1.89v-5.67h1.89v5.67Zm3.78 5.67h7.56v1.89h-9.45v-13.23h9.45v1.89h-7.56v3.78h5.67v1.89h-5.67v3.78Zm17.01-11.34v1.89h-5.67v3.78h5.67v1.89h-1.89v1.89h-1.89v-1.89h-1.89v5.67h-1.89v-13.23h7.56Zm0 11.34h-1.89v-1.89h1.89v1.89Zm1.89-5.67h-1.89v-3.78h1.89v3.78Zm0 7.57h-1.89v-1.89h1.89v1.89Zm3.78-7.57h-1.89v-3.78h1.89v3.78Zm0 5.67h-1.89v-1.89h1.89v1.89Zm5.68-9.45h-5.67v-1.89h5.67v1.89Zm0 5.67h-5.67v-1.89h5.67v1.89Zm0 5.68h-5.67v-1.89h5.67v1.89Zm1.89-9.46h-1.89v-1.89h1.89v1.89Zm0 7.56h-1.89v-3.78h1.89v3.78Z"/><path fill="#fff" stroke="#ABB0BF" stroke-miterlimit="10" stroke-width="1.88" d="M105.9 84.64H42.1v63.79h127.6V84.64h-63.8Z"/><path fill="#fff" d="M713.31 258.36a.782.782 0 0 0-.229.09c-.16.09-.291.28-.411.46s-.239.34-.389.43c-.02 0-.041.02-.061.02-.11.02-.22.01-.49-.1-.06-.02-.11-.05-.17-.07a2.13 2.13 0 0 0-.37-.14c-.25-.05-.489.13-.599.33-.07.11-.131.22-.181.31-.17.3-.319.56-.639.57-.13.02-.301-.02-.551-.07-.15-.03-.3-.07-.43-.08-.41-.04-.82.11-1.07.41-.18.2-.249.39-.319.57-.11.28-.221.58-.681.76-.34.14-.62.06-.85 0-.12-.03-.23-.06-.32-.05h-.01c-.07 0-.16.04-.25.08 0 .6-.03 3.18-.05 4.93 0 .46-.01.9-.01 1.3 2.16-.94 6.94-3.67 8.09-4.45v-.01c.01-.26.011-1.58.011-3.7v-1.59h-.021Zm-21.45 9.85h12.94c0-.43 0-.9.02-1.4v-1.01c.01-1.13.03-2.39.04-3.72-.06.04-.12.08-.17.13-.13.1-.27.2-.44.27-.18.08-.52.07-.84-.13-.13-.07-.25-.15-.37-.23-.19-.13-.38-.26-.58-.33-.48-.17-1.03 0-1.51.15-.22.09-.41.2-.59.3-.3.17-.58.34-.95.39-.48.08-1.14-.2-1.78-.47-.28-.12-.55-.23-.79-.31-.51-.14-1.11-.06-1.68.21-.21.1-.41.24-.6.38-.35.26-.69.5-1.05.43-.05 0-.1-.02-.14-.04h-.04c-.06-.03-.1-.05-.13-.06l-.08-.05c-.09-.06-.1-.06-.21-.16-.1-.09-.19-.18-.28-.27-.15-.15-.29-.3-.46-.4a.998.998 0 0 0-.25-.13v1.29c0 .48-.01.93-.02 1.35v.58c-.01 1.31-.03 2.34-.03 2.84v.38l-.01.01Z"/><path fill="#fff" stroke="#272B38" stroke-miterlimit="10" stroke-width="1.88" d="M658.83 276.04h63.8v-63.8h-63.8v63.8Z"/><path fill="#A1A5B2" d="M54.87 120.95h7.56v1.89h-9.45v-13.23h9.45v1.89h-7.56v3.78h5.67v1.89h-5.67v3.78Zm17.01-11.27v1.89h-5.67v3.78h5.67v1.89h-5.67v5.67h-1.89v-13.23h7.56Zm1.89 5.67h-1.89v-3.78h1.89v3.78Zm3.78 0h-1.89v-3.78h1.89v3.78Zm0 5.67h-1.89v-1.89h1.89v1.89Zm5.67-9.45h-5.67v-1.89h5.67v1.89Zm0 5.67h-5.67v-1.89h5.67v1.89Zm0 5.67h-5.67v-1.89h5.67v1.89Zm1.89-9.45h-1.89v-1.89h1.89v1.89Zm0 7.56h-1.89v-3.78h1.89v3.78Zm9.45-3.78v5.67h-1.89v-13.23h1.89v5.67h5.67v-5.67h1.89v13.23h-1.89v-5.67h-5.67Zm11.34 3.78h-1.89v-9.45h1.89v9.45Zm5.67-9.45h-5.67v-1.89h5.67v1.89Zm0 11.34h-5.67v-1.89h5.67v1.89Zm1.89-1.89h-1.89v-9.45h1.89v9.45Zm1.89 1.89v-13.23h1.89v11.34h7.56v1.89h-9.45Zm17.02-13.23v1.89h-3.78v9.45h3.78v1.89h-5.67v-13.23h5.67Zm1.89 3.78h-1.89v-1.89h1.89v1.89Zm0 7.56h-1.89v-1.89h1.89v1.89Zm1.89-1.89h-1.89v-5.67h1.89v5.67Zm3.78 1.89h7.56v1.89h-9.45v-13.23h9.45v1.89h-7.56v3.78h5.67v1.89h-5.67v3.78Zm17.01-11.34v1.89h-5.67v3.78h5.67v1.89h-1.89v1.89h-1.89v-1.89h-1.89v5.67h-1.89v-13.23h7.56Zm0 11.34h-1.89v-1.89h1.89v1.89Zm1.89-5.67h-1.89v-3.78h1.89v3.78Zm0 7.56h-1.89v-1.89h1.89v1.89Z"/><path fill="#ABB0BF" d="M104.96 41.16v42.53h1.89v-1.9h-.01V43.04h380.92v41.59h1.88V41.16H104.96Zm0 38.74h-1.89v1.89h1.89V79.9Zm-1.89-1.89h-1.89v1.89h1.89v-1.89Zm-1.89-1.89h-1.89v1.89h1.89v-1.89Z"/><path fill="#ABB0BF" d="M108.74 79.9h-1.89v1.89h1.89V79.9Zm1.89-1.89h-1.89v1.89h1.89v-1.89Zm1.89-1.89h-1.89v1.89h1.89v-1.89Zm284.1 36.4h-7.56v-1.89h9.45v5.67h-1.89v-3.78Zm-5.68 11.34h-1.89v-1.89h1.89v1.89Zm1.9-1.89h-1.89v-1.89h1.89v1.89Zm1.89-1.89h-1.89v-1.89h1.89v1.89Zm1.89-1.89h-1.89v-1.89h1.89v1.89Zm28.28-11.35v-1.88h-62.87v1.89h1.89v-.01h60.98Zm-59.09-3.77h-1.89v1.89h1.89v-1.89Zm1.89-1.89h-1.89v1.89h1.89v-1.89Zm1.89-1.89h-1.89v1.89h1.89v-1.89Z"/><path fill="#ABB0BF" d="M365.81 106.85h-1.89v1.89h1.89v-1.89Zm1.89 1.89h-1.89v1.89h1.89v-1.89Zm1.89 1.89h-1.89v1.89h1.89v-1.89Z"/><path fill="#A1A5B2" d="M502.99 185.12h-5.67v1.89h5.67v-1.89Zm1.89-3.78h-1.89v3.78h1.89v-3.78Zm-7.56 1.89h-1.89v1.89h1.89v-1.89Zm0-7.57h-1.89v1.89h1.89v-1.89Zm5.67 3.78h-3.78v1.89h3.78v-1.89Zm1.89-3.78h-1.89v3.78h1.89v-3.78Zm-1.89-1.89h-5.67v1.89h5.67v-1.89Zm-11.45-22.52h-1.89v1.89h1.89v-1.89Zm1.89 1.89h-1.89v1.89h1.89v-1.89Zm1.89 1.9h-1.89v1.89h1.89v-1.89Zm-7.56-5.68v62.87h1.88v-60.98h.01v-1.89h-1.89Zm-.01 1.89h-1.89v1.89h1.89v-1.89Zm-1.89 1.89h-1.89v1.89h1.89v-1.89Zm-1.89 1.9h-1.89v1.89h1.89v-1.89Z"/><path fill="#272B38" d="M688.53 179.44h5.67v1.89h-7.56v-7.56h9.45v1.89h-7.56v3.78Zm0 5.68h-1.89v-1.89h1.89v1.89Zm5.67 1.88h-5.67v-1.89h5.67V187Zm1.89-1.88h-1.89v-3.78h1.89v3.78Zm-15.03-36.69h-1.88v60.99h-.01v1.89h.01v.92h1.88v-63.8Zm-1.89 59.1h-1.89v1.89h1.89v-1.89Zm-1.89-1.89h-1.89v1.89h1.89v-1.89Zm-1.89-1.89h-1.89v1.89h1.89v-1.89Zm7.56 3.78h-1.89v1.89h1.89v-1.89Zm1.89-1.89h-1.89v1.89h1.89v-1.89Zm1.89-1.89h-1.89v1.89h1.89v-1.89ZM587 97.36v3.78h-1.89v-3.78h-5.67v-3.78h1.89v1.89h3.78v-3.78h-1.89V89.8h1.89v-1.89H587v7.56h1.89v1.89H587Zm-3.78-3.78h-1.89v-1.89h1.89v1.89Zm-1.15 46.35v3.78h-1.89v-9.45h1.89v3.78h5.67v1.89h-5.67Zm5.67-5.67h-5.67v-1.89h5.67v1.89Zm0 11.34h-5.67v-1.89h5.67v1.89Zm1.89-9.45h-1.89v-1.89h1.89v1.89Zm0 7.56h-1.89v-3.78h1.89v3.78Zm26.67-15.6v-1.88h-60.94v-.01h-1.9v1.89h62.84Zm-2.81-21.26h-1.89v1.89h1.89v-1.89Zm-1.89 1.89h-1.89v1.89h1.89v-1.89Zm-1.89 1.89h-1.89v1.89h1.89v-1.89Zm3.78-3.78h1.89v-1.89H552.5v1.88h60.99v.01Zm0-3.78h-1.89v1.89h1.89v-1.89Zm-1.89-1.89h-1.89v1.89h1.89v-1.89Zm-1.89-1.89h-1.89v1.89h1.89v-1.89Zm-52.46 25.04h-1.89v1.89h1.89v-1.89Zm1.89-1.89h-1.89v1.89h1.89v-1.89Zm1.89-1.89h-1.89v1.89h1.89v-1.89Zm-3.78 7.56h-1.89V130h1.89v-1.89Zm1.89 1.89h-1.89v1.89h1.89V130Zm1.89 1.89h-1.89v1.89h1.89v-1.89Z"/><path fill="#ABB0BF" d="M394.77 271.31h3.78v1.89h-9.45v-1.89h3.78v-9.45h-3.78v-1.89h5.67v11.34Zm-4.42-52.19h-1.89v-1.89h1.89v1.89Zm1.9 7.56h5.67v1.89h-9.45v-1.89h1.89v-1.89h1.89v1.89Zm3.78-9.45h-5.67v-1.89h5.67v1.89Zm-1.89 7.56h-1.89v-1.89h1.89v1.89Zm1.89-1.89h-1.89v-1.89h1.89v1.89Zm1.89-1.89h-1.89v-3.78h1.89v3.78Zm-33.89 11.55h-1.89v1.88h62.76v-1.88h-60.87Zm1.89-1.9h-1.89v1.89h1.89v-1.89Zm1.89-1.89h-1.89v1.89h1.89v-1.89Zm1.89-1.89h-1.89v1.89h1.89v-1.89Zm-3.78 7.56h-1.89v1.89h1.89v-1.89Zm1.89 1.9h-1.89v1.89h1.89v-1.89Zm1.89 1.89h-1.89v1.89h1.89v-1.89Zm52.27 17.48h-1.89v1.89h1.89v-1.89Zm-1.89 1.89h-1.89v1.89h1.89v-1.89Zm-1.89 1.89h-1.89v1.89h1.89v-1.89Zm3.78-5.67H361.1v1.89h62.76v-1.89h-1.89Zm0-1.89h-1.89v1.89h1.89v-1.89Zm-1.89-1.89h-1.89v1.89h1.89v-1.89Zm-1.89-1.89h-1.89v1.89h1.89v-1.89Zm-89.52-68.71h-1.89v-3.78h1.89v3.78Zm0 5.68h-1.89v-3.78h1.89v3.78Zm5.67-9.46h-5.67v-1.89h5.67v1.89Zm0 5.68h-5.67v-1.89h5.67v1.89Zm0 5.67h-5.67v-1.89h5.67v1.89Zm1.89-7.57h-1.89v-3.78h1.89v3.78Zm0 5.68h-1.89v-3.78h1.89v3.78Zm-50.82-5.68h-1.89v-3.78h1.89v3.78Zm0 5.68h-1.89v-1.89h1.89v1.89Zm5.67-9.46h-5.67v-1.89h5.67v1.89Zm0 5.68h-5.67v-1.89h5.67v-3.78h1.89v9.45h-1.89v-3.78Zm0 5.67h-5.67v-1.89h5.67v1.89Zm-12.21-35.76h-1.89v1.89h1.89v-1.89Zm1.89 1.89h-1.89v1.89h1.89v-1.89Zm1.89 1.89h-1.89v1.89h1.89v-1.89Zm-7.56-5.67v62.87h1.89v-62.87h-1.89Zm0 1.89h-1.89v1.89h1.89v-1.89Zm-1.89 1.89h-1.89v1.89h1.89v-1.89Zm-1.89 1.89h-1.89v1.89h1.89v-1.89Zm48.21-5.67h-1.9v58.77h-1.89v1.89h1.89v1.89h1.89v-1.89h1.89v-1.89h-1.88v-58.77Zm-3.79 56.88h-1.89v1.89h1.89v-1.89Zm-1.89-1.89h-1.89v1.89h1.89v-1.89Zm9.45 1.89h-1.89v1.89h1.89v-1.89Zm1.89-1.89h-1.89v1.89h1.89v-1.89Zm-170.81 22.73h3.78v1.89h-9.45v-1.89h3.78v-9.45h-3.78v-1.89h5.67v11.34Zm11.34 0h3.78v1.89h-9.45v-1.89h3.78v-9.45h-3.78v-1.89h5.67v11.34Zm-11.34 44.63h3.78v1.89h-9.45v-1.89h3.78v-9.45h-3.78v-1.89h5.67v11.34Zm7.56-7.57h-1.89v-1.89h1.89v1.89Zm1.89 7.57h5.67v1.89h-9.45v-1.89h1.89v-1.89h1.89v1.89Zm3.78-9.46h-5.67v-1.89h5.67v1.89Zm-1.89 7.57h-1.89v-1.89h1.89v1.89Zm1.89-1.9h-1.89v-1.89h1.89v1.89Zm1.89-1.89h-1.89v-3.78h1.89v3.78Z"/><path fill="#ABB0BF" d="M85.58 151.24v-1.89h-1.89v106.36h148.36v-1.88H85.58V151.24Zm144.99 83.21h-1.89v1.89h1.89v-1.89Zm-1.89 1.89h-1.89v1.89h1.89v-1.89Zm-1.89 1.89h-1.89v1.89h1.89v-1.89Z"/><path fill="#ABB0BF" d="M230.57 232.56H106.84V148.4h-1.88v86.04h125.61v.01h1.89v-1.89h-1.89Z"/><path fill="#ABB0BF" d="M230.57 230.67h-1.89v1.89h1.89v-1.89Zm-1.89-1.89h-1.89v1.89h1.89v-1.89Zm-1.89-1.9h-1.89v1.89h1.89v-1.89ZM87.47 151.24h-1.89v1.89h1.89v-1.89Zm1.89 1.89h-1.89v1.89h1.89v-1.89Zm1.89 1.89h-1.89v1.89h1.89v-1.89Zm-7.56-3.78H81.8v1.89h1.89v-1.89Zm-1.89 1.89h-1.89v1.89h1.89v-1.89Zm-1.89 1.89h-1.89v1.89h1.89v-1.89Z"/><path fill="#fff" d="M654.58 121.02h-1.89v-11.34h1.89v11.34Zm5.67 1.89h-5.67v-1.89h5.67v1.89Zm1.89-1.89h-1.89v-11.34h1.89v11.34Zm3.78-5.67h-1.89v-3.78h1.89v3.78Zm0 5.67h-1.89v-1.89h1.89v1.89Zm5.67-9.45h-5.67v-1.89h5.67v1.89Zm0 5.67h-5.67v-1.89h5.67v1.89Zm0 5.67h-5.67v-1.89h5.67v1.89Zm1.89-9.45h-1.89v-1.89h1.89v1.89Zm0 7.56h-1.89v-3.78h1.89v3.78Zm3.78 0h7.56v1.89h-9.45v-13.23h9.45v1.89h-7.56v3.78h5.67v1.89h-5.67v3.78Zm17.01-11.34v1.89h-5.67v3.78h5.67v1.89h-1.89v1.89h-1.89v-1.89h-1.89v5.67h-1.89v-13.23h7.56Zm0 11.34h-1.89v-1.89h1.89v1.89Zm1.89-5.67h-1.89v-3.78h1.89v3.78Zm0 7.56h-1.89v-1.89h1.89v1.89Zm3.79-7.56h-1.89v-3.78h1.89v3.78Zm0 5.67h-1.89v-1.89h1.89v1.89Zm5.67-9.45h-5.67v-1.89h5.67v1.89Zm0 5.67h-5.67v-1.89h5.67v1.89Zm0 5.67h-5.67v-1.89h5.67v1.89Zm1.89-9.45h-1.89v-1.89h1.89v1.89Zm0 7.56h-1.89v-3.78h1.89v3.78Z"/><path fill="#FCE729" d="M691.44 227.76c-.31-1.05-.7-2.12-.8-3.22-.16-1.82.33-2.73-.03-3.46-.08-.15-.33-.59-.49-.66-.21-.08-.99.07-1.2.11-.71.14-1.25.35-1.46 1-.34.46-.26.85-.31 1.37-.81 3.24-1.86 3.58-1.91 3.6-2.27 1.66-2.93 2.33-6.43 3.45-2.7.86-5.45 1.03-8.25.8-3.94-.33-4.43-.1-4.44-.1-.63.22-.97.55-1.06 1.18-.02.13-.17.46.54.98.02.02.05.04.08.06.46.47 1.19 1.36 2.18 1.61-.58.16-1.4.26-1.7.47-.02.08-.22.19-.24.28-.51.93-.24 1.19.06 1.66.5.55 3.08 2.87 6.37 2.94-.5.18-2.75.59-2.89 1.53-.05.36-.18.34.04.92.02.04.03.08.05.12.16.4.86.69 1.56.98 1.08.45 2.37.81 3.24.87 14.31 1.02 20.97-10.53 17.09-16.5"/><path fill="#231F20" d="M670.36 235.79c1.47.11 2.93.16 4.4-.01.96-.11 1.91-.32 2.83-.61 3.68-.91 7.06-2.92 8.77-6.31-1.36 2.12-3.28 3.81-6.04 4.97-2.87 1.22-5.89 1.66-8.99 1.63-.73 0-1.46-.03-2.18-.01-.72.02-1.56 0-2.06.61.6-.24 1.03-.39 1.67-.37.54.02 1.07.07 1.61.11"/><path fill="#231F20" d="M683.52 229.33c-7.66 4.85-14.98 1.68-16.76 2.2.56-.05 1.21.13 2.13.36 5.07 1.18 10.6.69 14.63-2.57m-5.33 10.51c5.83-1.81 9.67-5.76 11.01-10.34-.03.05-.06.1-.08.15 0-.02.02-.05.02-.07-.3.78-1.971 3.34-2.031 3.42l-.26.37c-.32.36-.73 1.43-3.06 3.15a18.612 18.612 0 0 1-3.159 1.9c-3.31 1.83-8.15 2.08-9.61 3.04 1-.13 1.149-.31 3.589-.75 1.21-.22 2.401-.51 3.581-.88"/><path fill="#231F20" d="M671.03 242.88c-.07-.1-.14-.2-.2-.3a3.2 3.2 0 0 1-.29-.62c-.08-.22-.13-.44-.17-.69-.09.23-.11.5-.07.75.03.24.12.47.23.68-.15-.06-.3-.11-.45-.17-.02-.26-.16-.35-.16-1.07.62-2.02 6.97-.55 14.42-7.57 1.72-1.36 3-3.07 3.56-4.9.22-.36.49-.85.77-.77.26.08.29.52.32.69.29-.67-.07-1.1-.5-1.06.44-.94.76-2.94.41-4.75.05-.03.1-.06.15-.1.33 1.47.45 2 .5 4.62 0 .06.1-.4.1-.46.27-4.34-.36-3.59-.1-4.5.23-.28.46-.39.77-.45-.02 0-.02 0 0 0-.11 1.76.05 3.73.84 5.32-.7-.52-1.47-.09-1.47.44.21-.64 1.25-.75 1.75.46 3.7 8.4-8.64 18.5-20.43 14.46l.02-.01Zm-2.94-4.9c-.39-.22-.63-.25-1.06-.85-.47-.65-.42-1.33-.37-2.11-.41.66-.45 1.6.13 2.21-.4-.26-.73-.54-.72-.75.02-1 .32-1.3.37-1.45 1.46-.65 3.6 0 7.65-.54 1.58-.17 6.62-1.17 11.21-5.61 1.25-1.21 1.29-1.33 1.58-1.31.31.02.55.33.65.6.01-.42-.26-.81-.65-.91.4-1.33.97-2.63 1.08-4.09.21.06.43.06.65.01.12.86.04 1.88 0 2.44-.09.61-.23 1.21-.47 1.78-.33.81-.6 1.65-.97 2.44-.43.91-1.24 1.92-1.99 2.67-1.29 1.29-2.43 2.3-3.92 3.37-3.75 2.72-8.84 4.49-13.17 2.08v.02Zm-1.5-4.7c-.36-.74-.45-1.51-.57-2.05-.17.43-.18 1.04.05 1.58-.19-.17-.42-.37-.5-.56-.07-.18-.07-.8.11-1.16.08-.06.16-.11.25-.15 2.62-1.08 8.67 2.98 18.1-3.18.33-.22.59-.53.93-.73.16-.09.34-.17.53-.14.39.07.42.4.42.54 0-.03.02-.07.03-.1 0-.04.01-.08.01-.11.02-.38-.22-.52-.27-.55.47-.57 1.06-1.56 1.42-2.55.21-.47.34-.92.37-.99 0 1.16.05 2.02-1.26 4.36l-.04.07c-1.1.76-5.25 5.63-12.2 6.53-2.42.31-5.4.65-7.4-.81h.02Zm21.15-11.78c.15.07.36-.02.78.31.16.26.26.55.31.85-.93.18-.96-.1-1.22-.26 0-.01 0 0-.04-.09.03-.28.06-.56.18-.81h-.01Zm2.12-.93s0 .02.01.03c-.07 0-1.1.95-1.11.97-.15-.21-.45-.4-.77-.41.43-.41 1.26-.56 1.87-.58v-.01Zm.09.19c.42.69.36.54.45.89-.55-.01-.91.62-1.3.97-.15-.47-.05-.72.02-1.08.32-.31.75-.66.83-.78Zm1.49 7c-.31-1.05-.7-2.12-.8-3.22-.16-1.82.33-2.73-.03-3.46-.08-.15-.33-.59-.49-.66-.21-.08-.99.07-1.2.11-.71.14-1.25.35-1.46 1-.34.46-.26.85-.31 1.37-.81 3.24-1.86 3.58-1.91 3.6-2.27 1.66-2.93 2.33-6.43 3.45-2.7.86-5.45 1.03-8.25.8-3.94-.33-4.43-.1-4.44-.1-.63.22-.97.55-1.06 1.18-.02.13-.17.46.54.98.02.02.05.04.08.06.46.47 1.19 1.36 2.18 1.61-.58.16-1.4.26-1.7.47-.02.08-.22.19-.24.28-.51.93-.24 1.19.06 1.66.5.55 3.08 2.87 6.37 2.94-.5.18-2.75.59-2.89 1.53-.05.36-.18.34.04.92.02.04.03.08.05.12.16.4.86.69 1.56.98 1.08.45 2.37.81 3.24.87 14.31 1.02 20.97-10.53 17.09-16.5"/><path fill="#AFD4FA" d="M713.76 246.72c-.04 4.03-.05 8.26-.05 11.4v5.74s0 .02-.01.02c0 0 0 .01-.01.02v.03s0 .01-.02.02l-.02.02s-.02.02-.03.02c-.05.04-.11.08-.18.12 0 0-.01 0-.02.01-.78.5-2.43 1.47-4.12 2.4-.03.01-.05.03-.08.04-.4.22-.81.44-1.2.65-.06.03-.12.06-.18.1-.2.1-.39.2-.58.3h-.02c-.17.09-.34.17-.5.25-.09.05-.18.09-.27.14-.1.05-.19.1-.29.14-.06.03-.11.05-.17.08-.08.04-.16.08-.24.11-.07.03-.13.06-.19.09-.09.04-.17.07-.24.11-.03.01-.07.03-.1.04h-13.27c-.22 0-.4-.18-.4-.4v-.07c0-.27 0-1.44.02-3.33v-.5c.06-4.38.14-12.24.07-18.13 0-.55-.02-1.06-.02-1.55v-.25c0-.02.02-.05.04-.07.88-1.23 1.82-2.48 2.76-3.72.56-.74 1.13-1.48 1.69-2.21l.03-.04v-.49c.04-.91.06-1.28.17-2.39 0-.02 0-.05.01-.07.04-.13.14-.24.27-.27.02 0 .04 0 .07-.01 3.84-.43 7.88-.48 12.05-.15.33.03.65.05.98.08.22.02.37.21.36.42l-.17 2.62s.05.06.07.08c.02.02.04.04.05.06.03.04.06.07.1.11.02.02.04.04.05.06l.1.11s.03.04.05.05c.04.04.07.08.11.12l.05.05c.04.04.08.09.13.13l.04.04.16.16c.11.11.23.22.34.34h.01c.81.81 1.72 1.7 2.63 2.96.02.03.04.06.05.1.01.04.02.09.02.14-.02.73-.03 1.48-.04 2.25l-.03 1.91-.03.01Z"/><path fill="#000" d="M713.76 246.72c-.04 4.03-.05 8.26-.05 11.4v5.74s0 .02-.01.02c0 0 0 .01-.01.02v.03s0 .01-.02.02l-.02.02s-.02.02-.03.02c-.05.04-.11.08-.18.12 0 0-.01 0-.02.01-.78.5-2.43 1.47-4.12 2.4-.03.01-.05.03-.08.04-.4.22-.81.44-1.2.65-.06.03-.12.06-.18.1-.2.1-.39.2-.58.3h-.02c-.17.09-.34.17-.5.25-.09.05-.18.09-.27.14-.1.05-.19.1-.29.14-.06.03-.11.05-.17.08-.08.04-.16.08-.24.11-.07.03-.13.06-.19.09-.09.04-.17.07-.24.11-.03.01-.07.03-.1.04h-13.27c-.22 0-.4-.18-.4-.4v-.07c0-.27 0-1.44.02-3.33v-.5c.06-4.38.14-12.24.07-18.13 0-.55-.02-1.06-.02-1.55v-.25c0-.02.02-.05.04-.07.88-1.23 1.82-2.48 2.76-3.72.56-.74 1.13-1.48 1.69-2.21l.03-.04v-.49c.04-.91.06-1.28.17-2.39 0-.02 0-.05.01-.07.04-.13.14-.24.27-.27.02 0 .04 0 .07-.01 3.84-.43 7.88-.48 12.05-.15.33.03.65.05.98.08.22.02.37.21.36.42l-.17 2.62s.05.06.07.08c.02.02.04.04.05.06.03.04.06.07.1.11.02.02.04.04.05.06l.1.11s.03.04.05.05c.04.04.07.08.11.12l.05.05c.04.04.08.09.13.13l.04.04.16.16c.11.11.23.22.34.34h.01c.81.81 1.72 1.7 2.63 2.96.02.03.04.06.05.1.01.04.02.09.02.14-.02.73-.03 1.48-.04 2.25l-.03 1.91-.03.01Zm-21.47-2.73c-.07.1-.14.19-.21.28 1.63.1 3.7.12 5.2.12 3.23 0 6.32-.1 7.67-.19.03-.04.06-.09.09-.13.01-.02.03-.04.04-.06.04-.05.08-.11.12-.17a.55.55 0 0 1 .07-.09l.08-.11c.09-.13.18-.26.28-.39.07-.11.15-.21.23-.32l.07-.1c.05-.07.1-.15.16-.22.03-.04.06-.08.09-.13.05-.07.1-.14.15-.2.03-.05.07-.09.1-.14.05-.06.09-.13.14-.19.03-.05.07-.09.1-.14.05-.07.09-.13.14-.19.03-.05.07-.09.1-.14.05-.06.09-.13.14-.19.04-.05.07-.1.11-.15.04-.06.09-.12.13-.18.04-.05.07-.1.11-.15.05-.06.09-.12.13-.19.03-.05.07-.09.1-.14.05-.06.09-.13.14-.19.03-.05.07-.09.1-.14.05-.06.09-.13.14-.19.03-.04.07-.09.1-.14.05-.07.1-.13.15-.2l.09-.12c.05-.07.1-.14.16-.21.03-.03.05-.07.08-.1.07-.09.14-.18.2-.27 0-.01.02-.02.03-.03.08-.1.15-.2.22-.3.02-.03.05-.06.07-.09.05-.06.09-.12.14-.18h-1.06c-.14 0-.27 0-.41.01h-.24c-.2 0-.4 0-.59.02h-.13c-2.16.06-4.4.12-6.68.12-.25 0-.57 0-.92.01-.21 0-.43 0-.65.02h-.77c-.34 0-.66.01-.96.01h-.45c-.18.25-.36.49-.55.73-.05.06-.09.12-.14.18l-.42.54-.19.25-.36.48c-.07.09-.14.19-.22.28-.11.15-.22.3-.34.45-.08.1-.15.2-.22.3-.11.14-.22.29-.32.43-.08.1-.16.21-.23.31-.1.14-.21.28-.31.42-.08.11-.16.21-.24.32-.1.14-.2.27-.3.41l-.24.33-.02.05Zm-.37 17.35c.16.03.32.1.47.21.2.13.36.29.52.45.09.09.17.17.26.25.06.053.114.093.16.12l.08.05s.05.02.07.04h.01c.02 0 .05.02.07.02.2.04.47-.16.75-.36.2-.14.42-.31.66-.42.66-.32 1.36-.41 1.97-.24.26.08.55.2.83.32.56.23 1.19.5 1.56.44.29-.04.53-.18.81-.34.2-.11.4-.23.65-.33.55-.19 1.18-.37 1.78-.15.25.09.47.24.67.38.12.08.23.16.35.22.23.14.43.13.49.1.12-.05.23-.13.35-.22.12-.09.24-.18.38-.25.01 0 .02-.01.04-.02.07-7.3.07-12.83 0-16.88v-.12c-1.61.11-4.79.19-7.58.19-1.55 0-3.7-.02-5.36-.13 0 .25 0 .51.01.77v.44c.02 1.11.03 2.34.03 3.67.01 4.21-.03 8.71-.06 11.8l.03-.01Zm13.62-17.26s-.03.04-.04.06c.06 0 .11-.02.17-.03 1.87-.31 5.35-1.15 7.38-1.68-.77-.41-1.75-.95-2.71-1.47-.66-.36-1.29-.7-1.83-1-.02.02-.03.05-.05.07-.04.05-.08.1-.12.16-.04.06-.08.11-.12.17-.04.05-.08.11-.12.16-.04.05-.08.11-.12.17-.04.05-.08.11-.12.16-.04.06-.09.12-.13.18-.04.05-.08.1-.11.16-.04.06-.09.12-.13.18-.04.05-.08.11-.12.16-.04.06-.09.12-.13.18-.04.05-.08.11-.11.16-.04.06-.09.12-.13.18-.04.05-.08.11-.11.16-.05.07-.1.13-.14.2-.03.04-.06.09-.09.13-.05.06-.09.13-.14.19-.04.05-.07.1-.11.15-.03.04-.06.09-.09.13-.04.06-.09.12-.13.19-.08.11-.16.22-.23.32-.1.14-.2.28-.3.41-.04.06-.08.12-.13.18l.01-.03Zm4.11-5.64c-.28.37-.58.76-.89 1.19.53.29 1.14.62 1.79.97.83.45 1.68.92 2.39 1.3-.02-.02-.04-.05-.06-.07-.03-.04-.06-.07-.09-.11-.03-.03-.05-.06-.08-.09s-.06-.07-.09-.1-.05-.06-.08-.09-.06-.07-.09-.1-.05-.06-.07-.08c-.03-.03-.06-.07-.09-.1a.572.572 0 0 0-.07-.08c-.03-.03-.06-.06-.09-.1-.02-.03-.05-.05-.07-.08l-.09-.09c-.02-.03-.05-.05-.07-.07l-.09-.09-.07-.07-.09-.09-.07-.07-.09-.09-.06-.06-.09-.09-.06-.06-.09-.09c-.02-.02-.04-.03-.05-.05l-.11-.11-.04-.04c-.05-.05-.1-.1-.15-.14l-.02-.02-.27-.27c-.02-.01-.03-.03-.05-.04l-.26-.26-.05-.05c-.09-.09-.17-.17-.25-.26l-.04-.04c-.08-.09-.17-.18-.25-.27v-.04Zm3.76 4.31c-2 .53-6.29 1.58-8.15 1.83.03 1.51.04 3.25.05 5.19.01 3.2 0 7.03-.04 11.69.07-.02.14-.04.22-.04.16-.01.31.02.45.06.2.05.39.1.6.01.3-.12.36-.28.45-.53.07-.2.17-.44.39-.69.34-.39.87-.59 1.42-.54.15.02.32.05.47.09.14.03.35.08.41.07h.04c.09 0 .15-.1.31-.37.06-.1.12-.2.19-.32.22-.38.64-.59 1.03-.52.17.03.31.1.46.16.05.02.11.05.16.07.15.06.21.07.23.08.07-.05.15-.17.23-.28.14-.21.3-.44.55-.58.13-.07.27-.12.43-.15 0-3.15 0-7.2.05-11.09v-.14c0-.64.02-1.27.03-1.9v-.16c0-.56.02-1.11.03-1.66v-.27l-.01-.01Zm-.1 15.61c-.09.02-.16.05-.23.09-.16.09-.29.28-.41.46s-.24.34-.39.43c-.02 0-.04.02-.06.02-.11.02-.22.01-.49-.1-.06-.02-.11-.05-.17-.07a2.13 2.13 0 0 0-.37-.14c-.25-.05-.49.13-.6.33-.07.11-.13.22-.18.31-.17.3-.32.56-.64.57-.13.02-.3-.02-.55-.07-.15-.03-.3-.07-.43-.08-.41-.04-.82.11-1.07.41-.18.2-.25.39-.32.57-.11.28-.22.58-.68.76-.34.14-.62.06-.85 0-.12-.03-.23-.06-.32-.05h-.01c-.07 0-.16.04-.25.08 0 .6-.03 3.18-.05 4.93 0 .46-.01.9-.01 1.3 2.16-.94 6.94-3.67 8.09-4.45v-.01c.01-.26.01-1.58.01-3.7v-1.59h-.02Zm-21.45 9.85h12.94c0-.43 0-.9.02-1.4v-1.01c.01-1.13.03-2.39.04-3.72-.06.04-.12.08-.17.13-.13.1-.27.2-.44.27-.18.08-.52.07-.84-.13-.13-.07-.25-.15-.37-.23-.19-.13-.38-.26-.58-.33-.48-.17-1.03 0-1.51.15-.22.09-.41.2-.59.3-.3.17-.58.34-.95.39-.48.08-1.14-.2-1.78-.47-.28-.12-.55-.23-.79-.31-.51-.14-1.11-.06-1.68.21-.21.1-.41.24-.6.38-.35.26-.69.5-1.05.43-.05 0-.1-.02-.14-.04h-.04c-.06-.03-.1-.05-.13-.06l-.08-.05c-.09-.06-.1-.06-.21-.16-.1-.09-.19-.18-.28-.27-.15-.15-.29-.3-.46-.4a.998.998 0 0 0-.25-.13v1.29c0 .48-.01.93-.02 1.35v.58c-.01 1.31-.03 2.34-.03 2.84v.38l-.01.01Zm4.64-30.38c0 .1 0 .21-.01.33h.47c.24 0 .5 0 .77-.01h.82c.6-.02 1.17-.04 1.58-.04 2.27 0 4.51-.06 6.67-.12h.13c.21 0 .43-.01.65-.02h.15c.17 0 .33 0 .5-.01h1.23l.17-2.51c-4.48-.43-8.84-.4-12.95.06-.11 1.09-.12 1.46-.17 2.36l-.01-.04Z"/><path fill="#83B2E5" d="M713.41 242.75c-2 .53-6.29 1.58-8.15 1.83.03 1.51.04 3.25.05 5.19.01 3.2 0 7.03-.04 11.69.07-.02.14-.04.22-.04.16-.01.31.02.45.06.2.05.39.1.6.01.3-.12.36-.28.45-.53.07-.2.17-.44.39-.69.34-.39.87-.59 1.42-.54.15.02.32.05.47.09.14.03.35.08.41.07h.04c.09 0 .15-.1.31-.37.06-.1.12-.2.19-.32.22-.38.64-.59 1.03-.52.17.03.31.1.46.16.05.02.11.05.16.07.15.06.21.07.23.08.07-.05.15-.17.23-.28.14-.21.3-.44.55-.58.13-.07.27-.12.43-.15 0-3.15 0-7.2.05-11.09v-.14c0-.64.02-1.27.03-1.9v-.16c0-.56.02-1.11.03-1.66v-.27l-.01-.01Z"/><path fill="#fff" d="M713.31 258.36a.782.782 0 0 0-.229.09c-.16.09-.291.28-.411.46s-.239.34-.389.43c-.02 0-.041.02-.061.02-.11.02-.22.01-.49-.1-.06-.02-.11-.05-.17-.07a2.13 2.13 0 0 0-.37-.14c-.25-.05-.489.13-.599.33-.07.11-.131.22-.181.31-.17.3-.319.56-.639.57-.13.02-.301-.02-.551-.07-.15-.03-.3-.07-.43-.08-.41-.04-.82.11-1.07.41-.18.2-.249.39-.319.57-.11.28-.221.58-.681.76-.34.14-.62.06-.85 0-.12-.03-.23-.06-.32-.05h-.01c-.07 0-.16.04-.25.08 0 .6-.03 3.18-.05 4.93 0 .46-.01.9-.01 1.3 2.16-.94 6.94-3.67 8.09-4.45v-.01c.01-.26.011-1.58.011-3.7v-1.59h-.021Zm-21.45 9.85h12.94c0-.43 0-.9.02-1.4v-1.01c.01-1.13.03-2.39.04-3.72-.06.04-.12.08-.17.13-.13.1-.27.2-.44.27-.18.08-.52.07-.84-.13-.13-.07-.25-.15-.37-.23-.19-.13-.38-.26-.58-.33-.48-.17-1.03 0-1.51.15-.22.09-.41.2-.59.3-.3.17-.58.34-.95.39-.48.08-1.14-.2-1.78-.47-.28-.12-.55-.23-.79-.31-.51-.14-1.11-.06-1.68.21-.21.1-.41.24-.6.38-.35.26-.69.5-1.05.43-.05 0-.1-.02-.14-.04h-.04c-.06-.03-.1-.05-.13-.06l-.08-.05c-.09-.06-.1-.06-.21-.16-.1-.09-.19-.18-.28-.27-.15-.15-.29-.3-.46-.4a.998.998 0 0 0-.25-.13v1.29c0 .48-.01.93-.02 1.35v.58c-.01 1.31-.03 2.34-.03 2.84v.38l-.01.01Z"/><path fill="#000" d="M712.52 248.04v-.34c0-.25 0-.52-.04-.78a.668.668 0 0 0-.32-.47c-.52-.31-1.5.01-2.14.23-.09.03-.17.06-.24.08l-.09.02c-.69.15-1.4.3-2.09.54-.04.01-.08.03-.12.04-.34.12-.72.26-.93.62-.39.59-.37 1.32-.36 1.91 0 .29.02.59.03.88.02.42.04.85.03 1.28 0 .47 0 1.27.72 1.41.15.03.3.04.45.04.18 0 .36-.02.52-.04.53-.05.99-.14 1.41-.28.1-.03.28-.08.49-.13 1.02-.26 1.96-.53 2.3-.97.4-.51.39-.99.39-1.41v-.35c0-.86 0-1.6-.02-2.28h.01Zm-.38 2.64c0 .41 0 .77-.3 1.16-.28.36-1.46.66-2.09.82-.22.06-.4.1-.51.14-.39.13-.83.22-1.33.27-.26.03-.56.06-.84 0-.38-.08-.41-.49-.41-1.02 0-.44-.01-.87-.04-1.3-.01-.28-.03-.58-.03-.87-.01-.56-.03-1.2.29-1.68v-.01c.14-.24.42-.34.72-.45.04-.02.08-.03.12-.05.66-.23 1.36-.38 2.04-.53l.1-.02h.02c.07-.02.16-.05.26-.08.38-.13 1.02-.34 1.46-.34.14 0 .26.02.35.07.07.04.11.1.13.2.04.22.04.46.04.7v.35c.01.67.02 1.41.02 2.26v.38Z"/><path fill="#AFD4FA" d="M705.54 244.08s-.03.04-.04.06c.06 0 .11-.02.17-.03 1.87-.31 5.35-1.15 7.38-1.68-.77-.41-1.75-.95-2.71-1.47-.66-.36-1.29-.7-1.83-1-.02.02-.03.05-.05.07-.04.05-.08.1-.12.16-.04.06-.08.11-.12.17-.04.05-.08.11-.12.16-.04.05-.08.11-.12.17-.04.05-.08.11-.12.16-.04.06-.09.12-.13.18-.04.05-.08.1-.11.16-.04.06-.09.12-.13.18-.04.05-.08.11-.12.16-.04.06-.09.12-.13.18-.04.05-.08.11-.11.16-.04.06-.09.12-.13.18-.04.05-.08.11-.11.16-.05.07-.1.13-.14.2-.03.04-.06.09-.09.13-.05.06-.09.13-.14.19-.04.05-.07.1-.11.15-.03.04-.06.09-.09.13-.04.06-.09.12-.13.19-.08.11-.16.22-.23.32-.1.14-.2.28-.3.41-.04.06-.08.12-.13.18l.01-.03Z"/><path fill="#6386B3" d="M709.65 238.44c-.28.37-.58.76-.89 1.19.53.29 1.14.62 1.79.97.83.45 1.68.92 2.39 1.3-.02-.02-.04-.05-.06-.07-.03-.04-.06-.07-.09-.11-.03-.03-.05-.06-.08-.09s-.06-.07-.09-.1-.05-.06-.08-.09-.06-.07-.09-.1-.05-.06-.07-.08c-.03-.03-.06-.07-.09-.1a.572.572 0 0 0-.07-.08c-.03-.03-.06-.06-.09-.1-.02-.03-.05-.05-.07-.08l-.09-.09c-.02-.03-.05-.05-.07-.07l-.09-.09-.07-.07-.09-.09-.07-.07-.09-.09-.06-.06-.09-.09-.06-.06-.09-.09c-.02-.02-.04-.03-.05-.05l-.11-.11-.04-.04c-.05-.05-.1-.1-.15-.14l-.02-.02-.27-.27c-.02-.01-.03-.03-.05-.04l-.26-.26-.05-.05c-.09-.09-.17-.17-.25-.26l-.04-.04c-.08-.09-.17-.18-.25-.27v-.04Z"/><path fill="#000" d="M701.45 253.52c-.05-.02-.13-.07-.24-.16-.11-.08-.19-.23-.27-.43-.07-.21-.11-.49-.11-.86.01-.32.02-.56.02-.74 0-.18-.03-.27-.12-.27s-.24.08-.48.24c-.24.16-.51.38-.81.65-.3.27-.61.58-.93.91-.11.12-.21.22-.31.32s-.2.16-.29.19c-.09.03-.2 0-.33-.1l-.17-.14a.315.315 0 0 1-.09-.17c-.01-.06 0-.12.02-.2l.36-1.04c.17-.38.28-.65.35-.83.06-.17.09-.28.09-.33 0-.05-.02-.07-.05-.05-.08.01-.21.06-.38.15s-.28.18-.33.26c-.04 0-.11.05-.19.14-.08.09-.19.18-.32.27-.07.13-.22.29-.43.49-.22.2-.43.4-.64.61-.14.12-.27.26-.4.43-.13.17-.24.32-.33.44-.09.13-.15.19-.18.19a.67.67 0 0 1-.37-.11c-.11-.07-.19-.19-.24-.36-.08-.18-.08-.43 0-.75s.18-.74.28-1.25c.04-.16.07-.27.08-.35.01-.07.03-.15.05-.23.03-.08.07-.2.14-.37.07-.17.18-.42.32-.76.07-.2.12-.35.13-.45.02-.1.02-.17.02-.21 0-.1.03-.19.09-.27.06-.07.13-.13.21-.16.08-.03.16-.04.24-.02.12.02.22.08.31.17a.6.6 0 0 1 .15.39c.01.13 0 .24-.03.34-.03.1-.06.19-.09.28l-.17.43c-.05.12-.12.28-.2.5-.08.22-.16.42-.22.61-.06.18-.09.29-.09.32.01.03.05.02.11-.02.06-.05.14-.12.24-.21.1-.09.2-.18.31-.26.22-.21.47-.41.75-.61.28-.19.54-.36.8-.5.25-.14.45-.23.58-.27.18 0 .3.03.37.09s.19.18.35.35c.07.07.12.17.13.28.01.12 0 .23-.02.33-.01.04-.04.14-.09.31-.05.16-.13.39-.22.69.24-.21.44-.38.58-.5.15-.12.26-.21.33-.28.41-.32.77-.51 1.07-.6.3-.08.55.03.74.33.13.12.19.24.2.38v.71c.01.14.02.3.03.49.01.19.02.36.04.51.02.15.03.24.05.28.03.04.09.08.18.1.09.03.21.05.35.07.16.02.25.09.28.2.03.12-.04.23-.2.33-.16.09-.33.14-.52.13-.19-.01-.36-.04-.5-.09l.01.04Z"/></svg>