<svg xmlns="http://www.w3.org/2000/svg" width="350" height="230" fill="none"><g clip-path="url(#a)"><path fill="#F9F9FB" d="M-108 .807h565.682V229.67H-108z"/><path stroke="#ABB0BF" stroke-miterlimit="10" stroke-width=".252" d="M226.372 15.805h4.08m-2.044 2.037v-4.08m-2.036 17.344h4.08m-2.044 2.044v-4.08m-2.036 17.344h4.08m-2.044 2.036v-4.08m-2.036 17.352h4.08m-2.044 2.036v-4.08m-2.036 17.344h4.08m-2.044 2.045v-4.081m-2.036 17.344h4.08m-2.044 2.037v-4.08m-2.036 17.344h4.08m-2.044 2.044v-4.08m-2.036 17.344h4.08m-2.044 2.045v-4.081m-2.036 17.345h4.08m-2.044 2.036v-4.081m-2.036 17.345h4.08m-2.044 2.044v-4.081m-2.036 17.345h4.08m-2.044 2.044v-4.081m-2.036 17.345h4.08m-2.044 2.037v-4.081m-2.036 17.344h4.08m-2.044 2.045v-4.081m-2.036 17.344h4.08m-2.044 2.045v-4.081M195.755 15.805h4.088m-2.043 2.037v-4.08m-2.045 17.344h4.088M197.8 33.15v-4.08m13.264-13.265h4.081m-2.037 2.037v-4.08m-2.044 17.344h4.081m-2.037 2.044v-4.08m-17.353 17.344h4.088M197.8 48.45v-4.08m-2.045 17.352h4.088m-2.043 2.036v-4.08m13.264-13.264h4.081m-2.037 2.036v-4.08m-2.044 17.352h4.081m-2.037 2.036v-4.08m-17.353 17.344h4.088m-2.043 2.045v-4.081m-2.045 17.344h4.088m-2.043 2.037v-4.08m13.264-13.265h4.081m-2.037 2.045v-4.081m-2.044 17.344h4.081m-2.037 2.037v-4.08m-17.353 17.344h4.088m-2.043 2.044v-4.08m-2.045 17.344h4.088m-2.043 2.045v-4.081m13.264-13.272h4.081m-2.037 2.044v-4.08m-2.044 17.344h4.081m-2.037 2.044v-4.081m-17.353 17.346h4.088m-2.043 2.036v-4.081m-2.045 17.345h4.088m-2.043 2.044v-4.081m13.264-13.264h4.081m-2.037 2.037v-4.081m-2.044 17.345h4.081m-2.037 2.044v-4.081m-17.353 17.345h4.088M197.8 170.9v-4.081m-2.045 17.345h4.088m-2.043 2.037v-4.081m13.264-13.264h4.081m-2.037 2.044v-4.081m-2.044 17.345h4.081m-2.037 2.037v-4.081m-17.353 17.344h4.088m-2.043 2.045v-4.081m-2.045 17.344h4.088m-2.043 2.045v-4.081m13.264-13.271h4.081m-2.037 2.043v-4.08m-2.044 17.344h4.081m-2.037 2.045v-4.081M165.147 15.805h4.081m-2.037 2.037v-4.08m-2.044 17.344h4.081m-2.037 2.044v-4.08m13.264-13.265h4.081m-2.044 2.037v-4.08m-2.037 17.344h4.081m-2.044 2.044v-4.08m-17.345 17.344h4.081m-2.037 2.036v-4.08m-2.044 17.352h4.081m-2.037 2.036v-4.08m13.264-13.264h4.081m-2.044 2.036v-4.08m-2.037 17.352h4.081m-2.044 2.036v-4.08m-17.345 17.344h4.081m-2.037 2.045v-4.081m-2.044 17.344h4.081m-2.037 2.037v-4.08m13.264-13.265h4.081m-2.044 2.045v-4.081m-2.037 17.344h4.081m-2.044 2.037v-4.08m-17.345 17.344h4.081m-2.037 2.044v-4.08m-2.044 17.344h4.081m-2.037 2.044v-4.081m13.264-13.271h4.081m-2.044 2.044v-4.08m-2.037 17.344h4.081m-2.044 2.044v-4.081m-17.345 17.346h4.081m-2.037 2.036v-4.081m-2.044 17.345h4.081m-2.037 2.044v-4.081m13.264-13.264h4.081m-2.044 2.037v-4.081m-2.037 17.345h4.081m-2.044 2.044v-4.081m-17.345 17.345h4.081m-2.037 2.044v-4.081m-2.044 17.345h4.081m-2.037 2.037v-4.081m13.264-13.264h4.081m-2.044 2.044v-4.081m-2.037 17.345h4.081m-2.044 2.037v-4.081m-17.345 17.344h4.081m-2.037 2.044v-4.08m-2.044 17.344h4.081m-2.037 2.045v-4.081m13.264-13.271h4.081m-2.044 2.043v-4.08m-2.037 17.344h4.081m-2.044 2.045v-4.081M134.539 15.805h4.08m-2.044 2.037v-4.08m-2.036 17.344h4.08m-2.044 2.044v-4.08m13.264-13.265h4.088m-2.044 2.037v-4.08m-2.044 17.344h4.088m-2.044 2.044v-4.08m-17.344 17.344h4.08m-2.044 2.036v-4.08m-2.036 17.352h4.08m-2.044 2.036v-4.08m13.264-13.264h4.088m-2.044 2.036v-4.08m-2.044 17.352h4.088m-2.044 2.036v-4.08m-17.344 17.344h4.08m-2.044 2.045v-4.081m-2.036 17.344h4.08m-2.044 2.037v-4.08m13.264-13.265h4.088m-2.044 2.045v-4.081m-2.044 17.344h4.088m-2.044 2.037v-4.08m-17.344 17.344h4.08m-2.044 2.044v-4.08m-2.036 17.344h4.08m-2.044 2.044v-4.081m13.264-13.271h4.088m-2.044 2.044v-4.08m-2.044 17.344h4.088m-2.044 2.045v-4.081m-17.344 17.344h4.08m-2.044 2.037v-4.081m-2.036 17.345h4.08m-2.044 2.044v-4.081m13.264-13.263h4.088m-2.044 2.036v-4.081m-2.044 17.345h4.088m-2.044 2.044v-4.081m-17.344 17.345h4.08m-2.044 2.044v-4.081m-2.036 17.345h4.08m-2.044 2.037v-4.081m13.264-13.264h4.088m-2.044 2.044v-4.081m-2.044 17.345h4.088m-2.044 2.037v-4.081m-17.344 17.345h4.08m-2.044 2.043v-4.08m-2.036 17.344h4.08m-2.044 2.045v-4.081m13.264-13.272h4.088m-2.044 2.045v-4.081m-2.044 17.344h4.088m-2.044 2.045v-4.081M103.93 15.805h4.08m-2.044 2.037v-4.08m-2.036 17.344h4.08m-2.044 2.044v-4.08m13.265-13.265h4.081m-2.038 2.037v-4.08m-2.043 17.344h4.081m-2.038 2.044v-4.08M103.93 46.414h4.08m-2.044 2.036v-4.08m-2.036 17.352h4.08m-2.044 2.036v-4.08m13.265-13.264h4.081m-2.038 2.036v-4.08m-2.043 17.352h4.081m-2.038 2.036v-4.08M103.93 77.022h4.08m-2.044 2.045v-4.081M103.93 92.33h4.08m-2.044 2.037v-4.08m13.265-13.265h4.081m-2.038 2.045v-4.081m-2.043 17.344h4.081m-2.038 2.037v-4.08m-17.344 17.344h4.08m-2.044 2.044v-4.08m-2.036 17.344h4.08m-2.044 2.044v-4.081m13.265-13.271h4.081m-2.038 2.044v-4.08m-2.043 17.344h4.081m-2.038 2.045v-4.081m-17.344 17.345h4.08m-2.044 2.036v-4.081m-2.036 17.345h4.08m-2.044 2.044v-4.081m13.265-13.263h4.081m-2.038 2.036v-4.081m-2.043 17.345h4.081m-2.038 2.044v-4.081m-17.344 17.345h4.08m-2.044 2.044v-4.081m-2.036 17.345h4.08m-2.044 2.037v-4.081m13.265-13.264h4.081m-2.038 2.044v-4.081m-2.043 17.345h4.081m-2.038 2.037v-4.081m-17.344 17.344h4.08m-2.044 2.044v-4.08m-2.036 17.344h4.08m-2.044 2.045v-4.081m13.265-13.272h4.081m-2.038 2.045v-4.081m-2.043 17.344h4.081m-2.038 2.045v-4.081M73.314 15.805h4.08m-2.037 2.037v-4.08m-2.043 17.344h4.08m-2.037 2.044v-4.08m13.265-13.265h4.08m-2.043 2.037v-4.08m-2.037 17.344h4.08m-2.043 2.044v-4.08M73.314 46.414h4.08m-2.037 2.036v-4.08m-2.043 17.352h4.08m-2.037 2.036v-4.08m13.265-13.264h4.08m-2.043 2.036v-4.08m-2.037 17.352h4.08m-2.043 2.036v-4.08M73.314 77.022h4.08m-2.037 2.045v-4.081M73.314 92.33h4.08m-2.037 2.037v-4.08m13.265-13.265h4.08m-2.043 2.045v-4.081M88.622 92.33h4.08m-2.043 2.037v-4.08m-17.345 17.344h4.08m-2.037 2.044v-4.08m-2.043 17.344h4.08m-2.037 2.045v-4.081m13.265-13.272h4.08m-2.043 2.044v-4.08m-2.037 17.344h4.08m-2.043 2.045v-4.081m-17.345 17.345h4.08m-2.037 2.036v-4.081m-2.043 17.345h4.08m-2.037 2.044v-4.081m13.265-13.264h4.08m-2.043 2.037v-4.081m-2.037 17.345h4.08m-2.043 2.044v-4.081m-17.345 17.345h4.08m-2.037 2.044v-4.081m-2.043 17.345h4.08m-2.037 2.037v-4.081m13.265-13.264h4.08m-2.043 2.044v-4.081m-2.037 17.345h4.08m-2.043 2.037v-4.081m-17.345 17.344h4.08m-2.037 2.045v-4.081m-2.043 17.344h4.08m-2.037 2.045v-4.081m13.265-13.271h4.08m-2.043 2.044v-4.081m-2.037 17.344h4.08m-2.043 2.045v-4.081M42.706 15.805h4.08m-2.044 2.037v-4.08m-2.036 17.344h4.08m-2.044 2.044v-4.08m13.271-13.265h4.08m-2.043 2.037v-4.08m-2.037 17.344h4.08M60.05 33.15v-4.08M42.706 46.414h4.08m-2.044 2.036v-4.08m-2.036 17.352h4.08m-2.044 2.036v-4.08m13.271-13.264h4.08M60.05 48.45v-4.08m-2.037 17.352h4.08m-2.043 2.036v-4.08M42.706 77.022h4.08m-2.044 2.045v-4.081M42.706 92.33h4.08m-2.044 2.037v-4.08m13.271-13.265h4.08m-2.043 2.045v-4.081M58.013 92.33h4.08m-2.043 2.037v-4.08m-17.344 17.344h4.08m-2.044 2.044v-4.08m-2.036 17.344h4.08m-2.044 2.045v-4.081m13.271-13.272h4.08m-2.043 2.044v-4.08m-2.037 17.344h4.08m-2.043 2.044v-4.081m-17.344 17.346h4.08m-2.044 2.036v-4.081m-2.036 17.345h4.08m-2.044 2.044v-4.081m13.271-13.264h4.08m-2.043 2.037v-4.081m-2.037 17.345h4.08m-2.043 2.044v-4.081m-17.344 17.345h4.08m-2.044 2.044v-4.081m-2.036 17.345h4.08m-2.044 2.037v-4.081m13.271-13.264h4.08M60.05 170.9v-4.081m-2.037 17.345h4.08m-2.043 2.037v-4.081m-17.344 17.344h4.08m-2.044 2.045v-4.081m-2.036 17.344h4.08m-2.044 2.045v-4.081m13.271-13.271h4.08m-2.043 2.043v-4.08m-2.037 17.344h4.08m-2.043 2.045v-4.081M12.096 15.805h4.08m-2.043 2.037v-4.08m-2.037 17.344h4.08m-2.043 2.044v-4.08m13.264-13.265h4.08m-2.037 2.037v-4.08m-2.043 17.344h4.08M29.44 33.15v-4.08M12.096 46.414h4.08m-2.043 2.036v-4.08m-2.037 17.352h4.08m-2.043 2.036v-4.08m13.264-13.264h4.08M29.44 48.45v-4.08m-2.043 17.352h4.08m-2.037 2.036v-4.08M12.096 77.022h4.08m-2.043 2.045v-4.081M12.096 92.33h4.08m-2.043 2.037v-4.08m13.264-13.265h4.08m-2.037 2.045v-4.081M27.397 92.33h4.08m-2.037 2.037v-4.08m-17.344 17.344h4.08m-2.043 2.044v-4.08m-2.037 17.344h4.08m-2.043 2.044v-4.081m13.264-13.271h4.08m-2.037 2.044v-4.08m-2.043 17.344h4.08m-2.037 2.045v-4.081m-17.344 17.344h4.08m-2.043 2.037v-4.081m-2.037 17.345h4.08m-2.043 2.044v-4.081m13.264-13.264h4.08m-2.037 2.037v-4.081m-2.043 17.345h4.08m-2.037 2.044v-4.081m-17.344 17.345h4.08m-2.043 2.044v-4.081m-2.037 17.345h4.08m-2.043 2.037v-4.081m13.264-13.264h4.08M29.44 170.9v-4.081m-2.043 17.345h4.08m-2.037 2.037v-4.081m-17.344 17.345h4.08m-2.043 2.043v-4.08m-2.037 17.344h4.08m-2.043 2.045v-4.081m13.264-13.271h4.08m-2.037 2.044v-4.081m-2.043 17.344h4.08m-2.037 2.045v-4.081M-3.212 15.805h4.08m-4.08 15.301h4.08m-4.08 15.308h4.08m-4.08 15.308h4.08m-4.08 15.3h4.08m-4.08 15.308h4.08m-4.08 15.301h4.08m-4.08 15.308h4.08m-4.08 15.309h4.08m-4.08 15.3h4.08m-4.08 15.308h4.08m-4.08 15.308h4.08m-4.08 15.3h4.08m-4.08 15.308h4.08M348.814 15.805h4.081m-4.081 15.301h4.081m-4.081 15.308h4.081m-4.081 15.308h4.081m-4.081 15.3h4.081m-4.081 15.308h4.081m-4.081 15.301h4.081m-4.081 15.308h4.081m-4.081 15.309h4.081m-4.081 15.3h4.081m-4.081 15.308h4.081m-4.081 15.308h4.081m-4.081 15.3h4.081m-4.081 15.308h4.081m-34.69-198.967h4.081m-2.044 2.037v-4.08m-2.037 17.344h4.081m-2.044 2.044v-4.08m13.264-13.265h4.081m-2.037 2.037v-4.08m-2.044 17.344h4.081m-2.037 2.044v-4.08m-17.345 17.344h4.081m-2.044 2.036v-4.08m-2.037 17.352h4.081m-2.044 2.036v-4.08m13.264-13.264h4.081m-2.037 2.036v-4.08m-2.044 17.352h4.081m-2.037 2.036v-4.08m-17.345 17.344h4.081m-2.044 2.045v-4.081m-2.037 17.344h4.081m-2.044 2.037v-4.08m13.264-13.265h4.081m-2.037 2.045v-4.081m-2.044 17.344h4.081m-2.037 2.037v-4.08m-17.345 17.344h4.081m-2.044 2.044v-4.08m-2.037 17.344h4.081m-2.044 2.045v-4.081m13.264-13.272h4.081m-2.037 2.044v-4.08m-2.044 17.344h4.081m-2.037 2.044v-4.081m-17.345 17.345h4.081m-2.044 2.037v-4.081m-2.037 17.345h4.081m-2.044 2.044v-4.081m13.264-13.264h4.081m-2.037 2.037v-4.081m-2.044 17.345h4.081m-2.037 2.044v-4.081m-17.345 17.345h4.081m-2.044 2.044v-4.081m-2.037 17.345h4.081m-2.044 2.037v-4.081m13.264-13.264h4.081m-2.037 2.044v-4.081m-2.044 17.345h4.081m-2.037 2.037v-4.081m-17.345 17.345h4.081m-2.044 2.044v-4.081m-2.037 17.344h4.081m-2.044 2.045v-4.081m13.264-13.271h4.081m-2.037 2.043v-4.08m-2.044 17.344h4.081m-2.037 2.045v-4.081M287.589 15.805h4.081m-2.037 2.037v-4.08m-2.044 17.344h4.081m-2.037 2.044v-4.08m13.264-13.265h4.081m-2.037 2.037v-4.08m-2.044 17.344h4.081m-2.037 2.044v-4.08m-17.352 17.344h4.081m-2.037 2.036v-4.08m-2.044 17.352h4.081m-2.037 2.036v-4.08m13.264-13.264h4.081m-2.037 2.036v-4.08m-2.044 17.352h4.081m-2.037 2.036v-4.08m-17.352 17.344h4.081m-2.037 2.045v-4.081m-2.044 17.344h4.081m-2.037 2.037v-4.08m13.264-13.265h4.081m-2.037 2.045v-4.081m-2.044 17.344h4.081m-2.037 2.037v-4.08m-17.352 17.344h4.081m-2.037 2.044v-4.08m-2.044 17.344h4.081m-2.037 2.044v-4.081m13.264-13.271h4.081m-2.037 2.044v-4.08m-2.044 17.344h4.081m-2.037 2.045v-4.081m-17.352 17.344h4.081m-2.037 2.037v-4.081m-2.044 17.345h4.081m-2.037 2.044v-4.081m13.264-13.263h4.081m-2.037 2.036v-4.081m-2.044 17.345h4.081m-2.037 2.044v-4.081m-17.352 17.345h4.081m-2.037 2.044v-4.081m-2.044 17.345h4.081m-2.037 2.037v-4.081m13.264-13.264h4.081m-2.037 2.044v-4.081m-2.044 17.345h4.081m-2.037 2.037v-4.081m-17.352 17.345h4.081m-2.037 2.043v-4.08m-2.044 17.344h4.081m-2.037 2.045v-4.081m13.264-13.272h4.081m-2.037 2.045v-4.081m-2.044 17.344h4.081m-2.037 2.045v-4.081M256.98 15.805h4.081m-2.037 2.037v-4.08m-2.044 17.344h4.081m-2.037 2.044v-4.08m13.265-13.265h4.08m-2.043 2.037v-4.08m-2.037 17.344h4.08m-2.043 2.044v-4.08M256.98 46.414h4.081m-2.037 2.036v-4.08m-2.044 17.352h4.081m-2.037 2.036v-4.08m13.265-13.264h4.08m-2.043 2.036v-4.08m-2.037 17.352h4.08m-2.043 2.036v-4.08M256.98 77.022h4.081m-2.037 2.045v-4.081M256.98 92.33h4.081m-2.037 2.037v-4.08m13.265-13.265h4.08m-2.043 2.045v-4.081m-2.037 17.344h4.08m-2.043 2.037v-4.08m-17.346 17.344h4.081m-2.037 2.044v-4.08m-2.044 17.344h4.081m-2.037 2.045v-4.081m13.265-13.272h4.08m-2.043 2.044v-4.08m-2.037 17.344h4.08m-2.043 2.045v-4.081m-17.346 17.344h4.081m-2.037 2.037v-4.081m-2.044 17.345h4.081m-2.037 2.044v-4.081m13.265-13.263h4.08m-2.043 2.036v-4.081m-2.037 17.345h4.08m-2.043 2.044v-4.081m-17.346 17.345h4.081m-2.037 2.044v-4.081m-2.044 17.345h4.081m-2.037 2.037v-4.081m13.265-13.264h4.08m-2.043 2.044v-4.081m-2.037 17.345h4.08m-2.043 2.037v-4.081m-17.346 17.345h4.081m-2.037 2.044v-4.081m-2.044 17.344h4.081m-2.037 2.045v-4.081m13.265-13.272h4.08m-2.043 2.045v-4.081m-2.037 17.344h4.08m-2.043 2.045v-4.081M241.673 15.805h4.081m-2.038 2.037v-4.08m-2.043 17.344h4.081m-2.038 2.044v-4.08m-2.043 17.344h4.081m-2.038 2.036v-4.08m-2.043 17.352h4.081m-2.038 2.036v-4.08m-2.043 17.344h4.081m-2.038 2.045v-4.081m-2.043 17.344h4.081m-2.038 2.037v-4.08m-2.043 17.344h4.081m-2.038 2.044v-4.08m-2.043 17.344h4.081m-2.038 2.044v-4.081m-2.043 17.346h4.081m-2.038 2.036v-4.081m-2.043 17.345h4.081m-2.038 2.044v-4.081m-2.043 17.345h4.081m-2.038 2.044v-4.081m-2.043 17.345h4.081m-2.038 2.037v-4.081m-2.043 17.344h4.081m-2.038 2.044v-4.08m-2.043 17.344h4.081m-2.038 2.045v-4.081"/><path fill="#272B38" d="M105.966 153.548H60.05v45.917h91.833v-45.917h-45.917Z"/><path fill="#fff" d="M80.46 175.635H79.1v-2.72h1.36v2.72Zm0 4.081H79.1v-1.36h1.36v1.36Zm4.081-6.801h-4.08v-1.36h4.08v1.36Zm0 4.081h-4.08v-1.361h4.08v1.361Zm0 4.08h-4.08v-1.36h4.08v1.36Zm1.36-6.801h-1.36v-1.36h1.36v1.36Zm0 5.441h-1.36v-2.72h1.36v2.72Zm2.72-4.081h-1.36v-4.08h1.36v4.08Zm2.72 1.361v4.08h-1.36v-4.08h-1.36v-1.361h4.081v1.361h-1.36Zm2.721-1.361h-1.36v-4.08h1.36v4.08Zm2.722 0h-1.36v-2.72h1.36v2.72Zm0 4.081h-1.36v-1.36h1.36v1.36Zm4.08-6.801h-4.08v-1.36h4.08v1.36Zm0 4.081h-4.08v-1.361h4.08v1.361Zm0 4.08h-4.08v-1.36h4.08v1.36Zm1.36-6.801h-1.36v-1.36h1.36v1.36Zm0 5.441h-1.36v-2.72h1.36v2.72Zm4.081-6.801h-2.721v-1.36h6.802v1.36h-2.721v8.161h-1.36v-8.161Zm6.808 6.801h5.441v1.36h-6.801v-9.521h6.801v1.36h-5.441v2.72h4.081v1.361h-4.081v2.72Zm8.161-5.441v6.801h-1.36v-9.521h1.36v1.36h1.361v1.36h-1.361Zm2.721 1.36h-1.36v-1.36h1.36v1.36Zm1.36 1.361h-1.36v-1.361h1.36v1.361Zm1.36-1.361h-1.36v-1.36h1.36v1.36Zm1.36-1.36h-1.36v-1.36h1.36v-1.36h1.361v9.521h-1.361v-6.801Z"/><path fill="#fff" stroke="#ABB0BF" stroke-miterlimit="10" stroke-width="1.353" d="M243.716 153.548H197.8v45.917h91.833v-45.917h-45.917Z"/><path fill="#A1A5B2" d="M216.505 174.275v6.801h-1.36v-9.521h1.36v1.36h1.36v1.36h-1.36Zm2.72 1.36h-1.36v-1.36h1.36v1.36Zm1.36 1.361h-1.36v-1.361h1.36v1.361Zm1.361-1.361h-1.361v-1.36h1.361v1.36Zm1.36-1.36h-1.36v-1.36h1.36v-1.36h1.36v9.521h-1.36v-6.801Zm6.808-2.72v1.36h-1.36v6.801h1.36v1.36h-4.08v-1.36h1.36v-6.801h-1.36v-1.36h4.08Zm2.721 1.36v8.161h-1.36v-9.521h2.72v1.36h-1.36Zm2.72 2.72h-1.36v-2.72h1.36v2.72Zm1.361 2.721h-1.361v-2.721h1.361v2.721Zm1.36 0v-6.801h1.36v9.521h-1.36v-1.36h-1.36v-1.36h1.36Zm5.441-5.441h-2.721v-1.36h6.801v1.36h-2.72v8.161h-1.36v-8.161Zm6.8 6.801h5.441v1.36h-6.801v-9.521h6.801v1.36h-5.441v2.72h4.081v1.361h-4.081v2.72Zm12.242-8.161v1.36h-4.08v2.72h4.08v1.361h-1.36v1.36h-1.36v-1.36h-1.36v4.08h-1.361v-9.521h5.441Zm0 8.161h-1.36v-1.36h1.36v1.36Zm1.36-4.081h-1.36v-2.72h1.36v2.72Zm0 5.441h-1.36v-1.36h1.36v1.36Zm2.722-5.441h-1.361v-2.72h1.361v2.72Zm0 4.081h-1.361v-1.36h1.361v1.36Zm4.088-6.801h-4.081v-1.36h4.081v1.36Zm0 4.081h-4.081v-1.361h4.081v1.361Zm0 4.08h-4.081v-1.36h4.081v1.36Zm1.36-6.801h-1.36v-1.36h1.36v1.36Zm0 5.441h-1.36v-2.72h1.36v2.72Z"/><path fill="#ABB0BF" d="M94.948 26.392h2.72v1.36h-6.8v-1.36h2.72V19.59h-2.72v-1.36h4.08v8.16Zm5.441 0h-1.36V19.59h1.36v6.8Zm4.08-6.809h-4.08v-1.36h4.08v1.36Zm0 8.169h-4.08v-1.36h4.08v1.36Zm-1.36-4.08h-1.36V22.31h1.36v1.36Zm2.728 2.72h-1.361V19.59h1.361v6.8Z"/><path fill="#272B38" d="M243.716 61.722H197.8v45.91h91.833v-45.91h-45.917Zm-137.75 0H60.05v45.909h91.833v-45.91h-45.917Z"/><path fill="#fff" d="M219.225 82.464v6.8h-1.36v-9.52h1.36v1.36h1.361v1.36h-1.361Zm2.721 1.36h-1.36v-1.36h1.36v1.36Zm1.36 1.36h-1.36v-1.36h1.36v1.36Zm1.36-1.36h-1.36v-1.36h1.36v1.36Zm1.361-1.36h-1.361v-1.36h1.361v-1.36h1.36v9.52h-1.36v-6.8Zm4.087 4.08v2.72h-1.36v-5.44h1.36v1.36h4.081v-1.36h1.36v5.44h-1.36v-2.72h-4.081Zm1.36-2.72h-1.36v-2.72h1.36v2.72Zm1.361-2.72h-1.361v-1.36h1.361v1.36Zm1.36 2.72h-1.36v-2.72h1.36v2.72Zm8.161-4.081v1.36h-4.081v2.72h4.081v1.361h-1.36v1.36h-1.361v-1.36h-1.36v4.08h-1.36v-9.52h5.441Zm0 8.162h-1.36v-1.36h1.36v1.36Zm1.36-4.081h-1.36v-2.72h1.36v2.72Zm0 5.44h-1.36v-1.36h1.36v1.36Zm2.721-4.08v4.08h-1.36v-9.52h1.36v4.08h1.36v1.36h-1.36Zm2.72-1.36h-1.36v-1.36h1.36v1.36Zm0 2.72h-1.36v-1.36h1.36v1.36Zm1.361-4.08h-1.361v-1.36h1.361v1.36Zm0 5.44h-1.361v-1.36h1.361v1.36Zm1.36-6.8h-1.36v-1.36h1.36v1.36Zm0 8.16h-1.36v-1.36h1.36v1.36Zm2.72-1.36h5.441v1.36h-6.801v-9.52h6.801v1.36h-5.441v2.72h4.081v1.36h-4.081v2.72Zm9.521-6.801h-2.72v-1.36h6.801v1.36h-2.72v8.162h-1.361v-8.162Z"/><path fill="#fff" stroke="#ABB0BF" stroke-miterlimit="10" stroke-width="1.353" d="M381.466 61.722H335.55v45.909h91.833v-45.91h-45.917Z"/><path fill="#fff" d="M82.835 83.824h-1.36v-2.72h1.36v2.72Zm0 4.08h-1.36v-1.36h1.36v1.36Zm4.08-6.8h-4.08v-1.36h4.08v1.36Zm0 4.08h-4.08v-1.36h4.08v1.36Zm0 4.088h-4.08v-1.36h4.08v1.36Zm1.368-6.808h-1.36v-1.36h1.36v1.36Zm0 5.44h-1.36v-2.72h1.36v2.72Zm2.721-1.36v2.72h-1.36v-5.44h1.36v1.36h4.08v-1.36h1.36v5.44h-1.36v-2.72h-4.08Zm1.36-2.72h-1.36v-2.72h1.36v2.72Zm1.36-2.72h-1.36v-1.36h1.36v1.36Zm1.36 2.72h-1.36v-2.72h1.36v2.72Zm4.081 0h-1.36v-4.08h1.36v4.08Zm1.361 2.72h-1.36v-2.72h1.36v2.72Zm1.36 2.728h-1.36v-2.72h1.36v2.72Zm1.36-2.728h-1.36v-2.72h1.36v2.72Zm1.36-2.72h-1.36v-4.08h1.36v4.08Zm2.721 4.08h5.44v1.36h-6.801v-9.52h6.801v1.36h-5.44v2.72h4.08v1.36h-4.08v2.72Zm12.241-8.161v1.36h-4.08v2.72h4.08v1.361h-1.36v1.36h-1.36v-1.36h-1.36v4.08h-1.361v-9.52h5.441Zm0 8.162h-1.36v-1.36h1.36v1.36Zm1.361-4.081h-1.361v-2.72h1.361v2.72Zm0 5.448h-1.361v-1.36h1.361v1.36Zm2.721-5.448h-1.36v-2.72h1.36v2.72Zm0 4.08h-1.36v-1.36h1.36v1.36Zm4.088-6.8h-4.081v-1.36h4.081v1.36Zm0 4.08h-4.081v-1.36h4.081v1.36Zm0 4.088h-4.081v-1.36h4.081v1.36Zm1.36-6.808h-1.36v-1.36h1.36v1.36Zm0 5.44h-1.36v-2.72h1.36v2.72Z"/><path fill="#fff" stroke="#ABB0BF" stroke-miterlimit="10" stroke-width="1.353" d="M-31.784 61.722h-45.917v45.91h91.834v-45.91h-45.917Z"/><path fill="#A1A5B2" d="M4.95 79.743v1.36H.869v2.72h4.08v1.361H3.59v1.36H2.23v-1.36H.87v4.08H-.49v-9.52h5.44Zm0 8.162H3.59v-1.36h1.36v1.36Zm1.36-4.081H4.95v-2.72h1.36v2.72Zm0 5.44H4.95v-1.36h1.36v1.36Z"/><path fill="#ABB0BF" d="M-32.46 30.43v30.607h1.36V59.67h-.007V31.781H243.04v29.932h1.353V30.43H-32.46Z"/><path fill="#272B38" d="M177.447 81.787h-5.441v-1.36h6.801v4.08h-1.36v-2.72Zm-4.088 8.161h-1.36v-1.36h1.36v1.36Zm1.367-1.36h-1.36v-1.36h1.36v1.36Zm1.36-1.36h-1.36v-1.36h1.36v1.36Zm1.361-1.36h-1.361v-1.36h1.361v1.36ZM197.8 77.7v-1.354h-45.247v1.36h1.36V77.7H197.8Zm-42.527-2.714h-1.36v1.36h1.36v-1.36Zm1.36-1.36h-1.361v1.36h1.361v-1.36Zm1.361-1.36h-1.361v1.36h1.361v-1.36Zm-2.721 5.441h-1.36v1.36h1.36v-1.36Zm1.36 1.36h-1.361v1.36h1.361v-1.36Zm1.361 1.36h-1.361v1.36h1.361v-1.36Z"/><path fill="#A1A5B2" d="M254.001 134.037h-4.081v1.36h4.081v-1.36Zm1.36-2.721h-1.36v2.721h1.36v-2.721Zm-5.441 1.361h-1.36v1.36h1.36v-1.36Zm0-5.448h-1.36v1.36h1.36v-1.36Zm4.081 2.72h-2.721v1.36h2.721v-1.36Zm1.36-2.72h-1.36v2.72h1.36v-2.72Zm-1.36-1.36h-4.081v1.36h4.081v-1.36Zm-8.24-16.208H244.4v1.36h1.361v-1.36Zm1.359 1.36h-1.36v1.36h1.36v-1.36Zm1.36 1.368h-1.36v1.36h1.36v-1.36Zm-5.44-4.089v45.248h1.353v-43.887h.007V108.3h-1.36Zm-.007 1.361h-1.36v1.36h1.36v-1.36Zm-1.361 1.36h-1.36v1.36h1.36v-1.36Zm-1.36 1.368h-1.36v1.36h1.36v-1.36Z"/><path fill="#ABB0BF" d="M314.463 70.876v2.72h-1.36v-2.72h-4.081v-2.72h1.36v1.36h2.721v-2.72h-1.361v-1.36h1.361v-1.36h1.36v5.44h1.36v1.36h-1.36Zm-2.721-2.72h-1.36v-1.36h1.36v1.36Zm-.828 33.358v2.721h-1.36v-6.802h1.36v2.721h4.081v1.36h-4.081Zm4.081-4.08h-4.081v-1.36h4.081v1.36Zm0 8.161h-4.081v-1.36h4.081v1.36Zm1.36-6.801h-1.36v-1.36h1.36v1.36Zm0 5.441h-1.36v-2.721h1.36v2.721Zm19.195-11.228v-1.353h-43.858v-.007h-1.368v1.36h45.226Zm-2.023-15.3h-1.36v1.36h1.36v-1.36Zm-1.36 1.359h-1.36v1.36h1.36v-1.36Zm-1.36 1.361h-1.36v1.36h1.36v-1.36Zm2.721-2.721h1.36v-1.36h-45.255V77.7h43.895v.007Zm-.001-2.72h-1.36v1.36h1.36v-1.36Zm-1.36-1.36h-1.36v1.36h1.36v-1.36Zm-1.36-1.36h-1.36v1.36h1.36v-1.36Zm-37.755 18.021h-1.36v1.36h1.36v-1.36Zm1.36-1.361h-1.36v1.36h1.36v-1.36Zm1.36-1.36h-1.36v1.36h1.36v-1.36Zm-2.72 5.441h-1.36v1.36h1.36v-1.36Zm1.36 1.36h-1.36v1.36h1.36v-1.36Zm1.36 1.361h-1.36v1.36h1.36v-1.36Zm-119.657 100.34h2.72v1.36h-6.801v-1.36h2.721v-6.802h-2.721v-1.36h4.081v8.162Zm-3.181-37.561h-1.36v-1.361h1.36v1.361Zm1.368 5.44h4.081v1.361h-6.802v-1.361h1.361v-1.36h1.36v1.36Zm2.72-6.801h-4.08v-1.36h4.08v1.36Zm-1.36 5.441h-1.36v-1.36h1.36v1.36Zm1.36-1.36h-1.36v-1.36h1.36v1.36Zm1.361-1.36h-1.361v-2.721h1.361v2.721Zm-24.391 8.313h-1.361v1.353H197.8v-1.353h-43.808Zm1.36-1.368h-1.36v1.36h1.36v-1.36Zm1.36-1.36h-1.36v1.36h1.36v-1.36Zm1.36-1.361h-1.36v1.361h1.36v-1.361Z"/><path fill="#ABB0BF" d="M155.352 169.532h-1.36v1.36h1.36v-1.36Zm1.36 1.368h-1.36v1.36h1.36v-1.36Zm1.36 1.36h-1.36v1.36h1.36v-1.36Zm37.619 12.58h-1.36v1.361h1.36v-1.361Zm-1.36 1.361h-1.36v1.36h1.36v-1.36Zm-1.36 1.36h-1.361v1.36h1.361v-1.36Zm2.72-4.081h-43.808v1.36h45.168v-1.36h-1.36Zm0-1.36h-1.36v1.36h1.36v-1.36Zm-1.36-1.36h-1.36v1.36h1.36v-1.36Zm-1.36-1.361h-1.361v1.361h1.361v-1.361Z"/><path fill="#272B38" d="M128.543 129.949h-1.36v-2.72h1.36v2.72Zm0 4.088h-1.36v-2.72h1.36v2.72Zm4.081-6.808h-4.081v-1.36h4.081v1.36Zm0 4.088h-4.081v-1.36h4.081v1.36Zm0 4.08h-4.081v-1.36h4.081v1.36Zm1.36-5.448h-1.36v-2.72h1.36v2.72Zm0 4.088h-1.36v-2.72h1.36v2.72Zm-36.574-4.088h-1.361v-2.72h1.36v2.72Zm0 4.088h-1.361v-1.36h1.36v1.36Zm4.08-6.808h-4.08v-1.36h4.08v1.36Zm0 4.088h-4.08v-1.36h4.08v-2.721h1.36v6.801h-1.36v-2.72Zm0 4.08h-4.08v-1.36h4.08v1.36Zm-8.787-25.736h-1.36v1.36h1.36v-1.36Zm1.36 1.36h-1.36v1.36h1.36v-1.36Zm1.36 1.36h-1.36v1.361h1.36v-1.361Zm-5.441-4.08v45.247h1.36v-45.247h-1.36Zm0 1.36h-1.36v1.36h1.36v-1.36Zm-1.361 1.36h-1.36v1.36h1.36v-1.36Zm-1.359 1.36h-1.36v1.361h1.36v-1.361Zm34.697-4.081h-1.368v42.297h-1.36v1.36h1.36v1.36h1.36v-1.36h1.361v-1.36h-1.353V108.3Zm-2.729 40.937h-1.36v1.36h1.36v-1.36Zm-1.36-1.36h-1.36v1.36h1.36v-1.36Z"/><path fill="#272B38" d="M124.672 149.237h-1.36v1.361h1.36v-1.361Z"/><path fill="#272B38" d="M126.032 147.877h-1.361v1.36h1.361v-1.36Z"/><path fill="#ABB0BF" d="M3.1 164.236h2.72v1.36h-6.8v-1.36h2.72v-6.802H-.98v-1.36H3.1v8.162Zm8.161 0h2.72v1.36h-6.8v-1.36H9.9v-6.802H7.18v-1.36h4.08v8.162ZM3.1 196.356h2.72v1.36h-6.8v-1.36h2.72v-6.801H-.98v-1.361H3.1v8.162Zm5.44-5.449H7.18v-1.36h1.36v1.36Zm1.361 5.449h4.08v1.36h-6.8v-1.36h1.36v-1.361H9.9v1.361Zm2.72-6.809h-4.08v-1.36h4.08v1.36Zm-1.36 5.448h-1.36v-1.36h1.36v1.36Zm1.36-1.367h-1.36v-1.36h1.36v1.36Zm1.36-1.36h-1.36v-2.721h1.36v2.721Z"/><path fill="#ABB0BF" d="M-46.407 109.654v-1.361h-1.36v76.547H59.006v-1.353H-46.407v-73.833ZM57.94 169.54h-1.36v1.36h1.36v-1.36Zm-1.36 1.36h-1.36v1.36h1.36v-1.36Z"/><path fill="#ABB0BF" d="M55.221 172.26h-1.36v1.36h1.36v-1.36Zm2.72-4.08h-89.048v-60.57h-1.353v61.923h90.401v.007h1.36v-1.36h-1.36Z"/><path fill="#ABB0BF" d="M57.94 166.819h-1.36v1.361h1.36v-1.361Zm-1.36-1.36h-1.36v1.36h1.36v-1.36Zm-1.359-1.368h-1.36v1.361h1.36v-1.361Z"/></g><defs><clipPath id="a"><path fill="#fff" d="M0 12C0 5.373 5.373 0 12 0h326c6.627 0 12 5.373 12 12v206c0 6.627-5.373 12-12 12H12c-6.627 0-12-5.373-12-12V12Z"/></clipPath></defs></svg>