<svg width="91" height="90" viewBox="0 0 91 90" fill="none" xmlns="http://www.w3.org/2000/svg">
<g clip-path="url(#clip0_10001_9810)">
<path d="M45.6665 90C70.5193 90 90.6665 69.8528 90.6665 45C90.6665 20.1472 70.5193 0 45.6665 0C20.8137 0 0.666504 20.1472 0.666504 45C0.666504 69.8528 20.8137 90 45.6665 90Z" fill="#092F62"/>
<path d="M21.6665 65.5065C27.9965 62.9565 36.4165 61.4065 45.6665 61.4065C54.9165 61.4065 63.3365 62.9565 69.6665 65.5065M52.5165 32.1465V61.4365M33.8565 52.7965V62.2765M52.5165 37.6665L56.5765 32.7565M52.5165 41.0065L48.2265 36.8365M43.0865 28.9765C36.0665 33.6065 38.3365 47.7665 52.5165 43.1065C53.8465 44.7365 57.5465 46.7965 61.2165 45.2065C65.4265 43.3865 64.5165 38.0465 64.5165 38.0465C64.5165 38.0465 68.2365 34.1265 66.0465 29.5765C63.1365 23.5365 56.6565 25.3265 56.6565 25.3265C56.6565 25.3265 53.8565 21.7165 49.1665 22.6465C42.9165 23.8865 43.0865 28.9765 43.0865 28.9765ZM33.6665 52.9265C33.6665 52.9265 30.1065 54.4565 26.8965 51.2865C24.1265 48.5565 24.5765 45.0865 24.5765 45.0865C24.5765 45.0865 28.4665 44.7665 31.0865 46.7865C34.1065 49.1165 33.6665 52.9365 33.6665 52.9365V52.9265ZM34.0365 54.5665C34.0365 54.5665 36.8965 57.4065 41.2165 55.6065C44.9465 54.0465 45.8365 50.5265 45.8365 50.5265C45.8365 50.5265 42.1965 48.7165 38.8865 49.6465C35.0765 50.7265 34.0265 54.5665 34.0265 54.5665H34.0365Z" stroke="white" stroke-width="1.7" stroke-miterlimit="10"/>
</g>
<defs>
<clipPath id="clip0_10001_9810">
<rect width="90" height="90" fill="white" transform="translate(0.666504)"/>
</clipPath>
</defs>
</svg>
