<svg width="91" height="90" viewBox="0 0 91 90" fill="none" xmlns="http://www.w3.org/2000/svg">
<g clip-path="url(#clip0_1751_2142)">
<path d="M45.333 90C70.1858 90 90.333 69.8528 90.333 45C90.333 20.1472 70.1858 0 45.333 0C20.4802 0 0.333008 20.1472 0.333008 45C0.333008 69.8528 20.4802 90 45.333 90Z" fill="#092F62"/>
<path d="M50.8959 26.8244L53.2957 24.4246M50.8959 26.8244L46.9704 30.7499C46.2859 31.4344 46.2859 32.5395 46.9704 33.2239L51.1598 37.4133C51.8443 38.0978 52.9494 38.0978 53.6338 37.4133L63.8847 27.1625C64.5691 26.478 64.5691 25.373 63.8847 24.6885L59.6953 20.4991C59.0108 19.8146 57.9057 19.8146 57.2212 20.4991L53.2957 24.4246M50.8959 26.8244L50.1454 26.0739C49.4857 25.4142 49.4857 24.3421 50.1454 23.6741C50.8052 23.0061 51.8773 23.0144 52.5453 23.6741L53.2957 24.4246M57.5593 33.4961L67.0102 42.947C67.67 43.6067 68.742 43.6067 69.41 42.947C70.078 42.2872 70.0698 41.2151 69.41 40.5471L59.9592 31.0963" stroke="white" stroke-width="1.5" stroke-miterlimit="10"/>
<path d="M42.0678 25.7724V29.2517M34.1904 33.5911H37.6697M38.9012 30.3854L37.6697 29.154L36.4383 27.9225" stroke="white" stroke-width="1.5" stroke-miterlimit="10"/>
<g clip-path="url(#clip1_1751_2142)">
<circle cx="37.1823" cy="53.6945" r="15.695" stroke="white" stroke-width="1.5"/>
<path fill-rule="evenodd" clip-rule="evenodd" d="M37.3875 44.4442H39.4431H41.4987V46.4998H39.4431H37.3875H35.3319H33.2771V48.5554H31.2214V46.4998H33.2762V44.4442H35.3319H37.3875ZM41.4987 46.4998L43.5544 46.4998V48.5555H41.4987V46.4998ZM29.165 50.6111H27.1094V52.6667H29.165V54.7223H27.1094V56.778H29.165V58.8336H31.2206V56.778H33.2763H35.3319H37.3875H39.4431V54.7223H37.3875H35.3319H33.2763H31.2206V52.6667H33.2763H35.3319H37.3875H39.4431H41.4988V50.6111H39.4431H37.3875H35.3319H33.2763H31.2206V48.5555H29.165V50.6111ZM43.5544 48.5555H45.61V50.6111H43.5544V48.5555ZM45.61 56.778H43.5544V58.8336H41.4987V60.8892H39.4431H37.3875H35.3319H33.2762V62.9448H35.3319H37.3875H39.4431H41.4987V60.8892H43.5544L43.5544 58.8336H45.61V56.778ZM31.2214 58.8335H33.2771V60.8892H31.2214V58.8335Z" fill="white"/>
</g>
</g>
<defs>
<clipPath id="clip0_1751_2142">
<rect width="90" height="90" fill="white" transform="translate(0.333008)"/>
</clipPath>
<clipPath id="clip1_1751_2142">
<rect width="32.89" height="32.89" fill="white" transform="translate(20.7373 37.2495)"/>
</clipPath>
</defs>
</svg>
