<svg width="90" height="90" viewBox="0 0 90 90" fill="none" xmlns="http://www.w3.org/2000/svg">
<g clip-path="url(#clip0_1751_101)">
<path d="M45 90C69.8528 90 90 69.8528 90 45C90 20.1472 69.8528 0 45 0C20.1472 0 0 20.1472 0 45C0 69.8528 20.1472 90 45 90Z" fill="#092F62"/>
<path d="M58.9933 35.4216V24.3684C58.9933 23.3425 58.6107 22.3585 57.9296 21.633C57.2485 20.9076 56.3248 20.5 55.3617 20.5H34.6374C33.6743 20.5 32.7506 20.9076 32.0695 21.633C31.3885 22.3585 31.0059 23.3425 31.0059 24.3684V65.6316C31.0059 66.6575 31.3885 67.6415 32.0695 68.367C32.7506 69.0924 33.6743 69.5 34.6374 69.5H55.3617C56.3248 69.5 57.2485 69.0924 57.9296 68.367C58.6107 67.6415 58.9933 66.6575 58.9933 65.6316V54.6947" stroke="white" stroke-width="1.7"/>
<path fill-rule="evenodd" clip-rule="evenodd" d="M41.6377 24.7519C41.6377 24.5136 41.7324 24.2851 41.9008 24.1166C42.0693 23.9481 42.2979 23.8535 42.5362 23.8535H47.4613C47.6996 23.8535 47.9282 23.9481 48.0966 24.1166C48.2651 24.2851 48.3598 24.5136 48.3598 24.7519C48.3598 24.9902 48.2651 25.2187 48.0966 25.3872C47.9282 25.5557 47.6996 25.6504 47.4613 25.6504H42.5362C42.2979 25.6504 42.0693 25.5557 41.9008 25.3872C41.7324 25.2187 41.6377 24.9902 41.6377 24.7519Z" fill="white"/>
<path d="M62.9971 39.3586C64.4075 40.955 65.1817 43.0135 65.1817 45.144C65.1817 47.1485 64.4915 49.099 63.2312 50.6594M59.6543 41.7532C60.5845 42.6354 61.1127 43.8597 61.1127 45.144C61.1127 46.3083 60.6806 47.4246 59.8944 48.2888M66.346 37C68.2304 39.2986 69.2567 42.1733 69.2627 45.144C69.2687 47.9887 68.3265 50.7554 66.574 53" stroke="white" stroke-width="1.5" stroke-miterlimit="10" stroke-linecap="square"/>
<circle cx="45.0752" cy="45" r="9.5" stroke="white"/>
<path fill-rule="evenodd" clip-rule="evenodd" d="M45.1695 39.5916H46.3714H47.5733V40.7934H46.3714H45.1695H43.9677H42.7658V39.5916H43.9677H45.1695ZM41.5639 41.9953V40.7934H42.7658V41.9953H41.5639ZM41.5639 48.0047H40.362V46.8028H39.1602V45.6009H40.362V44.3991H39.1602V43.1972H40.362V41.9953H41.5639V43.1972H42.7658H43.9677H45.1695H46.3714H47.5733V44.3991H46.3714H45.1695H43.9677H42.7658H41.5639V45.6009H42.7658H43.9677H45.1695H46.3714V46.8028H45.1695H43.9677H42.7658H41.5639V48.0047ZM42.7658 49.2066V48.0047H41.5639V49.2066H42.7658ZM47.5733 49.2066H46.3714H45.1695H43.9677H42.7658V50.4084H43.9677H45.1695H46.3714H47.5733V49.2066ZM48.7752 48.0047H47.5733V49.2066H48.7752L48.7752 48.0047ZM48.7752 48.0047H49.977V46.8028H48.7752V48.0047ZM48.7752 41.9953H47.5733V40.7934H48.7752V41.9953ZM48.7752 41.9953H49.977V43.1972H48.7752L48.7752 41.9953Z" fill="white"/>
</g>
<defs>
<clipPath id="clip0_1751_101">
<rect width="90" height="90" fill="white"/>
</clipPath>
</defs>
</svg>
