<svg width="20" height="20" viewBox="0 0 20 20" fill="none" xmlns="http://www.w3.org/2000/svg">
<path fill-rule="evenodd" clip-rule="evenodd" d="M12.7124 5.81416L5.71423 1.75567C5.44357 1.59356 5.12768 1.5 4.78965 1.5C4.16141 1.5 3.60141 1.84285 3.28148 2.34262L3.37236 2.43348L9.73312 8.79287L12.7124 5.81416ZM3 3.47527V15.5247L9.02594 9.49991L3 3.47527ZM3.2815 16.6573C3.60148 17.1571 4.16154 17.5 4.78965 17.5C5.1204 17.5 5.43094 17.4106 5.69725 17.2536L5.7184 17.2412L12.7244 13.1976L9.73312 10.2069L3.37236 16.5665L3.2815 16.6573ZM13.6211 12.6801L16.3735 11.0915C16.9348 10.7885 17.3158 10.1968 17.3158 9.51446C17.3158 8.83702 16.9399 8.24824 16.3842 7.94423L16.3778 7.93988L13.6075 6.33328L10.4403 9.4999L13.6211 12.6801Z" fill="#272B38"/>
</svg>
