<svg width="20" height="20" viewBox="0 0 20 20" fill="none" xmlns="http://www.w3.org/2000/svg">
<g clip-path="url(#clip0_10001_15442)">
<path d="M14.3894 9.07249C14.3983 8.38256 14.5816 7.70609 14.9221 7.10602C15.2627 6.50594 15.7495 6.00177 16.3373 5.6404C15.9639 5.10711 15.4713 4.66824 14.8986 4.35863C14.3259 4.04903 13.6889 3.87722 13.0382 3.85686C11.6502 3.71117 10.3045 4.68746 9.5972 4.68746C8.87618 4.68746 7.78713 3.87133 6.61441 3.89546C5.85586 3.91997 5.1166 4.14055 4.46865 4.53571C3.82069 4.93087 3.28615 5.48714 2.9171 6.15031C1.31846 8.91811 2.5109 12.9859 4.04227 15.2231C4.80844 16.3187 5.70388 17.5424 6.87554 17.499C8.02209 17.4515 8.4503 16.7679 9.83427 16.7679C11.2054 16.7679 11.6072 17.499 12.8026 17.4714C14.0329 17.4514 14.808 16.371 15.5473 15.2651C16.0978 14.4845 16.5214 13.6218 16.8024 12.7088C16.0877 12.4065 15.4777 11.9005 15.0486 11.2539C14.6195 10.6072 14.3902 9.84856 14.3894 9.07249Z" fill="#272B38"/>
<path d="M12.1316 2.38534C12.8024 1.58006 13.1329 0.545014 13.0529 -0.5C12.028 -0.39236 11.0813 0.097449 10.4015 0.871832C10.0691 1.25014 9.81448 1.69025 9.65226 2.16701C9.49004 2.64376 9.42338 3.14782 9.45609 3.65036C9.96869 3.65563 10.4758 3.54453 10.9393 3.32541C11.4027 3.10629 11.8104 2.78486 12.1316 2.38534Z" fill="#272B38"/>
</g>
<defs>
<clipPath id="clip0_10001_15442">
<rect width="20" height="20" fill="white"/>
</clipPath>
</defs>
</svg>
