<svg width="31" height="30" viewBox="0 0 31 30" fill="none" xmlns="http://www.w3.org/2000/svg">
<path d="M15.0728 29.9824H15.0068C6.7565 29.9824 0.0441895 23.2701 0.0441895 15.0198V14.9538C0.0441895 6.70351 6.7565 -0.00878906 15.0068 -0.00878906H15.0728C23.3231 -0.00878906 30.0354 6.70351 30.0354 14.9538V15.0198C30.0354 23.2701 23.3231 29.9824 15.0728 29.9824ZM15.0068 1.00638C7.31586 1.00638 1.05936 7.26287 1.05936 14.9538V15.0198C1.05936 22.7107 7.31586 28.9672 15.0068 28.9672H15.0728C22.7637 28.9672 29.0202 22.7107 29.0202 15.0198V14.9538C29.0202 7.26287 22.7637 1.00638 15.0728 1.00638H15.0068Z" fill="white"/>
<path d="M6.42859 7.05811L13.1104 15.9916L6.38696 23.2552H7.90059L13.7876 16.8961L18.5436 23.2552H23.6936L16.6361 13.8192L22.8946 7.05811H21.381L15.96 12.9146L11.5796 7.05811H6.42959H6.42859ZM8.65383 8.17279H11.0192L21.4663 22.1405H19.101L8.65383 8.17279Z" fill="white"/>
</svg>
