<svg width="31" height="31" viewBox="0 0 31 31" fill="none" xmlns="http://www.w3.org/2000/svg">
<path d="M15.0552 30.9824H14.9892C6.73892 30.9824 0.0266113 24.2682 0.0266113 16.0154V15.9494C0.0266113 7.69669 6.73892 0.982422 14.9892 0.982422H15.0552C23.3055 0.982422 30.0178 7.69669 30.0178 15.9494V16.0154C30.0178 24.2682 23.3055 30.9824 15.0552 30.9824ZM14.9892 1.99789C7.29828 1.99789 1.04178 8.25622 1.04178 15.9494V16.0154C1.04178 23.7086 7.29828 29.967 14.9892 29.967H15.0552C22.7461 29.967 29.0026 23.7086 29.0026 16.0154V15.9494C29.0026 8.25622 22.7461 1.99789 15.0552 1.99789H14.9892Z" fill="white"/>
<path fill-rule="evenodd" clip-rule="evenodd" d="M12.8966 13.5752H15.8678V15.0552C16.2958 14.204 17.3934 13.4392 19.0422 13.4392C22.203 13.4392 22.9534 15.1336 22.9534 18.2424V24H19.7534V18.9504C19.7534 17.18 19.3254 16.1816 18.2358 16.1816C16.7246 16.1816 16.0966 17.2576 16.0966 18.9496V24H12.8966V13.5752ZM7.40937 23.864H10.6094V13.4392H7.40937V23.864ZM11.0678 10.04C11.0679 10.3082 11.0147 10.5738 10.9113 10.8213C10.8079 11.0688 10.6563 11.2932 10.4654 11.4816C10.2739 11.6721 10.0467 11.823 9.79691 11.9257C9.54708 12.0283 9.27947 12.0808 9.00937 12.08C8.46505 12.0788 7.9429 11.8642 7.55497 11.4824C7.36481 11.2933 7.21379 11.0686 7.11057 10.8211C7.00734 10.5736 6.95392 10.3082 6.95337 10.04C6.95337 9.4984 7.16937 8.98 7.55577 8.5976C7.94273 8.21431 8.46551 7.9995 9.01017 8C9.55577 8 10.079 8.2152 10.4654 8.5976C10.8518 8.98 11.0678 9.4984 11.0678 10.04Z" fill="white"/>
</svg>
