<svg width="30" height="30" viewBox="0 0 30 30" fill="none" xmlns="http://www.w3.org/2000/svg">
<path d="M15.0044 0C13.0351 0 11.0852 0.387872 9.26581 1.14147C7.44647 1.89507 5.79336 2.99964 4.4009 4.39211C1.58868 7.20432 0.00878906 11.0185 0.00878906 14.9956C0.00878906 21.6236 4.31252 27.247 10.2658 29.2414C11.0156 29.3614 11.2555 28.8965 11.2555 28.4916V25.9574C7.1017 26.8571 6.21696 23.948 6.21696 23.948C5.52717 22.2085 4.55245 21.7436 4.55245 21.7436C3.18785 20.8139 4.65742 20.8439 4.65742 20.8439C6.15698 20.9488 6.95175 22.3884 6.95175 22.3884C8.25636 24.6677 10.4607 23.9929 11.3155 23.633C11.4504 22.6583 11.8403 21.9985 12.2602 21.6236C8.93116 21.2487 5.43719 19.9591 5.43719 14.2458C5.43719 12.5813 6.00702 11.2467 6.98174 10.182C6.83178 9.80711 6.30694 8.24757 7.13169 6.22317C7.13169 6.22317 8.39132 5.81829 11.2555 7.75272C12.4401 7.42282 13.7298 7.25786 15.0044 7.25786C16.279 7.25786 17.5686 7.42282 18.7533 7.75272C21.6174 5.81829 22.8771 6.22317 22.8771 6.22317C23.7018 8.24757 23.177 9.80711 23.027 10.182C24.0017 11.2467 24.5716 12.5813 24.5716 14.2458C24.5716 19.9741 21.0626 21.2338 17.7186 21.6086C18.2584 22.0735 18.7533 22.9882 18.7533 24.3828V28.4916C18.7533 28.8965 18.9932 29.3764 19.758 29.2414C25.7112 27.232 30 21.6236 30 14.9956C30 13.0263 29.6121 11.0764 28.8585 9.25702C28.1049 7.43768 27.0003 5.78457 25.6079 4.39211C24.2154 2.99964 22.5623 1.89507 20.7429 1.14147C18.9236 0.387872 16.9736 0 15.0044 0Z" fill="white"/>
</svg>
