<svg width="31" height="31" viewBox="0 0 31 31" fill="none" xmlns="http://www.w3.org/2000/svg">
<path d="M16.002 30.4824H15.936C7.6857 30.4824 0.973389 23.7681 0.973389 15.5154V15.4494C0.973389 7.19663 7.6857 0.482361 15.936 0.482361H16.002C24.2523 0.482361 30.9646 7.19663 30.9646 15.4494V15.5154C30.9646 23.7681 24.2523 30.4824 16.002 30.4824ZM15.936 1.49783C8.24506 1.49783 1.98856 7.75616 1.98856 15.4494V15.5154C1.98856 23.2086 8.24506 29.4669 15.936 29.4669H16.002C23.6929 29.4669 29.9494 23.2086 29.9494 15.5154V15.4494C29.9494 7.75616 23.6929 1.49783 16.002 1.49783H15.936Z" fill="#092F62"/>
<path d="M22.6402 11.3971H9.57349V13.162H22.6402V11.3971ZM9.57349 14.7608V22.9667L16.1068 19.3024L22.6402 22.9667V14.7608H9.57349ZM22.6402 8.03333H9.57349V9.79733H22.6402V8.03333Z" fill="#092F62"/>
</svg>
