<svg width="30" height="31" viewBox="0 0 30 31" fill="none" xmlns="http://www.w3.org/2000/svg">
<path d="M15.0286 30.4823H14.9626C6.71231 30.4823 0 23.77 0 15.5197V15.4537C0 7.20345 6.71231 0.49115 14.9626 0.49115H15.0286C23.2789 0.49115 29.9912 7.20345 29.9912 15.4537V15.5197C29.9912 23.77 23.2789 30.4823 15.0286 30.4823ZM14.9626 1.50632C7.27167 1.50632 1.01517 7.7628 1.01517 15.4537V15.5197C1.01517 23.2107 7.27167 29.4672 14.9626 29.4672H15.0286C22.7195 29.4672 28.976 23.2107 28.976 15.5197V15.4537C28.976 7.7628 22.7195 1.50632 15.0286 1.50632H14.9626Z" fill="#092F62"/>
<path d="M6.3844 7.55826L13.0662 16.4918L6.34277 23.7553H7.8564L13.7434 17.3963L18.4994 23.7553H23.6494L16.5919 14.3193L22.8505 7.55826H21.3368L15.9158 13.4148L11.5354 7.55826H6.3854H6.3844ZM8.60964 8.67294H10.975L21.4221 22.6407H19.0568L8.60964 8.67294Z" fill="#092F62"/>
</svg>
