<svg width="31" height="31" viewBox="0 0 31 31" fill="none" xmlns="http://www.w3.org/2000/svg">
<path d="M16.011 30.4824H15.945C7.69473 30.4824 0.982422 23.7681 0.982422 15.5154V15.4494C0.982422 7.19663 7.69473 0.482361 15.945 0.482361H16.011C24.2613 0.482361 30.9736 7.19663 30.9736 15.4494V15.5154C30.9736 23.7681 24.2613 30.4824 16.011 30.4824ZM15.945 1.49783C8.25409 1.49783 1.99759 7.75616 1.99759 15.4494V15.5154C1.99759 23.2086 8.25409 29.4669 15.945 29.4669H16.011C23.7019 29.4669 29.9584 23.2086 29.9584 15.5154V15.4494C29.9584 7.75616 23.7019 1.49783 16.011 1.49783H15.945Z" fill="#092F62"/>
<path fill-rule="evenodd" clip-rule="evenodd" d="M13.7103 12.9136H16.8795V14.4922C17.3361 13.5843 18.5069 12.7685 20.2656 12.7685C23.6371 12.7685 24.4375 14.5759 24.4375 17.8919V24.0333H21.0242V18.6471C21.0242 16.7587 20.5677 15.6937 19.4054 15.6937C17.7935 15.6937 17.1236 16.8414 17.1236 18.6463V24.0333H13.7103V12.9136ZM7.85725 23.8883H11.2706V12.7685H7.85725V23.8883ZM11.7595 9.14268C11.7597 9.42878 11.7029 9.71205 11.5926 9.97603C11.4823 10.24 11.3206 10.4794 11.117 10.6804C10.9127 10.8836 10.6704 11.0445 10.404 11.1541C10.1375 11.2636 9.85203 11.3195 9.56392 11.3187C8.98331 11.3174 8.42635 11.0885 8.01256 10.6812C7.80972 10.4795 7.64864 10.2398 7.53853 9.97584C7.42842 9.71184 7.37144 9.42872 7.37085 9.14268C7.37085 8.56497 7.60125 8.01201 8.01341 7.60412C8.42617 7.19527 8.9838 6.96614 9.56477 6.96668C10.1467 6.96668 10.7048 7.19622 11.117 7.60412C11.5291 8.01201 11.7595 8.56497 11.7595 9.14268Z" fill="#092F62"/>
</svg>
