<svg width="30" height="31" viewBox="0 0 30 31" fill="none" xmlns="http://www.w3.org/2000/svg">
<path d="M15.0462 30.9824H14.9802C6.72989 30.9824 0.0175781 24.2682 0.0175781 16.0154V15.9494C0.0175781 7.69669 6.72989 0.982422 14.9802 0.982422H15.0462C23.2964 0.982422 30.0088 7.69669 30.0088 15.9494V16.0154C30.0088 24.2682 23.2964 30.9824 15.0462 30.9824ZM14.9802 1.99789C7.28924 1.99789 1.03275 8.25622 1.03275 15.9494V16.0154C1.03275 23.7086 7.28924 29.967 14.9802 29.967H15.0462C22.7371 29.967 28.9936 23.7086 28.9936 16.0154V15.9494C28.9936 8.25622 22.7371 1.99789 15.0462 1.99789H14.9802Z" fill="white"/>
<path d="M21.2676 12.1535H9.01758V13.8081H21.2676V12.1535ZM9.01758 15.307V23L15.1426 19.5648L21.2676 23V15.307H9.01758ZM21.2676 9H9.01758V10.6537H21.2676V9Z" fill="white"/>
</svg>
