<svg width="30" height="31" viewBox="0 0 30 31" fill="none" xmlns="http://www.w3.org/2000/svg">
<path d="M15.0193 30.4912H14.9533C6.70302 30.4912 -0.00927734 23.7789 -0.00927734 15.5286V15.4626C-0.00927734 7.2123 6.70302 0.5 14.9533 0.5H15.0193C23.2696 0.5 29.9819 7.2123 29.9819 15.4626V15.5286C29.9819 23.7789 23.2696 30.4912 15.0193 30.4912ZM14.9533 1.51517C7.26238 1.51517 1.00589 7.77166 1.00589 15.4626V15.5286C1.00589 23.2195 7.26238 29.476 14.9533 29.476H15.0193C22.7102 29.476 28.9667 23.2195 28.9667 15.5286V15.4626C28.9667 7.77166 22.7102 1.51517 15.0193 1.51517H14.9533Z" fill="#092F62"/>
<path d="M5.98628 15.0007C6.02689 14.9804 6.06751 14.9611 6.1071 14.9428C6.79539 14.6241 7.49281 14.3256 8.18922 14.0272C8.22678 14.0272 8.28971 13.9835 8.32524 13.9693C8.37904 13.9459 8.43285 13.9236 8.48666 13.9003C8.5902 13.8556 8.69376 13.8119 8.79629 13.7673C9.00338 13.679 9.20945 13.5906 9.41654 13.5023C9.82972 13.3257 10.2429 13.149 10.6561 12.9714C11.4824 12.6181 12.3098 12.2638 13.1361 11.9105C13.9625 11.5572 14.7898 11.203 15.6162 10.8497C16.4425 10.4964 17.2699 10.1421 18.0963 9.78882C18.9226 9.43554 19.75 9.08125 20.5763 8.72798C20.7601 8.64879 20.959 8.53103 21.156 8.49651C21.3215 8.46707 21.4829 8.41023 21.6493 8.37876C21.9651 8.31887 22.3133 8.2945 22.6158 8.42546C22.7204 8.47114 22.8168 8.53508 22.897 8.61528C23.2807 8.99495 23.2269 9.61828 23.1457 10.1523C22.5803 13.8739 22.0148 17.5965 21.4483 21.3181C21.3712 21.8288 21.2656 22.3891 20.8626 22.712C20.5215 22.985 20.0362 23.0155 19.6149 22.8997C19.1936 22.783 18.8221 22.5383 18.4577 22.2978C16.9461 21.2968 15.4335 20.2958 13.9219 19.2949C13.5625 19.0573 13.1625 18.7467 13.1666 18.3152C13.1686 18.0554 13.3239 17.8239 13.4823 17.6178C14.7959 15.9042 16.6913 14.7266 18.1013 13.0922C18.3003 12.8617 18.4566 12.4455 18.1836 12.3125C18.0211 12.2334 17.8343 12.341 17.6861 12.4435C15.8223 13.7378 13.9594 15.0332 12.0956 16.3275C11.4875 16.7498 10.85 17.1843 10.117 17.2879C9.46123 17.3813 8.80137 17.1985 8.16689 17.0118C7.63494 16.8554 7.10399 16.695 6.57508 16.5295C6.29388 16.4422 6.00354 16.3478 5.78629 16.1499C5.56905 15.9519 5.4442 15.619 5.57515 15.355C5.65738 15.1895 5.81677 15.085 5.98427 14.9997L5.98628 15.0007Z" fill="#092F62"/>
</svg>
