<svg width="31" height="30" viewBox="0 0 31 30" fill="none" xmlns="http://www.w3.org/2000/svg">
<path d="M15.0635 29.9912H14.9975C6.74721 29.9912 0.0349121 23.2789 0.0349121 15.0286V14.9626C0.0349121 6.7123 6.74721 0 14.9975 0H15.0635C23.3138 0 30.0261 6.7123 30.0261 14.9626V15.0286C30.0261 23.2789 23.3138 29.9912 15.0635 29.9912ZM14.9975 1.01517C7.30657 1.01517 1.05008 7.27166 1.05008 14.9626V15.0286C1.05008 22.7195 7.30657 28.976 14.9975 28.976H15.0635C22.7544 28.976 29.0109 22.7195 29.0109 15.0286V14.9626C29.0109 7.27166 22.7544 1.01517 15.0635 1.01517H14.9975Z" fill="white"/>
<path d="M6.03047 14.5005C6.07108 14.4802 6.1117 14.4609 6.15129 14.4426C6.83958 14.1239 7.537 13.8254 8.23341 13.5269C8.27097 13.5269 8.33389 13.4833 8.36943 13.4691C8.42323 13.4457 8.47704 13.4234 8.53085 13.4001C8.63439 13.3554 8.73795 13.3117 8.84048 13.2671C9.04757 13.1787 9.25364 13.0904 9.46073 13.0021C9.87391 12.8255 10.2871 12.6488 10.7003 12.4712C11.5266 12.1179 12.354 11.7636 13.1803 11.4103C14.0067 11.057 14.834 10.7027 15.6604 10.3495C16.4867 9.99618 17.3141 9.64189 18.1404 9.28861C18.9668 8.93533 19.7942 8.58104 20.6205 8.22776C20.8043 8.14858 21.0032 8.03082 21.2002 7.9963C21.3657 7.96686 21.527 7.91002 21.6935 7.87855C22.0093 7.81865 22.3575 7.79429 22.66 7.92524C22.7645 7.97093 22.861 8.03487 22.9412 8.11507C23.3249 8.49474 23.2711 9.11807 23.1899 9.65205C22.6244 13.3737 22.059 17.0963 21.4925 20.8179C21.4154 21.3285 21.3098 21.8889 20.9068 22.2117C20.5657 22.4848 20.0804 22.5153 19.6591 22.3995C19.2378 22.2828 18.8663 22.0381 18.5018 21.7975C16.9903 20.7966 15.4777 19.7956 13.9661 18.7947C13.6067 18.5571 13.2067 18.2465 13.2108 17.815C13.2128 17.5551 13.3681 17.3237 13.5265 17.1176C14.8401 15.404 16.7354 14.2264 18.1455 12.592C18.3445 12.3615 18.5008 11.9453 18.2278 11.8123C18.0653 11.7332 17.8785 11.8407 17.7303 11.9433C15.8665 13.2376 14.0036 14.533 12.1398 15.8273C11.5317 16.2496 10.8942 16.6841 10.1612 16.7877C9.50542 16.8811 8.84556 16.6983 8.21108 16.5115C7.67913 16.3552 7.14818 16.1948 6.61927 16.0293C6.33807 15.942 6.04773 15.8476 5.83048 15.6497C5.61324 15.4517 5.48839 15.1187 5.61934 14.8548C5.70157 14.6893 5.86096 14.5848 6.02846 14.4995L6.03047 14.5005Z" fill="white"/>
</svg>
