<svg width="33" height="31" viewBox="0 0 33 31" fill="none" xmlns="http://www.w3.org/2000/svg">
<path d="M16.9599 0.5C14.8594 0.5 12.7794 0.887872 10.8388 1.64147C8.89812 2.39507 7.13481 3.49964 5.64951 4.89211C2.64981 7.70432 0.9646 11.5185 0.9646 15.4956C0.9646 22.1236 5.55525 27.747 11.9054 29.7414C12.7051 29.8614 12.9611 29.3965 12.9611 28.9916V26.4574C8.53037 27.3571 7.58665 24.448 7.58665 24.448C6.85087 22.7085 5.81117 22.2436 5.81117 22.2436C4.3556 21.3139 5.92314 21.3439 5.92314 21.3439C7.52267 21.4488 8.37042 22.8884 8.37042 22.8884C9.76201 25.1677 12.1133 24.4929 13.0251 24.133C13.169 23.1583 13.5849 22.4985 14.0328 22.1236C10.4818 21.7487 6.7549 20.4591 6.7549 14.7458C6.7549 13.0813 7.36272 11.7467 8.40241 10.682C8.24246 10.3071 7.68262 8.74757 8.56236 6.72317C8.56236 6.72317 9.90597 6.31829 12.9611 8.25272C14.2247 7.92282 15.6003 7.75786 16.9599 7.75786C18.3195 7.75786 19.6951 7.92282 20.9587 8.25272C24.0138 6.31829 25.3574 6.72317 25.3574 6.72317C26.2372 8.74757 25.6773 10.3071 25.5174 10.682C26.5571 11.7467 27.1649 13.0813 27.1649 14.7458C27.1649 20.4741 23.422 21.7338 19.855 22.1086C20.4309 22.5735 20.9587 23.4882 20.9587 24.8828V28.9916C20.9587 29.3965 21.2146 29.8764 22.0304 29.7414C28.3805 27.732 32.9552 22.1236 32.9552 15.4956C32.9552 13.5263 32.5415 11.5764 31.7376 9.75702C30.9338 7.93768 29.7556 6.28457 28.2703 4.89211C26.785 3.49964 25.0217 2.39507 23.081 1.64147C21.1404 0.887872 19.0604 0.5 16.9599 0.5Z" fill="#092F62"/>
</svg>
