<svg width="31" height="30" viewBox="0 0 31 30" fill="none" xmlns="http://www.w3.org/2000/svg">
<g clip-path="url(#clip0_2073_36398)">
<path d="M15.5369 29.9912H15.4709C7.2206 29.9912 0.508301 23.2789 0.508301 15.0286V14.9626C0.508301 6.7123 7.2206 0 15.4709 0H15.5369C23.7872 0 30.4995 6.7123 30.4995 14.9626V15.0286C30.4995 23.2789 23.7872 29.9912 15.5369 29.9912ZM15.4709 1.01517C7.77996 1.01517 1.52347 7.27166 1.52347 14.9626V15.0286C1.52347 22.7195 7.77996 28.976 15.4709 28.976H15.5369C23.2278 28.976 29.4843 22.7195 29.4843 15.0286V14.9626C29.4843 7.27166 23.2278 1.01517 15.5369 1.01517H15.4709Z" fill="#092F62"/>
<path d="M6.50386 14.5007C6.54446 14.4804 6.58509 14.4612 6.62468 14.4429C7.31297 14.1241 8.01039 13.8257 8.7068 13.5272C8.74436 13.5272 8.80728 13.4835 8.84281 13.4693C8.89662 13.446 8.95043 13.4236 9.00424 13.4003C9.10778 13.3556 9.21134 13.312 9.31387 13.2673C9.52096 13.179 9.72703 13.0907 9.93412 13.0024C10.3473 12.8257 10.7605 12.6491 11.1736 12.4714C12 12.1181 12.8274 11.7638 13.6537 11.4106C14.4801 11.0573 15.3074 10.703 16.1338 10.3497C16.9601 9.99642 17.7875 9.64213 18.6138 9.28885C19.4402 8.93557 20.2676 8.58128 21.0939 8.22801C21.2777 8.14882 21.4766 8.03106 21.6736 7.99654C21.839 7.9671 22.0004 7.91026 22.1669 7.87879C22.4826 7.8189 22.8309 7.79453 23.1334 7.92549C23.2379 7.97117 23.3344 8.03511 23.4146 8.11531C23.7983 8.49498 23.7445 9.11831 23.6633 9.65229C23.0978 13.3739 22.5324 17.0965 21.9659 20.8182C21.8888 21.3288 21.7832 21.8892 21.3802 22.212C21.0391 22.4851 20.5538 22.5155 20.1325 22.3998C19.7112 22.283 19.3397 22.0384 18.9752 21.7978C17.4636 20.7968 15.9511 19.7959 14.4395 18.7949C14.0801 18.5574 13.6801 18.2467 13.6842 17.8153C13.6862 17.5554 13.8415 17.3239 13.9999 17.1178C15.3135 15.4042 17.2088 14.2266 18.6189 12.5922C18.8179 12.3618 18.9742 11.9456 18.7011 11.8126C18.5387 11.7334 18.3519 11.841 18.2037 11.9435C16.3398 13.2379 14.477 14.5332 12.6132 15.8276C12.0051 16.2499 11.3676 16.6844 10.6346 16.7879C9.97881 16.8813 9.31895 16.6986 8.68447 16.5118C8.15252 16.3554 7.62157 16.195 7.09266 16.0296C6.81146 15.9423 6.52112 15.8479 6.30387 15.6499C6.08663 15.4519 5.96178 15.119 6.09273 14.855C6.17496 14.6896 6.33435 14.585 6.50185 14.4997L6.50386 14.5007Z" fill="#092F62"/>
</g>
<defs>
<clipPath id="clip0_2073_36398">
<rect width="29.9912" height="30" fill="white" transform="translate(0.508789)"/>
</clipPath>
</defs>
</svg>
