<svg width="213" height="48" viewBox="0 0 213 48" fill="none" xmlns="http://www.w3.org/2000/svg">
<g clip-path="url(#clip0_8015_12013)">
<path fill-rule="evenodd" clip-rule="evenodd" d="M1.55575 1.70527C6.85128 8.19727 12.6656 16.3532 13.6061 17.6724C13.6562 17.7427 13.6925 17.7936 13.7141 17.8238C14.2155 18.5237 14.6293 19.044 14.9436 19.4391C15.6413 20.3162 15.8484 20.5765 15.4321 20.8156C15.0962 21.0084 14.7498 21.0719 14.4042 21.0719C14.0132 21.0719 13.5727 20.8818 13.2519 20.5744C13.0252 20.3573 11.474 18.0816 9.3616 14.771C7.74537 12.2378 6.39276 10.1364 6.35586 10.1012C6.27055 10.0199 6.27201 10.0226 9.19682 15.3086C11.0333 18.6278 12.2896 21.0806 12.2896 21.2376C12.2896 21.5568 12.2034 21.7245 11.8135 22.1638C11.1636 22.8962 10.8731 23.719 10.6634 25.4218C10.4283 27.3307 9.76723 28.6794 7.93515 30.9871C6.86272 32.3381 6.68724 32.5857 6.41663 33.1303C6.0758 33.8159 5.98206 34.2 5.94407 35.0659C5.90393 35.9814 5.98212 36.5728 6.25903 37.448C6.50146 38.2143 6.75449 38.7204 7.40137 39.7325C7.95964 40.6057 8.28109 41.2547 8.28109 41.5087C8.28109 41.7107 8.31927 41.711 9.18434 41.5138C11.2546 41.0414 12.9356 40.2111 13.881 39.1932C14.4661 38.5632 14.6035 38.2154 14.6079 37.3521C14.6109 36.7875 14.5912 36.6693 14.4401 36.3445C14.1941 35.8156 13.7463 35.3761 12.7593 34.6946C11.4661 33.8016 10.9138 33.0828 10.7612 32.0941C10.6361 31.283 10.7812 30.7106 11.4967 29.1961C12.2371 27.6284 12.4207 26.9604 12.5448 25.3801C12.6249 24.3592 12.736 23.9566 13.0264 23.6335C13.3292 23.2965 13.6019 23.1824 14.3514 23.0788C15.5734 22.9103 16.3514 22.591 16.991 21.9957C17.5458 21.4792 17.778 20.9816 17.8136 20.2325L17.8407 19.6647L17.5306 19.2996C16.4078 17.9772 0.803802 0.665771 0.734703 0.665771C0.719942 0.665771 1.08943 1.13358 1.55575 1.70527ZM8.91139 36.1018C9.16526 35.6475 9.03037 35.0639 8.60571 34.7786C8.20448 34.5091 7.5812 34.6361 7.5812 34.9872C7.5812 35.0943 7.63985 35.1723 7.77209 35.2412C7.99471 35.3569 8.01087 35.487 7.83571 35.7529C7.65831 36.0223 7.67262 36.259 7.8761 36.4198C8.20404 36.6793 8.66825 36.5366 8.91139 36.1018ZM16.5526 11.3374C16.0516 11.2589 16.0305 11.2497 16.2662 11.2131C16.718 11.143 17.7847 11.2386 18.5198 11.4152C20.2359 11.8272 21.7974 12.8827 23.4642 14.7572L23.907 15.2552L24.5405 15.1524C27.2093 14.7192 29.9242 15.0634 32.1951 16.123C32.8198 16.4145 33.8047 16.9948 33.9277 17.1439C33.9668 17.1914 34.039 17.4974 34.0876 17.8238C34.2563 18.9531 34.172 19.8187 33.8299 20.4653C33.6439 20.8171 33.6336 20.9286 33.7586 21.2297C33.8584 21.47 34.1368 21.6478 34.4127 21.6474C34.9769 21.6466 35.5842 20.7252 35.8657 19.4432L35.9775 18.9339L36.199 19.1873C37.4136 20.5774 38.3678 22.4732 38.5317 23.8226L38.5743 24.1744L38.3702 23.8546C38.0187 23.3043 37.6658 22.9295 37.2135 22.6274C36.3986 22.0827 35.5367 21.8973 33.2546 21.7758C31.1934 21.6661 30.0269 21.4883 28.8702 21.1073C26.9019 20.4591 25.9099 19.5959 23.572 16.4978C22.5336 15.1217 21.8918 14.3603 21.2534 13.7471C19.8027 12.354 18.3773 11.6233 16.5526 11.3374ZM34.3926 14.4099C34.4445 13.4878 34.5684 12.8796 34.8172 12.3242C34.9157 12.1043 35.008 11.9243 35.0222 11.9243C35.0365 11.9243 34.9937 12.0866 34.927 12.2849C34.7461 12.824 34.7163 13.5613 34.8411 14.4191C34.9992 15.5076 35.0893 15.6646 36.2281 16.8404C36.7623 17.3919 37.3838 18.0874 37.609 18.386L38.0187 18.929L37.609 18.5409C37.1082 18.0664 35.9563 17.141 35.7019 17.0087C35.5312 16.92 35.5058 16.9215 35.4007 17.0273C35.3037 17.1248 35.2832 17.2713 35.2697 17.9638C35.2487 19.0432 35.1032 19.7359 34.7516 20.4287C34.5615 20.8033 34.5315 20.7234 34.7035 20.3005C34.832 19.9847 34.8451 19.8459 34.8442 18.801C34.8422 16.7016 34.5953 16.1969 33.1482 15.3323C32.7818 15.1133 32.1776 14.7974 31.806 14.6303C31.4345 14.4632 31.1393 14.3177 31.1499 14.3068C31.1909 14.2656 32.6023 14.6817 33.1703 14.9024C34.0152 15.2307 34.1545 15.2732 34.2572 15.2336C34.3259 15.207 34.3592 15.0047 34.3926 14.4099ZM16.0157 12.7982C15.8795 14.419 16.5087 16.5873 17.5256 18.0014C18.3139 19.0977 19.536 19.9495 20.4381 20.0318C21.0288 20.0857 21.2064 19.8989 20.9391 19.5047C20.5681 18.9574 20.1118 18.1147 19.991 17.7539C19.916 17.5297 19.753 16.8676 19.6287 16.2826C19.2045 14.2851 18.7876 13.5073 17.8245 12.9165C17.4735 12.7011 16.724 12.4193 16.2893 12.3393L16.0578 12.2966L16.0157 12.7982ZM33.1592 28.5263C28.4067 26.5936 26.7327 24.9159 26.7327 22.0852C26.7327 21.6687 26.7471 21.3278 26.7643 21.3278C26.7818 21.3278 26.9655 21.4653 27.1729 21.6333C28.1366 22.4141 29.2158 22.7476 32.2035 23.1877C33.9613 23.4469 34.9506 23.6561 35.8633 23.9619C38.764 24.9336 40.5587 26.9054 40.9867 29.5914C41.111 30.3718 41.0381 31.8353 40.8365 32.6067C40.6773 33.2159 40.1914 34.3139 40.0627 34.3561C40.0269 34.3678 39.9918 34.2296 39.9827 34.0414C39.9339 33.0329 39.4293 32.051 38.582 31.3154C37.6185 30.4792 36.324 29.8136 33.1592 28.5263ZM29.5932 28.3137C29.6599 28.5144 29.7632 28.9713 29.8226 29.3293C30.2034 31.6175 29.0142 33.4664 26.7009 34.1827C26.456 34.2585 25.4914 34.4493 24.5573 34.6063C22.6664 34.9243 21.8225 35.1496 20.9746 35.5621C20.3734 35.8547 19.6454 36.2928 19.6887 36.3363C19.7026 36.3504 19.8399 36.3173 19.9936 36.2628C21.0628 35.8836 22.2526 35.6873 24.0604 35.5923C24.7779 35.5548 25.5939 35.4947 25.8739 35.4592C27.4845 35.2542 28.6008 34.76 29.4689 33.8676C29.9518 33.371 30.2398 32.9083 30.4719 32.256C30.619 31.8421 30.6388 31.6884 30.64 30.9553C30.6413 30.2082 30.6234 30.0715 30.4639 29.6119C30.2553 29.0095 30.009 28.5575 29.6972 28.2039L29.472 27.9486L29.5932 28.3137ZM32.0014 33.2374C31.3698 31.8662 31.2249 30.5425 31.5708 29.3081C31.6079 29.176 31.6673 29.068 31.7033 29.068C31.739 29.068 31.8879 29.1495 32.0343 29.2489C32.3251 29.4468 32.9088 29.78 34.4635 30.6362C36.4037 31.7046 37.5099 32.5318 38.262 33.4772C38.9208 34.3049 39.3284 35.2476 39.5245 36.3973C39.6358 37.0485 39.5707 38.6155 39.4053 39.2712C38.8837 41.3389 37.6713 42.9629 35.9422 43.9107C35.6889 44.0494 35.4614 44.1633 35.4367 44.164C35.4122 44.1644 35.5045 43.9275 35.6418 43.6371C36.2235 42.4088 36.2898 41.2141 35.8501 39.8844C35.5807 39.0702 35.0317 38.0767 33.9231 36.3975C32.6343 34.4453 32.3183 33.9257 32.0014 33.2374ZM20.1074 37.7344C18.1086 38.0623 15.9142 39.1307 14.1506 40.6348L13.6255 41.0827L14.087 41.1556C16.4949 41.5352 17.1433 41.8719 18.8136 43.6099C19.7748 44.6098 20.0994 44.8324 20.8967 45.038C22.0677 45.3399 23.2219 44.7852 23.6179 43.73C23.7948 43.2586 23.7712 42.4779 23.5682 42.0859C23.0855 41.1525 21.679 40.8508 20.9989 41.5345C20.4325 42.104 20.5975 42.962 21.3021 43.1095C21.4634 43.1435 21.4588 43.1362 21.261 43.0459C20.9526 42.905 20.8187 42.7098 20.817 42.3991C20.813 41.6705 21.6384 41.2616 22.4062 41.6114C22.9684 41.8677 23.1917 42.2025 23.1917 42.7895C23.1917 43.6934 22.4301 44.3744 21.5438 44.2631C21.07 44.2035 20.4906 43.8974 20.1799 43.5428C19.3982 42.6499 19.7027 41.241 20.7942 40.7004C21.6251 40.289 22.7296 40.3904 23.5861 40.9568C24.5701 41.6078 24.9886 42.2028 25.8362 44.1554C26.1122 44.7911 26.4673 45.5069 26.6252 45.7458C27.4282 46.9597 28.3901 47.5551 29.5488 47.5551C30.1879 47.5551 30.6687 47.4372 31.2735 47.1322C31.7229 46.9054 32.36 46.4746 32.3141 46.4284C32.3011 46.4154 32.1147 46.4739 31.8998 46.5585C30.6347 47.0569 29.3485 47.0227 28.6017 46.4704C28.1313 46.1228 27.7519 45.4302 27.5569 44.5641C27.5231 44.4142 27.4118 43.7521 27.3093 43.0927C27.0496 41.4214 26.8003 40.6702 26.2189 39.808C25.6239 38.926 24.4802 38.1858 23.2016 37.8552C22.4039 37.6489 20.9688 37.5929 20.1074 37.7344ZM17.3079 24.8128C17.4806 24.1688 18.0382 23.5547 18.6118 23.3767C18.9766 23.2636 19.7306 23.3359 20.0851 23.5178C20.7722 23.8707 21.2709 24.6743 21.1627 25.2545C21.0307 25.9618 19.895 26.5278 18.5886 26.5371C17.9214 26.5417 17.6749 26.4512 17.4201 26.1075C17.2624 25.8947 17.2026 25.2057 17.3079 24.8128ZM19.9097 23.77C20.2523 23.9814 20.3405 24.2938 20.139 24.5829C20.0002 24.7821 19.5706 24.9713 19.2567 24.9713C18.785 24.9713 18.2705 24.633 18.2705 24.3232C18.2705 23.7007 19.2572 23.3674 19.9097 23.77ZM122.31 25.5526C121.244 22.0077 123.002 19.0672 126.752 18.1224C127.828 17.8512 132.698 17.9736 133.532 18.2928C133.838 18.4097 133.972 18.8587 133.975 19.7814C133.977 20.508 134.056 21.3906 134.15 21.7425C134.294 22.276 134.21 22.3809 133.647 22.3724C133.138 22.3644 132.83 22.066 132.4 21.1633C131.714 19.7213 130.882 19.2627 128.945 19.2573C126.471 19.2502 124.662 20.9155 124.956 22.9275C125.148 24.2369 126.456 25.5252 129.392 27.2963C132.186 28.981 133.816 30.3665 134.465 31.6078C136.202 34.9265 134.719 38.478 130.849 40.2674C128.862 41.1858 125.533 41.2808 123.192 40.4858L121.693 39.9765V37.5814C121.693 35.4121 121.745 35.1858 122.239 35.1858C122.653 35.1858 122.831 35.4592 122.977 36.3156C123.338 38.4451 124.956 39.7378 127.261 39.7378C129.519 39.7378 131.097 38.5042 131.702 36.2674C131.959 35.3145 131.915 34.9632 131.404 33.912C130.792 32.6517 129.738 31.8154 126.158 29.7502C124.171 28.6041 122.767 27.0717 122.31 25.5526ZM52.1337 19.5375C51.6452 19.5375 51.4546 19.3779 51.4546 18.9685C51.4546 18.4265 51.6452 18.3995 55.4729 18.3995C59.0256 18.3995 59.4803 18.453 59.3989 18.8607C59.3478 19.1145 58.8569 19.4664 58.3073 19.6431L57.3078 19.9643L57.2225 27.2194C57.1653 32.0605 57.2457 34.8532 57.4637 35.6124C58.1118 37.8704 60.089 39.1689 62.8785 39.1689C64.8205 39.1689 65.955 38.7149 67.3802 37.3665C68.9132 35.917 69.1577 34.5396 69.1528 27.3811C69.1482 20.32 69.0252 19.7372 67.5087 19.5907C66.8186 19.5239 66.5874 19.3631 66.5874 18.9506C66.5874 18.4362 66.8151 18.3995 70.0136 18.3995C73.2495 18.3995 73.4399 18.4311 73.4399 18.9685C73.4399 19.319 73.248 19.5392 72.9401 19.5418C71.6178 19.5534 71.5935 19.6793 71.4155 27.4219C71.2309 35.4625 71.0584 36.4145 69.4289 38.3841C68.959 38.9523 67.8382 39.7773 66.9385 40.2177C65.4724 40.9352 65.006 41.0175 62.4472 41.0129C60.0885 41.008 59.3439 40.8941 58.1644 40.3572C56.4428 39.5735 55.3232 38.5592 54.4977 37.035C53.9215 35.9711 53.8723 35.3953 53.7389 28.1867C53.5861 19.9353 53.5121 19.5375 52.1337 19.5375ZM78.8514 19.5375C78.1986 19.5375 78.0083 19.4089 78.0083 18.9685C78.0083 18.4351 78.1907 18.4009 80.9347 18.4228L83.8614 18.4461L85.2617 20.0588C86.0313 20.9456 88.5409 23.7199 90.8378 26.2235C93.1349 28.7273 95.7721 31.6399 96.698 32.6961C97.6242 33.7526 98.4958 34.6167 98.6352 34.6167C98.7783 34.6167 98.8496 31.6328 98.7986 27.7633L98.7085 20.91L97.9073 20.2238C97.4668 19.8462 96.7926 19.5375 96.4085 19.5375C95.8977 19.5375 95.7107 19.3827 95.7107 18.9605C95.7107 18.4049 95.8564 18.3864 99.6365 18.4626C102.851 18.5275 103.562 18.6171 103.562 18.9568C103.562 19.199 103.165 19.4531 102.608 19.5666C102.083 19.6736 101.505 19.9091 101.323 20.0901C101.089 20.3236 100.969 23.3438 100.911 30.5052L100.829 40.5913H100.002C99.2893 40.5913 98.4413 39.7897 93.9076 34.83C91.0109 31.6611 87.6297 27.895 86.394 26.4609C85.158 25.0266 84.0505 23.8422 83.9328 23.8292C83.6013 23.7921 83.6815 36.6062 84.0204 37.8225C84.2848 38.7703 84.4665 38.9335 85.5895 39.233C86.4938 39.4739 86.8595 39.7184 86.8595 40.0814C86.8595 40.5476 86.5148 40.5913 82.8622 40.5913C79.144 40.5913 78.8649 40.5542 78.8649 40.058C78.8649 39.6947 79.1338 39.471 79.7085 39.3564C81.4519 39.0091 81.5676 38.4576 81.6655 30.0284C81.7202 25.3075 81.6399 22.0043 81.4528 21.3126C81.1242 20.0963 80.3054 19.5375 78.8514 19.5375ZM108.79 19.5375C108.179 19.5375 107.988 19.4024 107.988 18.9685C107.988 18.4248 108.179 18.3995 112.271 18.3995C116.363 18.3995 116.554 18.4248 116.554 18.9685C116.554 19.3859 116.363 19.5375 115.84 19.5375C115.447 19.5375 114.864 19.7987 114.544 20.118C113.978 20.6816 113.963 20.9618 114.044 29.6724C114.122 38.1756 114.156 38.6677 114.681 39.0499C114.986 39.2719 115.532 39.4534 115.894 39.4534C116.363 39.4534 116.554 39.6175 116.554 40.0225C116.554 40.5662 116.363 40.5913 112.271 40.5913C108.276 40.5913 107.988 40.5556 107.988 40.0589C107.988 39.6583 108.268 39.4814 109.119 39.3458C110.809 39.0766 110.895 38.5254 110.79 28.6897C110.706 20.813 110.67 20.3219 110.146 19.941C109.841 19.719 109.231 19.5375 108.79 19.5375ZM138.665 19.5375C138.275 19.5375 137.978 19.321 137.885 18.9685C137.741 18.4183 137.877 18.3995 141.992 18.3995C146.058 18.3995 146.248 18.4248 146.248 18.9685C146.248 19.4058 146.058 19.5375 145.426 19.5375C143.629 19.5375 143.669 19.863 146.39 27.3036C147.774 31.0911 149.119 34.6889 149.377 35.2986L149.847 36.4074L152.028 30.6041C154.595 23.7731 154.928 22.5098 154.492 21.264C154.188 20.3956 153.007 19.5375 152.116 19.5375C151.864 19.5375 151.673 19.2929 151.673 18.9685C151.673 18.424 151.864 18.3995 156.099 18.3995C160.334 18.3995 160.524 18.424 160.524 18.9685C160.524 19.3734 160.334 19.5375 159.865 19.5375C158.665 19.5375 158.135 20.1754 158.308 21.4148C158.485 22.6905 163.396 36.4019 163.602 36.1968C163.937 35.8631 169.375 21.1026 169.375 20.5273C169.375 19.838 168.891 19.5375 167.782 19.5375C167.282 19.5375 167.091 19.3808 167.091 18.9685C167.091 18.4311 167.282 18.3995 170.518 18.3995C173.424 18.3995 173.944 18.4667 173.944 18.8411C173.944 19.084 173.588 19.4064 173.153 19.5574C172.174 19.8974 171.928 20.2855 170.7 23.429C170.161 24.8095 168.474 29.1299 166.95 33.0293C165.427 36.9293 164.115 40.2901 164.035 40.4979C163.955 40.7059 163.483 40.876 162.985 40.876H162.082L160.031 35.5413C158.903 32.6075 157.57 29.1316 157.069 27.8172C156.211 25.5649 156.139 25.4671 155.816 26.11C155.628 26.4856 154.273 29.9677 152.805 33.8482L150.136 40.9038L149.14 40.8188L148.143 40.7338L144.344 30.798C142.221 25.2469 140.269 20.5697 139.92 20.1999C139.577 19.8354 139.012 19.5375 138.665 19.5375ZM195.756 19.6582C195.708 19.5501 195.708 19.1617 195.708 19.1617C195.708 19.1617 195.698 19.0216 195.756 18.9469C195.815 18.8724 195.836 18.8704 196.046 18.8504L196.048 18.8502C196.819 18.7769 198.365 18.6535 199.656 18.5972C199.774 18.592 199.906 18.5861 200.048 18.5796L200.051 18.5795L200.053 18.5794L200.054 18.5794C201.475 18.5149 204.017 18.4287 205.764 18.516C209.116 18.6835 211.501 20.3039 212.313 22.9816C213.126 25.6592 212.696 28.1728 211.589 29.7727C210.481 31.3726 208.619 32.7502 205.523 32.6605C202.967 32.5866 202.284 32.108 201.737 31.7258C201.622 31.6449 201.512 31.5683 201.393 31.5009V34.9157C201.42 37.2446 201.439 38.3631 201.62 38.7772C201.863 39.3346 202.412 39.678 203.482 39.9412C203.482 39.9412 203.966 40.0547 204.091 40.1757C204.216 40.2967 204.216 40.5655 204.216 40.5655C204.216 40.5655 204.241 40.8168 204.141 40.9449C204.041 41.073 203.847 41.0474 203.847 41.0474L199.108 41.0091L196.251 41.0016C196.251 41.0016 195.951 41.0591 195.838 40.9385C195.726 40.8177 195.736 40.5662 195.736 40.5662C195.736 40.5662 195.761 40.2952 195.892 40.174C196.023 40.0525 196.511 39.9169 196.511 39.9169C197.613 39.6075 198.091 39.2802 198.341 38.6637C198.542 38.1666 198.543 37.2448 198.541 29.7226C198.539 22.589 198.529 21.2583 198.365 20.8756C198.123 20.3091 197.517 20.159 196.654 19.9453L196.654 19.9452C196.483 19.9028 196.301 19.858 196.111 19.8069C196.111 19.8069 195.804 19.7663 195.756 19.6582ZM209.555 25.479C209.555 26.6488 209.534 28.4802 208.289 29.6508C207.044 30.8214 204.592 31.1419 202.927 30.8159C202.403 30.7132 202.103 30.5549 201.872 30.4328L201.848 30.4206L201.422 30.1963L201.398 26.0863C201.382 23.5112 201.409 21.8334 201.47 21.5936C201.525 20.2358 203.528 20.0668 204.507 20.1171C208.694 20.1171 209.433 23.6448 209.555 25.479ZM182.609 18.5588C182.609 18.5588 182.404 18.6373 182.094 18.7548L180.976 19.3323L180.171 21.342C179.728 22.4474 178.918 24.4765 178.371 25.8511C177.375 28.355 176.717 29.9999 176.024 31.7169C175.821 32.222 175.206 33.7599 174.658 35.1345C174.11 36.509 173.562 37.8172 173.441 38.0416C173.42 38.0789 173.399 38.1191 173.376 38.1615C173.07 38.7374 172.538 39.7378 171.598 39.8891C171.598 39.8891 171.081 39.9399 170.889 40.1289C170.698 40.3182 170.717 40.4727 170.717 40.4727V40.711C170.717 40.711 170.734 40.8265 170.842 40.8839C170.951 40.9416 171.098 40.9449 171.098 40.9449L174.536 40.9058H178.09C178.09 40.9058 178.342 40.9352 178.439 40.8548C178.536 40.7744 178.562 40.6552 178.562 40.6552V40.4043C178.562 40.4043 178.513 40.1322 178.372 40.026C178.231 39.92 177.704 39.8473 177.704 39.8473C176.281 39.6603 176.036 38.5842 176.212 37.6165C176.298 37.141 176.87 35.3823 177.514 33.6117L177.737 32.9997L181.46 32.9713C183.509 32.9556 185.277 32.9662 185.39 32.9949C185.552 33.0357 185.778 33.4953 186.443 35.1321C187.449 37.6121 187.53 37.9142 187.307 38.3781C187.293 38.4064 187.279 38.4375 187.263 38.4711C187.054 38.9198 186.648 39.7917 185.625 39.8805C185.625 39.8805 185.082 39.8992 184.947 40.0616C184.812 40.2241 184.841 40.4109 184.841 40.4109V40.6591C184.841 40.6591 184.877 40.8047 184.947 40.8623C185.017 40.9199 185.134 40.9054 185.134 40.9054L188.515 40.8811L193.266 40.8808C193.266 40.8808 193.453 40.9007 193.504 40.8292C193.554 40.7574 193.565 40.673 193.565 40.673V40.3433C193.565 40.3433 193.544 40.168 193.453 40.0713C193.361 39.9748 192.745 39.8727 192.745 39.8727C191.958 39.7458 191.566 39.0961 191.274 38.6122C191.2 38.4888 191.132 38.3762 191.065 38.2858C190.93 38.1014 190.447 37.0909 190.068 36.119C189.69 35.1471 188.836 32.9516 188.171 31.2404C187.506 29.5291 186.578 27.1419 186.109 25.9357C185.64 24.7293 184.748 22.434 184.127 20.8349C184.025 20.5724 183.934 20.3367 183.852 20.1257L183.852 20.1247C183.436 19.0508 183.268 18.6175 183.222 18.5588C183.072 18.3684 182.609 18.5588 182.609 18.5588ZM182.387 25.0935C182.237 24.7289 181.973 24.0748 181.801 23.6399C181.487 22.8496 181.368 22.6675 181.271 22.8308C181.243 22.8785 181.045 23.4187 180.832 24.0313C179.454 27.9974 178.83 29.7833 178.705 30.1199C178.627 30.3314 178.562 30.5494 178.562 30.6044C178.562 30.6675 179.683 30.7044 181.604 30.7044C183.276 30.7044 184.645 30.6836 184.645 30.6582C184.645 30.6329 184.496 30.2543 184.313 29.8167C184.131 29.379 183.684 28.2865 183.321 27.3888C182.958 26.4911 182.537 25.4583 182.387 25.0935Z" fill="#FF007A"/>
</g>
<defs>
<clipPath id="clip0_8015_12013">
<rect width="212" height="46.8893" fill="white" transform="translate(0.734276 0.665771)"/>
</clipPath>
</defs>
</svg>
