<svg width="31" height="30" viewBox="0 0 31 30" fill="none" xmlns="http://www.w3.org/2000/svg">
<g clip-path="url(#clip0_2073_36399)">
<path d="M15.5281 29.9912H15.4621C7.21181 29.9912 0.499512 23.2789 0.499512 15.0286V14.9626C0.499512 6.7123 7.21181 0 15.4621 0H15.5281C23.7784 0 30.4907 6.7123 30.4907 14.9626V15.0286C30.4907 23.2789 23.7784 29.9912 15.5281 29.9912ZM15.4621 1.01517C7.77117 1.01517 1.51468 7.27166 1.51468 14.9626V15.0286C1.51468 22.7195 7.77117 28.976 15.4621 28.976H15.5281C23.219 28.976 29.4755 22.7195 29.4755 15.0286V14.9626C29.4755 7.27166 23.219 1.01517 15.5281 1.01517H15.4621Z" fill="#092F62"/>
<path d="M6.49507 14.5007C6.53568 14.4804 6.5763 14.4612 6.61589 14.4429C7.30418 14.1241 8.0016 13.8257 8.69801 13.5272C8.73557 13.5272 8.79849 13.4835 8.83403 13.4693C8.88783 13.446 8.94164 13.4236 8.99545 13.4003C9.09899 13.3556 9.20255 13.312 9.30508 13.2673C9.51217 13.179 9.71824 13.0907 9.92533 13.0024C10.3385 12.8257 10.7517 12.6491 11.1649 12.4714C11.9912 12.1181 12.8186 11.7638 13.6449 11.4106C14.4713 11.0573 15.2986 10.703 16.125 10.3497C16.9513 9.99642 17.7787 9.64213 18.605 9.28885C19.4314 8.93557 20.2588 8.58128 21.0851 8.22801C21.2689 8.14882 21.4678 8.03106 21.6648 7.99654C21.8303 7.9671 21.9917 7.91026 22.1581 7.87879C22.4739 7.8189 22.8221 7.79453 23.1246 7.92549C23.2291 7.97117 23.3256 8.03511 23.4058 8.11531C23.7895 8.49498 23.7357 9.11831 23.6545 9.65229C23.089 13.3739 22.5236 17.0965 21.9571 20.8182C21.88 21.3288 21.7744 21.8892 21.3714 22.212C21.0303 22.4851 20.545 22.5155 20.1237 22.3998C19.7024 22.283 19.3309 22.0384 18.9664 21.7978C17.4549 20.7968 15.9423 19.7959 14.4307 18.7949C14.0713 18.5574 13.6713 18.2467 13.6754 17.8153C13.6774 17.5554 13.8327 17.3239 13.9911 17.1178C15.3047 15.4042 17.2001 14.2266 18.6101 12.5922C18.8091 12.3618 18.9654 11.9456 18.6924 11.8126C18.5299 11.7334 18.3431 11.841 18.1949 11.9435C16.3311 13.2379 14.4682 14.5332 12.6044 15.8276C11.9963 16.2499 11.3588 16.6844 10.6258 16.7879C9.97002 16.8813 9.31016 16.6986 8.67568 16.5118C8.14373 16.3554 7.61278 16.195 7.08387 16.0296C6.80267 15.9423 6.51233 15.8479 6.29508 15.6499C6.07784 15.4519 5.95299 15.119 6.08394 14.855C6.16617 14.6896 6.32556 14.585 6.49306 14.4997L6.49507 14.5007Z" fill="#092F62"/>
</g>
<defs>
<clipPath id="clip0_2073_36399">
<rect width="29.9912" height="30" fill="white" transform="translate(0.5)"/>
</clipPath>
</defs>
</svg>
