<svg width="496" height="128" viewBox="0 0 496 128" fill="none" xmlns="http://www.w3.org/2000/svg">
<g clip-path="url(#clip0_2260_32219)">
<path d="M64 4C97.08 4 124 30.92 124 64C124 97.08 97.08 124 64 124C30.92 124 4 97.08 4 64C4 30.92 30.92 4 64 4ZM64 0C28.64 0 0 28.64 0 64C0 99.36 28.64 128 64 128C99.36 128 128 99.36 128 64C128 28.64 99.36 0 64 0Z" fill="#272B38"/>
<path fill-rule="evenodd" clip-rule="evenodd" d="M64 28H72H80V36H72H64H56H48V28H56H64ZM40 44L40 36H48V44L40 44ZM40 84H32V76H24V68H32V60H24V52H32V44H40V52H48H56H64H72H80V60H72H64H56H48H40V68H48H56H64H72V76H64H56H48H40V84ZM48 92V84L40 84L40 92H48ZM80 92H72H64H56H48V100H56H64H72H80L80 92ZM88 84H80V92H88V84ZM88 84H96V76H88V84ZM88 44H80L80 36H88V44ZM88 44L96 44V52H88V44Z" fill="#272B38"/>
</g>
<path d="M208.083 99.3993H194.283V92.9993H194.083C193.483 93.8793 192.683 94.7593 191.723 95.6393C190.763 96.5193 189.643 97.3593 188.323 98.0793C187.003 98.7993 185.603 99.3993 184.003 99.8793C182.443 100.359 180.803 100.599 179.163 100.599C175.563 100.599 172.283 99.9993 169.363 98.7593C166.443 97.5193 163.923 95.7993 161.803 93.5593C159.683 91.3193 158.083 88.6793 156.963 85.5993C155.843 82.5193 155.283 79.1593 155.283 75.4793C155.283 72.0793 155.803 68.8393 156.843 65.7193C157.883 62.6393 159.323 59.8793 161.243 57.4793C163.163 55.0793 165.443 53.1593 168.203 51.7193C170.923 50.2793 174.043 49.5593 177.483 49.5593C180.603 49.5593 183.523 50.0393 186.243 50.9993C188.963 51.9593 191.163 53.5993 192.883 55.9593H193.083V28.5593H208.083V99.3993ZM194.283 75.1193C194.283 71.4393 193.243 68.4793 191.123 66.1993C189.043 63.9193 186.083 62.7993 182.283 62.7993C178.483 62.7993 175.523 63.9193 173.443 66.1993C171.363 68.4793 170.283 71.4393 170.283 75.1193C170.283 78.7993 171.323 81.7593 173.443 83.9993C175.523 86.2793 178.483 87.3993 182.283 87.3993C186.083 87.3993 189.043 86.2793 191.123 83.9993C193.203 81.7193 194.283 78.7593 194.283 75.1193Z" fill="#272B38"/>
<path d="M223.057 28.5993H271.137V42.9993H238.657V56.1993H269.337V70.5993H238.657V84.9993H272.937V99.3993H223.057V28.5993Z" fill="#272B38"/>
<path d="M344.057 72.1193C344.057 76.3193 343.417 80.1993 342.137 83.7193C340.857 87.2393 338.977 90.3193 336.497 92.9193C334.017 95.5193 330.897 97.5593 327.137 98.9993C323.417 100.479 319.097 101.199 314.217 101.199C309.337 101.199 304.937 100.479 301.217 98.9993C297.497 97.5193 294.377 95.4793 291.857 92.9193C289.337 90.3593 287.457 87.2393 286.217 83.7193C284.937 80.1993 284.297 76.3193 284.297 72.1193V28.5993H299.897V71.4793C299.897 73.6793 300.257 75.7193 300.937 77.5993C301.657 79.4793 302.617 81.0793 303.897 82.4393C305.177 83.7993 306.697 84.8793 308.457 85.6393C310.217 86.3993 312.137 86.7993 314.217 86.7993C316.297 86.7993 318.177 86.3993 319.937 85.6393C321.657 84.8793 323.177 83.7993 324.417 82.4393C325.697 81.0793 326.657 79.4393 327.377 77.5993C328.057 75.7193 328.417 73.6793 328.417 71.4793V28.5993H344.017V72.1193H344.057Z" fill="#272B38"/>
<path d="M357.657 28.5993H385.057C388.657 28.5993 392.057 28.9593 395.297 29.6393C398.537 30.3593 401.377 31.5193 403.777 33.1593C406.217 34.7993 408.137 36.9993 409.577 39.7593C411.017 42.5193 411.737 45.9593 411.737 50.1193C411.737 55.1193 410.417 59.3593 407.817 62.8793C405.217 66.3993 401.417 68.5993 396.417 69.5193L414.417 99.4393H395.737L380.937 71.1593H373.257V99.4393H357.657V28.5993ZM373.257 57.9193H382.457C383.857 57.9193 385.337 57.8793 386.897 57.7593C388.457 57.6793 389.897 57.3593 391.137 56.8793C392.377 56.3993 393.457 55.5993 394.297 54.5193C395.137 53.4393 395.537 51.9593 395.537 50.0393C395.537 48.2393 395.177 46.7993 394.457 45.7593C393.737 44.6793 392.777 43.8793 391.657 43.3193C390.537 42.7593 389.217 42.3593 387.777 42.1593C386.297 41.9593 384.857 41.8793 383.457 41.8793H373.257V57.9593V57.9193Z" fill="#272B38"/>
<path d="M419.217 63.9993C419.217 58.3193 420.177 53.1993 422.057 48.5993C423.977 43.9993 426.617 40.0793 430.017 36.8393C433.417 33.5993 437.457 31.1193 442.137 29.3993C446.817 27.6793 451.897 26.7993 457.417 26.7993C462.937 26.7993 468.057 27.6793 472.737 29.3993C477.417 31.1193 481.417 33.5993 484.817 36.8393C488.217 40.0793 490.857 43.9993 492.777 48.5993C494.697 53.1993 495.617 58.3193 495.617 63.9993C495.617 69.6793 494.657 74.7993 492.777 79.3993C490.897 83.9993 488.217 87.9193 484.817 91.1593C481.417 94.3993 477.377 96.8793 472.737 98.5993C468.057 100.319 462.977 101.199 457.417 101.199C451.857 101.199 446.777 100.319 442.137 98.5993C437.457 96.8793 433.417 94.3993 430.017 91.1593C426.617 87.9193 423.977 83.9993 422.057 79.3993C420.137 74.7993 419.217 69.6793 419.217 63.9993ZM435.417 63.9993C435.417 67.3193 435.937 70.3993 436.977 73.1593C438.017 75.9193 439.497 78.3193 441.417 80.3593C443.337 82.3993 445.657 83.9593 448.377 85.1193C451.057 86.2393 454.097 86.8393 457.417 86.8393C460.737 86.8393 463.777 86.2793 466.457 85.1193C469.137 83.9993 471.457 82.3993 473.417 80.3593C475.337 78.3193 476.817 75.9193 477.857 73.1593C478.897 70.3993 479.417 67.3593 479.417 63.9993C479.417 60.6393 478.897 57.7193 477.857 54.9193C476.817 52.1193 475.337 49.7193 473.417 47.6793C471.497 45.6393 469.177 44.0793 466.457 42.9193C463.737 41.7993 460.737 41.1993 457.417 41.1993C454.097 41.1993 451.057 41.7593 448.377 42.9193C445.657 44.0393 443.377 45.6393 441.417 47.6793C439.497 49.7193 438.017 52.1193 436.977 54.9193C435.937 57.7193 435.417 60.7593 435.417 63.9993Z" fill="#272B38"/>
<defs>
<clipPath id="clip0_2260_32219">
<rect width="128" height="128" fill="white"/>
</clipPath>
</defs>
</svg>
