<svg width="96" height="97" viewBox="0 0 96 97" fill="none" xmlns="http://www.w3.org/2000/svg">
<g clip-path="url(#clip0_2260_32539)">
<path d="M48 3.59961C72.81 3.59961 93 23.7896 93 48.5996C93 73.4096 72.81 93.5996 48 93.5996C23.19 93.5996 3 73.4096 3 48.5996C3 23.7896 23.19 3.59961 48 3.59961ZM48 0.599609C21.48 0.599609 0 22.0796 0 48.5996C0 75.1196 21.48 96.5996 48 96.5996C74.52 96.5996 96 75.1196 96 48.5996C96 22.0796 74.52 0.599609 48 0.599609Z" fill="#272B38"/>
<path d="M28.1996 71.9996V75.5996H67.7996V71.9996H28.1996Z" fill="#272B38"/>
<path d="M28.1996 57.5996H24.5996V71.9996H28.1996V57.5996Z" fill="#272B38"/>
<path d="M67.7996 71.9996H71.3996V57.5996H67.7996V71.9996Z" fill="#272B38"/>
<path d="M49.7996 46.7996V43.1996H53.3996V39.5996H49.7996V32.3996H46.1996V43.1996H35.3996V46.7996H46.1996V61.1996H42.5996V64.7996H38.9996V68.3996H56.9996V64.7996H53.3996V61.1996H49.7996V50.3996H64.1996V46.7996H49.7996Z" fill="#272B38"/>
<path d="M67.7996 43.1996H64.1996V46.7996L67.7996 46.7996V43.1996Z" fill="#272B38"/>
<path d="M35.3996 39.5996H31.7996V43.1996H35.3996V39.5996Z" fill="#272B38"/>
<path d="M56.9996 35.9996H53.3996V39.5996H56.9996V35.9996Z" fill="#272B38"/>
<path d="M31.7996 35.9996H28.1996V39.5996H31.7996V35.9996Z" fill="#272B38"/>
<path d="M56.9996 32.3996V35.9996H67.7996L67.7996 43.1996H71.3996V32.3996H56.9996Z" fill="#272B38"/>
<path d="M46.1996 28.7996H42.5996V32.3996H46.1996L46.1996 28.7996Z" fill="#272B38"/>
<path d="M28.1996 25.1996H38.9996V21.5996H24.5996V35.9996H28.1996L28.1996 25.1996Z" fill="#272B38"/>
<path d="M42.5996 25.1996H38.9996L38.9996 28.7996H42.5996V25.1996Z" fill="#272B38"/>
</g>
<defs>
<clipPath id="clip0_2260_32539">
<rect width="96" height="96" fill="white" transform="translate(0 0.599609)"/>
</clipPath>
</defs>
</svg>
