<svg width="96" height="97" viewBox="0 0 96 97" fill="none" xmlns="http://www.w3.org/2000/svg">
<g clip-path="url(#clip0_2260_32540)">
<path d="M48 3.59961C72.81 3.59961 93 23.7896 93 48.5996C93 73.4096 72.81 93.5996 48 93.5996C23.19 93.5996 3 73.4096 3 48.5996C3 23.7896 23.19 3.59961 48 3.59961ZM48 0.599609C21.48 0.599609 0 22.0796 0 48.5996C0 75.1196 21.48 96.5996 48 96.5996C74.52 96.5996 96 75.1196 96 48.5996C96 22.0796 74.52 0.599609 48 0.599609Z" fill="#272B38"/>
<path fill-rule="evenodd" clip-rule="evenodd" d="M48 21.5996H54H60V27.5996H54H48H42H36V21.5996H42H48ZM30 33.5996V27.5996H36V33.5996H30ZM30 63.5996H24V57.5996H18V51.5996H24V45.5996H18V39.5996H24V33.5996H30V39.5996H36H42H48H54H60V45.5996H54H48H42H36H30V51.5996H36H42H48H54V57.5996H48H42H36H30V63.5996ZM36 69.5996V63.5996H30V69.5996H36ZM60 69.5996H54H48H42H36V75.5996H42H48H54H60V69.5996ZM66 63.5996H60V69.5996H66V63.5996ZM66 63.5996H72V57.5996H66V63.5996ZM66 33.5996H60V27.5996H66V33.5996ZM66 33.5996H72V39.5996H66V33.5996Z" fill="#272B38"/>
</g>
<defs>
<clipPath id="clip0_2260_32540">
<rect width="96" height="96" fill="white" transform="translate(0 0.599609)"/>
</clipPath>
</defs>
</svg>
