<svg width="96" height="97" viewBox="0 0 96 97" fill="none" xmlns="http://www.w3.org/2000/svg">
<g clip-path="url(#clip0_2260_32538)">
<path d="M48 3.59961C72.81 3.59961 93 23.7896 93 48.5996C93 73.4096 72.81 93.5996 48 93.5996C23.19 93.5996 3 73.4096 3 48.5996C3 23.7896 23.19 3.59961 48 3.59961ZM48 0.599609C21.48 0.599609 0 22.0796 0 48.5996C0 75.1196 21.48 96.5996 48 96.5996C74.52 96.5996 96 75.1196 96 48.5996C96 22.0796 74.52 0.599609 48 0.599609Z" fill="#272B38"/>
<path d="M49.9229 52.5231V48.677H53.769V44.831H49.9229V37.1388H46.0768V48.677H30.6925V52.5231H46.0768V67.9074H42.2307V71.7535H38.3846V75.5996H57.615V71.7535H53.769V67.9074H49.9229V56.3692H65.3072V52.5231H49.9229Z" fill="#272B38"/>
<path d="M69.1534 48.6774H65.3074L65.3072 52.5231L69.1534 52.5234V48.6774Z" fill="#272B38"/>
<path d="M72.9994 44.83H69.1534V48.6761H72.9994V44.83Z" fill="#272B38"/>
<path d="M30.6925 44.83H26.8465V48.6761L30.6925 48.677L30.6925 44.83Z" fill="#272B38"/>
<path d="M57.6151 40.9839H53.769L53.769 44.831L57.6151 44.83V40.9839Z" fill="#272B38"/>
<path d="M26.8465 40.9839H23.0004V44.83H26.8465V40.9839Z" fill="#272B38"/>
<path d="M61.4612 37.1388H57.6151V40.9839L61.4612 40.9849V37.1388Z" fill="#272B38"/>
<path d="M61.4612 33.2918V37.1388L72.9994 37.1379L72.9994 44.83H76.8455V33.2918H61.4612Z" fill="#272B38"/>
<path d="M46.0769 33.2918H42.2308V37.1379L46.0768 37.1388L46.0769 33.2918Z" fill="#272B38"/>
<path d="M23.0004 29.4457H38.3847V25.5996H19.1543V40.9839L23.0004 40.9839V29.4457Z" fill="#272B38"/>
<path d="M42.2308 29.4469H38.3847V33.293H42.2308V29.4469Z" fill="#272B38"/>
</g>
<defs>
<clipPath id="clip0_2260_32538">
<rect width="96" height="96" fill="white" transform="translate(0 0.599609)"/>
</clipPath>
</defs>
</svg>
