<svg width="96" height="97" viewBox="0 0 96 97" fill="none" xmlns="http://www.w3.org/2000/svg">
<g clip-path="url(#clip0_2260_32541)">
<path d="M48 4.09961C72.81 4.09961 93 24.2896 93 49.0996C93 73.9096 72.81 94.0996 48 94.0996C23.19 94.0996 3 73.9096 3 49.0996C3 24.2896 23.19 4.09961 48 4.09961ZM48 1.09961C21.48 1.09961 0 22.5796 0 49.0996C0 75.6196 21.48 97.0996 48 97.0996C74.52 97.0996 96 75.6196 96 49.0996C96 22.5796 74.52 1.09961 48 1.09961Z" fill="#272B38"/>
<path d="M60 21.5996V27.5996H36V21.5996H60Z" fill="#272B38"/>
<path d="M30 33.5996V27.5996H36V33.5996H30Z" fill="#272B38"/>
<path d="M30 63.5996H24V57.5996H18V51.5996H24V45.5996H18V39.5996H24V33.5996H30V39.5996H54V45.5996H30V51.5996H48V57.5996H30V63.5996Z" fill="#272B38"/>
<path d="M36 69.5996H30V63.5996H36V69.5996Z" fill="#272B38"/>
<path d="M60 69.5996V75.5996H36V69.5996H60Z" fill="#272B38"/>
<path d="M66 63.5996V69.5996H60V63.5996H66Z" fill="#272B38"/>
<path d="M66 63.5996V57.5996H72V63.5996H66Z" fill="#272B38"/>
<path d="M66 33.5996H60V27.5996H66V33.5996Z" fill="#272B38"/>
<path d="M66 33.5996H72V27.5996H78V45.5996H60V39.5996H66V33.5996Z" fill="#272B38"/>
</g>
<defs>
<clipPath id="clip0_2260_32541">
<rect width="96" height="96" fill="white" transform="translate(0 0.599609)"/>
</clipPath>
</defs>
</svg>
